<?xml version="1.0" encoding="UTF-8"?>
<svg id="Calque_2" data-name="Calque 2" xmlns="http://www.w3.org/2000/svg" viewBox="0 0 114.24 34.15">
  <defs>
    <style>
      .cls-1 {
        fill: #fff;
      }

      .cls-2 {
        fill: #c8d52f;
      }
    </style>
  </defs>
  <g id="Calque_2-2" data-name="Calque 2">
    <g>
      <g>
        <path class="cls-1" d="M33.19,15.83c-.94,2.13-2.98,4.32-6.48,4.32-4.29,0-7.13-2.76-7.42-6.17-.4-4.57,3.04-7.25,7.3-7.25,3.81,0,6.36,2.05,6.22,5.8l-8.78,1.48c.68,3.67,6.17,4.12,8.67,1.42,0,0,.48.37.48.4ZM23.87,12.9l4.66-.8c.14-2.73-.48-4.52-2.44-4.35-1.79.17-2.56,2.44-2.22,5.14Z"/>
        <path class="cls-1" d="M43.47,17.02c-.74,1.76-1.85,3.13-3.95,3.13-2.27,0-4.12-1.51-4.12-4.55v-7.47h-2.22v-1.11c2.81-.14,5.34-1.73,5.94-4.8h.88v4.8h3.01v1.11h-3.01v7.7c0,1.34.48,1.7,1.16,1.85.74.11,1.34-.23,1.76-.94l.54.28Z"/>
        <path class="cls-1" d="M53.42,19.12v.77h-9.38v-.77c2.16,0,2.44-1.48,2.44-3.27v-2.87c0-1.79-.28-3.27-2.44-3.27v-.77c1.65,0,4.55-.68,6.25-2.22h.77v9.12c0,1.79.17,3.27,2.36,3.27ZM45.46,2.7c0-1.48,1.28-2.7,2.84-2.7s2.84,1.22,2.84,2.7-1.28,2.7-2.84,2.7-2.84-1.22-2.84-2.7Z"/>
        <path class="cls-1" d="M63.42,17.02c-.74,1.76-1.85,3.13-3.95,3.13-2.27,0-4.12-1.51-4.12-4.55v-7.47h-2.22v-1.11c2.81-.14,5.34-1.73,5.94-4.8h.88v4.8h3.01v1.11h-3.01v7.7c0,1.34.48,1.7,1.16,1.85.74.11,1.34-.23,1.76-.94l.54.28Z"/>
        <path class="cls-1" d="M12.74,30.19c-.86,1.95-2.73,3.95-5.93,3.95C2.92,34.15.29,31.73.03,28.61c-.36-4.19,2.78-6.73,6.68-6.73s5.1,1.56,5.3,3.04c.16,1.01-.18,2.11-1.12,2.55-.96.47-2.31.16-3.28-1.17,1.38-1.12.88-3.67-1.35-3.48-1.35.13-2.31,1.64-2.21,4,.16,2.96,1.66,4.34,3.98,4.58,1.74.18,3.22-.42,4.29-1.56,0,0,.42.34.42.36Z"/>
        <path class="cls-1" d="M30.89,33.21v.7h-8.35v-.7c1.98,0,2-1.38,1.82-2.99,0,0-.36-2.37-.52-3.33-.23-1.53-.42-2.91-2.21-2.91-1.56,0-2.21,1.38-2.21,3.09v3.15c0,1.64.16,2.99,2.13,2.99v.7h-8.55v-.7c1.98,0,2.24-1.35,2.24-2.99v-7.21c0-1.64-.26-1.67-2.24-1.67v-.66c.63-.04,1.94-.22,3.27-1.18,1.22-.9,1.76-1.74,2.07-2.28.26.01.52.02.78.04l.3,6.64c.78-1.09,2.05-2.03,4.13-2.03,2.63,0,4.03,1.4,4.5,4.68.36,2.6.49,3.67.49,3.67.21,1.53.36,2.99,2.34,2.99Z"/>
        <path class="cls-1" d="M45.61,33.13c-.47.55-1.27,1.01-2.73,1.01s-3.04-.47-3.43-1.72c-.91,1.4-2.37,1.72-3.67,1.72-2.16,0-4.19-.7-4.55-2.6-.36-1.9.6-3.67,3.67-4.29,2.44-.49,3.95.03,3.67-1.77-.23-1.33-.7-2.7-2-2.7-1.64-.13-2.39,1.48-1.38,2.31-.62,1.12-1.69,1.2-2.42.86-.68-.34-.96-1.07-.6-1.98.62-1.69,2.89-2.11,4.37-2.11,4.16,0,5.88,1.38,6.34,4.65.36,2.63.49,3.67.49,3.67.16.91.31,1.95.57,2.29.29.34.86.36,1.46.08.1.29.13.31.21.57ZM39.13,29.88c-.08-.94-.18-1.9-.29-2.55-.21.42-.49.55-1.82.91-1.12.34-1.9,1.3-1.72,2.63.18,1.2,1.35,1.92,2.31,1.66,1.25-.29,1.59-1.4,1.51-2.65Z"/>
        <path class="cls-1" d="M58.87,25.38c-.62,1.51-2.21,1.74-3.07,1.43.26-.91.26-2.03-.75-2.37-1.17-.36-2.11.29-2.21,1.46v4.32c0,1.64.16,2.99,2.13,2.99v.7h-8.58v-.7c2,0,2.24-1.35,2.24-2.99v-2.63c0-1.64-.23-2.99-2.24-2.99v-.7c1.53,0,4.16-.65,5.75-2.03h.7v2.34c.83-1.59,2.08-2.65,4-2.34,1.87.31,2.6,2.03,2.03,3.51Z"/>
        <path class="cls-1" d="M75.2,32.22c-.62,1.33-1.53,1.92-2.99,1.92-1.35,0-2.34-.36-2.89-1.22-.83.73-1.95,1.22-3.22,1.22-3.93,0-6.76-2.47-6.76-6.14s2.81-6.68,6.76-6.14c1.14.16,2.08.68,2.76,1.35v-1.77c0-1.64-.26-2.99-2.24-2.99v-.73c1.51,0,4.16-.62,5.75-2.03h.7v14.48c0,1.25.03,2.16.65,2.31.44.1.78-.1,1.04-.55l.44.26ZM68.57,27.57c-.55-3.09-1.79-4.94-3.38-4.68-1.56.29-2.11,2.44-1.56,5.56.55,3.09,1.79,4.94,3.38,4.68,1.56-.29,2.11-2.44,1.56-5.56Z"/>
        <path class="cls-1" d="M88.95,28.01c0,3.67-2.83,6.14-6.73,6.14s-6.76-2.47-6.76-6.14,2.83-6.14,6.76-6.14,6.73,2.47,6.73,6.14ZM84.68,27.57c-.55-3.12-1.79-4.97-3.38-4.68s-2.11,2.44-1.56,5.56c.55,3.09,1.79,4.94,3.35,4.68,1.59-.29,2.13-2.44,1.59-5.56Z"/>
        <path class="cls-1" d="M107.62,33.21v.7h-8.35v-.7c1.98,0,2-1.4,1.82-2.99,0,0-.36-2.37-.52-3.33-.23-1.53-.42-2.94-2.21-2.94-1.56,0-2.21,1.38-2.21,3.12v3.15c0,1.64.16,2.99,2.13,2.99v.7h-8.55v-.7c1.98,0,2.24-1.35,2.24-2.99v-2.63c0-1.64-.26-2.99-2.24-2.99v-.7c1.51,0,4.16-.65,5.72-2.03h.7v2.03c.78-1.09,2.03-2.03,4.13-2.03,2.63,0,4.03,1.4,4.5,4.68.36,2.6.49,3.67.49,3.67.21,1.53.36,2.99,2.34,2.99Z"/>
        <path class="cls-1" d="M17.92,13.01c0,3.67-2.57,6.71-6.53,6.14-1.3-.18-2.26-.81-2.99-1.59h-.04c0,1.64.47,3.27,2.44,3.27,0,.22,0,.44,0,.65,0,.04,0,.2,0,.25-.19-.1-.45-.23-.77-.35-.15-.06-.41-.15-.87-.25-.77-.17-1.39-.22-1.53-.23-.56-.04-1.73-.12-3.18.26-1.14.3-2.04.78-2.68,1.2,0-.22-.02-.44-.02-.66,0-.18-.01-.36-.02-.54,1.98,0,2.44-1.94,2.44-3.58l.04-4.97c0-1.64-.26-2.99-2.24-2.99v-.7c1.51,0,4.16-.65,5.72-2.03h.7v1.35c.68-.68,1.61-1.2,2.76-1.35,3.95-.55,6.76,2.47,6.76,6.14ZM13.63,12.67c-.55-3.12-1.77-4.97-3.35-4.68-1.59.29-2.13,2.44-1.59,5.56.57,3.09,1.79,4.94,3.38,4.68,1.59-.29,2.11-2.44,1.56-5.56Z"/>
      </g>
      <circle class="cls-2" cx="112.08" cy="31.76" r="2.15"/>
    </g>
  </g>
</svg>