<svg viewBox="0 0 520 520" xmlns="http://www.w3.org/2000/svg">
  <defs>
    <linearGradient id="pc-hero-bg" x1="16%" y1="0%" x2="84%" y2="100%">
      <stop offset="0%" stop-color="#0F0E54" />
      <stop offset="70%" stop-color="#141C6D" />
      <stop offset="100%" stop-color="#081141" />
    </linearGradient>
    <radialGradient id="pc-hero-glow" cx="50%" cy="40%" r="60%">
      <stop offset="0%" stop-color="#27CCBC" stop-opacity="0.9" />
      <stop offset="60%" stop-color="#BFF7E9" stop-opacity="0.65" />
      <stop offset="100%" stop-color="#0F0E54" stop-opacity="0" />
    </radialGradient>
  </defs>
  <rect width="520" height="520" rx="40" fill="url(#pc-hero-bg)" />
  <ellipse cx="260" cy="212" rx="220" ry="152" fill="url(#pc-hero-glow)" />
  <g fill="#D9F20C" opacity="0.7">
    <path d="M116 182l14 26 28 4-20 20 5 28-27-13-26 13 5-28-20-20 28-4z" />
    <path d="M414 132l10 18 20 3-14 14 3 20-19-9-18 9 3-20-14-14 20-3z" />
  </g>
  <g fill="#FFFFFF" opacity="0.85">
    <circle cx="176" cy="124" r="8" />
    <circle cx="452" cy="212" r="7" />
    <circle cx="322" cy="108" r="6" />
  </g>
  <g stroke="#BFF7E9" stroke-width="6" stroke-linecap="round" stroke-linejoin="round" fill="none" opacity="0.85">
    <path d="M156 298l72-76 88 48 60-60 76 96" />
  </g>
  <g fill="#27CCBC">
    <circle cx="224" cy="222" r="12" />
    <circle cx="312" cy="266" r="12" />
    <circle cx="388" cy="200" r="12" />
    <circle cx="440" cy="280" r="12" />
  </g>
  <path
    d="M160 340c44-20 92-28 144-28s100 8 144 28"
    stroke="#BFF7E9"
    stroke-width="4"
    stroke-linecap="round"
    fill="none"
    opacity="0.3"
  />
  <path
    d="M188 372c36-16 76-20 116-20s80 4 116 20"
    stroke="#27CCBC"
    stroke-width="4"
    stroke-linecap="round"
    fill="none"
    opacity="0.3"
  />
</svg>
