<svg xmlns="http://www.w3.org/2000/svg" viewBox="0 0 120 120" role="img" aria-hidden="true" fill="none">
  <defs>
    <pattern id="p4dots" width="6" height="6" patternUnits="userSpaceOnUse">
      <circle cx="1.4" cy="1.4" r="1.4" fill="#0f0e54" opacity="0.16"/>
    </pattern>
  </defs>
  <!-- citron under-ink offset (the flame) -->
  <g transform="translate(-3 4)">
    <path d="M60 96c14 0 22-12 22-26 0-18-22-34-22-34S38 52 38 70c0 14 8 26 22 26Z" fill="#d9f20c"/>
  </g>
  <!-- rocket body -->
  <path d="M60 14c14 12 20 28 20 44 0 8-2 14-4 18H44c-2-4-4-10-4-18 0-16 6-32 20-44Z" fill="#fffdf6" stroke="#0f0e54" stroke-width="3.2" stroke-linejoin="round"/>
  <path d="M60 14c14 12 20 28 20 44 0 8-2 14-4 18H44c-2-4-4-10-4-18 0-16 6-32 20-44Z" fill="url(#p4dots)"/>
  <circle cx="60" cy="46" r="9" fill="#27ccbc" stroke="#0f0e54" stroke-width="3.2"/>
  <!-- fins -->
  <path d="M40 60 26 78l14-2M80 60l14 18-14-2" fill="#27ccbc" stroke="#0f0e54" stroke-width="3.2" stroke-linejoin="round"/>
  <!-- exhaust dashes -->
  <path d="M52 84v10M60 86v14M68 84v10" stroke="#0f0e54" stroke-width="3.2" stroke-linecap="round"/>
  <path d="M98 24v12M92 30h12" stroke="#0f0e54" stroke-width="2"/>
</svg>
