<svg viewBox="0 0 620 620" xmlns="http://www.w3.org/2000/svg">
  <defs>
    <linearGradient id="cc-bg" x1="15%" y1="0%" x2="85%" y2="100%">
      <stop offset="0%" stop-color="#0F0E54" />
      <stop offset="65%" stop-color="#141C6D" />
      <stop offset="100%" stop-color="#081141" />
    </linearGradient>
    <radialGradient id="cc-glow" cx="30%" cy="24%" r="55%">
      <stop offset="0%" stop-color="#27CCBC" stop-opacity="0.55" />
      <stop offset="60%" stop-color="#0F0E54" stop-opacity="0" />
    </radialGradient>
    <linearGradient id="cc-card-a" x1="0%" y1="0%" x2="100%" y2="100%">
      <stop offset="0%" stop-color="#27CCBC" />
      <stop offset="100%" stop-color="#0F9E92" />
    </linearGradient>
  </defs>
  <rect width="620" height="620" rx="44" fill="url(#cc-bg)" />
  <ellipse cx="190" cy="150" rx="260" ry="200" fill="url(#cc-glow)" />

  <!-- calendrier éditorial : grille de posts -->
  <g>
    <rect x="120" y="140" width="380" height="340" rx="28" fill="#0B0A38" opacity="0.6" />
    <rect x="150" y="172" width="102" height="102" rx="16" fill="url(#cc-card-a)" />
    <rect x="266" y="172" width="102" height="102" rx="16" fill="#BFF7E9" opacity="0.9" />
    <rect x="382" y="172" width="102" height="102" rx="16" fill="#0F0E54" stroke="#27CCBC" stroke-width="3" opacity="0.9" />
    <rect x="150" y="288" width="102" height="102" rx="16" fill="#0F0E54" stroke="#D9F20C" stroke-width="3" opacity="0.9" />
    <rect x="266" y="288" width="102" height="102" rx="16" fill="#D9F20C" opacity="0.85" />
    <rect x="382" y="288" width="102" height="102" rx="16" fill="#27CCBC" opacity="0.5" />
    <rect x="150" y="404" width="216" height="44" rx="14" fill="#BFF7E9" opacity="0.28" />
    <rect x="378" y="404" width="106" height="44" rx="14" fill="#27CCBC" opacity="0.4" />
  </g>

  <!-- bulle de conversation / notification d'engagement -->
  <g>
    <path d="M448 96c0-15.5 12.5-28 28-28h44c15.5 0 28 12.5 28 28v34c0 15.5-12.5 28-28 28h-14l-18 20v-20h-12c-15.5 0-28-12.5-28-28v-34z" fill="#D9F20C" opacity="0.92" />
    <circle cx="480" cy="97" r="5" fill="#0F0E54" />
    <circle cx="500" cy="97" r="5" fill="#0F0E54" />
    <circle cx="460" cy="97" r="5" fill="#0F0E54" />
  </g>

  <circle cx="106" cy="470" r="9" fill="#FFFFFF" opacity="0.7" />
  <circle cx="522" cy="440" r="6" fill="#BFF7E9" opacity="0.7" />
  <circle cx="96" cy="220" r="6" fill="#D9F20C" opacity="0.6" />
</svg>
