<svg viewBox="0 0 620 620" xmlns="http://www.w3.org/2000/svg">
  <defs>
    <linearGradient id="li-bg" x1="15%" y1="0%" x2="85%" y2="100%">
      <stop offset="0%" stop-color="#0F0E54" />
      <stop offset="70%" stop-color="#171A5E" />
      <stop offset="100%" stop-color="#081141" />
    </linearGradient>
    <linearGradient id="li-cup" x1="0%" y1="0%" x2="0%" y2="100%">
      <stop offset="0%" stop-color="#BFF7E9" stop-opacity="0.9" />
      <stop offset="100%" stop-color="#27CCBC" stop-opacity="0.55" />
    </linearGradient>
    <radialGradient id="li-glow" cx="50%" cy="20%" r="50%">
      <stop offset="0%" stop-color="#D9F20C" stop-opacity="0.22" />
      <stop offset="60%" stop-color="#0F0E54" stop-opacity="0" />
    </radialGradient>
  </defs>
  <rect width="620" height="620" rx="44" fill="url(#li-bg)" />
  <ellipse cx="310" cy="150" rx="240" ry="180" fill="url(#li-glow)" />

  <!-- verre de café glacé : gobelet, glaçons, paille -->
  <path d="M232 220h156l-20 258c-2 22-20 38-42 38h-32c-22 0-40-16-42-38l-20-258z" fill="url(#li-cup)" stroke="#BFF7E9" stroke-width="4" />
  <path d="M226 220h168l6-34H220z" fill="#0F0E54" stroke="#BFF7E9" stroke-width="4" />
  <rect x="296" y="112" width="18" height="118" rx="9" fill="#D9F20C" transform="rotate(8 305 171)" />

  <g fill="#FFFFFF" opacity="0.75">
    <rect x="256" y="268" width="40" height="40" rx="10" transform="rotate(12 276 288)" />
    <rect x="312" y="300" width="36" height="36" rx="9" transform="rotate(-10 330 318)" />
    <rect x="266" y="352" width="34" height="34" rx="8" transform="rotate(6 283 369)" />
  </g>

  <path d="M250 420c40 18 80 18 120 0" stroke="#0F0E54" stroke-width="5" stroke-linecap="round" fill="none" opacity="0.5" />

  <circle cx="150" cy="470" r="9" fill="#27CCBC" opacity="0.7" />
  <circle cx="480" cy="440" r="7" fill="#D9F20C" opacity="0.65" />
  <circle cx="460" cy="150" r="6" fill="#BFF7E9" opacity="0.7" />
  <circle cx="160" cy="180" r="6" fill="#FFFFFF" opacity="0.6" />
</svg>
