<svg viewBox="0 0 720 520" xmlns="http://www.w3.org/2000/svg">
  <defs>
    <linearGradient id="pc-kit-bg" x1="0%" y1="0%" x2="100%" y2="100%">
      <stop offset="0%" stop-color="#061037" />
      <stop offset="100%" stop-color="#131D59" />
    </linearGradient>
  </defs>
  <rect width="720" height="520" rx="36" fill="url(#pc-kit-bg)" />
  <rect x="100" y="120" width="220" height="280" rx="26" fill="#101A4F" opacity="0.92" />
  <rect x="148" y="168" width="124" height="96" rx="18" fill="#27CCBC" opacity="0.8" />
  <rect x="148" y="292" width="124" height="80" rx="18" fill="#BFF7E9" opacity="0.75" />
  <circle cx="210" cy="226" r="18" fill="#D9F20C" opacity="0.8" />
  <rect x="360" y="152" width="260" height="72" rx="22" fill="#27CCBC" opacity="0.65" />
  <rect x="360" y="248" width="260" height="72" rx="22" fill="#BFF7E9" opacity="0.7" />
  <rect x="360" y="344" width="260" height="72" rx="22" fill="#101A4F" opacity="0.8" />
  <g stroke="#FFFFFF" stroke-width="6" stroke-linecap="round" opacity="0.7">
    <path d="M384 188h212" />
    <path d="M384 284h212" />
    <path d="M384 380h212" />
  </g>
  <g fill="#27CCBC" opacity="0.85">
    <circle cx="456" cy="218" r="10" />
    <circle cx="522" cy="218" r="10" />
  </g>
  <g fill="#D9F20C" opacity="0.85">
    <circle cx="456" cy="314" r="10" />
    <circle cx="522" cy="314" r="10" />
  </g>
  <g fill="#FFFFFF" opacity="0.85">
    <circle cx="456" cy="410" r="10" />
    <circle cx="522" cy="410" r="10" />
  </g>
  <path
    d="M132 372h156"
    stroke="#27CCBC"
    stroke-width="6"
    stroke-linecap="round"
    opacity="0.4"
  />
  <path
    d="M132 404h144"
    stroke="#BFF7E9"
    stroke-width="6"
    stroke-linecap="round"
    opacity="0.4"
  />
</svg>
