<?xml version="1.0" encoding="UTF-8"?>
<svg id="Calque_2" data-name="Calque 2" xmlns="http://www.w3.org/2000/svg" viewBox="0 0 1008.51 647.09">
  <defs>
    <style>
      .cls-1 {
        fill: #bff7e9;
      }

      .cls-2 {
        fill: #27ccbc;
      }
    </style>
  </defs>
  <g id="Groupe_de_calques" data-name="Groupe de calques">
    <g id="Calque_vectoriel" data-name="Calque vectoriel">
      <g>
        <path class="cls-2" d="M733.62,263.76s0,0,0,0c0,0,0,0,0,0h0s0,0,0,0Z"/>
        <path class="cls-2" d="M733.62,263.77s0,0,0,0c0,0,0,0,0,0Z"/>
        <path class="cls-2" d="M733.72,264.45h0s0,0,0,0c0,0,0,0,0,0,0,0,0,0,0,0Z"/>
        <path class="cls-2" d="M733.62,263.69s0,0,0,.01c0,0,0,0,0-.01Z"/>
        <path class="cls-2" d="M733.73,264.46s0,.01,0,.01c0,0,0,0,0-.01Z"/>
        <path class="cls-2" d="M744.44,260s0,0,0,0h0s0,0,0,0h0c-.34-.13-.76-.04-1.13,0,.28-.1.8-.15,1.14-.02.03,0,0,.07,0,.03Z"/>
        <path class="cls-2" d="M733.62,263.76s0,0,0,0c0,0,0,0,0,0Z"/>
        <path class="cls-2" d="M733.62,263.77s0,0,0,0h0s0,0,0,0h0s0,0,0,0c0,0,0,0,0,0Z"/>
        <path class="cls-2" d="M733.62,263.77s0,0,0,0c0,0,0,0,0,0h0Z"/>
        <path class="cls-2" d="M733.62,263.77h0s0,0,0,0c0,0,0,0,0,0Z"/>
        <path class="cls-2" d="M733.64,264.1s0,0,0,0c0,0,0,0,0,0,0,0,0,0,0,0Z"/>
        <path class="cls-2" d="M733.72,264.45s0,.01,0,.02c0,0,0,0,0-.02Z"/>
        <path class="cls-2" d="M644.73,273.05s0,0,0,.01c0,0,0,0,0-.01Z"/>
        <path class="cls-2" d="M644.46,273.57s0,0,0,0c0,0,0,0,0,0Z"/>
        <path class="cls-2" d="M644.46,273.57s0,0,0,0c0,0,0,0,0,0,0,0,0,0,0,0Z"/>
        <path class="cls-2" d="M644.44,273.59s0,0,0,0c0,0,0,0,0,0Z"/>
        <path class="cls-2" d="M644.41,273.62s0,0,0,0c0,0,0,0,0,0,0,0,0,0,0,0Z"/>
        <path class="cls-2" d="M644.4,273.63s0,0,0,0c0,0,0,0,0,0,0,0,0,0,0,0,0,0-.02.01-.03.02,0,0,.02-.02.03-.02Z"/>
        <path class="cls-2" d="M644.37,273.65h0s0,0,0,0c0,0,0,0,0,0Z"/>
        <path class="cls-2" d="M644.37,273.66s0,0,0,0c0,0,0,0,0,0,0,0,0,0,0,0,0,0,0,0,0,0Z"/>
        <path class="cls-2" d="M644.36,273.66s0,0,0,0c0,0-.01,0-.02.01h0s.01-.01.02-.02Z"/>
        <path class="cls-2" d="M644.34,273.68h0l-.03.02s0,0-.01.01l.04-.04Z"/>
        <path class="cls-2" d="M644.59,273.46s0,0,0,0c0,0,0,0,0,0,0,0,0,0,0,0h0Z"/>
        <path class="cls-2" d="M644.45,273.58s0,0,0,0c0,0,0,0,0,0h0Z"/>
        <path class="cls-2" d="M644.42,273.61s0,0,0,0,0,0,0,0c0,0,0,0,0,0Z"/>
        <path class="cls-2" d="M644.42,273.61s0,0,0,0c0,0,0,0,0,0Z"/>
        <path class="cls-2" d="M644.41,273.61s0,0,0,0c0,0,0,0,0,0Z"/>
        <path class="cls-2" d="M644.34,273.68s0,0,0,0c0,0,0,0,0,0Z"/>
        <path class="cls-2" d="M644.6,273.45s0,0,.01-.01c0,0,0,0,0,0,0,0,0,0-.01.01,0,0,0,0,0,0,0,0,0,0,0,0Z"/>
        <path class="cls-2" d="M644.6,273.46s0,0,0,0c0,0,0,0,0,0,0,0,0,0,0,0Z"/>
        <path class="cls-2" d="M644.6,273.45h0s0,0,0,0c0,0,0,0,0,0,0,0,0,0,0,0,0,0,0,0,0,0Z"/>
        <path class="cls-2" d="M644.59,273.46s0,0,0,0c0,0,0,0,0,0h0Z"/>
        <path class="cls-2" d="M644.59,273.46s0,0,0,0c0,0,0,0,0,0Z"/>
        <path class="cls-2" d="M644.59,273.46h0s0,0,0,0c0,0,0,0,0,0Z"/>
        <path class="cls-2" d="M644.52,273.52s-.01.01-.02.02c0,0,.01-.01.02-.02Z"/>
        <path class="cls-2" d="M644.5,273.54s-.02.01-.03.02c0,0,.02-.01.03-.02Z"/>
        <path class="cls-2" d="M644.47,273.57s0,0,0,0h0Z"/>
        <path class="cls-1" d="M744.44,260s.03-.02,0-.03c-.34-.13-.85-.08-1.14.02.38-.04.8-.13,1.13,0h0ZM915.58,286.94c-.53-.24-1.06-.47-1.6-.7.54.23,1.07.47,1.6.7ZM917.52,287.8c.58.26,1.16.53,1.74.8-.58-.27-1.16-.53-1.74-.8ZM1008.51,30.27c-.08.3-.17.61-.25.91-.17.64-.34,1.29-.51,1.94-.06.24-.12.48-.18.73,0,0,0,0,0,0-.07.29-.14.58-.21.87,0,.03-.01.07-.02.1-.06.26-.12.52-.18.78-.09.39-.18.78-.27,1.16-.03.15-.07.3-.1.46-.03.14-.06.28-.09.42,0,.03-.01.06-.02.1h0c-.01.06-.03.13-.04.19-.03.17-.07.34-.11.51-.4,1.9-.72,3.81-1.02,5.72-.04.27-.08.55-.13.82,0,.02,0,.04-.01.07-.05.31-.1.63-.15.95-.06.39-.12.78-.18,1.17-.21,1.36-.38,2.72-.54,4.09-.06.53-.13,1.07-.19,1.61-1.64,5.98-3.73,11.83-5.58,17.75-4.4,13.83-7.89,27.91-11.88,41.86-5.04,16.92-9.09,34.11-13.55,51.19-6.22,22.51-12.67,44.95-18.67,67.52-4.81,17.64-9.11,35.42-12.56,53.38-.99,4.78-2.6,9.31-4.27,13.82,0,0,.01,0,.02.01-.06.12-.1.24-.15.36t0,0h0s0,.02,0,.03c0,0,0,0,0,0h0c-.03.08-.06.15-.08.22-.01.06-.03.11-.04.16-.01.03-.03.06-.04.1-.04.09-.08.19-.13.28,0,.02-.01.04-.02.05-.03.07-.06.14-.1.22-.03.06-.06.12-.09.19-.03.06-.05.11-.08.17-.02.06-.05.12-.07.18h0s0,0,0,0h0s0,.02-.01.03c0,0,0,0,0,0h0s0,0,0,.01c0,0,0,0,0,0h0s0,.01,0,.01c0,0,0,.01-.01.02,0,0,0,.02,0,.03,0,0,0,0,0,0-.04-.02-.07-.04-.11-.05-.14-.06-.28-.09-.43-.13-.22-.06-.43-.13-.66-.14-.09,0-.18-.02-.27-.03-.03,0-.07,0-.1,0-.02,0-.03,0-.05,0s-.03,0-.05,0c-.02,0-.05,0-.07-.01,0,0-.02,0-.03,0h0s-.01,0-.02,0-.01,0-.01,0c-.03,0-.06,0-.09,0-.02,0-.05,0-.07-.01-.02,0-.05-.01-.07-.01-.04-.01-.09-.02-.13-.03h0s0,0,0,0,0,0,0,0h0s0,0,0,0,0,0,0,0h0s0,0-.01,0c-.15-.04-.3-.07-.45-.11-.01,0-.03,0-.05-.01-.09-.02-.18-.04-.27-.06-.11-.03-.22-.04-.33-.05-.18-.02-.36-.04-.55-.05-13.41-3.46-25.9-9.74-38.39-15.61-4.02-1.88-8.1-3.64-12.19-5.38-3.66,6.68-7.43,13.31-12.17,19.3-10.32,13.51-20.24,27.33-31.13,40.4-6.43,7.75-12.61,15.71-19.45,23.1-6.63,6.93-12.43,14.76-20.04,20.67-3.81,2.98-7.77,5.8-12.02,8.12-.9.45-1.8.92-2.72,1.3-.07,0-.14.02-.21.04-.05,0-.1.02-.16.03h0c-.09.02-.18.03-.27.06-.11.03-.22.07-.32.11-.1.04-.2.08-.3.11-.03-.03-.07-.07-.1-.1,0,0,0,0,0,0-4.15-6.76-7.99-13.72-11.02-21.07-4.9-11.99-9.45-24.13-14.78-35.95-6.62-14.75-12.01-30-17.14-45.31-3.03-8.08-5.09-16.47-6.86-24.91,0-.02,0-.04,0-.07,0-.03-.01-.06-.03-.09h0s0,0,0,0c0,0,0,0,0-.01h0s0,0,0,0c-.01-.02-.02-.04-.03-.07,0,0,0,0,0-.01,0-.03-.01-.05-.02-.08,0-.01,0-.02,0-.04h0v-.02s0,0,0-.01h0s0,0,0,0c0-.01,0-.02,0-.03h0v-.02s0,0,0,0h0s0-.01,0-.01h0v-.02h0v-.02h0s0-.01,0-.02c0-.03,0-.05,0-.07,0-.03,0-.06,0-.09,0-.02,0-.04,0-.06,0,0,0-.02,0-.03h0s0-.04,0-.06h0s0-.01,0-.01h0v-.02s0-.03,0-.05h0c0-.06-.03-.1-.06-.13,0-.03-.01-.07-.02-.1-1.53.33-3.04.87-4.55,1.27-5.69,1.53-11.46,2.79-17.28,3.69-7.97,1.19-16.02,1.84-24.02,2.83-10.77,1.33-21.56,3.06-32.43,3.06-.95,0-1.89-.01-2.84-.04-2.02-.06-4.04-.12-6.05-.2-.07.04-.14.06-.22.1-.02,0-.04,0-.06,0-.72-.05-1.44-.1-2.16-.12.02-.02.05-.04.07-.07h0c.1-.09.2-.18.3-.27,0,0,0,0,.01-.01,0,0,0,0,.01,0h0s0,0,0,0h0s0,0,0,0h0s0,0,0,0h0s0-.01.01-.02h0s0,0,0,0h0s0,0,0,0h0s0,0,0,0h0s0,0,0,0c0,0,.02-.01.03-.02h0s0,0,0,0h0s0,0,0,0h0s0,0,0,0h0s0,0,0,0c0,0,.01-.01.02-.02h0s0,0,0,0c0,0,0,0,0,0h0s0,0,0,0h0s0,0,0,0h0s0,0,0,0c0,0,0,0,.01,0h0s0,0,.01-.01h0s.01-.01.02-.02c.01-.01.02-.02.04-.03,0,0,0,0,0,0,0,0,0,0,0,0,0,0,0,0,0,0h0s0,0,0,0h0s0,0,0,0h0s0-.01.01-.02c.44-.38.88-.77,1.31-1.15.09-.08.17-.15.26-.23.13-.11.25-.23.37-.35.18-.18.35-.37.53-.56,0,0,0-.01.01-.01,0,0,.01-.01.02-.02.02-.02.04-.04.06-.06.08-.09.16-.17.24-.26,4.42-3.94,8.76-7.97,13.33-11.74,7.86-6.23,16.24-11.8,24.13-17.99,14.59-11.53,29.99-21.79,45.44-31.97,10.26-7,20.54-13.58,30.83-20.48,17.93-13.11,36.06-25.96,54.14-38.86,20.05-13.8,40.53-26.95,60.71-40.56,15.18-10.79,30.62-21.22,46.27-31.33,8.67-5.65,17.65-10.8,26.27-16.51,10.61-7.13,21.87-13.22,32.78-19.87,6.1-3.73,12.83-6.12,19.59-8.36,1.42-.73,2.88-1.39,4.4-1.94,1.08-.19,2.21-.52,3.22-.94Z"/>
        <path class="cls-1" d="M404.51,534.46c3.39-6.17,6.17-13.37,4.79-20.5-2.42-10.54-12.66-17.85-23.1-19.02-9.15-1.01-18.57,1.41-26.42,6.12-8.19,5.64-15.36,12.76-20.95,20.99-8.66,12.44-10.72,28.6-6.88,43.12,1.68,6.2,4.91,11.84,8.53,17.1.43.64.91,1.27,1.37,1.9,16.13-7.76,31.47-17.21,44.85-29.17,6.87-6.14,13.2-12.65,17.8-20.55ZM751.11,431.93c-4.11,8.87-8.23,17.81-13.9,25.81-10.5,14.15-21.92,27.58-33.03,41.24-19.36,23.69-40.8,45.62-63.85,65.73-17.41,15.5-36.69,28.83-57.22,39.84-13.62,7.54-27.77,14.2-42.73,18.57-15.25,4.49-30.8,8.11-46.54,10.29-19.75,2.39-39.82,2.84-59.62.79-34.29-3.75-70.89-13.72-94.41-40.54-30.89,14.6-63.89,24.32-97.23,31.49-22.69,5.25-45.75,8.59-68.81,11.75-31.03,3.79-62.19,6.33-93.38,8.22-12.3.67-24.61,1.3-36.93,1.61-8.94.31-17.89.64-26.82-.08-3.2-.16-6.44-.44-9.63-.3-.6.08-1.32.03-1.82.35h0s.02.03.03.03c0,0,0,.02,0,.02-.05-.01-.06-.04-.03-.09.8-.51,1.84-.62,2.74-.91,6.26-1.57,12.52-3.24,18.91-4.22,16.47-1.76,33.33-1.77,49.83-3.01,87.38-6.97,177.7-14.07,258.34-51.07-5.31-7.35-9.95-15.46-11.47-24.51-2.97-16.28,0-33.87,10.15-47.19,6.05-8.27,13.56-15.52,22.03-21.29,9.93-5.95,21.98-8.77,33.48-6.97,12.83,2.11,24.45,11.8,27.69,24.57,1.81,7.25-.19,14.82-3.05,21.53-4.63,10.43-12.51,19.06-20.99,26.53-13.8,12.2-29.3,22.32-45.97,30.14,24.25,26.17,61.19,34.9,95.57,37.46,31.8,2.12,63.8-2.02,94.21-11.48,17.53-5.13,34.06-13.1,49.76-22.38,17.3-10.07,33.62-21.79,48.6-35.07,17.02-15.16,33.71-31.23,48.67-48.33,16.59-19.01,32.21-38.83,47.87-58.6,6-7.13,12.91-13.51,19.56-19.97Z"/>
        <path class="cls-2" d="M728.46,232.8s0,0,0,0c0,0,0,0,0,0Z"/>
        <path class="cls-2" d="M728.46,232.8s0,0,0,0c0,0,0,0,0,0h0s0,0,0,0Z"/>
        <path class="cls-2" d="M728.46,232.81s0,0,0,0c0,0,0,0,0,0Z"/>
        <path class="cls-2" d="M728.56,233.49h0s0,0,0,0c0,0,0,0,0,0,0,0,0,0,0,0Z"/>
        <path class="cls-2" d="M728.46,232.73s0,0,0,.01c0,0,0,0,0-.01Z"/>
        <path class="cls-2" d="M728.57,233.5s0,.01,0,.01c0,0,0,0,0-.01Z"/>
        <path class="cls-2" d="M778.41,360.91c-4.15-6.76-8-13.73-11.02-21.07-4.9-11.99-9.45-24.13-14.78-35.95-6.62-14.75-12.01-30-17.14-45.32-3.03-8.08-5.09-16.47-6.86-24.91,0-.02,0-.04,0-.07,0-.03-.01-.06-.03-.09,0,0,0-.01,0-.02t0,0c-.02-.11-.05-.22-.07-.33,0-.06-.02-.13-.03-.2,0-.03,0-.06,0-.09h0s0-.05,0-.07h0s0,0,0,0h0s0,0,0,0h0s0,0,0,0h0s0,0,0,0h0s0-.01,0-.02c0,0,0,0,0,0,0-.01,0-.02,0-.03h0s0-.03,0-.04h0s-.03-.07-.06-.1c-.02-.13-.04-.25-.07-.38.02,0,.04,0,.06,0,.08.01.16.03.25.03,0,0-.01,0-.02,0h.01s.01,0,.02,0h0s.06,0,.1,0c.02,0,.03,0,.05,0,.05,0,.1-.02.14-.06,0,0,0,0,0,0h0s0-.02.01-.02c0,0,0,0-.01.01,0,0,.01-.01.02-.02,0,0,0,0,0,0,.08-.09.16-.18.25-.26.06-.05.11-.11.16-.16.06-.06.12-.12.18-.18.06-.06.12-.12.17-.18,4.36,5.72,8.26,11.81,11.08,18.44,4.88,12.74,8.91,25.79,14.06,38.43,4.31,10.63,8.1,21.47,12.31,32.13,2.18,5.89,4.47,11.74,6.46,17.7,2.37,7.4,4.19,15.02,5.79,22.6-.09.01-.18.03-.27.05-.11.03-.22.07-.32.11-.1.04-.2.08-.3.11-.03-.04-.07-.07-.1-.1Z"/>
        <path class="cls-2" d="M779.09,360.33c1.99-8.35,4.65-16.67,7.97-24.62,6.55-14.3,14.02-28.12,21.34-42.04,3.16-6.26,6.39-12.48,9.59-18.72,6.64-13.29,12.92-26.78,20.77-39.42,1.88-3.05,3.75-6.2,5.59-9.23-1.26,3.97-2.49,7.96-3.82,11.91-2.77,8.35-6.3,16.41-9.92,24.41-6.44,14.74-12.81,29.43-20.16,43.76-5.32,10.57-10.27,20.18-15.26,30.57-4.07,8.6-10.39,15.82-16.07,23.34.09-.08.03.04-.02.04Z"/>
        <path class="cls-2" d="M932.49,267.83s0,0,0,.01c0,0,0,0,0-.01Z"/>
        <path class="cls-2" d="M931.81,269.48s0,0,0,0c0,0,0,0,0,0,0,0,0,0,0,0Z"/>
        <path class="cls-2" d="M932.5,267.8s0,0,0,0c0,0,0,0,0,0Z"/>
        <path class="cls-2" d="M929.55,269.06h0s0,0,0,0c0,0,0,0-.01,0Z"/>
        <path class="cls-2" d="M929.56,269.06s0,0,0,0c0,0,0,0,0,0,0,0,0,0,0,0Z"/>
        <path class="cls-2" d="M931.67,269.48c-.14-.06-.28-.09-.43-.13-.22-.06-.43-.13-.66-.14-.09,0-.18-.02-.27-.03-.07,0-.14-.01-.21-.02-.03,0-.06,0-.09-.01h0s.01,0,.02,0c0,0-.01,0-.02,0,0,0,0,0-.01,0,0,0-.02,0-.03,0,.01,0,.02,0,.03,0,0,0,0,0,0,0-.04,0-.09-.01-.13-.02-.09-.01-.19-.04-.28-.06,0,0,0,0,.01,0,0,0-.01,0-.02,0,0,0,0,0,0,0-.01,0-.02,0-.03,0,0,0,0,0,0,0,0,0,0,0-.01,0-.17-.04-.33-.08-.5-.12-.09-.02-.18-.04-.27-.06-.13-.03-.26-.05-.39-.06.02,0,.04,0,.06,0-.18-.02-.36-.04-.55-.05-13.41-3.45-25.9-9.74-38.39-15.61-14.15-6.6-28.98-11.82-42.53-19.64-1.73-.96-3.45-1.97-5.19-2.91,1.44.07,3.05.18,4.54.36,9.57,1.21,18.59,4.81,27.36,8.7,1.9.83,3.79,1.67,5.68,2.52.03.01.06.03.08.05.1.06.18.12.28.16.08.04.17.05.25.08.03.01.06.02.09.03,8.36,3.77,16.67,7.67,25.14,11.22,9.68,4.06,18.7,8.39,27.43,13.69-.06.12-.11.24-.15.37t0,0s0,0,0,0c0,0,0,0,0,0,0,0,0,0,0,0,0,.01,0,.02-.01.03-.03.08-.06.15-.08.22-.01.06-.03.11-.04.16-.01.03-.03.06-.04.1-.08.18-.16.36-.24.54-.03.06-.06.13-.09.19-.07.14-.12.28-.18.42h0s-.02.04-.02.06c-.04-.02-.08-.04-.12-.05Z"/>
        <path class="cls-2" d="M739.28,229.04s0,0,0,0h0s0,0,0,0h0c-.34-.13-.76-.04-1.13,0,.28-.1.8-.15,1.14-.02.03,0,0,.07,0,.03Z"/>
        <path class="cls-2" d="M728.46,232.73h0s0,0,0,.01v.02s0-.02,0-.03Z"/>
        <path class="cls-2" d="M728.46,232.8s0,0,0,0c0,0,0,0,0,0Z"/>
        <path class="cls-2" d="M728.46,232.81s0,0,0,0h0s0,0,0,0h0s0,0,0,0c0,0,0,0,0,0Z"/>
        <path class="cls-2" d="M728.46,232.81s0,0,0,0c0,0,0,0,0,0,0,0,0,0,0,0Z"/>
        <path class="cls-2" d="M728.46,232.81h0s0,0,0,0c0,0,0,0,0,0Z"/>
        <path class="cls-2" d="M728.48,233.14s0,0,0,0c0,0,0,0,0,0,0,0,0,0,0,0Z"/>
        <path class="cls-2" d="M728.48,233.16s0,0,0,0h0s0,0,0,0Z"/>
        <path class="cls-2" d="M728.49,233.26s0,0,0,0h0s0,0,0,0Z"/>
        <path class="cls-2" d="M728.57,233.51s0-.01,0-.02c0,0,0,0,0,0,0,0,0,0,0,0,0,0,0,0,0,0h0s-.02-.04-.03-.07c0,0,0,0,0-.01h0s-.02-.06-.03-.1c0,0,0,.02,0,.03,0-.01,0-.03,0-.04h0s0,0,0,0h0s0-.02,0-.02,0,0,0,0c0-.01,0-.03,0-.04h0s0-.01,0-.02h0s0-.01,0-.02h0s0-.01,0-.02h0s0-.01,0-.02c0-.03,0-.05,0-.07,0-.06-.01-.12-.01-.18h0s0-.04,0-.06h0s0,0,0,0h0s0-.01,0-.02c0-.02,0-.03,0-.05h0c.14-.17.28-.32.42-.48.02-.01.03-.02.05-.04,0,0,0,0,0,0h0s.01-.02.02-.03c0,0-.01.01-.02.02.09-.09.17-.19.26-.27.06-.05.11-.1.16-.16.06-.06.12-.12.18-.18.07-.07.14-.14.2-.21,0,0-.01.01-.02.02.01-.01.02-.02.04-.04l-.02.02c.05-.05.1-.1.14-.16,0,0-.01.01-.02.02.03-.04.07-.08.1-.12,0,0-.01.01-.02.02.01-.01.02-.02.03-.04.02-.03.02-.06.02-.09,4.81-5.31,9.61-10.64,14.78-15.59,4.35-4.12,8.7-8.22,12.97-12.42,32.73-32.59,67.68-62.82,103.74-91.65,23.62-19.38,47.6-38.31,71.74-57.02,20.99-16.09,41.59-32.83,63.49-47.68,1.88-1.27,3.78-2.53,5.7-3.77-.32,1.29-.62,2.58-.9,3.88-2.4,2.03-4.81,4.04-7.24,6.05-31.37,24.54-62.4,49.51-93.02,74.97-28.52,23.41-57.07,46.8-84.89,71.04-20.43,17.39-39.28,36.49-59.26,54.38-4.63,4.24-9.3,8.46-14.64,11.8-3.62,2.36-7.31,4.63-11.02,6.86-.95.57-1.93,1.08-2.89,1.65Z"/>
        <path class="cls-2" d="M728.56,233.49s0,.01,0,.02c0,0,0,0,0-.02Z"/>
        <path class="cls-2" d="M841.85,229.91c-.07-.22.23-.5.28-.7,0,.16-.2.41-.2.62,1.29-1.33,2.06-3.1,2.92-4.72,2.25-4.56,4.5-9.12,7.01-13.54,7.83-13.13,16.39-25.83,24.82-38.58,11.31-17.35,22.81-34.57,34.7-51.53,11.89-16.65,24.19-33,36.27-49.51,12.4-16.2,24.46-32.65,36.77-48.93,4.55-5.95,8.96-12.03,13.9-17.68,1.55-1.74,3.15-3.44,4.76-5.12-.65,2.4-1.22,4.81-1.74,7.24-.53,2.5-.91,5.03-1.31,7.56-4.31,6.13-9.01,12-13.49,18.01-9.06,12.2-18.05,24.46-27.31,36.52-25.1,33.4-49.88,67.19-72.83,102.1-6.57,9.73-13.63,19.9-20.01,29.59-3.87,5.84-8.15,12.04-12.81,17.1-3.52,3.95-7.04,7.96-11.14,11.32-.07.05-.31.29-.49.29-.04,0-.08-.01-.12-.05Z"/>
        <path class="cls-2" d="M931.83,269.43h0s0,0,0,0c0,0,0,0,0,0Z"/>
        <path class="cls-2" d="M931.82,269.43h0s0,0,0,.01c0,0,0,0,0,0h0s0,0,0,0c0,0,0,0,0,0,0,0,0-.01,0-.02Z"/>
        <path class="cls-2" d="M931.81,269.46s0,.02,0,.02c0,0,0-.02,0-.02Z"/>
        <path class="cls-2" d="M931.82,269.44s0,0,0,0c0,0,0,0,0,0,0,0,0,0,0,0Z"/>
        <path class="cls-2" d="M929.58,269.07s0,0,0,0c0,0,0,0,0,0,0,0,0,0,0,0Z"/>
        <path class="cls-2" d="M929.59,269.07s0,0,0,0h0s0,0-.01,0Z"/>
        <path class="cls-2" d="M929.6,269.07s0,0,0,0c0,0,0,0,0,0Z"/>
        <path class="cls-2" d="M931.67,269.48c-.14-.06-.28-.09-.43-.13-.22-.06-.43-.13-.66-.14-.09,0-.18-.02-.27-.03-.07,0-.14-.01-.21-.02-.03,0-.06,0-.09-.01,0,0,.02,0,.03,0-.02,0-.04,0-.06,0,.01,0,.03,0,.04,0-.04,0-.09-.01-.13-.01-.09-.02-.18-.04-.27-.06,0,0,0,0-.01,0,0,0,0,0,0,0,0,0,0,0-.01,0,0,0-.01,0-.01,0,0,0,0,0,.01,0,0,0,0,0,0,0-.01,0-.02,0-.03,0,0,0,0,0,.01,0-.15-.04-.31-.07-.47-.11.23-4.55.43-9.1,1.02-13.63,4.77-28.59,12.84-56.48,20.42-84.42,2.99-11.2,6.18-22.34,9.14-33.55,4.51-17.25,8.31-34.68,13.2-51.84,5.03-17.23,8.95-34.8,14.85-51.76,2.09-6.22,4.24-12.24,7.17-18.09,2.16-4.2,4.28-8.61,7.37-12.22-.32,1.34-.63,2.68-.91,4.02-.61,2.89-1.03,5.81-1.49,8.73-.21,1.36-.38,2.72-.54,4.09-.06.53-.13,1.07-.19,1.61-1.64,5.98-3.73,11.83-5.58,17.75-4.4,13.83-7.89,27.91-11.88,41.86-5.04,16.92-9.09,34.11-13.55,51.19-6.22,22.51-12.67,44.95-18.67,67.52-4.81,17.64-9.11,35.42-12.56,53.38-1.08,5.21-2.9,10.14-4.73,15.06-.03.07-.06.14-.1.22-.03.06-.06.12-.09.19-.05.11-.1.23-.15.34h0s0,0,0,0c0,0,0,0,0,0h0s-.03.08-.05.12c-.04-.02-.08-.04-.11-.05Z"/>
        <path class="cls-2" d="M778.41,360.91c2.35-1.85,3.92-4.54,5.8-6.84,2.88-3.71,5.75-7.42,8.69-11.07,11.87-13.36,23.68-26.1,34.55-40.12,15.48-18.7,28.79-39.24,45.97-56.48,1.57-1.59,3.19-3.16,4.81-4.73.3.15.6.28.91.4.11.06.21.12.32.18.1.06.18.12.28.16.08.04.17.06.25.08.07.02.13.05.19.07-4.62,8.41-9.05,16.97-15.03,24.52-10.32,13.51-20.24,27.33-31.13,40.4-6.43,7.75-12.61,15.71-19.45,23.1-6.63,6.93-12.43,14.76-20.04,20.67-3.81,2.98-7.77,5.8-12.02,8.12-.9.45-1.8.92-2.72,1.3-.07,0-.14.02-.21.03-.15.03-.29.04-.43.08-.11.03-.22.07-.32.11-.1.04-.2.07-.3.11-.03-.04-.07-.07-.11-.1Z"/>
        <path class="cls-2" d="M729.74,232.29s.08,0,.13-.01h0s.06,0,.07,0c.01,0,.02,0,.02,0h0s0,0,0,0h0c-.07,0-.14,0-.21,0Z"/>
        <path class="cls-2" d="M639.57,242.09s0,0,0,.01c0,0,0,0,0-.01Z"/>
        <path class="cls-2" d="M639.3,242.61s0,0,0,0c0,0,0,0,0,0Z"/>
        <path class="cls-2" d="M639.3,242.61s0,0,0,0c0,0,0,0,0,0,0,0,0,0,0,0Z"/>
        <path class="cls-2" d="M639.28,242.63s0,0,0,0c0,0,0,0,0,0Z"/>
        <path class="cls-2" d="M639.25,242.66s0,0,0,0c0,0,0,0,0,0,0,0,0,0,0,0Z"/>
        <path class="cls-2" d="M639.24,242.67s0,0,0,0c0,0,0,0,0,0,0,0,0,0,0,0,0,0-.02.02-.03.02,0,0,.02-.02.03-.02Z"/>
        <path class="cls-2" d="M639.21,242.69h0s0,0,0,0c0,0,0,0,0,0Z"/>
        <path class="cls-2" d="M639.21,242.7s0,0,0,0c0,0,0,0,0,0,0,0,0,0,0,0,0,0,0,0,0,0Z"/>
        <path class="cls-2" d="M639.2,242.7s0,0,0,0c0,0,0,0-.01,0h0s.01,0,.02,0Z"/>
        <path class="cls-2" d="M639.2,242.7s0,0,0,0c0,0-.01,0-.02.01h0s.01-.01.02-.02Z"/>
        <path class="cls-2" d="M639.18,242.72h0s-.02.02-.03.02c0,0,0,0-.01.01.01-.01.03-.02.04-.04Z"/>
        <path class="cls-2" d="M639.43,242.5s0,0,0,0c0,0,0,0,0,0,0,0,0,0,0,0h0Z"/>
        <path class="cls-2" d="M639.36,242.56s-.02.02-.03.03c0,0-.01,0-.02.02.02-.01.04-.03.05-.04Z"/>
        <path class="cls-2" d="M639.29,242.62s0,0,0,0c0,0,0,0,0,0h0Z"/>
        <path class="cls-2" d="M639.26,242.65s0,0,0,0c0,0,0,0,0,0,0,0,0,0,0,0Z"/>
        <path class="cls-2" d="M639.26,242.65s0,0,0,0c0,0,0,0,0,0Z"/>
        <path class="cls-2" d="M639.25,242.65s0,0,0,0c0,0,0,0,0,0Z"/>
        <path class="cls-2" d="M639.18,242.72s0,0,0,0c0,0,0,0,0,0Z"/>
        <path class="cls-2" d="M647.26,243.32c-2.81-.08-5.62-.17-8.42-.29.1-.1.21-.19.32-.29,0,0,.02,0,.02-.02h0s0,0,.01-.01c0,0,0,0,.01-.01,0,0,0,0,0,0,0,0,.01,0,.02-.01s.01-.01.02-.02h0s0-.01.01-.01c0,0,.01-.01.02-.02h0s0,0,0,0h0s.01,0,.01-.01h0s.01-.02.02-.02c.02-.02.05-.04.07-.06.01-.01.02-.02.03-.03,0,0,0,0,0,0,0,0,0,0,0,0,0,0,0,0,0,0h0s0,0,0,0c0,0,0,0,.01-.01,0,0-.01,0-.02.01h0s0,0,0,0h0s0,0,0,0h0s-.01.01-.02.02c.01,0,.02-.02.03-.03.45-.38.89-.78,1.33-1.17.09-.08.17-.15.26-.23,5.21-1.28,10.44-2.58,15.67-3.69,15.83-2.88,31.89-4.45,47.92-5.72,7.73-.45,15.87.05,23.47.5.1.03.21.04.31.06.08.01.16.03.25.03,0,0-.01,0-.02,0h.01s.01,0,.02,0c0,0,0,0-.02,0,.04,0,.07,0,.11,0,.02,0,.03,0,.05,0,.05,0,.09-.02.13-.05.27.02.55.03.82.05-2,.23-3.95.97-5.91,1.5-5.69,1.53-11.46,2.79-17.28,3.69-7.97,1.19-16.02,1.84-24.02,2.83-10.77,1.33-21.56,3.06-32.43,3.06-.95,0-1.89-.01-2.84-.04Z"/>
        <path class="cls-2" d="M639.44,242.49s0,0,.01-.01c0,0,0,0,0,0,0,0,0,0-.01.01h0s0,0,0,0Z"/>
        <path class="cls-2" d="M639.44,242.49s0,0,0,0h0s0,0,0,0c0,0,0,0,0,0Z"/>
        <path class="cls-2" d="M639.44,242.5s0,0,0,0c0,0,0,0,0,0h0Z"/>
        <path class="cls-2" d="M639.44,242.5s0,0,0,0c0,0,0,0,0,0,0,0,0,0,0,0Z"/>
        <path class="cls-2" d="M639.44,242.49h0s0,0,0,0c0,0,0,0,0,0,0,0,0,0,0,0,0,0,0,0,0,0Z"/>
        <path class="cls-2" d="M639.43,242.5s0,0,0,0c0,0,0,0,0,0h0Z"/>
        <path class="cls-2" d="M639.43,242.5s0,0,0,0c0,0,0,0,0,0Z"/>
        <path class="cls-2" d="M639.43,242.5h0s0,0,0,0c0,0,0,0,0,0Z"/>
        <path class="cls-2" d="M639.36,242.56s-.01.01-.02.02c0,0,.01-.01.02-.02Z"/>
        <path class="cls-2" d="M639.34,242.58s-.02.02-.03.02c0,0,.02-.01.03-.02Z"/>
        <path class="cls-2" d="M639.31,242.61s0,0,0,0c0,0,0,0,0,0Z"/>
        <path class="cls-2" d="M639.21,242.69h0s0,0,0,0h0Z"/>
        <path class="cls-2" d="M640.92,243.21c-.72-.05-1.44-.1-2.16-.12.14-.13.29-.25.43-.38,0,0,.01,0,.01-.01h0s.03-.03.04-.04c0,0,0,0-.01,0-.01.01-.02.02-.03.03,0,0-.02.02-.03.02,0,0,0,0,.01,0-.01.01-.03.02-.05.04.02-.02.04-.04.06-.05.01,0,.02-.02.03-.03,0,0,.01-.01.02-.02,0,0,0,0,0,0,.01-.01.02-.02.04-.03,0,0,0,0,0,0,0,0,0,0,0,0h0s0,0,0,0c0,0,0,0,0,0,0,0,0,0,.01-.01,0,0,0,0,0,0,.03-.02.06-.05.08-.07.01,0,.02-.01.03-.02,0,0,0,0,0,0,0,0-.02.01-.02.02,0,0,.02-.01.03-.02,0,0,.01,0,.02-.02.44-.38.88-.77,1.32-1.16.21-.19.42-.37.62-.57.18-.18.35-.37.53-.56,0,0,.01,0,.02-.01,0,0,0,0,0,0,0,0,0,0,0,0,0,0,0,0,0,0,0,0,.01-.01.02-.02.02-.02.04-.04.06-.06h0c.08-.08.16-.17.24-.26,4.42-3.94,8.76-7.97,13.33-11.74,7.86-6.23,16.24-11.8,24.13-17.99,14.59-11.53,29.99-21.79,45.44-31.97,10.26-7,20.54-13.58,30.83-20.48,17.93-13.11,36.06-25.96,54.14-38.86,20.05-13.8,40.53-26.95,60.71-40.56,15.18-10.79,30.62-21.22,46.27-31.33,8.67-5.65,17.65-10.8,26.27-16.51,10.61-7.13,21.87-13.22,32.78-19.87,8-4.89,17.05-7.47,25.86-10.44.02-.03.05-.04.08-.03.13-.04.32-.13.34,0-1.98,1.83-3.85,3.81-5.96,5.51-11.02,9.41-23.95,16.02-36.3,23.45-24.15,15.15-48.22,30.43-72.39,45.54-16.03,10.67-31.97,21.47-47.99,32.15-11.33,7.39-22.87,14.48-33.71,22.62-15.07,10.87-29.91,22.08-44.88,33.09-8.64,6.21-17.59,11.97-26.42,17.88-9.43,6.59-19.4,12.57-28.96,18.93-21.68,14.44-40.75,33.61-64.82,43.98-.02,0-.04,0-.06,0Z"/>
        <path class="cls-2" d="M11.47,615.7c-3.2-.16-6.44-.44-9.63-.3-.6.08-1.32.03-1.82.35,0,0,0,0,0,0H.02s.02.03.04.03c0,0,0,.02,0,.02-.05-.01-.06-.04-.03-.09.8-.51,1.84-.61,2.74-.91,6.27-1.57,12.52-3.24,18.91-4.22,16.47-1.76,33.33-1.77,49.83-3.01,87.38-6.97,177.7-14.07,258.34-51.07-5.31-7.35-9.95-15.46-11.47-24.51-2.97-16.28,0-33.87,10.15-47.19,6.05-8.27,13.57-15.52,22.03-21.29,9.93-5.96,21.98-8.77,33.48-6.97,12.83,2.11,24.45,11.8,27.69,24.57,1.81,7.25-.19,14.82-3.05,21.53-4.63,10.43-12.51,19.06-20.99,26.53-13.8,12.2-29.3,22.32-45.97,30.14,24.25,26.17,61.19,34.9,95.57,37.46,31.8,2.12,63.8-2.02,94.21-11.47,17.53-5.13,34.06-13.1,49.76-22.38,17.3-10.07,33.61-21.79,48.6-35.07,17.02-15.15,33.71-31.23,48.66-48.33,16.59-19.01,32.21-38.83,47.87-58.6,6-7.13,12.91-13.51,19.56-19.97-4.11,8.87-8.23,17.8-13.9,25.81-10.49,14.15-21.92,27.58-33.04,41.24-19.36,23.69-40.8,45.62-63.85,65.73-17.41,15.5-36.68,28.83-57.22,39.84-13.61,7.54-27.77,14.19-42.73,18.57-15.25,4.48-30.8,8.11-46.54,10.29-19.76,2.39-39.82,2.84-59.62.79-34.29-3.75-70.89-13.73-94.41-40.53-30.89,14.6-63.89,24.32-97.23,31.49-22.69,5.25-45.75,8.59-68.8,11.75-31.03,3.79-62.19,6.33-93.38,8.22-12.3.67-24.61,1.3-36.93,1.61-8.94.31-17.89.64-26.82-.08ZM335.32,551.32c.44.64.91,1.27,1.37,1.89,16.13-7.76,31.47-17.21,44.85-29.16,6.87-6.14,13.2-12.65,17.8-20.55,3.39-6.17,6.17-13.37,4.79-20.49-2.42-10.55-12.66-17.85-23.1-19.02-9.14-1.01-18.57,1.41-26.41,6.12-8.19,5.64-15.36,12.76-20.95,20.99-8.65,12.44-10.72,28.6-6.88,43.12,1.68,6.2,4.91,11.84,8.53,17.1Z"/>
      </g>
    </g>
  </g>
</svg>