<svg xmlns="http://www.w3.org/2000/svg" viewBox="0 0 600 480" role="img" aria-hidden="true" fill="none">
  <defs>
    <clipPath id="cb-clip"><rect width="600" height="480" rx="2"/></clipPath>
    <filter id="cb-grain"><feTurbulence type="fractalNoise" baseFrequency="0.9" numOctaves="2" stitchTiles="stitch"/><feColorMatrix type="matrix" values="0 0 0 0 0  0 0 0 0 0  0 0 0 0 0  0 0 0 0.05 0"/></filter>
  </defs>
  <g clip-path="url(#cb-clip)">
    <rect width="600" height="480" fill="#27ccbc"/>
    <rect width="600" height="480" fill="#bff7e9" opacity="0.4"/>
    <!-- torn indigo band bottom -->
    <path d="M0 340 L90 312 L180 338 L280 306 L380 338 L480 304 L600 336 L600 480 L0 480 Z" fill="#0f0e54"/>
    <!-- cut-paper speech / template cards stacked -->
    <g transform="translate(96 86) rotate(-6 130 110)">
      <rect x="20" y="24" width="240" height="160" rx="14" fill="#0f0e54"/>
      <rect x="10" y="14" width="240" height="160" rx="14" fill="#f7f7ff"/>
      <rect x="34" y="40" width="120" height="20" rx="10" fill="#0f0e54"/>
      <rect x="34" y="74" width="190" height="14" rx="7" fill="#27ccbc"/>
      <rect x="34" y="100" width="160" height="14" rx="7" fill="#bff7e9"/>
      <rect x="34" y="126" width="180" height="14" rx="7" fill="#27ccbc"/>
      <!-- citron heart reaction -->
      <path d="M196 134 q14 -18 28 0 q14 18 -14 36 q-28 -18 -14 -36 Z" fill="#d9f20c"/>
    </g>
    <!-- bot head -->
    <g transform="translate(370 226) rotate(7 90 80)">
      <rect x="20" y="20" width="148" height="120" rx="22" fill="#0f0e54"/>
      <rect x="10" y="10" width="148" height="120" rx="22" fill="#d9f20c"/>
      <circle cx="56" cy="64" r="18" fill="#0f0e54"/>
      <circle cx="112" cy="64" r="18" fill="#0f0e54"/>
      <circle cx="56" cy="64" r="6" fill="#f7f7ff"/>
      <circle cx="112" cy="64" r="6" fill="#f7f7ff"/>
      <rect x="54" y="98" width="60" height="12" rx="6" fill="#0f0e54"/>
      <rect x="78" y="-22" width="12" height="34" rx="6" fill="#0f0e54"/>
      <circle cx="84" cy="-28" r="12" fill="#27ccbc"/>
      <circle cx="84" cy="-28" r="12" fill="none" stroke="#0f0e54" stroke-width="4"/>
    </g>
    <!-- floating like bubbles -->
    <circle cx="320" cy="86" r="30" fill="#f7f7ff"/>
    <path d="M308 86 q12 -16 24 0 q12 16 -12 32 q-24 -16 -12 -32 Z" fill="#27ccbc"/>
    <!-- washi -->
    <rect x="420" y="56" width="130" height="28" fill="#0f0e54" opacity="0.85" transform="rotate(10 485 70)"/>
    <rect x="420" y="56" width="130" height="28" fill="none" stroke="#d9f20c" stroke-width="2" stroke-dasharray="2 5" transform="rotate(10 485 70)"/>
    <rect width="600" height="480" filter="url(#cb-grain)"/>
  </g>
</svg>
