<svg xmlns="http://www.w3.org/2000/svg" viewBox="0 0 600 460" role="img" aria-hidden="true" fill="none">
  <defs>
    <clipPath id="pb-clip"><rect width="600" height="460" rx="2"/></clipPath>
    <filter id="pb-grain"><feTurbulence type="fractalNoise" baseFrequency="0.85" numOctaves="2" stitchTiles="stitch"/><feColorMatrix type="matrix" values="0 0 0 0 0  0 0 0 0 0  0 0 0 0 0  0 0 0 0.05 0"/></filter>
  </defs>
  <g clip-path="url(#pb-clip)">
    <rect width="600" height="460" fill="#f7f7ff"/>
    <!-- pinned photo (paper) -->
    <g transform="rotate(-5 200 180)">
      <rect x="70" y="70" width="220" height="190" fill="#0f0e54" transform="translate(10 10)"/>
      <rect x="70" y="70" width="220" height="190" fill="#ffffff"/>
      <rect x="86" y="86" width="188" height="130" fill="#27ccbc"/>
      <path d="M86 216 L150 150 L196 196 L240 160 L274 216 Z" fill="#0f0e54"/>
      <circle cx="240" cy="118" r="22" fill="#d9f20c"/>
      <rect x="86" y="226" width="120" height="14" rx="7" fill="#0f0e54"/>
    </g>
    <!-- citron note -->
    <g transform="rotate(7 420 150)">
      <rect x="350" y="80" width="180" height="140" fill="#0f0e54" transform="translate(8 8)"/>
      <rect x="350" y="80" width="180" height="140" fill="#d9f20c"/>
      <rect x="372" y="108" width="120" height="12" rx="6" fill="#0f0e54"/>
      <rect x="372" y="132" width="136" height="10" rx="5" fill="#0f0e54" opacity="0.6"/>
      <rect x="372" y="152" width="100" height="10" rx="5" fill="#0f0e54" opacity="0.6"/>
      <rect x="372" y="172" width="120" height="10" rx="5" fill="#0f0e54" opacity="0.6"/>
    </g>
    <!-- torn teal strip bottom -->
    <path d="M0 330 L80 312 L170 336 L270 308 L380 336 L490 306 L600 332 L600 460 L0 460 Z" fill="#bff7e9"/>
    <path d="M0 360 L90 340 L190 364 L300 336 L410 364 L520 334 L600 360 L600 460 L0 460 Z" fill="#27ccbc"/>
    <!-- washi -->
    <rect x="160" y="56" width="150" height="30" fill="#27ccbc" opacity="0.85" transform="rotate(-7 235 71)"/>
    <rect x="380" y="60" width="120" height="28" fill="#0f0e54" opacity="0.85" transform="rotate(10 440 74)"/>
    <!-- pins -->
    <circle cx="200" cy="78" r="11" fill="#d9f20c" stroke="#0f0e54" stroke-width="4"/>
    <circle cx="420" cy="84" r="11" fill="#27ccbc" stroke="#0f0e54" stroke-width="4"/>
    <rect width="600" height="460" filter="url(#pb-grain)"/>
  </g>
</svg>
