<svg xmlns="http://www.w3.org/2000/svg" viewBox="0 0 120 120" role="img" aria-hidden="true" fill="none">
  <defs>
    <pattern id="p2dots" width="6" height="6" patternUnits="userSpaceOnUse">
      <circle cx="1.4" cy="1.4" r="1.4" fill="#0f0e54" opacity="0.16"/>
    </pattern>
  </defs>
  <!-- citron under-ink offset -->
  <g transform="translate(-3 3)">
    <rect x="26" y="20" width="58" height="76" rx="6" fill="#d9f20c"/>
  </g>
  <!-- sketch sheet -->
  <rect x="30" y="16" width="58" height="76" rx="6" fill="#fffdf6" stroke="#0f0e54" stroke-width="3.2"/>
  <rect x="30" y="16" width="58" height="76" rx="6" fill="url(#p2dots)"/>
  <!-- compass / arc draft strokes -->
  <path d="M40 60a26 26 0 0 1 38-20" stroke="#0f0e54" stroke-width="3" stroke-linecap="round"/>
  <path d="M44 74h30M44 82h20" stroke="#0f0e54" stroke-width="3" stroke-linecap="round"/>
  <!-- pen nib -->
  <g transform="translate(2 -2)">
    <path d="M78 36 98 16l8 8-20 20-12 4 4-12Z" fill="#27ccbc" stroke="#0f0e54" stroke-width="3.2" stroke-linejoin="round"/>
    <path d="M82 40 76 52" stroke="#0f0e54" stroke-width="3" stroke-linecap="round"/>
  </g>
  <path d="M100 92v12M94 98h12" stroke="#0f0e54" stroke-width="2"/>
</svg>
