<?xml version="1.0" encoding="UTF-8"?>
<svg id="Calque_2" data-name="Calque 2" xmlns="http://www.w3.org/2000/svg" viewBox="0 0 631.9 464.58">
  <defs>
    <style>
      .cls-1 {
        fill: rgba(191, 247, 233, .74);
      }

      .cls-2 {
        fill: rgba(191, 247, 233, .5);
      }

      .cls-3 {
        fill: #27ccbc;
      }

      .cls-4 {
        fill: #161a59;
      }
    </style>
  </defs>
  <g id="Groupe_de_calques" data-name="Groupe de calques">
    <g id="Calque_vectoriel" data-name="Calque vectoriel">
      <g>
        <path class="cls-4" d="M63.55,268.04s0,0,0,0c0,0-.01.02-.02.02,0,0,.01-.02.02-.02Z"/>
        <path class="cls-4" d="M63.48,268.09h0s0,0,0,0c0,0,0,0,0,0Z"/>
        <path class="cls-4" d="M63.47,268.1s0,0,0,0c0,0,0,0,0,0Z"/>
        <path class="cls-4" d="M63.48,268.1s0,0,0,0c0,0,0,0,0,0Z"/>
        <path class="cls-4" d="M63.47,268.1h0s0,0,0,0Z"/>
        <path class="cls-4" d="M63.24,268.28s0,0,0,0c0,0,0,0,0,0Z"/>
        <path class="cls-4" d="M63.24,268.28s.02-.02.03-.03c-.01,0-.02.02-.03.03h0Z"/>
        <path class="cls-4" d="M18.21,289.46s-.02-.02-.03-.03c.02,0,.02.02.03.03h0Z"/>
        <path class="cls-4" d="M19.48,290.41s.03.03.04.04c-.02-.01-.03-.02-.04-.04Z"/>
        <path class="cls-4" d="M19.52,290.46s0,0,0,0c.01.01.02.02.03.03-.01-.01-.02-.02-.03-.03Z"/>
        <path class="cls-4" d="M19.52,290.45s0,0,0,0c0,0,0,0,0,0Z"/>
        <path class="cls-4" d="M19.47,290.41s0,0,0,0c0,0,0,0,0,0Z"/>
        <path class="cls-4" d="M63.26,268.26s-.02.02-.02.02c0,0,.02-.02.02-.02Z"/>
        <path class="cls-4" d="M14.58,292.92s0,0,0,0c0,0,0,0,0,0Z"/>
        <path class="cls-4" d="M27.91,291.66s.01,0,.02,0c0,0-.01,0-.02,0Z"/>
        <path class="cls-4" d="M27.89,291.66s-.04,0-.05-.01c.02,0,.05,0,.07.01,0,0-.01,0-.02,0Z"/>
        <path class="cls-4" d="M27.81,291.64s.02,0,.03,0c-.01,0-.02,0-.03,0Z"/>
        <path class="cls-4" d="M29.6,295.28s-.03-.01-.05-.02c.02,0,.03.01.05.02h0Z"/>
        <path class="cls-4" d="M260.91,120.76s0,0,0,0c0,0,0,0,0,0Z"/>
        <path class="cls-4" d="M260.91,120.76h0s0,0,0,0c0,0,0,0,0,0,0,0,0,0,0,0Z"/>
        <path class="cls-4" d="M292.67,321.36s0,0,0,0c0,0,0,0,0,0,0,0,0,0,0,0Z"/>
        <path class="cls-4" d="M365.84,357.54s0,.05,0,.08c0-.03,0-.05,0-.08Z"/>
        <path class="cls-4" d="M420.55,357.61c-.13-.11-.25-.21-.37-.32.16.13.32.26.48.39-.03-.02-.07-.05-.1-.07Z"/>
        <path class="cls-4" d="M416.77,360.97c-.13.28-.26.55-.4.83,0,.01-.02.02-.03.04.15-.29.29-.58.43-.87Z"/>
        <path class="cls-2" d="M27.89,291.66h.02s-.05-.01-.07-.02c.02,0,.03,0,.05.02ZM310.03,120.9c.46.14.93.29,1.39.44-.46-.15-.92-.3-1.39-.44ZM416.37,361.8c.13-.28.27-.55.4-.83-.14.29-.28.58-.43.87.01-.02.02-.03.03-.04ZM420.55,357.61s.07.05.1.07c-.16-.13-.32-.26-.48-.39.13.11.25.21.37.32ZM460.32,351.24c-.1.4-.19.79-.29,1.19.1-.4.2-.79.29-1.19ZM461.37,346.4c.11-.56.22-1.12.32-1.68-.1.56-.21,1.12-.32,1.68-.22,1.11-.45,2.23-.7,3.34.25-1.11.49-2.22.7-3.34ZM462.24,341.37c-.08.55-.17,1.11-.26,1.66.1-.55.18-1.11.26-1.66ZM474.43,332.99c-.4.22-.79.45-1.19.67.4-.22.79-.44,1.19-.67ZM624.9,120.93c2.35-1.11,4.68-2.24,7-3.38-7.57,10.15-17.77,18.62-29.56,23.35-6.51,2.82-13.76,2.84-20.33,5.35-1.93,3.3-1.17,7.21-1.29,10.86.2,7.06.48,14.08.14,21.09-.05,1.51-.11,3.03-.2,4.54.33,12.47-1.72,24.94-4.64,37.04-7.17,29.12-23.05,55.39-42.98,77.56-12.14,14.12-26.06,26.58-41.69,36.72-6.34,4.54-12.96,8.62-19.89,12.14-2.14,11.49-5.91,22.71-11.05,33.17-9.87,19.22-24.12,36.02-41.06,49.4-30.74,23.06-69.14,35.82-107.54,35.82-9.43,0-18.85-.77-28.17-2.35-13.07-1.81-25.82-5.24-38.43-9.04-8.72-2.41-17.26-5.45-25.47-9.2-16.67-5.6-32.26-14.26-47.25-23.36-21.05-13.3-41.27-28.1-59.23-45.38-6.01-6-12.15-11.96-17.46-18.59-5.49-6.2-10.78-12.58-15.48-19.41-5.97-7.8-11.57-16.2-15.86-24.99-1.18-2.3-2.02-4.71-3.4-6.86-.61-1.26-2.17-1.11-3.34-1.49-3.47-.94-7.01-1.56-10.43-2.67-4.47-1.22-8.81-2.89-13.11-4.64-1.54-.36-3.02-.74-4.56-1.32.01,0,.02,0,.03,0-3.25-1.33-6.77-2.2-9.57-4.39-.04-.03-.08-.05-.12-.08-.08-.08-.16-.15-.25-.22-.05-.04-.1-.08-.14-.11-.01-.01-.02-.02-.03-.03h0s-.03-.03-.04-.04t0,0h0c-.19-.17-.38-.33-.58-.48-.02-.01-.03-.02-.05-.04-.23-.17-.46-.34-.7-.49-.05-.04-.1-.08-.14-.12,6.82-6.76,12.79-14.47,21.18-19.36,6.58-4.53,20.22-7.66,23.5-15,.28-.52.55-1.05.83-1.57,1.72-15.61,8.13-30.94,15.22-44.75,5.66-11.73,13.38-22.28,21.47-32.43,13.73-16.77,30.51-31.22,49.4-41.9,30.77-16.82,66.25-24.46,101.2-23.71,4.16.14,8.32.41,12.46.79,7.88-9.85,16.75-18.87,26.52-26.67,4.39-3.41,8.92-6.8,13.63-9.94,0,0,.01,0,.02-.01,10.82-7.5,23.08-13.33,34.75-18.19,17.67-6.81,35.97-13.09,55.05-13.84,18.48-1.06,37.24,1.33,54.84,7.1,12.16,3.91,23.45,10.09,34.54,16.33,7.17,3.85,13.82,8.51,20.11,13.62,9.52,5.79,18.65,12.25,28.18,17.96,5.14,2.95,10.54,5.55,16.2,7.35,3.03.29,6.02.41,9.05.78,13.14,1.3,26.41,2.23,39.36,4.88,10.18,2.25,19.8,6.21,29.39,10.21Z"/>
        <path class="cls-4" d="M63.55,268.04s0,0,0,0c0,0-.01.02-.02.02,0,0,.01-.02.02-.02Z"/>
        <path class="cls-4" d="M63.47,268.1h0,0Z"/>
        <path class="cls-4" d="M63.47,268.1s0,0,0,0c0,0,0,0,0,0Z"/>
        <path class="cls-4" d="M63.47,268.1s0,0,0,0c0,0,0,0,0,0Z"/>
        <path class="cls-4" d="M63.47,268.1s0,0,0,0c0,0,0,0,0,0Z"/>
        <path class="cls-4" d="M63.47,268.1s0,0,0,0c0,0,0,0,0,0Z"/>
        <path class="cls-4" d="M63.24,268.28s0,0,0,0h0Z"/>
        <path class="cls-4" d="M63.27,268.26s-.02.02-.03.03c.01-.01.02-.02.03-.03Z"/>
        <path class="cls-4" d="M63.26,268.26s-.01.01-.02.02c0,0,.01-.01.02-.02Z"/>
        <path class="cls-4" d="M27.91,291.66s.01,0,.02,0c0,0-.01,0-.02,0Z"/>
        <path class="cls-4" d="M27.91,291.66s0,0-.01,0c0,0,0,0,.02,0h0Z"/>
        <path class="cls-4" d="M27.87,291.65s0,0,.01,0c0,0,.01,0,.02,0,0,0-.02,0-.03,0Z"/>
        <path class="cls-4" d="M27.84,291.65s.02,0,.03,0c0,0-.02,0-.03,0Z"/>
        <path class="cls-4" d="M27.8,291.64s.02,0,.03,0c-.01,0-.02,0-.03,0Z"/>
        <path class="cls-3" d="M238.25,440.06c-4.25-1.45-8.43-3.11-12.62-4.73-5.2-2.29-10.5-4.34-15.76-6.48-7.79-3.44-15.26-7.58-22.73-11.65-16.77-9.86-32.55-21.05-48.03-32.84-.86-.63-1.71-1.27-2.57-1.89-9.68-7.89-18.65-16.64-27.73-25.21-6.69-6.71-12.74-14.09-18.66-21.49-5.98-7.17-11.71-14.6-16.76-22.46-1.11-1.7-2.45-3.76-3.54-6-.99-1.96-1.78-3.98-2.46-6.06-1.02-2.22-2.92-3.99-5.07-5.09-.11-.05-.22-.09-.33-.13.11.04.22.09.33.13,2.16,1.1,4.05,2.88,5.07,5.09.68,2.08,1.47,4.1,2.46,6.06,1.09,2.25,2.42,4.3,3.54,6,5.05,7.86,10.78,15.29,16.76,22.46,5.92,7.4,11.97,14.78,18.66,21.49,9.08,8.57,18.05,17.32,27.73,25.21.86.63,1.71,1.26,2.57,1.89,15.48,11.79,31.26,22.98,48.03,32.84,7.48,4.07,14.94,8.21,22.73,11.65,5.26,2.14,10.56,4.19,15.76,6.48,4.19,1.63,8.37,3.28,12.62,4.73,24.37,8.46,50.09,14.79,75.95,14.4-.76.01-1.52.02-2.28.02-25.09,0-50.01-6.2-73.67-14.42Z"/>
        <path class="cls-3" d="M322.38,454.11c47.45-3.21,95.01-26.04,121.7-66.31.1-.14.19-.28.29-.43-.1.14-.19.28-.29.43-26.69,40.27-74.24,63.09-121.7,66.31Z"/>
        <path class="cls-3" d="M444.69,386.91c-.09.13-.18.27-.27.4.09-.13.18-.27.27-.4Z"/>
        <path class="cls-3" d="M445.02,386.42c-.09.14-.18.27-.27.4.09-.13.18-.27.27-.4Z"/>
        <path class="cls-3" d="M445.32,385.96c-.09.13-.17.26-.26.4.09-.13.18-.26.26-.4Z"/>
        <path class="cls-3" d="M445.62,385.5c-.09.14-.18.28-.27.41.09-.14.18-.28.27-.41Z"/>
        <path class="cls-3" d="M445.93,385.03c-.09.13-.17.27-.26.4.09-.13.17-.27.26-.4Z"/>
        <path class="cls-3" d="M446.25,384.52c-.09.14-.18.28-.27.42.09-.14.18-.28.27-.42Z"/>
        <path class="cls-3" d="M446.51,384.1c-.08.13-.17.27-.25.4.08-.13.17-.27.25-.4Z"/>
        <path class="cls-3" d="M446.82,383.61c-.08.14-.17.27-.25.41.08-.14.17-.27.25-.41Z"/>
        <path class="cls-3" d="M447.12,383.12c-.08.14-.17.28-.26.41.08-.14.17-.28.26-.41Z"/>
        <path class="cls-3" d="M447.41,382.65c-.08.13-.16.27-.25.4.08-.14.16-.27.25-.4Z"/>
        <path class="cls-3" d="M447.69,382.19c-.08.14-.17.28-.25.42.09-.14.17-.28.25-.42Z"/>
        <path class="cls-3" d="M447.98,381.7c-.08.14-.16.28-.25.41.08-.14.16-.28.25-.41Z"/>
        <path class="cls-3" d="M448.27,381.2c-.08.14-.17.29-.25.43.08-.14.17-.29.25-.43Z"/>
        <path class="cls-3" d="M448.54,380.75c-.08.14-.16.28-.24.42.08-.14.16-.28.24-.42Z"/>
        <path class="cls-3" d="M448.81,380.29c-.08.14-.16.28-.24.42.08-.14.16-.28.24-.42Z"/>
        <path class="cls-3" d="M449.09,379.78c-.08.14-.16.28-.24.41.08-.14.16-.28.24-.41Z"/>
        <path class="cls-3" d="M449.64,378.81c-.17.3-.34.61-.51.91.17-.3.34-.6.51-.91Z"/>
        <path class="cls-3" d="M449.89,378.35c-.08.15-.16.29-.24.44.08-.15.16-.29.24-.44Z"/>
        <path class="cls-3" d="M450.17,377.84c-.08.15-.16.29-.24.43.08-.14.16-.29.24-.43Z"/>
        <path class="cls-3" d="M450.67,376.89c-.16.31-.32.61-.49.91.16-.3.33-.61.49-.91Z"/>
        <path class="cls-3" d="M450.93,376.41c-.08.14-.15.29-.23.43.08-.15.15-.29.23-.43Z"/>
        <path class="cls-3" d="M451.19,375.9c-.07.14-.15.29-.22.43.08-.15.15-.29.22-.43Z"/>
        <path class="cls-3" d="M451.43,375.44c-.07.14-.15.29-.22.43.07-.14.15-.29.22-.43Z"/>
        <path class="cls-3" d="M451.67,374.96c-.07.14-.14.29-.22.43.07-.14.15-.29.22-.43Z"/>
        <path class="cls-3" d="M451.92,374.46c-.07.14-.14.28-.21.43.07-.14.14-.28.21-.43Z"/>
        <path class="cls-3" d="M452.17,373.94c-.07.15-.14.29-.22.44.07-.15.15-.29.22-.44Z"/>
        <path class="cls-3" d="M452.39,373.5c-.07.14-.14.29-.21.43.07-.14.14-.29.21-.43Z"/>
        <path class="cls-3" d="M452.62,373.02c-.07.14-.13.27-.2.41.07-.14.13-.27.2-.41Z"/>
        <path class="cls-3" d="M452.86,372.51c-.06.13-.12.26-.19.39.06-.13.12-.26.19-.39Z"/>
        <path class="cls-3" d="M453.08,372.04c-.06.12-.11.24-.17.36.06-.12.11-.24.17-.36Z"/>
        <path class="cls-3" d="M453.3,371.56c-.06.13-.12.26-.18.39.06-.13.12-.26.18-.39Z"/>
        <path class="cls-3" d="M453.54,371.05c-.06.13-.12.26-.18.39.06-.13.12-.26.18-.39Z"/>
        <path class="cls-3" d="M453.77,370.54c-.06.13-.12.26-.17.39.06-.13.12-.26.17-.39Z"/>
        <path class="cls-3" d="M453.96,370.1c-.05.11-.09.21-.14.32.05-.11.09-.21.14-.32Z"/>
        <path class="cls-3" d="M454.18,369.6c-.05.12-.11.25-.16.37.05-.12.11-.25.16-.37Z"/>
        <path class="cls-3" d="M454.4,369.09c-.05.12-.1.24-.15.35.05-.12.1-.24.15-.35Z"/>
        <path class="cls-3" d="M454.58,368.68c-.03.08-.07.15-.1.23.03-.08.07-.15.1-.23Z"/>
        <path class="cls-3" d="M454.79,368.17c-.03.06-.05.12-.08.18.03-.06.05-.12.08-.18Z"/>
        <path class="cls-3" d="M455.01,367.64c-.03.08-.06.15-.09.23.03-.07.06-.15.09-.23Z"/>
        <path class="cls-3" d="M455.16,367.27s-.04.09-.06.14c.02-.04.04-.09.06-.14Z"/>
        <path class="cls-3" d="M455.37,366.76s-.02.06-.03.09c.01-.03.02-.06.03-.09Z"/>
        <path class="cls-3" d="M455.59,366.21s0,.02-.01.03c0-.01,0-.02.01-.03Z"/>
        <path class="cls-3" d="M56.6,295.11c1.82.02,3.61.22,5.32.87-1.72-.65-3.51-.85-5.32-.87Z"/>
        <path class="cls-3" d="M50.33,295.28s.06,0,.09,0c-.03,0-.06,0-.09,0h0Z"/>
        <path class="cls-3" d="M49.47,295.27c.26,0,.52.01.78.01-.26,0-.52,0-.78-.01Z"/>
        <path class="cls-3" d="M52.18,295.24c-.37.01-.74.03-1.11.03.37,0,.74-.02,1.11-.03Z"/>
        <path class="cls-3" d="M48.95,295.25c-3.32-.31-6.63-.7-9.94-1.11-3.68-.89-7.38-1.7-11.12-2.48,3.74.78,7.45,1.59,11.12,2.48,3.31.41,6.62.8,9.94,1.11Z"/>
        <path class="cls-3" d="M53.28,295.2c.49-.02.98-.04,1.47-.06-.49.02-.98.04-1.47.06-.25.01-.5.02-.75.03.25-.01.5-.02.75-.03Z"/>
        <path class="cls-3" d="M56.2,295.11s-.06,0-.09,0c.03,0,.06,0,.09,0Z"/>
        <path class="cls-3" d="M460.42,292.71s0,.03,0,.05c0-.02,0-.03,0-.05Z"/>
        <path class="cls-3" d="M460.19,291.59s.01.06.02.09c0-.03-.01-.06-.02-.09Z"/>
        <path class="cls-3" d="M20.42,290.21c2.44.52,4.74,1.09,7.47,1.45-2.73-.36-5.03-.93-7.47-1.45Z"/>
        <path class="cls-3" d="M459.95,290.49s.02.08.03.12c0-.04-.02-.08-.03-.12Z"/>
        <path class="cls-3" d="M459.85,290.07s.02.08.03.12c0-.04-.02-.08-.03-.12Z"/>
        <path class="cls-3" d="M459.7,289.41s.02.09.03.13c-.01-.05-.02-.09-.03-.13Z"/>
        <path class="cls-3" d="M459.6,288.96c.01.05.03.11.04.16-.01-.05-.03-.11-.04-.16Z"/>
        <path class="cls-3" d="M459.45,288.32c.02.07.03.13.05.2-.02-.07-.03-.13-.05-.2Z"/>
        <path class="cls-3" d="M459.34,287.86c.02.07.03.14.05.21-.02-.07-.03-.14-.05-.21Z"/>
        <path class="cls-3" d="M459.22,287.37c.02.08.04.16.06.25-.02-.08-.04-.16-.06-.25Z"/>
        <path class="cls-3" d="M459.08,286.79c.02.07.04.15.05.22-.02-.07-.04-.14-.05-.22Z"/>
        <path class="cls-3" d="M458.95,286.29c.02.09.05.19.07.28-.02-.09-.05-.19-.07-.28Z"/>
        <path class="cls-3" d="M458.81,285.71c.02.09.05.18.07.27-.02-.09-.05-.18-.07-.27Z"/>
        <path class="cls-3" d="M458.69,285.23c.02.09.04.17.07.26-.02-.08-.04-.18-.07-.26Z"/>
        <path class="cls-3" d="M458.53,284.64c.04.14.07.27.11.41-.04-.14-.07-.27-.11-.41Z"/>
        <path class="cls-3" d="M458.41,284.15c.03.1.05.2.08.3-.03-.1-.05-.2-.08-.3Z"/>
        <path class="cls-3" d="M458.25,283.55c.04.14.08.29.12.44-.04-.14-.08-.29-.12-.44Z"/>
        <path class="cls-3" d="M458.13,283.11c.03.1.06.21.08.31-.03-.11-.06-.21-.08-.31Z"/>
        <path class="cls-3" d="M457.98,282.56c.03.12.07.24.1.36-.03-.12-.06-.24-.1-.36Z"/>
        <path class="cls-3" d="M457.83,282.03c.03.12.07.25.1.37-.03-.12-.07-.25-.1-.37Z"/>
        <path class="cls-3" d="M457.69,281.53c.03.12.06.23.1.35-.03-.12-.06-.23-.1-.35Z"/>
        <path class="cls-3" d="M457.54,280.99c.04.14.08.28.12.43-.04-.14-.08-.28-.12-.43Z"/>
        <path class="cls-3" d="M457.4,280.48c.03.11.06.22.1.34-.03-.11-.06-.23-.1-.34Z"/>
        <path class="cls-3" d="M457.23,279.9c.04.15.09.31.13.46-.04-.15-.09-.31-.13-.46Z"/>
        <path class="cls-3" d="M457.08,279.4c.04.14.08.28.12.42-.04-.14-.08-.28-.12-.42Z"/>
        <path class="cls-3" d="M456.92,278.84c.05.16.1.32.14.49-.05-.16-.1-.32-.14-.49Z"/>
        <path class="cls-3" d="M456.77,278.36c.05.15.09.31.14.46-.05-.15-.09-.31-.14-.46Z"/>
        <path class="cls-3" d="M456.62,277.85c.04.14.09.28.13.43-.04-.14-.09-.28-.13-.43Z"/>
        <path class="cls-3" d="M456.46,277.34c.05.15.09.3.14.45-.05-.15-.09-.3-.14-.45Z"/>
        <path class="cls-3" d="M456.32,276.86c.04.11.07.23.11.34-.04-.12-.07-.23-.11-.34Z"/>
        <path class="cls-3" d="M456.13,276.26c.05.15.1.31.14.46-.05-.15-.1-.31-.14-.46Z"/>
        <path class="cls-3" d="M455.99,275.8c.04.14.09.27.13.4-.04-.13-.09-.27-.13-.4Z"/>
        <path class="cls-3" d="M455.8,275.23c.05.15.1.3.14.45-.05-.15-.1-.3-.14-.45Z"/>
        <path class="cls-3" d="M455.65,274.76c.04.14.09.27.13.4-.04-.13-.09-.27-.13-.4Z"/>
        <path class="cls-3" d="M455.48,274.22c.04.14.09.28.13.41-.05-.14-.09-.27-.13-.41Z"/>
        <path class="cls-3" d="M455.31,273.71c.05.16.1.31.15.47-.05-.16-.1-.31-.15-.47Z"/>
        <path class="cls-3" d="M455.14,273.2c.04.13.09.27.14.41-.05-.14-.09-.27-.14-.41Z"/>
        <path class="cls-3" d="M454.97,272.68c.05.15.1.3.15.45-.05-.15-.1-.3-.15-.45Z"/>
        <path class="cls-3" d="M454.8,272.19c.04.12.08.24.12.35-.04-.12-.08-.23-.12-.35Z"/>
        <path class="cls-3" d="M454.61,271.63c.05.15.1.3.16.46-.05-.15-.1-.3-.16-.46Z"/>
        <path class="cls-3" d="M454.45,271.16c.05.13.09.26.13.39-.04-.13-.09-.26-.13-.39Z"/>
        <path class="cls-3" d="M454.26,270.6c.05.14.1.29.15.43-.05-.14-.1-.29-.15-.43Z"/>
        <path class="cls-3" d="M454.08,270.11c.06.16.11.31.17.47-.06-.16-.11-.31-.17-.47Z"/>
        <path class="cls-3" d="M453.91,269.61c.05.14.1.27.14.41-.05-.14-.1-.27-.14-.41Z"/>
        <path class="cls-3" d="M453.71,269.07c.06.16.11.32.17.47-.06-.16-.11-.32-.17-.47Z"/>
        <path class="cls-3" d="M453.54,268.6c.05.14.1.27.15.41-.05-.14-.1-.27-.15-.41Z"/>
        <path class="cls-3" d="M453.16,267.55c.12.32.23.63.35.95-.12-.32-.23-.63-.35-.95Z"/>
        <path class="cls-3" d="M452.78,266.53c.12.32.24.63.35.95-.12-.32-.23-.63-.35-.95Z"/>
        <path class="cls-3" d="M452.58,266.01c.06.15.11.3.17.44-.06-.15-.11-.3-.17-.44Z"/>
        <path class="cls-3" d="M452.39,265.5c.06.16.12.32.18.48-.06-.16-.12-.32-.18-.48Z"/>
        <path class="cls-3" d="M452.21,265.02c.05.14.11.28.16.42-.05-.14-.11-.28-.16-.42Z"/>
        <path class="cls-3" d="M452,264.49c.06.15.12.3.17.45-.06-.15-.12-.3-.17-.45Z"/>
        <path class="cls-3" d="M451.82,264.03c.05.12.09.24.14.36-.05-.12-.09-.24-.14-.36Z"/>
        <path class="cls-3" d="M451.6,263.47c.06.14.11.28.17.43-.06-.14-.11-.29-.17-.43Z"/>
        <path class="cls-3" d="M451.42,263c.06.15.12.3.18.45-.06-.15-.12-.3-.18-.45Z"/>
        <path class="cls-3" d="M451.22,262.5c.05.13.1.26.15.38-.05-.13-.1-.26-.15-.38Z"/>
        <path class="cls-3" d="M450.99,261.95c.06.16.13.32.19.47-.06-.16-.13-.31-.19-.47Z"/>
        <path class="cls-3" d="M450.81,261.5c.06.14.11.28.17.42-.06-.14-.11-.28-.17-.42Z"/>
        <path class="cls-3" d="M450.59,260.95c.06.15.12.3.18.45-.06-.15-.12-.3-.18-.45Z"/>
        <path class="cls-3" d="M450.4,260.5c.05.13.1.25.15.38-.05-.13-.1-.25-.15-.38Z"/>
        <path class="cls-3" d="M450.16,259.93c.06.15.12.29.18.44-.06-.15-.12-.29-.18-.44Z"/>
        <path class="cls-3" d="M449.97,259.47c.06.15.13.3.19.45-.06-.15-.13-.3-.19-.45Z"/>
        <path class="cls-3" d="M449.76,258.98c.06.13.11.26.17.39-.06-.13-.11-.26-.17-.39Z"/>
        <path class="cls-3" d="M449.55,258.47c.06.14.12.29.18.43-.06-.14-.12-.29-.18-.43Z"/>
        <path class="cls-3" d="M449.35,258.01c.04.1.09.21.13.31-.04-.1-.09-.21-.13-.31Z"/>
        <path class="cls-3" d="M449.11,257.45c.06.14.12.29.19.43-.06-.14-.12-.29-.19-.43Z"/>
        <path class="cls-3" d="M448.91,256.99c.05.12.1.23.15.35-.05-.12-.1-.24-.15-.35Z"/>
        <path class="cls-3" d="M448.66,256.43c.07.15.13.3.2.45-.06-.15-.13-.3-.2-.45Z"/>
        <path class="cls-3" d="M354.85,151.12c.05.03.11.06.16.09-.05-.03-.11-.06-.16-.09Z"/>
        <path class="cls-3" d="M354.07,150.67c.1.05.19.11.29.17-.1-.06-.19-.11-.29-.17Z"/>
        <path class="cls-3" d="M353.27,150.21c.15.08.29.17.44.25-.14-.08-.3-.17-.44-.25Z"/>
        <path class="cls-3" d="M278.05,122.96c26.37,4.47,51.92,14.03,75.19,27.23-23.27-13.2-48.82-22.77-75.19-27.23Z"/>
        <path class="cls-3" d="M277.24,122.82c.25.04.5.08.74.12-.25-.04-.49-.08-.74-.12Z"/>
        <path class="cls-3" d="M276.39,122.69c.23.04.45.07.68.11-.22-.04-.45-.07-.68-.11Z"/>
        <path class="cls-3" d="M275.82,122.59c.13.02.26.04.39.06-.13-.02-.26-.04-.39-.06Z"/>
        <path class="cls-3" d="M275.01,122.47c.11.02.21.03.32.05-.1-.02-.21-.03-.32-.05Z"/>
        <path class="cls-3" d="M274.21,122.35c.11.02.23.03.34.05-.11-.02-.23-.03-.34-.05Z"/>
        <path class="cls-3" d="M273.48,122.24c.07.01.15.02.23.03-.08-.01-.15-.02-.23-.03Z"/>
        <path class="cls-3" d="M272.69,122.13c.06,0,.13.02.19.03-.06,0-.13-.02-.19-.03Z"/>
        <path class="cls-3" d="M271.88,122.01c.05,0,.11.02.16.02-.05,0-.11-.01-.16-.02Z"/>
        <path class="cls-3" d="M271.07,121.9s.08.01.12.02c-.04,0-.08-.01-.12-.02Z"/>
        <path class="cls-3" d="M234.49,120.44c7.32-.42,14.63-.39,21.92.04,0,0,0,0,0,0-7.29-.43-14.6-.46-21.92-.04Z"/>
        <path class="cls-4" d="M365.84,357.54s0,.05,0,.08c0-.03,0-.05,0-.08Z"/>
        <path class="cls-4" d="M420.65,357.68c-.16-.13-.32-.26-.48-.39.16.13.32.26.48.39Z"/>
        <path class="cls-4" d="M416.77,360.97c-.14.29-.28.58-.43.87.15-.29.29-.58.43-.87Z"/>
        <path class="cls-3" d="M460.17,351.3s.1-.04.15-.06c0,0,0,0,0,0-.05.02-.1.04-.15.06,0,0,0,0,0,0Z"/>
        <path class="cls-3" d="M256.41,120.49s.06,0,.09,0c0,0,0,0,0,0-.03,0-.06,0-.1,0,0,0,0,0,0,0Z"/>
        <path class="cls-1" d="M416.37,361.8c.13-.28.27-.55.4-.83-.14.29-.28.58-.43.87.01-.02.02-.03.03-.04ZM420.55,357.61s.07.05.1.07c-.16-.13-.32-.26-.48-.39.13.11.25.21.37.32ZM460.43,292.76c2.28,11,3.41,22.12,3.14,33.15,0,.05,0,.11,0,.16-.03,1.02-.06,2.04-.11,3.05,0,.09-.01.19-.02.28-.03.68-.08,1.36-.12,2.04,0,.09-.01.18-.02.27-.11,1.52-.24,3.04-.4,4.55,0,.04,0,.08-.01.13-.1.93-.21,1.86-.34,2.79,0,.03,0,.06,0,.08-.02.14-.04.29-.06.43-.01.1-.03.21-.04.31-.01.08-.02.17-.03.25-.01.07-.02.15-.03.22-.39,2.73-.87,5.45-1.46,8.15,0,.02-.01.05-.02.07-.02.09-.04.18-.06.27-.02.07-.03.15-.05.22-.01.05-.02.1-.03.15-.03.13-.06.26-.09.39,0,.03-.02.07-.03.1-.15.49-.3.97-.47,1.46.05-.02.09-.03.14-.05h0s0,0,0,0c-.1.4-.19.79-.29,1.19,0,.02-.01.04-.02.06-.09.34-.17.68-.27,1.02-.02.06-.03.13-.05.19-.07.25-.13.49-.2.74-.11.41-.22.81-.33,1.22-.03.11-.06.21-.09.32-.11.4-.23.79-.35,1.18-.27.89-.54,1.78-.83,2.66-.02.05-.03.11-.05.16-.06.19-.13.38-.19.57-.02.05-.03.09-.05.14-.12.37-.25.73-.38,1.1,0,.02-.01.04-.02.06,0,0,0,0,0,0-.08.25-.17.49-.26.74-.05.14-.1.29-.15.43-.38,1.07-.78,2.13-1.2,3.19-.07.18-.14.36-.22.54-.01.03-.02.06-.03.09-.06.14-.11.29-.17.43-.02.05-.04.09-.05.13h0c-.03.08-.07.16-.1.24-.03.07-.06.15-.09.22-.04.1-.08.21-.13.3-.01.03-.03.06-.04.09-.02.03-.03.06-.04.09,0,.02-.01.03-.02.05-.02.05-.04.1-.06.16-.02.04-.03.08-.05.12-.03.08-.06.15-.1.23-.03.06-.05.12-.08.18-.05.12-.1.24-.15.35-.02.05-.05.11-.07.16-.05.13-.11.25-.16.38-.02.04-.03.08-.05.12-.05.11-.1.22-.14.32-.02.04-.03.08-.05.12-.06.13-.12.26-.17.39-.02.04-.04.08-.06.13-.06.13-.12.26-.18.39-.02.04-.03.08-.06.13-.03.07-.06.13-.09.2-.03.06-.06.13-.09.2-.01.03-.02.05-.04.08-.03.06-.06.12-.08.18-.03.06-.06.12-.08.18-.02.04-.03.08-.05.11-.06.13-.13.26-.19.39-.01.03-.03.06-.04.08,0,.01-.01.02-.02.03-.07.14-.13.27-.2.41-.01.03-.02.05-.04.08-.07.14-.14.29-.21.43t0,0c-.07.15-.14.3-.22.44-.01.02-.02.05-.04.07-.07.14-.14.28-.21.43-.01.02-.03.05-.04.08-.03.05-.05.09-.07.14-.05.09-.1.19-.15.29-.04.07-.08.15-.12.23-.04.08-.08.16-.13.24,0,.01-.01.02-.02.03-.07.14-.15.29-.22.43-.01.02-.02.05-.04.07-.08.15-.15.29-.23.44,0,.02-.02.03-.02.05-.16.3-.32.61-.49.91,0,.01-.02.03-.02.04-.04.07-.08.14-.12.22-.04.07-.08.15-.12.22-.01.02-.02.05-.04.07-.08.14-.16.29-.24.44,0,0,0,.01-.01.02-.17.3-.33.61-.51.91-.01.02-.03.05-.04.07-.08.14-.16.28-.24.41-.02.03-.03.06-.05.09-.08.14-.16.28-.24.42,0,.02-.02.03-.02.04-.08.14-.16.28-.25.42,0,.02-.02.03-.02.04-.08.14-.17.29-.25.43-.02.02-.03.05-.04.07-.08.14-.16.27-.25.41-.02.03-.03.05-.05.08-.04.07-.08.14-.13.21-.04.07-.08.14-.13.21,0,.01-.01.02-.02.03-.08.14-.16.27-.25.4,0,0,0,.01-.01.02-.01.02-.02.04-.03.06-.08.14-.17.28-.25.41-.02.02-.03.05-.05.07-.08.13-.17.27-.25.41-.02.03-.03.06-.05.08-.08.13-.17.27-.25.4,0,0-.01.02-.02.02-.09.14-.18.28-.27.41-.02.03-.03.06-.05.09-.09.13-.17.27-.26.4-.02.03-.03.05-.05.08-.09.14-.18.28-.27.41-.01.02-.02.03-.03.05-.09.13-.17.27-.26.4-.01.02-.02.04-.04.06-.02.03-.05.07-.07.1-.06.09-.11.18-.17.27,0,.01-.02.02-.03.03-.02.03-.04.06-.06.09-.09.13-.18.27-.27.4-.02.02-.03.04-.05.06-.09.14-.19.29-.29.43-26.69,40.27-74.24,63.09-121.7,66.31-2.73.19-5.46.31-8.19.35-.32,0-.65,0-.97.01-1.52.01-3.04,0-4.56-.03-.58-.01-1.16-.03-1.74-.05-.04,0-.08,0-.13,0-.57-.02-1.15-.04-1.73-.06-.66-.03-1.32-.06-1.98-.1-.33-.02-.68-.04-1.01-.06-1.41-.08-2.83-.19-4.24-.32-.39-.03-.78-.07-1.17-.11-.78-.07-1.56-.15-2.34-.24-.38-.04-.77-.08-1.15-.13-.44-.05-.88-.1-1.33-.16-.34-.04-.69-.08-1.03-.13-.39-.05-.78-.1-1.17-.15,0,0,0,0-.01,0-1.16-.16-2.33-.32-3.49-.5,0,0,0,0-.01,0-.78-.12-1.55-.24-2.32-.37-.39-.06-.77-.13-1.16-.19-.39-.06-.78-.13-1.16-.2-.39-.07-.77-.14-1.16-.21-.07-.01-.14-.02-.22-.04-.03,0-.06-.01-.08-.02-.29-.05-.57-.11-.86-.16-.13-.02-.26-.05-.39-.07-.02,0-.05-.01-.06-.02-.24-.04-.48-.09-.71-.13-.38-.08-.77-.15-1.15-.23-.36-.07-.72-.14-1.08-.22-1.57-.32-3.13-.65-4.7-1-.19-.04-.38-.09-.58-.13-.12-.03-.24-.06-.36-.08-.07-.02-.14-.03-.22-.05-2.3-.53-4.6-1.09-6.88-1.69h0c-.38-.1-.76-.2-1.14-.3-.14-.03-.29-.07-.43-.11-.52-.14-1.05-.28-1.57-.42-.42-.11-.84-.23-1.25-.35-.06-.02-.11-.03-.17-.05,0,0-.02,0-.02,0-.04-.01-.08-.02-.12-.03-.68-.19-1.37-.38-2.05-.58-.03,0-.06-.02-.09-.03-.16-.05-.32-.09-.48-.14-.17-.05-.34-.1-.51-.15-.02,0-.03-.01-.05-.02t0,0c-.41-.12-.83-.24-1.24-.36-.06-.02-.13-.04-.19-.06-.02,0-.04-.02-.06-.02,0,0,0,0,0,0-.29-.08-.58-.17-.87-.26-.03-.01-.06-.02-.1-.03-.66-.2-1.32-.4-1.98-.6-.05-.02-.1-.03-.14-.05-.09-.03-.19-.06-.28-.08-.29-.09-.57-.18-.85-.27-.46-.14-.92-.29-1.38-.43-.29-.09-.58-.18-.87-.28-.52-.17-1.05-.33-1.57-.5-.22-.08-.45-.15-.67-.22-.19-.06-.37-.12-.56-.18-.19-.06-.37-.13-.56-.19-.42-.14-.83-.27-1.25-.41-.33-.11-.66-.22-.99-.33-.09-.03-.18-.06-.28-.09-.28-.09-.55-.19-.84-.29-.74-.25-1.48-.51-2.22-.76-4.25-1.45-8.43-3.11-12.62-4.73-5.2-2.29-10.5-4.34-15.76-6.48-7.79-3.44-15.26-7.58-22.73-11.65-16.77-9.86-32.55-21.05-48.03-32.84-.86-.63-1.71-1.27-2.57-1.89-9.68-7.89-18.65-16.64-27.73-25.21-6.69-6.71-12.74-14.09-18.66-21.49-5.98-7.17-11.71-14.6-16.76-22.46-1.11-1.7-2.45-3.76-3.54-6-.99-1.96-1.78-3.98-2.46-6.06-.13-.28-.27-.55-.42-.81-.16-.26-.32-.52-.5-.76-.17-.25-.36-.49-.56-.72h0c-.2-.24-.41-.46-.62-.67-.21-.2-.41-.4-.63-.58-.02-.02-.03-.03-.05-.04-.11-.09-.23-.19-.35-.28h0c-.12-.09-.24-.19-.37-.28-.03-.02-.05-.04-.08-.06-.1-.07-.2-.14-.3-.2-.02-.01-.03-.02-.04-.03-.24-.16-.49-.31-.74-.45-.13-.08-.27-.14-.4-.21-.11-.05-.22-.09-.33-.13-.02,0-.04-.02-.06-.02-.15-.06-.3-.11-.45-.16-.15-.05-.3-.1-.45-.14,0,0-.01,0-.02,0h0s0,0-.01,0c-.09-.03-.18-.05-.27-.07-.03-.01-.06-.02-.09-.03-.06-.02-.13-.03-.19-.05-.12-.03-.24-.06-.36-.08-.15-.03-.29-.06-.44-.08-.17-.03-.33-.06-.5-.08-.17-.02-.33-.04-.5-.06-.22-.02-.43-.04-.65-.06-.12-.01-.24-.02-.36-.02-.21-.02-.42-.02-.62-.03-.13,0-.26,0-.4,0-.13,0-.26,0-.39,0h-.09c-.46,0-.92.01-1.37.03-.49.02-.98.04-1.46.06-.25.01-.5.02-.75.03-.12,0-.24.01-.35.02-.37.02-.74.03-1.11.03-.22,0-.43,0-.64,0h-.18c-.22,0-.44,0-.66-.01-.21,0-.43-.01-.63-.02-3.32-.31-6.63-.7-9.94-1.11-3.68-.89-7.38-1.7-11.12-2.48h.02s0,0-.01,0h0s0,0-.01,0h-.01s.02,0,.03,0c-2.73-.36-5.03-.93-7.47-1.45,3.29-1.76,6.57-3.57,9.86-5.28,8.78-4.26,17.91-7.75,26.7-11.97,2.2-1.22,4.31-2.76,6.15-4.55,0,0,0,0,.01,0,.03-.05.06-.09.1-.12h0s.02-.02.03-.03c.02-.03.05-.05.08-.08.02-.02.04-.03.06-.05,0,0,.01,0,.02-.01.01,0,.02-.01.04-.02h0s0,0,0,0h0s0,0,0,0h0s.04-.03.06-.05h0s0,0,0,0h0s.04-.05.06-.08c.02-.02.05-.03.06-.05.14-.16.3-.32.45-.47.11-.11.2-.22.3-.34,0,0,.01-.02.02-.03.03-.04.06-.08.09-.12.02-.03.05-.06.07-.09.02-.02.03-.05.05-.07.03-.03.05-.06.08-.1,0,0,.02-.02.03-.03h0s0,0,0-.01c2.46-2.87,4.23-6.27,4.76-10.06.04-2.2.12-4.4.22-6.59,1.58-4.31,3.23-8.63,4.9-12.94,6.77-17.51,16.25-33.95,27.6-48.89,31.84-41.73,77.1-63.95,129.1-67.54,1.05-.08,2.09-.15,3.14-.21.55-.03,1.1-.06,1.65-.09.47-.02.93-.04,1.4-.06.3-.01.6-.02.9-.03.41-.02.81-.03,1.22-.04.19,0,.39-.01.59-.02.29,0,.57-.02.86-.02.21,0,.43,0,.64-.01.46,0,.91-.02,1.36-.02.38,0,.76-.01,1.14,0,.27,0,.54,0,.81,0h.08c.61,0,1.22,0,1.83.01.49,0,.97.01,1.46.02.06,0,.13,0,.19,0,.19,0,.38,0,.57,0h.11s.01,0,.02,0c.07,0,.14,0,.21,0,.01,0,.02,0,.03,0,.86.02,1.73.05,2.59.08.47.02.95.04,1.42.06.1,0,.2,0,.3.02h.3s0,.02,0,.02h0c.55.03,1.11.05,1.66.09.06,0,.13,0,.19,0t0,0c.12,0,.24.01.36.02h0s0,0,0,0h0s.06,0,.09,0h0c.35.02.71.04,1.06.06,2.07.14,4.14.3,6.2.51.89.09,1.78.18,2.67.28,0,0,.02,0,.03,0,.41.04.82.09,1.22.14.29.03.57.07.86.1.03,0,.06,0,.1.01.06,0,.11.02.17.02.74.09,1.48.19,2.22.29.02,0,.03,0,.05,0,.04,0,.08.01.13.02.04,0,.08.01.11.02.19.02.38.05.57.08.05,0,.11.02.16.02.22.03.44.06.66.09.06.01.13.02.19.03.2.03.4.05.6.08.08.01.15.02.23.03.12.02.24.03.36.05.05,0,.1.02.14.02.03,0,.05,0,.08.01.03,0,.06,0,.09.02.21.03.41.06.62.09.11.02.21.03.32.05.17.03.33.05.49.08.13.02.26.04.39.06.06.01.13.02.19.03,0,0,0,0,.01,0,.65.1,1.3.21,1.95.32.05,0,.11.02.16.03.67.11,1.34.24,2.01.35.47.08.94.17,1.41.27.06,0,.11.02.17.03.01,0,.02,0,.03,0,.08.01.16.03.24.05.21.03.41.07.62.11.81.16,1.62.32,2.43.49.01,0,.02,0,.03,0,.07,0,.14.03.21.04t0,0c.69.14,1.39.29,2.08.44.08.02.15.03.23.05.29.06.59.13.88.19.36.08.73.16,1.09.25.02,0,.03,0,.05.01.08.02.16.03.23.05.04.01.08.02.12.03.14.03.27.06.41.09.67.15,1.33.31,1.99.47.1.03.19.05.29.07.33.08.67.16,1.01.25.1.02.2.05.3.08.25.06.51.13.77.19.17.05.35.09.53.14.25.06.51.13.76.2.08.02.15.03.23.06,0,0,.02,0,.02,0h.01s0,0,.01,0c.07.02.14.03.21.06.04,0,.09.02.13.03,0,0,0,0,.01,0,.02,0,.03,0,.05.02,0,0,0,0,0,0h0c.23.06.45.12.68.18.03,0,.07.02.11.03.1.02.19.05.29.08.04.01.08.02.13.03.07.02.15.04.22.06.02,0,.03,0,.04.01.1.03.2.05.3.08.24.06.47.13.71.19.17.05.35.1.52.14.06.02.12.04.18.05,0,0,0,0,.02,0,0,0,.02,0,.02,0,0,0,0,0,0,0,.02,0,.03,0,.04.01.05.02.1.03.14.04.1.03.19.05.29.08.44.12.87.25,1.31.37.01,0,.02,0,.03.01.05.01.1.03.15.04,0,0,.02,0,.02,0,0,0,.02,0,.02,0,.05.01.1.03.14.04.02,0,.03,0,.05.01.07.02.13.04.2.06.73.21,1.46.43,2.19.65h0s.01,0,.02,0t0,0c.08.02.15.05.23.07.03,0,.06.02.09.03.3.09.59.18.89.27.05.02.1.03.14.05.35.11.69.22,1.04.33.79.25,1.59.51,2.38.77.43.14.86.29,1.28.43.37.12.73.24,1.1.37.18.06.37.13.55.19.22.08.44.15.67.23.43.15.87.3,1.3.45.74.26,1.49.53,2.23.8.41.15.82.3,1.24.46.21.08.41.15.62.23.24.09.49.19.74.28.11.05.23.09.34.13-.19-.07-.39-.15-.58-.22.73.28,1.47.56,2.2.84.02,0,.05.02.07.03.03,0,.05.02.08.03.11.05.22.09.33.13,1.14.44,2.27.9,3.4,1.36.3.12.6.25.91.37t0,0h0s.01,0,.02,0h0c.17.07.34.14.51.21.18.07.36.15.54.22.14.06.27.11.41.17.13.06.27.11.4.17.05.02.09.04.14.06.44.19.89.38,1.33.57.21.09.42.18.63.27.28.12.55.24.84.36h0s.01,0,.02.01h0s0,0,0,0h0s0,0,0,0h0c.08.04.17.08.25.11.59.26,1.17.52,1.76.79.14.06.27.12.41.19.3.13.6.27.89.41.49.22.97.44,1.46.67.49.23.97.45,1.45.68.14.07.29.14.43.21.02,0,.05.02.07.03.73.35,1.47.7,2.2,1.06.75.37,1.5.74,2.25,1.12.04.02.08.04.12.06.75.37,1.5.76,2.24,1.14.38.2.77.4,1.15.6.11.06.22.11.33.17.21.11.42.22.63.33.56.29,1.11.59,1.67.89.15.08.3.16.45.24.03.02.06.03.1.05.43.23.86.47,1.29.71.43.23.86.47,1.28.7.61.34,1.22.68,1.82,1.02.01,0,.02.01.03.02.14.08.29.17.44.25.12.07.24.14.36.21.1.06.19.11.29.17.17.09.33.19.5.29.02.02.05.03.08.05.23.13.46.27.69.4,41.03,23.85,74.3,61.25,93.04,104.87.06.14.12.28.19.42,0,0,0,.02,0,.02.02.04.03.08.05.12,0,.01,0,.02.02.03.05.11.09.22.14.32.03.08.07.16.1.23.04.09.08.17.11.26.02.06.05.11.07.17.03.07.06.14.09.2.02.04.03.07.05.11.02.05.05.1.06.15.06.14.12.29.18.43.01.02.02.05.03.07.04.09.07.17.11.25.02.05.04.1.06.14.02.03.03.07.04.1.06.15.13.3.19.46.02.05.05.1.07.16.04.09.08.19.12.29.02.04.04.08.05.13.05.13.1.25.16.38.01.03.02.05.03.08.06.15.12.3.18.45.02.03.03.06.04.1.06.14.11.28.17.42,0,.01.01.02.01.03.06.16.13.32.19.48.02.02.02.05.03.07.05.13.1.25.16.38.02.04.03.08.05.12,0,.02.02.03.02.05.05.13.1.27.16.4,0,0,0,.01,0,.02.06.14.11.28.17.43.05.13.1.25.15.38.02.03.03.07.04.11.02.03.03.07.04.11.06.15.12.3.17.45.01.03.02.05.03.08.05.14.11.28.16.42.01.02.02.04.02.06.02.04.03.08.04.11.05.13.1.25.14.37,0,0,0,.02,0,.03.06.14.11.29.17.44.01.03.02.06.03.08.12.32.24.63.35.95.01.02.02.05.03.07.12.32.23.63.35.95.02.03.03.06.03.1.05.13.1.27.15.41,0,.02.02.04.02.06.06.16.11.32.17.47.01.02.02.05.03.07.05.14.1.27.14.41.02.03.03.06.03.09.05.16.11.31.16.47,0,0,0,.02,0,.02.02.06.04.12.07.19.02.08.05.16.08.24.02.04.03.08.04.13.05.13.09.26.13.39.01.03.02.05.03.08.05.15.11.3.16.46.02.03.03.07.04.11.02.06.04.12.06.18.02.06.04.12.06.18.02.04.03.08.04.13.05.15.1.3.15.45.01.03.02.05.02.08.05.14.09.27.14.41.01.03.02.06.03.09.05.16.1.31.16.47,0,.01.01.03.01.04.05.14.09.27.14.41.02.04.03.09.04.13.04.13.09.27.13.4,0,.02.02.04.02.06.05.15.1.3.14.45.02.04.03.08.04.12.05.14.09.27.13.41,0,.02.02.04.02.06.05.15.1.3.14.46.02.04.03.09.04.13.04.11.07.23.11.34.02.05.03.09.04.14.05.15.09.3.14.45.01.02.02.04.02.06.04.14.09.28.13.43.01.03.02.06.03.09.05.16.1.32.14.48.05.16.1.33.14.49.01.02.02.05.02.08.04.14.08.28.12.42.01.03.02.05.02.08.05.16.09.31.13.46.01.04.03.08.03.12.01.04.02.08.04.12.02.07.04.14.06.21.02.06.03.11.05.17.02.07.04.14.06.21.02.07.04.14.06.21.01.04.02.08.03.11.03.12.06.23.1.35.02.05.03.1.04.15.03.12.07.25.1.37.02.05.03.11.05.17,0,0,0,.01,0,.02.03.11.06.23.09.34.02.06.03.12.05.18.03.11.06.21.08.32.02.04.03.09.03.13.04.14.08.29.12.43.02.05.03.11.04.16.03.1.05.2.08.3.02.06.03.13.05.19,0,.02.01.04.02.06.03.11.06.23.09.35.02.06.03.13.05.19.01.04.02.09.03.13.01.04.02.09.03.13.02.07.04.14.05.21.01.05.02.09.03.14.01.05.02.09.03.14.03.1.05.21.08.31.05.16.08.33.13.5.02.07.03.14.05.22.03.12.06.25.09.37.02.08.04.16.06.24.02.08.04.16.06.24.02.07.03.14.05.21.02.08.04.17.06.25.02.07.03.13.05.2.03.14.07.29.1.44.02.05.03.11.04.16.08.32.15.63.22.95,0,.02,0,.03.01.04,0,.03.01.05.02.08.02.1.05.2.06.3.01.05.02.08.03.13.08.33.14.65.21.97,0,.03.02.06.02.09.07.34.15.68.22,1.03,0,.02,0,.03,0,.05Z"/>
        <path class="cls-4" d="M48.9,225.64h0s0,0,0,0c0,0,0,0,0,0Z"/>
        <path class="cls-4" d="M48.89,225.65h0s0,0,0,0Z"/>
        <path class="cls-4" d="M3.63,247.01s-.02-.02-.03-.03c.02,0,.02.02.03.03h0Z"/>
        <path class="cls-4" d="M4.9,247.97s.03.03.04.04c-.02-.01-.03-.02-.04-.04Z"/>
        <path class="cls-4" d="M4.94,248.01s.03.02.03.03c-.01-.01-.02-.02-.03-.03Z"/>
        <path class="cls-4" d="M4.94,248s0,0,0,0h0Z"/>
        <path class="cls-4" d="M4.89,247.96s0,0,0,0t0,0Z"/>
        <path class="cls-4" d="M48.68,225.81s0,0,0,0c0,0-.01.01-.02.02,0,0,.02-.02.02-.02Z"/>
        <path class="cls-4" d="M0,250.47s0,0,0,0c0,0,0,0,0,0Z"/>
        <path class="cls-4" d="M13.31,249.21s-.01,0-.02,0c0,0,.01,0,.02,0,0,0,0,0,.01,0h-.02Z"/>
        <path class="cls-4" d="M15.02,252.83s-.03-.01-.05-.02c.02,0,.03.01.05.02h0Z"/>
        <path class="cls-3" d="M269.05,419.78c-13.07-1.81-25.82-5.24-38.43-9.04-8.72-2.41-17.26-5.45-25.47-9.2-16.67-5.6-32.26-14.26-47.25-23.36-21.05-13.3-41.27-28.1-59.23-45.38-6.01-6-12.15-11.96-17.46-18.59-5.49-6.2-10.78-12.58-15.48-19.41-5.97-7.8-11.57-16.2-15.86-24.99-1.18-2.3-2.02-4.71-3.4-6.86-.61-1.26-2.17-1.11-3.34-1.49-3.47-.94-7.01-1.56-10.43-2.67-4.47-1.22-8.81-2.89-13.11-4.64-1.54-.36-3.02-.74-4.56-1.32.01,0,.02,0,.03,0-3.25-1.33-6.77-2.2-9.57-4.39-.04-.03-.08-.05-.12-.08-.08-.08-.16-.15-.25-.22-.05-.04-.1-.08-.14-.11-.01-.01-.02-.02-.03-.03h0s-.03-.03-.04-.04t0,0h0c-.19-.17-.38-.33-.58-.48-.02-.01-.03-.02-.05-.04-.23-.17-.46-.34-.7-.49-.05-.04-.1-.08-.14-.12,6.82-6.76,12.79-14.47,21.18-19.36,6.58-4.53,20.22-7.66,23.5-15,.28-.52.55-1.05.83-1.57,1.72-15.61,8.13-30.94,15.22-44.75,5.66-11.73,13.38-22.28,21.47-32.43,13.73-16.77,30.51-31.22,49.4-41.9,30.77-16.82,66.25-24.46,101.2-23.71,43.97,1.48,87,16.94,123.36,41.43,10.82,7.18,20.9,15.45,30.16,24.57,15.74,15.11,29.75,32.16,40.64,51.1,17.52,30.28,29.49,64.68,28.5,100.01-.52,17.86-5.18,35.68-13.05,51.7-9.87,19.22-24.12,36.02-41.06,49.4-30.74,23.06-69.14,35.82-107.54,35.82-9.43,0-18.85-.77-28.17-2.35ZM47.73,253.69c2.16,1.1,4.05,2.88,5.07,5.09.68,2.08,1.47,4.1,2.46,6.06,1.09,2.25,2.42,4.3,3.54,6,5.05,7.86,10.78,15.29,16.76,22.46,5.92,7.4,11.97,14.78,18.66,21.49,9.08,8.57,18.05,17.32,27.73,25.21.86.63,1.71,1.26,2.57,1.89,15.48,11.79,31.26,22.98,48.03,32.84,7.48,4.07,14.94,8.21,22.73,11.65,5.26,2.14,10.56,4.19,15.76,6.48,4.19,1.63,8.37,3.28,12.62,4.73,23.65,8.21,48.58,14.42,73.67,14.42.76,0,1.52,0,2.28-.02,2.73-.04,5.46-.16,8.19-.35,47.45-3.21,95.01-26.04,121.7-66.31.1-.14.19-.28.29-.43.01-.02.03-.04.04-.07.09-.13.18-.27.27-.4.02-.03.04-.06.06-.09.09-.13.18-.27.27-.4.01-.02.03-.04.04-.06.09-.13.17-.26.26-.4.01-.02.02-.03.03-.05.09-.14.18-.28.27-.41.02-.03.03-.05.05-.08.09-.13.17-.27.26-.4.02-.03.04-.06.05-.09.09-.14.18-.28.27-.42,0,0,.01-.02.01-.02.08-.13.17-.27.25-.4.02-.03.03-.05.05-.08.09-.14.17-.27.25-.41.02-.02.03-.05.04-.07.09-.14.17-.28.26-.41.02-.02.03-.05.05-.07.08-.13.16-.27.25-.4,0,0,.02-.03.02-.04.08-.14.17-.28.25-.42.01-.02.03-.05.05-.08.08-.14.17-.28.25-.41.01-.02.03-.05.04-.07.08-.14.17-.28.25-.43,0-.02.02-.03.02-.04.08-.14.16-.28.24-.42,0-.02.02-.03.02-.04.08-.14.16-.28.24-.42.02-.03.03-.06.05-.09.08-.14.16-.28.24-.41.01-.02.03-.05.04-.07.17-.3.34-.6.51-.91,0,0,0-.01.01-.02.08-.15.16-.29.24-.44.01-.03.03-.05.04-.07.08-.14.16-.29.24-.43,0-.01.01-.02.02-.04.16-.3.33-.61.49-.91,0-.02.02-.03.02-.05.08-.14.15-.29.23-.43.01-.02.03-.05.04-.07.08-.14.15-.29.22-.43,0-.01.01-.02.02-.03.07-.14.15-.29.22-.43,0-.02.02-.03.02-.05.07-.14.15-.29.22-.43.01-.03.03-.05.04-.08.07-.14.14-.28.21-.43.01-.02.02-.05.04-.07.07-.15.15-.29.22-.44,0,0,0,0,0,0,.07-.14.14-.29.21-.43.01-.03.02-.05.04-.08.07-.14.13-.27.2-.41.02-.04.04-.07.05-.11.06-.13.12-.26.19-.39.02-.04.04-.08.05-.11.06-.12.11-.24.17-.36.01-.03.03-.06.04-.08.06-.13.12-.26.18-.39.02-.04.04-.08.06-.12.06-.13.12-.26.18-.39.02-.04.04-.08.06-.13.06-.13.12-.26.17-.39.02-.04.04-.08.05-.12.05-.11.1-.21.14-.32.02-.04.04-.08.05-.12.05-.12.11-.25.16-.37.02-.05.05-.11.07-.16.05-.12.1-.24.15-.35.03-.06.05-.12.08-.18.03-.08.07-.15.1-.23.04-.11.09-.21.14-.32.03-.06.05-.12.08-.18.04-.1.09-.2.13-.3.03-.07.06-.15.09-.23.03-.08.06-.16.1-.24.02-.05.04-.09.06-.14.06-.14.12-.28.17-.43.01-.03.02-.06.03-.09.07-.17.14-.34.2-.51,0-.01,0-.02.01-.03,9.27-23.4,9.97-48.77,4.84-73.46,0-.02,0-.03,0-.05-.07-.34-.14-.68-.22-1.03,0-.03-.01-.06-.02-.09-.07-.32-.14-.65-.21-.97,0-.04-.02-.08-.03-.12-.02-.1-.04-.2-.07-.3,0-.04-.02-.08-.03-.12-.04-.18-.08-.36-.12-.53-.01-.04-.02-.09-.03-.13-.02-.09-.04-.19-.07-.28-.01-.05-.03-.11-.04-.16-.03-.15-.07-.29-.1-.44-.02-.07-.03-.13-.05-.2-.02-.08-.04-.17-.06-.25-.02-.07-.03-.14-.05-.21-.02-.08-.04-.16-.06-.24-.02-.08-.04-.16-.06-.25-.03-.12-.06-.25-.09-.37-.02-.07-.04-.15-.05-.22-.02-.07-.04-.15-.05-.22-.02-.09-.05-.19-.07-.28-.03-.1-.05-.2-.08-.31-.02-.09-.05-.18-.07-.27-.02-.07-.04-.14-.05-.21-.02-.09-.04-.17-.07-.26-.02-.06-.03-.12-.05-.19-.04-.14-.07-.27-.11-.41-.02-.06-.03-.12-.05-.19-.03-.1-.05-.2-.08-.3-.01-.05-.03-.11-.04-.16-.04-.14-.08-.29-.12-.44-.01-.04-.02-.09-.04-.13-.03-.1-.06-.21-.08-.31-.02-.06-.03-.12-.05-.19-.03-.12-.06-.24-.1-.36-.01-.05-.03-.11-.05-.17-.03-.12-.07-.25-.1-.37-.01-.05-.03-.1-.04-.15-.03-.12-.06-.23-.1-.35-.01-.04-.02-.08-.03-.12-.04-.14-.08-.28-.12-.43-.02-.06-.03-.11-.05-.17-.03-.11-.06-.22-.1-.34-.01-.04-.02-.08-.03-.12-.04-.15-.09-.31-.13-.46,0-.03-.01-.05-.02-.08-.04-.14-.08-.28-.12-.42,0-.02-.01-.05-.02-.08-.05-.16-.1-.32-.14-.49,0,0,0-.01,0-.02-.05-.15-.09-.31-.14-.46,0-.03-.02-.06-.03-.09-.04-.14-.09-.28-.13-.43,0-.02-.01-.04-.02-.06-.05-.15-.09-.3-.14-.45-.01-.04-.03-.09-.04-.14-.04-.12-.07-.23-.11-.34-.01-.04-.03-.09-.04-.13-.05-.15-.1-.31-.14-.46,0-.02-.01-.04-.02-.06-.04-.14-.08-.27-.13-.4-.01-.04-.03-.08-.04-.12-.05-.15-.1-.3-.14-.45,0-.02-.01-.04-.02-.06-.04-.14-.09-.27-.13-.4-.01-.04-.03-.09-.04-.13-.04-.14-.09-.28-.13-.41,0-.01,0-.03-.01-.04-.05-.16-.1-.31-.15-.47-.01-.03-.02-.06-.03-.09-.04-.13-.09-.27-.14-.41,0-.02-.02-.05-.03-.08-.05-.15-.1-.3-.15-.45-.01-.04-.03-.09-.04-.13-.04-.12-.08-.24-.12-.35-.01-.03-.02-.07-.04-.11-.05-.15-.1-.3-.16-.46,0-.03-.02-.05-.03-.08-.04-.13-.09-.26-.13-.39-.01-.04-.03-.08-.04-.12-.05-.14-.1-.29-.15-.43,0,0,0-.02,0-.02-.05-.16-.11-.31-.17-.47-.01-.03-.02-.06-.03-.09-.05-.14-.1-.27-.14-.41,0-.02-.02-.05-.03-.07-.06-.16-.11-.32-.17-.47,0-.02-.01-.04-.02-.06-.05-.14-.1-.27-.15-.41-.01-.03-.02-.06-.03-.09-.12-.32-.23-.63-.35-.95,0-.02-.02-.05-.03-.07-.12-.32-.23-.63-.35-.95,0-.03-.02-.05-.03-.08-.06-.15-.11-.3-.17-.44,0,0,0-.02,0-.03-.06-.16-.12-.32-.18-.48,0-.02-.02-.04-.02-.06-.05-.14-.11-.28-.16-.42-.01-.03-.02-.05-.03-.08-.06-.15-.12-.3-.17-.45-.01-.03-.03-.07-.04-.11-.05-.12-.09-.24-.14-.36-.02-.04-.03-.09-.05-.13-.06-.14-.11-.28-.17-.43,0,0,0-.02,0-.02-.06-.15-.12-.3-.18-.45-.02-.04-.03-.08-.05-.12-.05-.13-.1-.26-.15-.38,0-.02-.02-.05-.03-.07-.06-.16-.13-.32-.19-.48,0-.01,0-.02-.01-.03-.06-.14-.11-.28-.17-.42-.01-.03-.03-.07-.04-.1-.06-.15-.12-.3-.18-.45,0-.02-.02-.05-.03-.08-.05-.13-.1-.25-.15-.38-.02-.04-.04-.09-.05-.13-.06-.15-.12-.29-.18-.44h0c-.06-.15-.13-.3-.19-.45-.01-.03-.03-.07-.04-.1-.06-.13-.11-.26-.17-.39-.01-.02-.02-.05-.03-.07-.06-.14-.12-.29-.18-.43-.02-.05-.04-.1-.06-.15-.04-.1-.09-.21-.13-.31-.02-.04-.04-.09-.05-.13-.06-.14-.12-.29-.19-.43-.02-.04-.03-.07-.05-.11-.05-.12-.1-.24-.15-.35-.02-.04-.03-.08-.05-.12-.07-.15-.13-.3-.2-.45-18.74-43.62-52.01-81.02-93.04-104.87-.2-.12-.4-.23-.61-.35-.05-.03-.11-.06-.16-.09-.17-.1-.33-.19-.5-.29-.1-.06-.19-.11-.29-.17-.12-.07-.24-.14-.36-.21-.15-.08-.29-.17-.44-.25-.01,0-.02-.01-.03-.02-23.27-13.2-48.81-22.77-75.19-27.23-.02,0-.04,0-.06-.01-.25-.04-.5-.08-.74-.12-.06,0-.12-.02-.17-.03-.23-.04-.45-.07-.68-.11-.06-.01-.12-.02-.18-.03-.13-.02-.26-.04-.39-.06-.16-.03-.33-.05-.49-.08-.11-.02-.21-.03-.32-.05-.15-.02-.3-.05-.45-.07-.11-.02-.23-.03-.34-.05-.17-.03-.34-.05-.51-.08-.07-.01-.15-.02-.23-.03-.2-.03-.4-.06-.6-.09-.06,0-.13-.02-.19-.03-.22-.03-.44-.06-.66-.09-.05,0-.11-.02-.16-.02-.22-.03-.46-.06-.68-.09-.04,0-.08-.01-.12-.02-4.87-.65-9.76-1.13-14.66-1.42,0,0,0,0,0,0-7.28-.43-14.6-.45-21.92-.04-1.05.06-2.1.13-3.14.21-52,3.6-97.26,25.82-129.1,67.54-11.35,14.94-20.82,31.38-27.6,48.89-1.66,4.31-3.32,8.63-4.9,12.94-.1,2.19-.18,4.39-.22,6.59-.53,3.79-2.3,7.19-4.76,10.06t0,0h0s-.02.02-.03.03c-.03.03-.05.06-.08.09-.02.02-.03.05-.05.07-.02.03-.05.06-.07.09-.03.04-.06.08-.09.12,0,0-.01.02-.02.03-.1.12-.19.23-.3.34-.15.15-.3.3-.45.47-.02.02-.05.03-.06.05-.02.02-.05.05-.06.07h0s0,0,0,0h0s-.04.03-.06.05h0s0,0,0,0h0s0,0,0,0h0s-.03.01-.04.02c0,0-.01,0-.02.01-.02.01-.05.03-.06.05-.03.02-.05.05-.08.08-.01,0-.02.02-.03.03h0s-.07.08-.1.13c0,0,0,0-.01,0-1.84,1.79-3.95,3.32-6.15,4.55-8.79,4.22-17.92,7.72-26.7,11.97-3.29,1.71-6.57,3.52-9.86,5.28,2.44.52,4.74,1.09,7.47,1.45,3.74.78,7.45,1.59,11.12,2.48,3.31.41,6.62.8,9.94,1.11.17,0,.34.02.52.02.26,0,.52.01.78.01.03,0,.06,0,.09,0,.03,0,.06,0,.09,0,.21,0,.43,0,.64,0,.37,0,.74-.02,1.11-.03.12,0,.24,0,.35-.01.25-.01.5-.02.75-.03.49-.02.98-.04,1.47-.06.46-.02.92-.03,1.37-.03.03,0,.06,0,.09,0,.13,0,.26,0,.39,0,1.82.02,3.61.22,5.32.87.02,0,.04.02.06.03.11.04.22.09.33.13Z"/>
        <path class="cls-4" d="M246.33,78.3h0s0,0,0,0Z"/>
        <path class="cls-4" d="M278.09,278.91s0,0,0,0c0,0,0,0,0,0,0,0,0,0,0,0Z"/>
        <path class="cls-4" d="M405.97,315.16c-.13-.11-.25-.21-.37-.32.16.13.32.26.48.39-.03-.02-.07-.05-.1-.07Z"/>
        <path class="cls-4" d="M402.19,318.52c-.13.28-.26.55-.4.83,0,.01-.02.02-.03.04.15-.29.29-.58.43-.87Z"/>
        <path class="cls-3" d="M446.06,307.39c.25-.8.5-1.59.73-2.39.02-.08.05-.16.07-.24.18-.64.34-1.28.49-1.93.38-1.7.67-3.41.92-5.13.05-.39.11-.78.16-1.17,19.56-9.34,37.75-22.55,53.89-38.95,16.94-17.82,31.95-37.88,41.57-60.63,2.33-5.78,4.36-11.68,6.05-17.67.23-1.95.5-3.88.84-5.82,1.19-9.33,3.56-18.46,4.32-27.85,1.24-12.33.25-24.94.26-37.22.17-3.48.95-7.05,2.67-10.08,2.64-3.77,7.41-5.41,11.76-6.26,6.24-.98,12.29-2.62,18.3-4.52,7.24-2.34,14.23-5.31,21.08-8.51-1.82.12-3.68.15-5.49.16-17.97-.22-35.79-2.27-53.59-4.6-4.47-.37-8.93-1.01-13.41-1.13-.9-.1-1.81-.08-2.7-.06-1.13.02-2.26.04-3.39-.16-3.12-.49-6.04-1.69-8.84-3.1-11.02-4.76-20.78-12.04-30.78-18.48-6.89-4.21-13.7-8.57-19.97-13.63-4.42-2.65-8.82-5.32-13.26-7.9-7.38-3.79-14.67-7.8-22.44-10.73-22.74-8.53-48.07-10.94-71.94-6.45-21.81,4.9-43.18,12.85-62.36,24.36-7.72,5.05-15.27,10.35-23.02,15.35-.59.51-1.17,1.03-1.75,1.55-8.3,7.46-15.88,15.75-22.62,24.68-.11-.02-.21-.04-.32-.06-.21-.03-.41-.06-.61-.1-.2-.03-.4-.04-.6-.05-.25-.03-.49-.08-.74-.12-.26-.04-.52-.05-.78-.06-.38-.03-.75-.06-1.13-.11-.19-.03-.38-.06-.56-.08-.29-.04-.58-.07-.87-.1-.29-.03-.57-.05-.86-.06-.07,0-.14,0-.21,0-.03,0-.06,0-.09,0,0,0,0,0,.01,0-.02,0-.05,0-.07,0-.12,0-.24.02-.36.03-.14.01-.27.04-.4.1-.67-.07-1.35-.12-2.03-.16-.25-.02-.5-.03-.74-.05-.2,0-.4-.03-.6-.04-.24-.01-.49,0-.72.01,0,0,0,0,0,0-.03,0-.06,0-.09,0,9.45-13.44,20.66-25.65,33.37-35.81,4.39-3.41,8.92-6.8,13.63-9.94,0,0,.01,0,.02-.01,10.82-7.5,23.08-13.33,34.76-18.19,17.67-6.81,35.97-13.09,55.05-13.84,18.48-1.06,37.24,1.33,54.84,7.1,12.16,3.91,23.45,10.09,34.54,16.33,7.17,3.85,13.82,8.51,20.11,13.62,9.52,5.79,18.65,12.25,28.18,17.96,5.14,2.95,10.54,5.55,16.2,7.35,3.03.29,6.02.41,9.05.78,13.14,1.3,26.41,2.23,39.36,4.88,10.18,2.25,19.8,6.21,29.39,10.21,2.35-1.11,4.68-2.24,7-3.38-7.57,10.15-17.77,18.62-29.56,23.35-6.51,2.82-13.76,2.84-20.33,5.35-1.93,3.3-1.17,7.21-1.29,10.86.2,7.06.48,14.08.14,21.09-.05,1.51-.11,3.03-.2,4.54.33,12.47-1.72,24.94-4.64,37.04-7.17,29.12-23.05,55.39-42.98,77.56-12.14,14.12-26.06,26.58-41.69,36.72-9.66,6.92-20,12.78-31.02,17.19,0,0,0,0,0,0-.05.02-.1.04-.15.06.17-.48.32-.97.47-1.46Z"/>
        <path class="cls-2" d="M429.67,345.11c-.06.08-.11.16-.17.24.06-.08.11-.16.17-.24Z"/>
        <path class="cls-2" d="M429.86,344.83c-.04.06-.08.11-.12.17.04-.06.08-.11.12-.17Z"/>
        <path class="cls-2" d="M430.04,344.56c-.05.07-.1.14-.14.21.05-.07.1-.14.14-.21Z"/>
        <path class="cls-2" d="M430.19,344.34c-.04.06-.08.12-.12.18.04-.06.08-.12.12-.18Z"/>
        <path class="cls-2" d="M431.26,342.72c-.12.19-.24.37-.36.56.12-.19.24-.37.36-.56Z"/>
        <path class="cls-2" d="M432.01,341.54c-.05.08-.1.16-.15.24.05-.08.1-.16.15-.24Z"/>
        <path class="cls-2" d="M436.87,332.95c-.08.16-.16.31-.24.46.08-.15.16-.31.24-.46Z"/>
        <path class="cls-2" d="M440.05,326.11c-.08.2-.17.4-.26.6-.55,1.28-1.13,2.56-1.74,3.83.7-1.47,1.37-2.95,2-4.43Z"/>
        <path class="cls-2" d="M442.63,319.41s0,.01,0,.02c-.08.24-.17.49-.26.73.09-.25.18-.5.26-.74Z"/>
        <path class="cls-2" d="M442.65,319.35s-.01.04-.02.06c0,0,0,0,0,0,0-.02.01-.04.02-.06Z"/>
        <path class="cls-2" d="M443.26,317.54c-.06.19-.12.38-.19.57.06-.19.13-.38.19-.57Z"/>
        <path class="cls-2" d="M444.92,312.01c-.01.05-.03.1-.04.15-.1.36-.2.71-.3,1.07.11-.4.23-.81.34-1.22Z"/>
        <path class="cls-2" d="M445.43,310.05c-.09.34-.17.68-.26,1.02.09-.34.18-.68.26-1.02Z"/>
        <path class="cls-2" d="M446.21,306.75s-.02.1-.03.15c.01-.05.02-.1.03-.15Z"/>
        <path class="cls-2" d="M446.32,306.26c-.02.09-.04.18-.06.27.02-.09.04-.18.06-.27Z"/>
        <path class="cls-2" d="M447.79,298.04c-.04.29-.08.58-.13.87-.08.55-.17,1.11-.26,1.66,0,.02,0,.03,0,.05-.1.55-.19,1.09-.29,1.64-.1.56-.21,1.12-.32,1.68-.14.75-.3,1.49-.46,2.23.58-2.7,1.07-5.42,1.46-8.14Z"/>
        <path class="cls-2" d="M447.86,297.57c-.01.08-.02.17-.04.25.01-.09.02-.17.04-.25Z"/>
        <path class="cls-2" d="M447.96,296.83c-.02.14-.04.29-.06.43.02-.14.04-.29.06-.43Z"/>
        <path class="cls-2" d="M448.31,293.95s0,.05,0,.08c-.1.91-.21,1.81-.33,2.72.12-.93.23-1.86.34-2.8Z"/>
        <path class="cls-2" d="M448.72,289.27c-.03.4-.06.8-.09,1.19-.09,1.09-.19,2.17-.3,3.25,0,.04,0,.07-.01.11.16-1.51.3-3.03.4-4.55Z"/>
        <path class="cls-2" d="M448.99,283.63s0,.02,0,.02c-.01.55-.03,1.1-.05,1.65,0,.03,0,.05,0,.08-.02.44-.04.87-.06,1.3.05-1.02.09-2.03.11-3.05Z"/>
        <path class="cls-2" d="M435.29,216.78c8.57,20.31,13.74,42.03,13.74,63.46,0,.57,0,1.13-.01,1.7,0,.51-.02,1.01-.03,1.52.55-22.47-4.7-45.35-13.7-66.68Z"/>
        <path class="cls-2" d="M434.86,215.76c.14.33.28.66.42.99-.14-.33-.28-.66-.42-.99Z"/>
        <path class="cls-2" d="M434.7,215.39c.04.09.08.18.12.28-.04-.09-.08-.18-.12-.28Z"/>
        <path class="cls-2" d="M434.45,214.82c.04.1.09.21.13.31-.04-.1-.09-.21-.13-.31Z"/>
        <path class="cls-2" d="M434.27,214.4c.03.06.05.11.07.17-.02-.06-.05-.11-.07-.17Z"/>
        <path class="cls-2" d="M434.08,213.98c-18.74-43.62-52.01-81.02-93.04-104.87-.23-.13-.46-.27-.69-.4.23.13.46.27.69.4,41.03,23.85,74.3,61.25,93.04,104.87Z"/>
        <path class="cls-2" d="M331.1,103.63c.11.06.22.11.32.17-.11-.06-.22-.11-.32-.17Z"/>
        <path class="cls-2" d="M330.35,103.23c.16.08.32.17.49.25-.16-.08-.32-.17-.49-.25Z"/>
        <path class="cls-2" d="M329.68,102.89c.13.07.26.14.4.2-.13-.07-.26-.14-.4-.2Z"/>
        <path class="cls-2" d="M319.5,97.94c.25.11.49.23.74.34.08.04.17.08.25.12-.33-.15-.66-.3-.99-.46Z"/>
        <path class="cls-2" d="M316.99,96.81s.03.01.04.02c.14.06.27.12.41.18-.15-.07-.3-.13-.45-.2Z"/>
        <path class="cls-2" d="M316.43,96.57c.16.07.32.14.49.21-.16-.07-.32-.14-.49-.21Z"/>
        <path class="cls-2" d="M315.7,96.25c.09.04.17.08.26.11-.09-.04-.17-.08-.26-.11Z"/>
        <path class="cls-2" d="M312.64,94.94c.7.29,1.4.59,2.09.89.23.1.47.2.7.3-.93-.4-1.86-.8-2.79-1.19Z"/>
        <path class="cls-2" d="M305.77,92.18c.18.07.36.14.53.21-.18-.07-.36-.14-.53-.21Z"/>
        <path class="cls-2" d="M304.09,91.54c.24.09.49.18.73.28-.24-.09-.49-.19-.73-.28Z"/>
        <path class="cls-2" d="M299.77,89.97c.1.03.19.07.29.1-.09-.03-.19-.07-.29-.1Z"/>
        <path class="cls-2" d="M296.48,88.83s.06.02.09.03c.13.04.27.09.4.13-.16-.05-.33-.11-.49-.16Z"/>
        <path class="cls-2" d="M290.64,86.96c.3.09.6.18.89.27-.3-.09-.59-.18-.89-.27Z"/>
        <path class="cls-2" d="M286.29,85.68c.45.12.89.25,1.33.38-.44-.13-.89-.26-1.33-.38Z"/>
        <path class="cls-2" d="M285.68,85.51s.06.02.08.02c-.03,0-.05-.02-.08-.02Z"/>
        <path class="cls-2" d="M283.92,85.02s.03,0,.04.01c-.01,0-.03,0-.04-.01Z"/>
        <path class="cls-2" d="M283.57,84.93s.09.02.13.03c-.04-.01-.09-.02-.13-.03Z"/>
        <path class="cls-2" d="M277.58,83.4c.47.11.94.23,1.4.34.51.13,1.02.26,1.53.39-.98-.25-1.96-.49-2.94-.73Z"/>
        <path class="cls-2" d="M275.41,82.89c.08.02.15.04.23.05-.08-.02-.15-.04-.23-.05Z"/>
        <path class="cls-2" d="M271.08,81.94c.89.19,1.79.38,2.68.57.17.04.34.08.51.11-1.06-.24-2.12-.47-3.19-.69Z"/>
        <path class="cls-2" d="M269.53,81.63c.51.1,1.03.21,1.54.31-.51-.11-1.03-.21-1.54-.31Z"/>
        <path class="cls-2" d="M268.91,81.5c.07.01.13.03.2.04.1.02.2.04.3.06-.17-.03-.34-.07-.5-.1Z"/>
        <path class="cls-2" d="M268.17,81.36s.07.01.11.02c-.04,0-.07-.01-.11-.02Z"/>
        <path class="cls-2" d="M256.73,79.48c.49.07.97.13,1.46.2.44.06.87.13,1.31.19-.92-.14-1.84-.27-2.76-.39Z"/>
        <path class="cls-2" d="M254.22,79.16c.31.04.62.08.92.12.43.06.87.11,1.3.17-.74-.1-1.48-.19-2.22-.29Z"/>
        <path class="cls-2" d="M253.96,79.13s.06,0,.09.01c-.03,0-.06,0-.09-.01Z"/>
        <path class="cls-2" d="M251.88,78.88c.35.04.7.08,1.05.12.06,0,.12.01.18.02-.41-.05-.82-.09-1.23-.14Z"/>
        <path class="cls-2" d="M242.98,78.1c.19.01.38.02.57.04,1.56.11,3.12.23,4.68.38.32.03.63.06.95.09-2.06-.2-4.13-.37-6.2-.5Z"/>
        <path class="cls-2" d="M241.5,78.01c.11,0,.22.01.33.02-.11,0-.22-.01-.33-.02Z"/>
        <path class="cls-2" d="M239.56,77.91s0,0,.01,0c0,0,0,0-.01,0Z"/>
        <path class="cls-2" d="M230.49,77.69c.46,0,.91,0,1.37,0-3.1-.02-6.2.03-9.31.16,2.65-.11,5.29-.17,7.94-.17Z"/>
        <path class="cls-2" d="M234.61,77.73s.08,0,.11,0c-.04,0-.08,0-.11,0Z"/>
        <path class="cls-2" d="M233.47,77.71c.37,0,.74.01,1.11.02-.37,0-.74-.02-1.11-.02Z"/>
        <path class="cls-2" d="M231.93,77.69c.07,0,.15,0,.22,0,.33,0,.67,0,1,.01-.41,0-.81-.01-1.22-.01Z"/>
      </g>
    </g>
  </g>
</svg>