<?xml version="1.0" encoding="UTF-8"?>
<svg id="Calque_2" data-name="Calque 2" xmlns="http://www.w3.org/2000/svg" viewBox="0 0 149.16 195.2">
  <defs>
    <style>
      .cls-1 {
        fill: #dafff5;
      }

      .cls-2 {
        fill: #99ecd8;
      }
    </style>
  </defs>
  <g id="Calque_vectoriel" data-name="Calque vectoriel">
    <g>
      <path class="cls-1" d="M110.34,59.87c2.26,6.82,2.94,14.12,2.21,21.27-.3,4.74-2.32,9.06-3.95,13.45-.69,1.92-1.43,3.82-2.18,5.71-.52,1.07-1.5,4.25-2.79,4.2-1.99-.35-1.35-5.79-1.63-7.45-.28-4.46-.63-8.92-1.25-13.35-.17-1.04-.31-2.09-.64-3.1-.67-1.8-1.77-3.4-2.76-5.04-.66-1.07-1.39-2.1-2.21-3.05-.02.24-.05.48-.08.73-.12.6-.12,1.63-.35,2.45.11.14.17.3.16.48-.27,1.42-2.09,1.75-3.31,1.64-.86-.06-1.4-.79-2.05-1.26-1.57-1.2-3.26-2.25-4.99-3.19-4.75-2.43-10.41-2.81-15.47-1.15-3.23.96-6.28,2.41-9.29,3.93-1.41.64-2.91,1.51-4.5,1.32-.59-.2-.83-.47-.82-.78-.48-.91-.66-2.56-.75-4.09-2.44,2.37-3.39,5.95-4.52,9.08-1.7,5.23-2.83,10.79-2.4,16.31.05,1.95.85,3.87.51,5.81-.16.75-.66,1.79-1.58,1.57-.93-.52-1.41-1.61-2.03-2.45-1.08-1.64-1.94-3.4-2.68-5.21-4.82-9.78-7.31-21.13-4.62-31.88,1.78-7.38,4.92-14.66,11.58-18.87,1.66-.84,4.91-2.56,7.13-2.52.68-3.58,1.49-7.14,2.21-10.71.5-2.4,1.12-4.77,2.04-7.05,1.41-3.48,2.96-6.9,5.02-10.05,1.84-3.13,4.25-5.88,6.59-8.64.92-1.01,1.87-2,2.86-2.95.52-.62,1.07-.67,1.49-.35,1.84.11,4.9,4.75,5.76,5.65,1.33,1.73,2.2,3.75,3.31,5.62,1.19,1.96,2.29,3.96,3.26,6.03,1.38,2.79,2.94,5.52,3.92,8.49,1.38,4.45,2.45,9,3.2,13.59.73-.16,1.62.2,2.33.39,1.13.34,2.29.66,3.34,1.21,1.68,1.02,3.23,2.27,4.59,3.69,2.69,2.95,4.16,6.75,5.35,10.51Z"/>
      <path class="cls-1" d="M146.67,138.04c.43,1.7-6.68,4.87-8.12,5.71-4.21,2.2-8.52,4.2-12.86,6.13.34.13.61.55.73.88.52,1.45.51,3.04.56,4.56-.07,1.96-.14,3.92-.07,5.88-.12,1.36.37,2.79-.13,4.09-.18.47-.62,1.01-1.18.86-.1-.05-.2-.11-.28-.18-2.31,1.73-4.89,3.08-7.31,4.64-7,4.43-14.39,8.2-21.52,12.41-4.24,2.47-8.46,4.98-12.74,7.4-1.89,1.07-3.78,2.16-5.68,3.22-1,.51-1.98,1.25-3.1,1.39-.21.14-.48.21-.8.17-.1-.04-.18-.09-.27-.14-.05,0-.11,0-.17-.01-2-.58-3.85-1.68-5.68-2.67-6.45-3.78-12.65-7.96-19.29-11.41-3.63-1.88-7.3-3.68-10.82-5.76-4-2.42-7.95-4.93-11.91-7.41-.9-.58-1.84-1.12-2.71-1.75-.09.03-.2.04-.31.04-.35-.14-.61-.46-.79-.9-.64-.64-.7-1.26-.32-1.55-.23-2.5.34-6.14.24-7.52.09-2.31-.2-4.7.34-6.96-2.51-1.3-5.01-2.61-7.51-3.93-1.89-1-3.75-2.05-5.63-3.06-2.36-1.28-4.83-2.32-7.21-3.55-.29-.12-.64-.37-.94-.66-.14.01-.27.02-.41,0-.41-.04-.86-.32-.79-.79.31-1.41,1.95-1.84,3.07-2.45,2.92-1.45,5.79-2.98,8.72-4.4,2.04-.99,4.07-1.98,6.11-2.97,1.02-.39,3.85-2.09,5.73-2.58.1-.17.24-.35.44-.52,1.64-1.08,3.57-1.73,5.34-2.6,3.87-1.77,7.87-3.23,11.79-4.89,2-.69,11.56-5.36,16.9-6.84.82-.65,1.91-1.11,2.98-1.31-.51-3.61-.56-7.24.3-10.86,1.46-5.45,4.66-10.69,9.57-13.64.71-.55,1.79-1.05,2.78-1.1.03-.01.05-.02.08-.03,2.54-.76,5.39.44,7.29,2.13,2.86,2.73,4.28,6.55,5.37,10.27,1.34,4.41,1.15,9.05.59,13.59.32.05.64.17.93.27.53.23,1.14.44,1.67.73,5.11,1.85,10.33,3.39,15.39,5.41,2.91,1.22,5.84,2.38,8.73,3.64,2.91,1.3,5.85,2.64,8.48,4.46.61.46,1.3.87,1.85,1.41.23-.04.46-.07.7-.09.42.02.7.11.86.27.04,0,.07.02.11.03,2.22.9,4.33,2.07,6.46,3.15,3.48,1.93,7.03,3.77,10.43,5.85.62.31,4.47,2.94,3.83,3.78.06.05.12.11.17.18Z"/>
      <path class="cls-2" d="M70,149.32c1.48-1.17,2.96-2.38,4.56-3.39-6.66-2.18-12.71-5.82-19.05-8.73-4.3-2.02-8.62-4-12.74-6.38-4.85-2.65-9.88-4.96-14.93-7.18-.57-.27-1.25-.52-1.78-.91-.09.06-.18.11-.25.15-3.02,1.81-6.21,3.32-9.36,4.86-1.29.61-2.7.85-3.93,1.57-1.93.97-3.83,1.98-5.77,2.93-.09.04-.18.09-.28.13.29.15.57.3.85.43,1.47.7,2.94,1.39,4.39,2.12,5.24,2.8,10.48,5.59,15.75,8.32,8.21,4.41,16.64,8.4,24.9,12.71,2,1.02,4.16,1.85,6.09,3.02,1.21-1.16,2.61-2.11,3.86-3.23,2.54-2.16,5.09-4.3,7.68-6.4ZM75.48,153.36c.04-1.54.09-3.08.14-4.62-1.2,1.13-2.56,2.1-3.77,3.19-2.89,2.41-5.77,4.84-8.65,7.27-.81.58-1.56,1.39-2.42,1.97-.01.28-.21.5-.73.52-.07,0-.14-.01-.21-.02-.33.12-.68.2-1.06.2-.69-.06-1.05-.46-1.14-.97-.51-.25-1.01-.52-1.53-.72-3.82-1.66-7.55-3.49-11.23-5.42-5.95-2.93-11.85-5.93-17.73-8.98.46,2.38.08,4.89.09,7.29-.09,1.99-.26,3.96-.44,5.95-.02.12-.04.26-.05.41,3.4,1.38,6.44,3.56,9.58,5.44,6.57,4.36,13.66,7.55,20.5,11.41,4.4,2.5,8.65,5.26,12.98,7.88,1.55.96,3.15,1.83,4.69,2.82.3.21.62.38.94.56-.05-1.4-.09-2.8-.15-4.2-.5-9.98-.14-19.98.2-29.96ZM119.62,122.92c1.61-.64,3.21-1.44,4.87-2-6.12-2.49-12.16-5.19-18.31-7.61-4.76-1.88-9.71-3.23-14.48-5.08-.29-.12-.58-.25-.86-.41-.08-.03-.16-.07-.24-.1,0,0-.02,0-.02,0-.49-.16-.98-.36-1.41-.59-.56,4.19-1.82,8.23-3.38,12.16-.99,2.48-1.75,5.03-2.62,7.55-1.17,3.25-2.65,6.38-3.82,9.63-.35.95-.7,1.91-1.08,2.85-.27.63-.55,1.66-1.42,1.49-.34-.14-.57-.43-.71-.76-.09.02-.18.02-.27-.01-.42-.18-.65-.6-.84-1-.26-.55-.53-1.09-.78-1.63-1.02-2.15-2.05-4.3-2.88-6.54-1.52-4.61-3.34-9.12-4.76-13.76-.93-3.46-1.96-7-2.64-10.57-.53.26-1.08.52-1.65.68,0,0-.01,0-.02,0-.17.08-.32.16-.45.23-1.56.77-3.14,1.5-4.75,2.18-6.52,2.78-13.02,5.58-19.61,8.19-2.36.96-4.68,2.03-7,3.1-.28.13-.55.27-.84.4,1.22.55,2.45,1.09,3.67,1.64,4.15,1.9,8.29,3.86,12.26,6.11,4.18,2.4,8.62,4.29,12.95,6.41,4.22,2,8.32,4.23,12.56,6.17,1.57.83,3.38,1.36,4.82,2.41,1.57-.89,3.24-1.61,4.83-2.47,6.93-3.79,14.14-7,21.44-10,5.97-2.59,11.49-6.09,17.46-8.66ZM127.07,160.01h0c-.15-1,0-2.2-.13-3.01-.09-3.17-.33-6.36-.07-9.52.07-.54.1-1.22.41-1.69-1.47.66-2.94,1.3-4.41,1.95-6.12,2.52-12.15,5.26-18.04,8.27-2.25,1.14-4.42,2.41-6.61,3.67-.51.27-1.01.59-1.53.86,0,.1,0,.2-.03.31-.25.75-1.23.78-1.92.73-1.57-.14-2.5-1.46-3.64-2.38-1.11-.91-2.28-1.75-3.44-2.6-1.44-1.07-2.79-2.25-4.16-3.4-1.61-1.31-3.26-2.61-4.75-4.07.16,5.66-.28,11.34-.34,17-.05,2.71-.52,5.4-.48,8.11-.08,4.44.15,8.88.3,13.32,0,.04,0,.08.01.12,1.12-.64,2.26-1.23,3.36-1.89,8.94-5.03,17.69-10.39,26.7-15.3,6.37-3.29,12.22-7.58,18.77-10.49ZM147.08,133.38c-.7-.2-1.38-.5-2.04-.8-1.96-.94-3.86-1.99-5.79-2.99-3.94-2.23-7.95-4.34-11.96-6.41-.26-.16-.47-.35-.64-.54-2.83,1.41-5.8,2.55-8.62,4.01-3.43,1.71-6.77,3.59-10.2,5.32-5.75,2.86-11.86,4.92-17.65,7.71-3.44,1.66-6.82,3.43-10.25,5.13-.5.23-1,.5-1.51.76.02.08.04.16.06.24.28.13.55.28.8.43,1.07.66,2.05,1.46,3.02,2.26,2.98,2.28,5.83,4.71,8.82,6.98,1.34.99,2.7,1.96,3.93,3.08.37-.2.74-.4,1.09-.62,3.27-1.95,6.62-3.77,10.05-5.41,9.76-4.92,20.09-8.62,29.84-13.57,2.43-1.21,4.85-2.44,7.25-3.7.75-.34,2.39-1.4,3.78-1.87ZM149.14,133.55c.43,1.7-6.68,4.88-8.12,5.71-4.21,2.2-8.52,4.2-12.86,6.13.34.13.61.55.73.88.52,1.45.51,3.04.56,4.56-.07,1.96-.14,3.91-.07,5.88-.12,1.36.37,2.79-.13,4.1-.18.47-.62,1.01-1.18.85-.1-.05-.2-.11-.28-.18-2.31,1.73-4.89,3.08-7.31,4.64-7,4.43-14.39,8.19-21.52,12.4-4.24,2.47-8.46,4.99-12.74,7.41-1.89,1.07-3.78,2.16-5.68,3.22-1,.51-1.98,1.25-3.1,1.39-.21.14-.48.21-.8.17-.1-.04-.18-.09-.27-.14-.05,0-.11,0-.17-.01-2-.58-3.86-1.69-5.68-2.68-6.45-3.77-12.65-7.96-19.29-11.41-3.63-1.88-7.3-3.68-10.82-5.76-4-2.42-7.95-4.93-11.91-7.41-.9-.58-1.84-1.12-2.71-1.75-.09.03-.2.04-.31.04-.35-.14-.61-.46-.79-.91-.64-.63-.7-1.25-.32-1.55-.23-2.5.34-6.14.24-7.52.09-2.31-.2-4.7.34-6.96-2.5-1.3-5.01-2.61-7.51-3.93-1.89-1-3.75-2.05-5.63-3.06-2.35-1.28-4.83-2.32-7.2-3.55-.29-.12-.64-.37-.95-.66-.14.01-.27.02-.41,0-.41-.04-.85-.32-.78-.79.31-1.41,1.95-1.84,3.07-2.45,2.92-1.44,5.79-2.98,8.72-4.4,2.04-.99,4.07-1.98,6.11-2.97,1.02-.4,3.86-2.1,5.74-2.58.09-.17.24-.34.44-.51,1.64-1.09,3.57-1.73,5.34-2.6,3.87-1.76,7.87-3.22,11.79-4.89,2-.69,11.56-5.36,16.9-6.84.82-.65,1.91-1.11,2.98-1.31-.51-3.61-.56-7.24.3-10.86,1.46-5.45,4.66-10.7,9.57-13.64.71-.55,1.79-1.05,2.78-1.1.03-.01.05-.02.08-.03,2.54-.76,5.39.44,7.29,2.13,2.86,2.73,4.28,6.55,5.37,10.27,1.34,4.41,1.15,9.05.59,13.59.32.05.64.17.93.27.52.23,1.13.43,1.66.72,5.12,1.86,10.34,3.4,15.4,5.41,2.91,1.22,5.84,2.39,8.73,3.64,2.91,1.3,5.85,2.64,8.48,4.46.61.46,1.3.87,1.85,1.41.23-.04.46-.07.7-.09.42.02.7.11.86.27.04,0,.07.02.11.03,2.22.9,4.33,2.07,6.46,3.15,3.48,1.93,7.03,3.77,10.43,5.85.62.31,4.47,2.93,3.83,3.77.06.05.12.11.17.18Z"/>
      <path class="cls-2" d="M55.93,63.2c-.17-6.21.02-12.44.83-18.6-1.33.31-2.6.83-3.84,1.4-1.72.68-3.2,1.78-4.52,3.07-2.22,2.07-3.8,4.73-4.92,7.53-3.48,8.49-3.71,16.98-.95,25.7,1.03,3.41,2.48,6.67,3.92,9.92.03.07.05.2.05,0,0-.19,0-.38,0-.57-.04-3.29.38-6.55,1.02-9.77,1.1-5.08,3.86-15.58,8.4-18.69ZM83.69,37.72c.13-.39-.09-.8-.2-1.17-.29-.76-.64-1.51-1.06-2.21-1.29-2.05-3.21-4.04-5.44-4.89-.69.49-1.57.62-2.27,1.09-.67.41-1.23.97-1.7,1.59-1.22,1.72-3.07,4.71-.98,6.44,1.89,1.43,4.41,1.64,6.69,1.71,1.92.01,4.07-.74,4.96-2.55ZM93.1,32.72c-.34-1.32-.71-2.64-1.09-3.96-.95-2.89-2.52-5.5-3.83-8.23-.97-2.11-2.16-4.1-3.33-6.1-.81-1.4-1.49-2.86-2.39-4.21-1.36-1.83-2.84-3.57-4.33-5.29-.14-.14-.29-.29-.43-.45-.24.28-.53.55-.86.83-.98.97-1.94,1.97-2.82,3.04-1.46,1.85-3.05,3.61-4.39,5.56-1.26,2.02-2.55,4.03-3.58,6.18-1.01,2.25-2.07,4.49-2.82,6.84-.56,1.82-.93,3.68-1.3,5.54.07,0,.15-.01.23-.02,1.41-.05,2.81.26,4.22.36.58.06,1.16.11,1.73.18.28.03.57.04.86.09,1.14-3.46,3.8-7.41,7.29-7.5.42-.68,1.12-1.02,1.85-.55,2.36,1.14,4.32,2.98,5.79,5.15.62.93,1.2,1.95,1.66,3,.39-.19.86-.2,1.29-.23,1.57-.1,3.15-.1,4.72-.16.46.04,1.02-.07,1.54-.08ZM95.39,64.78c.26-7.21.42-14.46-.25-21.65-.24-2.04-.59-4.07-1.02-6.08-.02.04-.05.07-.09.1-.54.42-1.29.21-1.92.3-1.87.01-3.77.22-5.63.06,0,.5-.05,1.01-.16,1.51-1.2,5.01-5.84,6.6-10.52,5.71-4.66-.58-7.13-3.01-7.43-7.02-2.46-.25-4.95-.48-7.38-.91-1.21,5.76-2.18,11.57-2.37,17.48-.15,4.17-.05,8.35.05,12.52-.02.66.11,2.2.02,3.55,1.88-1.2,4.64-2.35,5.2-2.57,6.43-2.78,13.61-4.83,20.61-3.2,3.8.74,7.27,2.56,10.4,4.8.04-.32.08-.63.12-.91.15-1.22.26-2.45.36-3.67ZM112.66,72.13c.12-6.88-1.61-13.77-4.5-19.98-1.27-2.59-3.37-4.64-5.76-6.21-1.14-.79-2.54-1.05-3.83-1.51-.27-.1-.56-.19-.84-.3.31,3.9.32,7.83.32,11.74-.02,2.3-.02,4.61-.1,6.91.12.09.24.2.37.34,2.04,2.08,3.56,4.57,4.94,7.13,1.14,1.95,1.94,4.07,2.25,6.31.84,5.37,1.08,10.82,1.47,16.24,0,.05-.03.21.03.06.03-.07.05-.15.09-.22,1.25-3.43,2.46-6.87,3.82-10.25,1.33-3.25,1.7-6.79,1.74-10.27ZM112.81,55.38c2.26,6.82,2.94,14.12,2.21,21.26-.3,4.74-2.32,9.06-3.95,13.46-.69,1.91-1.43,3.82-2.18,5.71-.52,1.07-1.5,4.25-2.79,4.2-1.99-.35-1.35-5.79-1.63-7.45-.28-4.46-.63-8.92-1.25-13.35-.17-1.04-.31-2.09-.64-3.1-.67-1.8-1.77-3.4-2.76-5.04-.66-1.07-1.39-2.1-2.21-3.05-.02.24-.05.48-.08.72-.12.6-.12,1.63-.35,2.45.1.14.17.3.16.49-.27,1.42-2.09,1.75-3.31,1.63-.86-.06-1.4-.79-2.05-1.25-1.57-1.2-3.26-2.25-4.99-3.19-4.75-2.43-10.41-2.81-15.47-1.15-3.23.96-6.28,2.41-9.29,3.93-1.41.64-2.91,1.51-4.5,1.32-.59-.2-.83-.47-.82-.78-.48-.91-.66-2.56-.75-4.09-2.44,2.37-3.39,5.95-4.52,9.08-1.7,5.23-2.83,10.79-2.4,16.31.05,1.95.85,3.87.51,5.81-.16.75-.66,1.79-1.58,1.57-.93-.52-1.41-1.61-2.03-2.45-1.08-1.64-1.94-3.41-2.68-5.21-4.82-9.78-7.31-21.13-4.63-31.88,1.78-7.38,4.92-14.66,11.59-18.87,1.66-.84,4.91-2.56,7.13-2.52.68-3.58,1.49-7.14,2.21-10.71.5-2.4,1.12-4.77,2.04-7.04,1.41-3.48,2.96-6.91,5.02-10.05,1.85-3.13,4.25-5.88,6.6-8.64.92-1.01,1.87-2.01,2.86-2.95.52-.61,1.06-.66,1.48-.35,1.84.1,4.9,4.75,5.77,5.65,1.33,1.73,2.2,3.75,3.31,5.63,1.19,1.96,2.29,3.96,3.26,6.03,1.38,2.79,2.94,5.52,3.91,8.49,1.38,4.44,2.45,8.99,3.2,13.59.73-.16,1.62.2,2.33.39,1.13.35,2.29.67,3.34,1.21,1.68,1.02,3.23,2.27,4.6,3.69,2.69,2.95,4.16,6.75,5.35,10.51Z"/>
    </g>
  </g>
</svg>