<?xml version="1.0" encoding="UTF-8"?>
<svg id="Calque_1" xmlns="http://www.w3.org/2000/svg" version="1.1" xmlns:xlink="http://www.w3.org/1999/xlink" viewBox="0 0 193.9 179.4">
  <!-- Generator: Adobe Illustrator 29.3.1, SVG Export Plug-In . SVG Version: 2.1.0 Build 151)  -->
  <defs>
    <style>
      .st0 {
        fill-opacity: .9;
      }

      .st0, .st1 {
        fill: #0f0e54;
      }

      .st2 {
        fill: #27ccbc;
      }

      .st2, .st3, .st1 {
        fill-opacity: .2;
      }

      .st4, .st5 {
        fill: none;
      }

      .st5 {
        stroke: #27ccbc;
        stroke-opacity: .1;
        stroke-width: 1px;
      }

      .st3 {
        fill: #4bbab3;
      }

      .st6 {
        fill: url(#Dégradé_sans_nom);
      }
    </style>
    <clipPath id="clippath">
      <path class="st4" d="M147.7,130.6c-13.6,11.8-30.7,13.1-46.6,15.1-7.3.9-13.9,3.5-21,5.5-3.9,1.1-8.3-.7-12.2-1.9-12.4-4-24.6-11.1-35.7-18.8-11.9-8.3-24.8-19.8-29.4-36.6-5-18.4,7.8-36.5,15.4-50.8,4.4-8.4,8.9-16.1,15.5-22,5.6-5,12.3-8.5,18.7-11.4C66.4,3.5,82.6.4,97.3,3.3c7.8,1.6,13.7,7.1,19.4,13.8,5.4,6.5,10.7,13,16.2,19.6,5.8,7.1,11.7,14.2,17.6,21.3,4.9,5.9,10.4,11.8,13.3,19.7.1.3.2.5.2.7.3.7.6,1.5.8,2.4,4.9,19.5-4.5,38.7-17,49.7Z"/>
    </clipPath>
    <clipPath id="clippath-3">
      <path class="st4" d="M147.7,130.6c-13.6,11.8-30.7,13.1-46.6,15.1-7.3.9-13.9,3.5-21,5.5-3.9,1.1-8.3-.7-12.2-1.9-12.4-4-24.6-11.1-35.7-18.8-11.9-8.3-24.8-19.8-29.4-36.6-5-18.4,7.8-36.5,15.4-50.8,4.4-8.4,8.9-16.1,15.5-22,5.6-5,12.3-8.5,18.7-11.4C66.4,3.5,82.6.4,97.3,3.3c7.8,1.6,13.7,7.1,19.4,13.8,5.4,6.5,10.7,13,16.2,19.6,5.8,7.1,11.7,14.2,17.6,21.3,4.9,5.9,10.4,11.8,13.3,19.7.1.3.2.5.2.7.3.7.6,1.5.8,2.4,4.9,19.5-4.5,38.7-17,49.7Z"/>
    </clipPath>
    <linearGradient id="Dégradé_sans_nom" data-name="Dégradé sans nom" x1="31.8" y1="137.5" x2="126.9" y2="15.2" gradientTransform="translate(0 158.7) scale(1 -1)" gradientUnits="userSpaceOnUse">
      <stop offset="0" stop-color="#4bbab3" stop-opacity=".6"/>
      <stop offset=".1" stop-color="#43beb5" stop-opacity=".4"/>
      <stop offset=".3" stop-color="#37c4b8" stop-opacity=".1"/>
      <stop offset="1" stop-color="#27ccbc" stop-opacity="0"/>
    </linearGradient>
    <clipPath id="clippath-6">
      <circle class="st4" cx="105.7" cy="165.1" r="7.8"/>
    </clipPath>
    <clipPath id="clippath-9">
      <circle class="st4" cx="128.4" cy="165.7" r="7.8"/>
    </clipPath>
    <clipPath id="clippath-12">
      <circle class="st4" cx="77.7" cy="135.2" r="27.9"/>
    </clipPath>
    <clipPath id="clippath-15">
      <circle class="st4" cx="162.1" cy="135.2" r="27.9"/>
    </clipPath>
    <clipPath id="clippath-18">
      <polygon class="st4" points="87.5 21.6 84.2 24.2 83.9 34.6 81.3 35.3 77.7 37.9 75.5 42.7 74.2 53.8 74.8 80.4 74.8 98.5 77.1 96.9 82.6 92.1 93.3 87.8 103.4 86.2 127.7 86.2 157.6 86.2 160.2 89.1 163.4 94 168.3 99.5 168.3 87.8 169.3 32.7 167.3 27.8 164.4 24.2 160.2 22.9 155.9 22.3 115.4 21.6 93.3 21.6 87.5 21.6"/>
    </clipPath>
  </defs>
  <g>
    <path class="st3" d="M147.7,130.6c-13.6,11.8-30.7,13.1-46.6,15.1-7.3.9-13.9,3.5-21,5.5-3.9,1.1-8.3-.7-12.2-1.9-12.4-4-24.6-11.1-35.7-18.8-11.9-8.3-24.8-19.8-29.4-36.6-5-18.4,7.8-36.5,15.4-50.8,4.4-8.4,8.9-16.1,15.5-22,5.6-5,12.3-8.5,18.7-11.4C66.4,3.5,82.6.4,97.3,3.3c7.8,1.6,13.7,7.1,19.4,13.8,5.4,6.5,10.7,13,16.2,19.6,5.8,7.1,11.7,14.2,17.6,21.3,4.9,5.9,10.4,11.8,13.3,19.7.1.3.2.5.2.7.3.7.6,1.5.8,2.4,4.9,19.5-4.5,38.7-17,49.7Z"/>
    <path class="st5" d="M52.7,10.1c13.9-6.2,30-9.2,44.5-6.3,7.7,1.5,13.4,6.9,19.1,13.7,5.4,6.5,10.7,13,16.1,19.6h0c5.8,7.1,11.7,14.2,17.6,21.3h0c4.9,6,10.4,11.7,13.2,19.6h0s0,0,0,0c0,.2.1.4.2.6h0c0,0,0,.1,0,.1.3.7.6,1.5.8,2.3h0c4.8,19.3-4.4,38.3-16.8,49.2-11.8,10.2-26.2,12.5-40.3,14.3l-6,.8c-7.3,1-14,3.5-21.1,5.5-1.9.5-3.8.4-5.9-.1-2-.5-4-1.2-6-1.8h0c-11.5-3.7-22.9-10.2-33.4-17.3l-2.1-1.4c-11.9-8.2-24.7-19.7-29.2-36.4h0c-2.5-9-.6-18,2.9-26.6,3.5-8.6,8.6-16.6,12.4-23.8h0c4.4-8.4,8.9-16,15.4-21.9h0c5.5-5,12.1-8.4,18.5-11.3Z"/>
  </g>
  <g>
    <path class="st6" d="M147.7,130.6c-13.6,11.8-30.7,13.1-46.6,15.1-7.3.9-13.9,3.5-21,5.5-3.9,1.1-8.3-.7-12.2-1.9-12.4-4-24.6-11.1-35.7-18.8-11.9-8.3-24.8-19.8-29.4-36.6-5-18.4,7.8-36.5,15.4-50.8,4.4-8.4,8.9-16.1,15.5-22,5.6-5,12.3-8.5,18.7-11.4C66.4,3.5,82.6.4,97.3,3.3c7.8,1.6,13.7,7.1,19.4,13.8,5.4,6.5,10.7,13,16.2,19.6,5.8,7.1,11.7,14.2,17.6,21.3,4.9,5.9,10.4,11.8,13.3,19.7.1.3.2.5.2.7.3.7.6,1.5.8,2.4,4.9,19.5-4.5,38.7-17,49.7Z"/>
    <path class="st5" d="M52.7,10.1c13.9-6.2,30-9.2,44.5-6.3,7.7,1.5,13.4,6.9,19.1,13.7,5.4,6.5,10.7,13,16.1,19.6h0c5.8,7.1,11.7,14.2,17.6,21.3h0c4.9,6,10.4,11.7,13.2,19.6h0s0,0,0,0c0,.2.1.4.2.6h0c0,0,0,.1,0,.1.3.7.6,1.5.8,2.3h0c4.8,19.3-4.4,38.3-16.8,49.2-11.8,10.2-26.2,12.5-40.3,14.3l-6,.8c-7.3,1-14,3.5-21.1,5.5-1.9.5-3.8.4-5.9-.1-2-.5-4-1.2-6-1.8h0c-11.5-3.7-22.9-10.2-33.4-17.3l-2.1-1.4c-11.9-8.2-24.7-19.7-29.2-36.4h0c-2.5-9-.6-18,2.9-26.6,3.5-8.6,8.6-16.6,12.4-23.8h0c4.4-8.4,8.9-16,15.4-21.9h0c5.5-5,12.1-8.4,18.5-11.3Z"/>
  </g>
  <circle class="st2" cx="105.7" cy="165.1" r="7.8"/>
  <circle class="st2" cx="128.4" cy="165.7" r="7.8"/>
  <circle class="st2" cx="77.7" cy="135.2" r="27.9"/>
  <circle class="st2" cx="162.1" cy="135.2" r="27.9"/>
  <path class="st1" d="M87.5,21.6l-3.2,2.6-.3,10.4-2.6.6-3.6,2.6-2.3,4.9-1.3,11,.6,26.6v18.2l2.3-1.6,5.5-4.9,10.7-4.2,10.1-1.6h54.2l2.6,2.9,3.2,4.9,4.9,5.5v-11.7l1-55.2-1.9-4.9-2.9-3.6-4.2-1.3-4.2-.6-40.6-.6h-27.9Z"/>
  <path class="st0" d="M166.6,24.7c-5.1-5.2-14.7-5-33.7-4.7-11.5.2-25.8.5-44.4-.3-1.9-.2-3.4.4-4.4,1.5-2.6,2.9-1.9,9-1.4,12.1-12.5,2.1-11,26-9.7,45.4.6,9,1.2,17.5.2,22.1l-.5,2.5,1.6-1.9c13.8-15.6,32.4-14.4,52-13,9.6.6,19.6,1.3,29-.2l.3.2c.4.3.8.4,1.2.3.3,0,.4-.2.6-.3,2,1.2,3.4,3.7,4.8,6.2.8,1.4,1.6,2.9,2.6,4.1l.2.3h.3c.4,0,.6.5.9,1.2.1.2.2.4.3.6.2.3.4.6.6.8s.5.4.9.5c.2,0,.3.1.5.1s.4,0,.6-.1h.5v-.6c.3-13.7.8-25.2,1.3-34.5,1.1-25.1,1.6-36.6-3.9-42.3ZM167.1,48.5c-.6,10.7-1.4,25.3-.6,46.2-.2.3-.4.6-.4.9-.9-1.1-1.6-2.4-2.4-3.8-1.1-2.1-2.3-4.2-4.1-5.7,3.9-9.6,3.3-20.8,2.6-31.7-.4-6-.7-11.8-.4-17.3v-.4c-4.9-6.3-26.9-5.2-48.3-4.1-11.3.6-21.9,1.1-27.9.3-.5-3.8-.1-6.4,1.3-7.9,2-2.3,6.2-2.1,10.9-1.8,1.4.1,2.7.2,4.2.2,17.1.8,30,.6,39.5.5,13.8-.2,20.7-.3,23.8,2.8,2.9,3,2.5,9.3,1.9,21.7ZM155.1,84.6c-7.7.9-16.4.3-25.6-.4-20.4-1.4-41.5-2.9-54,12.2.9-10.3.9-21,.9-31.4v-7.9l-.2-.2c-.5-.5-.4-1,0-1.8.1-.2.2-.4.2-.6.3-.7.2-1.6,0-2.6-.1-1.1-.2-2.3.3-2.8l.2-.2v-.3c-.4-4.5-.3-7.8,1.5-9.8,1.3-1.4,3.5-2.1,6.7-2.1,16,.8,32.7.7,48.8.6,7.3,0,14.7-.1,22,0,.5.4.9.4,1.3.4.2.2.5.5.9.6.3,1.3.2,3.9.1,6.5-.1,2.8-.2,5.5.1,7.1-.2,3,0,6.4.1,10,.4,8.3.7,16.9-3.2,22.7Z"/>
  <path class="st0" d="M75,112.5h0v.3c0-.1.1-.2.1-.2h0c0-.1,0-.1,0-.1ZM74.3,113.1c-.3,0-.5,0-.8,0-.4,0-.9-.1-1.4-.1-.7,0-1.4.1-1.7.4-.1.1-.2.3-.2.6h0c.8-1.2,1.8-1,3.4-.6.3,0,.5.1.8.2.2-.1.3-.2.4-.4h-.4ZM69.6,114.6c-1.1.2-1.8.7-2.3,1.4h0c0,.1.2,0,.2,0,.4-.5,1.2-.6,1.7-.6.1,0,.3,0,.4-.1.1-.3.2-.5.3-.7h-.3ZM75,112.5h0v.3c0-.1.1-.2.1-.2h0c0-.1,0-.1,0-.1ZM74.3,113.1c-.3,0-.5,0-.8,0-.4,0-.9-.1-1.4-.1-.7,0-1.4.1-1.7.4-.1.1-.2.3-.2.6h0c.8-1.2,1.8-1,3.4-.6.3,0,.5.1.8.2.2-.1.3-.2.4-.4h-.4ZM69.6,114.6c-1.1.2-1.8.7-2.3,1.4h0c0,.1.2,0,.2,0,.4-.5,1.2-.6,1.7-.6.1,0,.3,0,.4-.1.1-.3.2-.5.3-.7h-.3ZM69.6,114.6c-1.1.2-1.8.7-2.3,1.4h0c0,.1.2,0,.2,0,.4-.5,1.2-.6,1.7-.6.1,0,.3,0,.4-.1.1-.3.2-.5.3-.7h-.3ZM74.3,113.1c-.3,0-.5,0-.8,0-.4,0-.9-.1-1.4-.1-.7,0-1.4.1-1.7.4-.1.1-.2.3-.2.6h0c.8-1.2,1.8-1,3.4-.6.3,0,.5.1.8.2.2-.1.3-.2.4-.4h-.4ZM75,112.5h0v.3c0-.1.1-.2.1-.2h0c0-.1,0-.1,0-.1ZM69.6,114.6c-1.1.2-1.8.7-2.3,1.4h0c0,.1.2,0,.2,0,.4-.5,1.2-.6,1.7-.6.1,0,.3,0,.4-.1.1-.3.2-.5.3-.7h-.3ZM74.3,113.1c-.3,0-.5,0-.8,0-.4,0-.9-.1-1.4-.1-.7,0-1.4.1-1.7.4-.1.1-.2.3-.2.6h0c.8-1.2,1.8-1,3.4-.6.3,0,.5.1.8.2.2-.1.3-.2.4-.4h-.4ZM75,112.5h0v.3c0-.1.1-.2.1-.2h0c0-.1,0-.1,0-.1Z"/>
  <path class="st0" d="M105.7,124.8c-3.2-10-11.3-16.8-22.9-19.1h0c-3.6-.4-6.9-.3-10,.3-12.9,2.4-21,12.7-23.4,22.9-2.9,12.8,2.1,28.4,19.8,34.6,3.2.8,6.2,1.3,9.2,1.3,5.7,0,11-1.6,15.5-4.7.8-.5,1.5-1.1,2.3-1.7.7-.6,1.4-1.3,2.1-1.9,7.9-8.2,10.9-20.9,7.5-31.7ZM78.8,113.7l.2.2h.2c.5.2.9.1,1.3.1.4,0,.8,0,1.1,0v1.4c-1.4.9-3.4.9-5.3,1-2.6,0-5.5.1-6.8,2.7,0-1.4,0-1.5-.2-1.7-.1-.1-.2-.2-.3-.3,0-.1,0-.3,0-.5,0,0,.2,0,.3,0,.5,0,.9-.1,1.3-.4l.2-.3c.5-1.7.7-1.7,2.5-1.3.3,0,.7.2,1.1.2h.4c.8-.3,1.6-1.1,1.7-1.9.7-.2,2.1.2,2.5.8ZM74.1,127.6c-1.8-1.2-2.7-4.1-2-7.1.9-1.2,2.5-.9,4.3-.7,1.5.2,3.2.4,4.7-.3,0,2.2-.5,4.2-1.1,6.3l-.3.9c-2.1,1.6-4.1,1.9-5.6.9ZM77.4,132.2c-.3.6-.6,1.2-1.2,1.6l-1.7-1.4c.7-.1,1.8-.2,2.8-.2ZM67.5,115.9l-.2.2h0c.4-.8,1.2-1.3,2.3-1.5h.3s-.2.4-.3.6c-.1,0-.3,0-.4.1-.5,0-1.3.1-1.7.6ZM70.1,114h0c0-.5.1-.6.2-.7.3-.3,1-.4,1.7-.4s1,0,1.4.1c.3,0,.6,0,.8,0h.4s-.2.3-.4.4c-.3,0-.6-.1-.8-.2-1.5-.4-2.6-.5-3.4.7ZM74.9,112.8v-.3h.1c0,.1,0,.2-.1.3h0ZM62.4,144.9c-.3,2.9-.7,5.9-.4,8.6-8.2-6-9.5-16-7.9-23.4,2.3-10.6,10-18.5,19.7-19.9.8-.1,1.6-.2,2.4-.2-1,.3-1.8.9-2.2,1.8h-.3c-1.4-.1-3.2-.3-4.2.6-.3.3-.5.6-.6,1-1.3.4-2.3,1.2-2.8,2.3v.2c-.1,0-.1.2-.1.2.2.5.2,1.4.3,2.3,0,1.9.2,4.1,1.4,5,.4.3.8.4,1.3.4h.1c.1,1.8.8,3.8,1.9,5.6-2.3.5-4.6,2-6.2,3.9-1.5,1.9-2.2,4.1-1.9,6,0,1.7-.3,3.7-.5,5.5ZM87.6,156.8c-.3.4-.6.6-1,.7-.1,0-.2,0-.3.1-.4-6-1.5-11.6-2.9-16l-.7-2.1-.6,2.2c-1.1,4.2,0,10.1.9,15l.3,1.6s-.1.4-.4.6c-2.1,1.3-9,.3-11.4-.4.1-4.2.3-15.5-1.1-16.2l-.4-.2-.3.2c-.4.2-1.3.7-1.3,15.1-1.4-.3-2.4-.8-3.4-1.6l-.2-.2h-.5s0-.3.4-.6l.2-.2v-.2c.2-1.7.3-3.7.3-5.7.1-6.9.2-14,6.4-15.9,1.5,3.1,3.1,4.6,4.7,4.6h0c1.7,0,3.2-1.6,4.7-5,.5,0,1.5.2,1.7.3,2.6.7,2.8,2.5,3.2,5.1,0,.4.1.8.2,1.2.1.7.4,1.6.6,2.8.9,4.3,2.7,12.3,1.1,14.8ZM91.4,155.4c-.2-1.9-.2-4.1-.2-6.5,0-8.5,0-18.9-9-19.9,1.9-3.2,2-6.9,2.1-10.6v-1.9c.4-.4.5-1.1.6-1.5,0-.7-.1-1.6-.6-2.2-.3-1.9-2.3-1.9-3.5-1.8h-.8c-.3-.4-.7-.7-1.3-.9,11.6.8,19.5,9,22.4,17.6,3.6,10.8-.2,21.6-9.6,27.9Z"/>
  <path class="st0" d="M168.3,106s-.3,0-.4-.1-.3-.1-.4-.1c-.2,0-.4,0-.5-.1h-.2s-.4,0-.5,0h-.3c-17.7-1-25.8,8.4-29.1,14.1-5.4,9.5-5.3,21.9.2,31.2.4.7.8,1.3,1.3,1.9,1.3,1.9,2.8,3.5,4.4,4.9,4.9,4.3,11.4,6.5,18.8,6.5s4.7-.2,7.1-.6c17.6-3.7,23.4-18.2,23-29.5-.4-12.1-7.7-25.2-23.3-28.2ZM171.9,157.3c-.7.4-1.5.7-2.2.9-.1-1.9-.3-4-.6-6-.3-2.1-.5-4.2-.6-6.2v-.9l-.8.3c-2.9,1.1-2.1,6.6-1.5,11,.2,1,.3,1.9.4,2.6h-9c.1-1.5.3-3,.5-4.6.4-3.3.8-6.6.2-9.8v-.6c-.1,0-2.3.1-2.3.1l-.2.2c-.6.9-.6,1.8-.6,2.7,0,.7,0,1.3-.3,1.8l-.2.2-.2,9.3c-1.4-.3-2.8-.8-3.9-1.8l-.2-.2h-.3c-.7,0-.8-.2-1.2-.6,0-.1-.1-.2-.2-.2.2-.6.3-1.3.5-2.1,1.5-6.1,3.5-13.7,8.9-16.7,1.5,3.7,2.8,5.3,4.3,5.3h0c1.4,0,2.6-1.5,3.8-4.8,6.2,3.5,7.5,15.6,7.7,19.1-.9.3-1.6.6-2.4,1.1ZM155.7,121.5v.5s-.4.8-.6,1.1c-.2.3-.4.4-.4.8v2.7h-.5c-.5-1.9,0-3.6,1.6-5.1.6-.7,1.4-1.3,2.3-1.9l.2-.2v-.3s.1-.4.1-.6c0-1.2-.9-1.6-1.5-1.8,1.1-1.7,3.4-2.5,5.9-2.1.9.9,2.4,2.8,2.8,3.9l.2.3h.3s.7.2,1,0c.3-.2.3-.5.4-.7.2-.1.5,0,1.1.7.1.2.3.3.4.4h.2c.8.5,1.3,2.3,1.3,3.8-1.5.8-2.2,2.4-2.8,3.8-.6,1.4-1.2,2.6-2.2,3l-.2.2c-2.2,2.2-5.4.1-6.7-1-.5-1-.7-5.3-.6-7.2v-.8l-2.1.4ZM164.2,135.6s-.4.5-.5.7c-.4.5-.8,1.1-.9,1.8-.1,0-.2,0-.3.1-.5-.8-1.1-1.7-1.7-2.5-.1-.1-.2-.3-.3-.4,1-.4,2.4-.3,3.4,0,.1.2.2.3.4.3ZM178.4,153s-.2.3-.3.4c0-.3,0-.6,0-.8,0-.5,0-.9-.1-1.3-.4-1.1-.6-2.2-1-3.4-1.2-4.3-2.5-9.1-5.8-12.5-.5-.8-1.4-1.3-2.3-1.7-.5-.2-1.1-.5-1.3-.8,2.4-2.4,4.3-4.6,5.6-6.8,2-2.2.3-6.7-1.8-9-1.5-1.6-3.1-2.2-4.5-1.5-.7-1.6-2-2.7-3.2-3.6h-.1c0-.1-.2-.1-.2-.1-4.3-.7-9.9,2-10.6,6.2v.7c-.1,0,1.4.2,1.4.2-2,1.5-3.5,5.5-2.8,8,.5,1.7,1.8,2.7,3.8,2.5.3,1.4.9,2.3,1.9,3.3-5.8,3.6-9.4,10.7-10.9,20.9-6.9-5.4-9.9-14.9-7.7-24.5,1.9-8.1,7.9-17.4,19.3-19.1,13.4-1.4,23.2,7,27,15.9,4.2,9.7,1.7,20-6.4,27Z"/>
  <path class="st0" d="M109.5,156.3h0c-3.9-1.1-7.6,0-10,2.8-2.4,2.6-3.1,6.4-1.9,9.5,1.2,2.9,3.8,4.7,7.5,5.2.2.3.5.4.7.5.2,0,.3,0,.4,0,.5,0,1.1-.2,1.4-.4h.4c3.6,0,6.7-3.3,7.9-6.7.1-.5.2-1.1.2-1.6,0-4.3-3.2-8.1-6.6-9.2ZM110.7,169.8c-.8.1-1.6.4-2.3.7-1.6.7-2.7,1-3.4.3h-.2c0-.1-.2-.1-.2-.1-2.5-.5-4.2-1.8-4.8-3.8-.7-2.1-.1-4.7,1.5-6.4.7-.8,2.3-2,4.6-2s1.3,0,2,.3c2.5.9,4.3,2.7,4.8,4.9.5,2.1-.3,4.2-2.1,6Z"/>
  <path class="st0" d="M137.2,162.3c-.6-1.6-1.5-2.9-2.8-3.9-1.3-1-3-1.7-4.9-2.1h-.8c-5.5,0-8.8,3.8-9.6,7.5-.2.6-.2,1.3-.2,1.9,0,3.3,1.8,6.8,6.4,8.5.9.2,1.9.3,2.8.3,2.9,0,5.5-1.1,7.3-3.1,2.3-2.5,3.1-6.1,1.9-9.1ZM129.8,171.3c-2.9.9-5.9-.4-8.2-3.6-.6-2.5,0-4.9,1.5-6.6,1.7-1.7,4.1-2.3,6.6-1.7,3.3,1.2,5.1,3.2,5.1,5.7,0,2.7-2.2,5.4-5.1,6.2Z"/>
  <path class="st0" d="M125.3,164.7c1.1,2.4-3.9,2.9-2.5-.7.7-.2,2.5-.4,2.5.7Z"/>
  <path class="st0" d="M127,166.3c-.8-1.9.5-2.4,2.2-2.3.3,1.7,0,3.4-2.2,2.3Z"/>
  <path class="st0" d="M133.3,164.2c.6,2.3-2.1,3.4-2.8,1.2.2-1.5,1.6-1.5,2.8-1.2Z"/>
  <path class="st0" d="M111.7,165.8s0,.8-.3.9c0,0,0,0,0,0,0,0,0,0-.1.1,0,0,0,0,0,0-.5,0-2.2-.3-2.6-.4,0,0,0,0,0-.1-.4-.6.3-1.5-.2-1.9-.7-.3-3.6-.3-4.3-.1-.3.5,0,1.4-.3,1.8,0,0-.1.2-.1.2-.5.1-2.2.4-2.6.2-.3-.1-.4-.8-.3-1.1,0,0,.1-.8.2-.9,0,0,0-.1,0-.1,0,0,0-.1,0-.2h0c0-.1,0-.1,0-.1,0,0,0-.1,0-.1.1-.1.4-.3.5-.5h0c0,0,0,0,.1-.1,0,0,0,0,0,0h.2s0,0,0-.1h.1s0,0,.2-.1h0c2.1-.8,5.5-.7,7.5.2h.1c0,.1.1,0,.1.1h0s.1,0,.2.2c0,0,0,0,.1,0,0,0,0,0,0,0,0,0,.1.1.2.1l.2.2s0,.1.1.1,0,.1.1.2c0,.1.1.1.1.2h0c0,.1.3,1.2.3,1.3h0Z"/>
  <path class="st0" d="M152.4,61.9v2.4l-.8-.3s-.3.4-.6.4c-1.5.4-3,.4-4.4.4-.9,0-1.9.1-2.9.2-.2.2-.4.4-.8.5-1.5.2-4.8.3-8.2.3s-6.6-.1-8.1-.3c-.5,0-.7-.3-.8-.5-4.3-.5-9.3-.3-14,0-5.2.3-10.5.5-15.3-.2-1.1-.1-2.4,0-3.7,0-1.4.1-2.9.2-4.3,0-.3,0-.5-.3-.7-.4,0,0-.1,0-.4-.2l-.9.4v-2.6l.8.3c.2-.2.3-.4.6-.4.7-.2,1.7-.2,2.6-.2s1.5,0,1.9-.1c2.3-.5,5.5-.6,7.6-.7,4.3-.1,8.6,0,12.8.1,2.1,0,4.3.1,6.4.2.5,0,1.7,0,3.4,0,9.5-.2,11.3,0,11.7.2h.1c.3-.2.8-.4,1.6-.2.3.1.5.3.5.5,2.1.3,4.7.2,7.2,0,2.1,0,4.2-.2,6.1,0,.3,0,.6,0,.8.1.3.1.6.1.9.1h.7Z"/>
  <path class="st0" d="M130,53.4c-.3.6-1.2.7-1.8.7-.2,0-.3,0-.5,0-.2.2-.4.4-.8.5-1.1.2-3.5.2-6,.2s-5,0-6.1-.2c-.5,0-.7-.3-.8-.5-2.4-.3-5.2-.2-7.9,0-2.8.1-5.7.2-8.2-.1-.5,0-.7-.3-.8-.5-1.2-.1-2.5,0-3.9,0s-3.1.1-4.5-.1c-.3,0-.6-.3-.7-.4,0,0-.2-.1-.2-.2h-.7c0,.1.1-.6.1-.6,0-1.6,1-1.7,1.5-1.7.2,0,.4,0,.5-.1.2,0,.3-.1.5-.2.4-.2.9-.4,1.7-.5,3.8-.3,7.8-.1,11.7.1,1.1,0,2.1.1,3.1.1.3,0,.9,0,1.6,0,2.3-.1,3.3,0,3.8.2,1.3.6,4.5.6,7.6.6s5.5,0,7.3.4c.3,0,.7.1,1.1,0,.6,0,1.3,0,1.9.2h.2c0,.1.2.3.2.3.3.5.6,1.3.3,1.9h0Z"/>
  <path class="st0" d="M121,74.8l-.2.2c-.3.3-.8.4-2.7.4s-.8,0-1.2,0c-.3.4-.5.5-.8.5h-28c-.4,0-.6-.3-.8-.4l-.9.3-.2-1v-.9l.2-.2s.4-.2,1.9-.3h1.1c1.9-.4,3.6-.5,5.3-.5s2.3,0,3.5-.2c.1-.2.4-.5.8-.5.9-.1,17.9-.4,19.1.2l.3.2v.2h.5c.6,0,1.2,0,1.7.3l.4.2v1.8h0Z"/>
</svg>