<?xml version="1.0" encoding="UTF-8"?>
<svg id="Calque_2" data-name="Calque 2" xmlns="http://www.w3.org/2000/svg" viewBox="0 0 144.59 158.07">
  <defs>
    <style>
      .cls-1 {
        fill: #dafff5;
      }

      .cls-2 {
        fill: #27ccbc;
      }

      .cls-3 {
        fill: #99ecd8;
      }
    </style>
  </defs>
  <g id="Calque_vectoriel" data-name="Calque vectoriel">
    <g>
      <path class="cls-3" d="M85.08,70.57c.38.81.72,3.41-.55,3.53-.87-.52-.89-1.83-1.09-2.74-.17-1.02-.47-2.12-.11-3.14.11-.27.37-.36.59-.15.32.26.45.68.57,1.05.13.51.39.96.58,1.45Z"/>
      <path class="cls-3" d="M76.63,72.22c.12.5-.02,1.53-.71,1.43-.1-.07-.2-.14-.3-.21-.09.11-.2.18-.34.16-.5-.34-.81-.91-1.2-1.37-.39-.4-.83-1.32-.18-1.67.09-.02.18,0,.26.07.07-.18.19-.33.36-.43.6-.23.73.65,1.18.86.36.35.82.66.93,1.17Z"/>
      <path class="cls-3" d="M95.79,81.64c.5.02.41.66.19.95-.53.46-1.36.26-2,.2-.26-.04-.57-.08-.79-.25-.31-.21-.38-.72-.05-.95.09-.05.22-.05.33-.04.77.07,1.56-.04,2.32.09Z"/>
      <path class="cls-2" d="M73.11,27.94s.02.02.03.03c-.28,0-.56,0-.84-.01-3.19.02-6.38-.02-9.56-.12-7.24-.3-14.49.28-21.73-.19-5.71-.24-11.41-.66-17.12-.68.09-.09.18-.18.27-.27,1.71-1.62,3.68-3.06,5-5.05.11-.18.22-.37.32-.57.18.01.36.02.53.03,6.86.15,13.71-.3,20.57-.32,1.29-.01,2.58-.02,3.88-.03.07.05.15.09.24.13.22,0,.4-.05.55-.14,3.95-.04,7.9-.12,11.85-.28.08-.01.16-.02.24-.03.68,1.72,2.09,3.05,3.21,4.51.84,1.01,1.65,2.05,2.57,2.99Z"/>
      <path class="cls-2" d="M53.68,16.7c.04.51-.03,1.14-.04,1.77-3.34-.12-6.69-.15-10.04-.03-.28,0-.56.02-.84.02.06-.64.03-1.34.11-1.73.12-1.53.47-3.05.38-4.59-.05-.45-.08-1.37-.22-2.25.39-.33.7-.82,1.06-1.15.84-.85,1.75-1.64,2.74-2.31.23-.17.48-.29.75-.38.1.08.21.14.34.18.26.04.53.04.79.07.43.1.78.4,1.16.61,1.02.64,2.23,1.14,2.82,2.27.3.49.54,1.12.89,1.63-.21,1.95.07,3.92.09,5.88Z"/>
      <path class="cls-2" d="M102.01,66.06c.06.06.12.12.18.19-.28.21-.56.43-.84.64-3,1.97-5.88,4.11-8.75,6.28-1.55,1.32-3.02,2.73-4.52,4.1-1.64,1.37-3.27,2.75-4.96,4.05-1.22.91-2.43,1.86-3.59,2.84-1.44.98-3.44,2.43-3.64,3.55,0,.02-.02.03-.02.04-.8-.21-1.62-.38-2.45-.47-.48-.03-1.19-.12-1.86-.08.62-.43,1.17-1.01,1.77-1.43,1.97-1.52,3.93-3.05,5.84-4.64,5.59-4.55,10.93-9.42,16.86-13.53,1.44-1.11,2.95-2.14,4.36-3.28.07-.06.12-.14.16-.23.39.72.89,1.38,1.45,1.98Z"/>
      <path class="cls-2" d="M106.2,64.64c-.05.04-.11.07-.17.11-.44.27-.9.52-1.41.69-.37.16-.85.31-1.06-.15-.61-.82-1.25-1.64-1.82-2.51-.08-.34.09-.7.17-1.05.23-.22.46-.43.71-.63.29-.23.59-.46.88-.7.05.19.15.37.25.52.49.8,1.18,1.46,1.62,2.3.29.43.52.99.84,1.43Z"/>
      <path class="cls-2" d="M108.32,63.01c-.21.18-.43.36-.66.54-.21-.47-.71-.82-1.02-1.25-.46-.5-1.39-2.13-2.24-2.63.38-.32.77-.63,1.15-.94.03.18.1.36.19.49.51.84,1.13,1.6,1.66,2.43.27.48.59.92.91,1.36Z"/>
      <path class="cls-2" d="M117.62,55.26c-.12.08-.24.16-.36.25-.07.03-.13.07-.2.13-.06.05-.12.1-.18.15-.7.51-1.36,1.06-2.04,1.61-.02-.02-.03-.03-.05-.04-.81-.8-1.13-1.93-1.82-2.82-.12-.16-.24-.27-.36-.35.05-.03.1-.05.14-.08.8-.44,1.62-.86,2.41-1.32.18-.09.34-.21.47-.36.38.38.68.81.99,1.24.33.53.7,1.05.99,1.6Z"/>
      <path class="cls-2" d="M118.36,52.5c.16.18.28.39.23.63-.09.17-.2.38-.29.6-.09-.13-.18-.27-.24-.39-.29-.39-.53-.86-.84-1.26.24-.03.45-.05.58-.02.24.06.43.23.56.43Z"/>
      <path class="cls-2" d="M113.7,58.32c-.22.18-.45.37-.66.56-.54-.59-.84-1.34-1.24-2.02-.38-.49-.71-1.24-1.31-1.49.42-.23.84-.47,1.25-.71,0,.15.02.33.09.52.36,1.2,1.05,2.21,1.87,3.13Z"/>
      <path class="cls-2" d="M112.14,59.66c-.27.24-.55.48-.82.73-.32-.65-.87-1.16-1.19-1.82-.46-.72-.82-1.6-1.55-2.08.36-.23.73-.46,1.11-.67.25.79.83,1.46,1.29,2.14.36.57.71,1.18,1.15,1.71Z"/>
      <path class="cls-2" d="M110.07,61.42s.02.04.04.05c-.21.19-.43.38-.64.56-.13-.18-.3-.33-.43-.51-.2-.32-.38-.65-.61-.95-.51-.82-1.14-1.55-1.85-2.21-.09-.08-.19-.16-.3-.21.43-.34.87-.66,1.31-.98,0,0,0,.01,0,.02.26.95.91,1.73,1.41,2.57.38.54.69,1.12,1.07,1.67Z"/>
      <path class="cls-2" d="M67.16,84.43s.06-.05.09-.07c-.34,1.99-1.93,3.26-3.89,3.48-.05.02-.05,0-.01-.03.25-.29.52-.56.78-.83.88-1.01,2.05-1.65,3.03-2.54Z"/>
      <path class="cls-2" d="M66.52,93.66c0,.21.02.42.07.62-.45.34-.85.75-1.27,1.12-.21.25-.52.52-.75.82-.44-.58-.82-1.21-1.28-1.79.14-.1.27-.21.4-.31.74-.66,1.46-1.34,2.15-2.05.04-.02.07-.04.11-.07.06.16.12.32.16.48.06.44.21.82.41,1.16Z"/>
      <path class="cls-2" d="M63.64,96.73s-.01.01-.02.02c-.32.48-1.75,1.54-2.43,2.42-.07.04-.14.07-.21.11-.02,0-.04.01-.05.02-.2-.02-.4,0-.6.03h0c.41-1.24,1.54-2.02,2.47-2.87.11-.08.22-.18.31-.29.02.02.03.04.05.05.17.16.32.33.48.51Z"/>
      <path class="cls-2" d="M78.31,107.38c-.22.06-.5.01-.71-.04-.11,0-.2.05-.26.13,0-.01-.02-.02-.03-.03-.03-.02-.07-.04-.1-.04.17-.55.25-1.14.26-1.71.06.11.14.2.25.27.08.14.15.27.2.38.17.32.32.67.39,1.04Z"/>
      <path class="cls-2" d="M27.47,65.38c.01.82.39,3.4.11,4.99h0c-.02.17-.04.32-.09.46.09.1.09.22-.02.38-.07.04-.15.07-.22.1-.03.05-.07.1-.11.14-.01.04-.03.07-.05.11-.4.5-1.13.13-1.68.24-1.8-.04-3.61-.12-5.41.07-.97.1-2.05.4-2.96-.12-.04-.02-.08-.05-.11-.08-.02,0-.04,0-.06,0-.13.11-.29.17-.47.17-.88-.42-.75-2.41-.79-3.28-.03-2.63.12-5.25.01-7.88-.06-.52.16-1.48.84-1.3.06-.04.12-.08.2-.11,1.03-.16,2.09,0,3.14-.14,1.63-.03,3.28-.03,4.89-.27.42-.12.86-.11,1.28-.02.33.02.67.12.88.39.11.13.2.29.27.45.2.09.35.21.42.4-.02.14-.08.26-.18.34.07.17.11.39.08.64.02.5,0,1-.04,1.5.05.95.07,1.89.09,2.84Z"/>
      <path class="cls-2" d="M27.46,76.95c.4.98.26,3.28.28,3.9-.05.59-.1,1.17-.12,1.76,0,.41,0,.82,0,1.22.01.24.03.49.06.73.03.81.3,1.74-.24,2.44-.3.41-.78.75-1.29.68-.09-.02-.16-.06-.21-.11-.5-.03-1-.08-1.5-.07-1.77-.01-3.54.32-5.3.09-.52-.01-2-.21-2.76-.67,0,0-.01,0-.02,0-.06.05-.12.07-.19.05-.94-.93-.33-4.2-.43-5.56.04-1.05.05-2.11.05-3.16.04-.48-.14-2.18.54-2.18h0c.66-.29,1.45-.18,2.15-.27,2.17-.12,4.35-.11,6.52,0,.32.06.97.04,1.54.11.12-.18.3-.27.55-.16.13.09.21.23.26.39.11.07.2.16.23.28-.02.06-.07.12-.14.16,0,.04,0,.08,0,.11,0,.09,0,.18.01.27Z"/>
      <path class="cls-2" d="M27.68,94.52c.14,2.32-.09,4.65-.15,6.97-.04.37-.02,1.49-.15,2.37.61.5-.27,1.28-1.17,1.32-.25.16-.52.25-.78.23-2.38-.14-4.75-.16-7.1-.54-.66-.04-1.32-.11-1.96-.28-.08.12-.17.2-.27.2-.94-.92-.46-6.32-.47-7.82.03-.9.05-1.8.12-2.69.05-.41.11-.91.46-1.16.1-.05.2-.04.27,0,.29-.14.71-.23.86-.28,1.82-.24,3.68-.05,5.51-.07,1.41.11,2.85-.06,4.25.07.39.11.54.41.39.67.02.04.04.09.06.14.1.27.12.58.14.86Z"/>
      <path class="cls-2" d="M28.02,117.59c.04,1.13.41,2.35.1,3.45-.28.6-.88,1.18-1.57,1.17-.35.15-.75.21-1.13.21-1.5.15-3.02.03-4.52.04-.95.01-1.9.03-2.84-.06-.26.2-.58.3-.94.25-.26-.07-.37-.27-.42-.5-.14-.06-.27-.14-.37-.27-.02-.07-.04-.13-.05-.2-.34-.26-.44-.76-.42-1.18.03-.63,0-1.27-.05-1.9-.14-1.95-.32-3.93,0-5.88.04-.2.08-.36.13-.5h0c.02-.23.14-.46.39-.7.85-.72,2.04-.48,3.07-.47.9-.03,1.75,0,2.18,0,1.11.04,2.2,0,3.31-.03.51-.02,1.05-.05,1.56.06.53-.04,1.09-.07,1.24.48.02.16,0,.32-.05.47.49,1.82.28,3.7.39,5.55Z"/>
      <path class="cls-2" d="M28.1,128.07c.38,1.47-.12,2.97-.09,4.46-.15,1.29.34,5.52-1.2,6.1h0c-.94.64-2.33.32-3.42.36-1.73-.13-3.46.18-5.18.06-.52-.05-1.05-.04-1.54-.2-.06,0-.12,0-.19,0-.37-.09-.36-.5-.31-.81-.66-.45-.37-2.07-.48-2.81-.04-2.02-.16-4.04.05-6.05.02-.32.11-1.12.34-1.52.02-.03.03-.05.05-.08s.05-.05.08-.09c.02-.02.05-.04.08-.05.09-.05.19-.09.29-.11.15-.13.32-.24.5-.31,2.93-1.05,6.14-.27,9.17-.17.42-.04.71.04.91.2.43-.05.81.28.94,1.03Z"/>
      <path class="cls-1" d="M27.58,70.37c.28-1.59-.1-4.16-.11-4.99-.02-.95-.03-1.89-.09-2.84.04-.5.07-1,.04-1.5.03-.25,0-.46-.08-.64.1-.09.16-.2.18-.34-.07-.19-.22-.31-.42-.4-.07-.17-.16-.32-.27-.45-.21-.28-.55-.37-.88-.39-.43-.09-.86-.1-1.28.02-1.61.25-3.26.24-4.89.27-1.04.13-2.11-.02-3.14.14-.07.03-.14.06-.2.11-.67-.18-.89.78-.84,1.3.11,2.63-.04,5.25-.01,7.88.04.86-.09,2.86.79,3.28.18,0,.34-.06.47-.17.02,0,.04,0,.06,0,.04.03.07.06.11.08.91.52,1.98.22,2.96.12,1.8-.19,3.61-.1,5.41-.07.54-.11,1.27.26,1.68-.24.02-.03.04-.07.05-.11.05-.04.08-.09.11-.14.07-.03.15-.06.22-.1.11-.16.1-.29.02-.38.04-.14.07-.29.09-.45h0ZM27.53,101.49c.06-2.32.29-4.65.15-6.97-.02-.29-.04-.59-.14-.86-.02-.05-.04-.1-.06-.14.14-.26,0-.56-.39-.67-1.4-.13-2.84.04-4.25-.07-1.84.02-3.69-.17-5.51.07-.15.04-.57.14-.86.28-.08-.05-.17-.06-.27,0-.35.26-.4.76-.46,1.16-.08.89-.09,1.79-.12,2.69,0,1.5-.46,6.9.47,7.82.11,0,.2-.07.27-.2.64.17,1.3.24,1.96.28,2.35.38,4.73.39,7.1.54.26.02.54-.07.78-.23.91-.04,1.78-.82,1.17-1.32.14-.88.12-2,.15-2.37ZM27.74,80.85c-.02-.62.12-2.92-.28-3.9,0-.09,0-.18-.01-.27,0-.04,0-.07,0-.11.07-.05.12-.1.14-.16-.03-.12-.11-.21-.23-.28-.05-.16-.13-.3-.26-.39-.25-.11-.43-.02-.55.16-.57-.07-1.21-.04-1.54-.11-2.17-.11-4.35-.11-6.52,0-.7.09-1.49-.02-2.15.27h0c-.69,0-.51,1.7-.54,2.18,0,1.05-.02,2.11-.05,3.16.1,1.37-.52,4.63.43,5.56.07.01.13,0,.19-.05,0,0,0,0,.02,0,.76.45,2.24.66,2.76.67,1.77.22,3.53-.11,5.3-.09.5-.02,1,.04,1.5.07.05.05.12.09.21.11.52.07,1-.28,1.29-.68.54-.7.27-1.63.24-2.44-.03-.24-.05-.49-.06-.73,0-.4,0-.81,0-1.22.02-.59.07-1.17.12-1.76ZM28.01,132.52c-.03-1.48.47-2.99.09-4.46-.13-.75-.51-1.07-.94-1.03-.19-.16-.49-.24-.91-.2-3.02-.1-6.24-.89-9.17.17-.18.07-.35.18-.5.31-.1.02-.2.06-.29.11-.03.01-.05.03-.08.05-.03.03-.05.06-.08.09s-.04.05-.05.08c-.23.4-.32,1.2-.34,1.52-.22,2.01-.09,4.04-.05,6.05.11.74-.18,2.37.48,2.81-.05.31-.06.72.31.81.06,0,.12,0,.19,0,.49.16,1.02.14,1.54.2,1.73.11,3.45-.2,5.18-.06,1.09-.03,2.48.29,3.42-.36h0c1.54-.58,1.04-4.81,1.2-6.1ZM28.12,121.04c.32-1.1-.06-2.32-.1-3.45-.12-1.85.09-3.73-.39-5.55.05-.15.07-.31.05-.47-.15-.55-.71-.52-1.24-.48-.5-.11-1.05-.08-1.56-.06-1.11.04-2.2.07-3.31.03-.43,0-1.28-.02-2.18,0-1.04-.01-2.22-.25-3.07.47-.24.23-.37.47-.39.7h0c-.05.14-.09.31-.13.51-.32,1.95-.13,3.92,0,5.88.04.63.07,1.27.05,1.9-.02.42.07.91.42,1.18,0,.06.02.12.05.2.1.13.23.21.37.27.05.23.16.43.42.5.36.05.68-.05.94-.25.94.09,1.89.07,2.84.06,1.51-.01,3.02.11,4.52-.04.38,0,.78-.07,1.13-.21.69.01,1.3-.57,1.57-1.17ZM43.57,67.25c.54-.46.61-1.35.32-1.96-.15-.29-.37-.55-.54-.83-.41-.66-1.01-1.58-1.89-1.51-1.2.34-2.11,1.69-1.9,2.94-.43.07-.88-.14-1.25-.33-.36-.25-.62-.67-1.09-.71-.48-.09-.79.36-1.19.53-.23.11-.38-.2-.54-.31-.62-.73-1.66-1.16-2.54-.61-1.16.74-2.17,1.97-2.31,3.38-.02.33.02.81.37.97.36.07.63-.37.85-.6.39-.46.88-.84,1.39-1.17.31-.27.48.16.64.38.45.67,1.37,1.2,2.17.83.29-.14.57-.32.84-.51.04-.04.07-.04.1,0,.82.95,2.46.82,3.49.31.77-.55.89-1.65.69-2.5.02-.04.07-.08.1-.11.08-.05.3-.33.34-.17.45.53,1.06,2.52,1.96,1.97ZM46.52,66.4s0-.12-.05-.12c-.05,0-.06.08-.07.11,0,.04,0,.11.05.12.05,0,.07-.07.07-.11ZM47.07,131.63c.09-.98-.25-1.94-1.37-1.96-.57.02-1.06.36-1.64.35-.62.15-1.34-.07-1.9.25-.89.76-2.25,1.09-3.39.75-1.52-.71-1.66.18-2.96.57-.39.17-.72-.1-1-.36-.71-.71-2-1.27-2.78-.35-.7.82-1.03,1.96-1.09,3.02,0,.14.08.55.31.38.2-.17.1-.45.2-.66.18-.7.91-1.91,1.69-1.14.68.67,1.04,1.81,2.09,1.99.68,0,1.33-.37,1.9-.71.09-.06.2-.19.32-.16.62.3,1.26.67,1.97.62.97-.07,1.91-.48,2.76-.92.07-.04.12-.07.2-.04.62.27,1.32.3,1.96.12.34-.05.68-.27,1.02-.18.26.07.54.18.81.12.66-.23.85-1.07.9-1.69ZM48.41,82.91c.24-.88.05-1.99-.9-2.34-.63-.63-.98-1.49-1.64-2.1-.86-.94-2.17-.54-3.16-.08-1.19.3-1.77,1.37-1.72,2.54-.72-.21-1.46-.44-2.14-.77-.25-.12-.49-.22-.78-.22-.27.02-.54.02-.79-.05-.75-.03-.86-1-1.57-1.11-.58-.07-.93.52-1.31.85-.37.28-.66.75-1.13.82-.37.02-.66-.34-.73-.66,0-.09.06-.09.11-.14.09-.08.08-.19.08-.29.09-.78-.59-1.11-1.1-.48-.98,1.51-.64,4.03.77,5.18,1.05.81,2.23-.03,2.93-.89.05-.05.12-.19.19-.21.13.11.43.36.61.43.59.27,1.26.07,1.83-.16.09-.03.13-.02.22.03,2.05,1.1,4.13,1.66,4.59-1.31.73-.16,1.69-.82,2.24,0,.34.39.61.86,1.05,1.16.29.21.65.31.96.49.68.76,1.24.07,1.4-.67ZM49.64,133.63c1.55,1.54,2.41.21,2.29-1.49-.08-1.53-1.25-1.47-2.32-.85-.74.53-.68,1.81.04,2.34ZM52.07,101.09c.6-1.09.75-3.47-.87-3.7-.66,0-1.3.31-1.97.14-.78-.07-1.44-.74-2.24-.57-.56.24-1.12.47-1.73.56-.18.03-.45.07-.61-.04-.32-1.02-.82-1.19-1.81-.97-.88.11-1.77.22-2.66.25-.41.04-.79-.09-1.17-.2-.93.1-1.12,1.36-1.14,2.12-.3-.05-.52-.28-.6-.57-.31-.66-.64-1.48-1.38-1.75-.95-.31-1.75.55-2.39,1.15-.82.9-2.75,2.25-2.49,3.57.05.36.33.57.69.43,1.04-.31,1.95-.93,2.82-1.56.18-.11.58-.51.72-.2.43,1.21.95,2.77,2.47,2.85,1.06.11,1.97-.61,2.36-1.56.07-.13.09-.1.23-.1.86-.01,1.71-.11,2.55-.22.15-.03.11-.06.2.12.83,1.67,2.65,1.12,3.83.16.04-.03.07-.07.11-.1.1-.08.12.04.2.1.66.64,1.6.69,2.46.7.85.1,1.92.28,2.4-.62ZM53.64,18.47c.02-.62.09-1.26.04-1.77-.02-1.96-.3-3.92-.09-5.88-.35-.51-.59-1.14-.89-1.63-.59-1.12-1.79-1.62-2.82-2.27-.38-.21-.73-.51-1.16-.61-.26-.04-.53-.04-.79-.07-.13-.04-.24-.11-.34-.18-.27.09-.52.21-.75.38-1,.67-1.9,1.46-2.74,2.31-.36.32-.67.82-1.06,1.15.14.88.16,1.8.22,2.25.09,1.55-.27,3.06-.38,4.59-.08.39-.05,1.08-.11,1.73.28,0,.56-.02.84-.02,3.35-.12,6.69-.09,10.04.03ZM54.66,101.45c1.36.02,1.63-3.26.4-3.58-1.67.12-2.22,3.21-.4,3.58ZM60.48,67.84c1.16-.69,1.33-3.34,0-3.95-.46-.18-.96-.23-1.45-.18-1.13.19-2.29.47-3.45.41-.23-.03-.43-.02-.62.13-.66,1.03-2.28.99-3.16.25-.36-.41-.73-.36-1.03.07-.25.2-.63.28-.95.25-.34-.05-.54-.33-.77-.56-.21-.21-.47-.44-.79-.29-.36.18-.46.62-.61.96-.37.73-.84,1.43-1.33,2.09-.25.32-.65.61-.64,1.05,0,.25.12.47.38.53,1.02-.06,1.58-1.17,2.15-1.88.62,1.32,1.96,1.35,2.9.36.04.02.1.13.13.17.91,1.31,2.95,1.22,3.98.11.06-.06.08-.07.16-.05.42.13.86.15,1.29.12.57,0,1.12-.15,1.69-.11.71.11,1.33.86,2.11.51ZM60.83,117.16c.22-1.79-.84-1.52-2.16-1.47-1.51.03-3.03-.09-4.54.03-.7.07-1.38.29-2.09.31-.49,0-.98,0-1.46.14-.53.09-1.11.26-1.64.11-.12-.06-.19-.23-.35-.19-.21.11-.32.32-.34.56-.09-.56-.32-1.03-.7-1.22-.48-.13-1,.07-1.44.26-.39.25-.86.25-1.31.27-.48,0-.98.04-1.45-.07-.51-.16-.95-.47-1.48-.54-.85-.1-2,.25-2.76-.23-.23-.27-.52-.62-.93-.5-.3.08-.51.36-.77.52-.45.27-.98.45-1.49.57-.71.17-1.64.23-2.2-.35-.07-.08-.06-.13-.07-.23-.3-1.77-1.52-.82-1.63.45-.41,2.23,1.32,4.63,3.71,4.27.83-.1,1.63-.46,2.28-.98.08-.07.07-.1.15-.03.9.7,2.09.17,3.1.12.66.04,1.07.7,1.71.83,1.08.28,2.2-.06,3.25-.32.36-.09.71.09,1.07,0,.69-.24,1.05-1.37,1.02-2.39.04.16.11.3.2.41.59.61,1.56.61,2.35.58.5,0,.98.11,1.47.11.98-.05,1.93-.33,2.92-.24.51.02,1.02.07,1.53.11.77.09,1.52-.16,2.28-.18,1.02.15,1.52.68,1.78-.73ZM61.48,82.52c.63-.92.79-2.64-.15-3.41-.7-.48-1.58-.52-2.4-.59-.12,0-.21-.05-.31-.11-.74-.27-1,.8-1.02,1.35-.61.32-1.32.18-1.99.19-.65.02-1.3.1-1.94.18-.05,0-.18.05-.22,0-.18-.38-.4-.73-.69-1.04-1.39-1.77-2.71.35-2.26,1.86.18.54.45.82,1.02.62.07,0,.11.03.17.02.08-.07.07.04.1.1.32.8.55,2.37,1.72,1.52.63-.11,1.27.1,1.87.25,1.29.36,2.66-.29,3.34-1.42.05-.11.12.05.21.09.68.51,1.86,1.18,2.56.38ZM63.62,96.75s0-.01.02-.02c-.16-.18-.31-.36-.48-.51-.02-.02-.03-.04-.05-.05-.09.11-.2.21-.31.29-.93.84-2.06,1.62-2.47,2.86h0c.2-.03.4-.04.6-.03.02,0,.04,0,.05-.02.07-.04.14-.07.21-.11.68-.88,2.12-1.94,2.43-2.42ZM66.58,94.28c-.05-.2-.06-.41-.07-.62-.2-.34-.35-.73-.41-1.16-.04-.16-.11-.32-.16-.48-.04.03-.07.05-.11.07-.69.7-1.41,1.39-2.15,2.05-.13.1-.26.21-.4.31.46.57.84,1.2,1.28,1.79.23-.3.54-.57.75-.82.42-.37.83-.78,1.27-1.12ZM67.26,84.35s-.07.04-.09.07c-.98.89-2.16,1.54-3.03,2.54-.27.27-.54.54-.78.83-.04.04-.04.04.01.03,1.97-.22,3.55-1.48,3.89-3.48ZM67.43,117.79c.54-.08.62-.82.59-1.27-.03-.42-.24-.78-.71-.75-.66-.04-1.31-.04-1.96-.02-.74.08-1.56.15-2.19.58-.35.28-.49,1-.06,1.26.45.16.95.14,1.42.19.97.03,1.95.04,2.91,0ZM69.48,101.66c.5-.98.89-2.02,1.34-3.01-.85-.52-1.66-1.12-2.41-1.82-.23-.15-.73-.69-1.08-1.23-.2.19-.49.5-.81.82.36.07.72.23.99.39.89.45.81,1.52.79,2.37-.03,1.1-.32,2.82-1.17,3.77.09,0,.17.01.25,0,.88.02,1.73-.48,2.09-1.3ZM70.01,67.02c.48-.51.61-1.87-.13-2.2-.68-.18-1.41-.11-2.11-.2-1.04-.07-2.05-.31-3.07-.56-1.7-.4-2.23,1.11-1.91,2.51.09.29.23.58.54.69.52.07,1.07,0,1.6.02,1.32-.03,2.64.06,3.96,0,.38-.04.82,0,1.13-.27ZM73.13,27.97s-.02-.02-.03-.03c-.91-.95-1.73-1.98-2.57-2.99-1.11-1.46-2.52-2.79-3.21-4.51-.08.01-.16.02-.24.03-3.95.16-7.9.24-11.85.28-.15.09-.33.14-.55.14-.09-.04-.17-.08-.24-.13-1.29.01-2.58.02-3.88.03-6.86.01-13.71.46-20.57.32-.17,0-.35-.02-.53-.03-.1.2-.21.39-.32.57-1.32,1.99-3.29,3.42-5,5.05-.09.09-.18.18-.27.27,5.71.02,11.41.43,17.12.68,7.24.46,14.49-.11,21.73.19,3.19.11,6.38.14,9.56.12.28.01.55.01.84.01ZM75.64,107.38c.62-1.18.43-2.61.17-3.86-.24-.91-.82-1.89-.63-2.85-1.06-.36-2.09-.79-3.08-1.29-.06.9-.49,1.77-.79,2.62-.11.32-.28.66-.48.98.09.19.19.41.27.66.2-.25.52-.39.84-.35.65-.34,1.42-.09,1.95.39.35.24.63.56.91.88.46.74.62,1.65.61,2.51.02.18.05.36.07.54.04-.07.09-.14.14-.21ZM77.6,107.34c.21.05.49.1.71.04-.07-.36-.22-.71-.39-1.04-.05-.11-.12-.23-.2-.38-.1-.07-.19-.15-.25-.27,0,.57-.09,1.15-.26,1.71.04,0,.07.02.1.04,0,0,.02.02.03.03.06-.08.15-.14.26-.13ZM79.04,68.52c-.27-.03-.54-.05-.82-.05-.6.11-1.2.07-1.79.26-.45.11-.94.02-1.35.23-.82.44-1.31,1.32-1.7,2.13-.56,1.06-.98,2.19-1.56,3.24-.71,1.28-1.32,2.61-2.05,3.87-.72,1.19-1.52,2.34-2.02,3.65-.21.36-.43,1.11-.72,1.7.3-.11.53-.12.59.05,0,0,0,.02,0,.02,0-.02,0-.04.01-.06.1-.38.43-.62.73-.84.22-.21.46-.41.72-.58,1.22-.81,2.34-1.76,3.4-2.77.24-.26.48-.52.72-.79,1.62-2.08,3.06-4.32,4.38-6.6.42-1.18,1-2.33,1.45-3.48ZM79.02,105.48c.01-.09.01-.18,0-.27.01-.92-.3-1.81-.69-2.64-.19-.44-.27-.8-.28-1.08-.48-.11-.95-.24-1.42-.38.29.54.36,1.21.47,1.84t0,0c.33-.09.51.41.66.62.16.21.37.61.57,1.09.21.14.4.32.49.47.07.08.13.2.18.34ZM85.84,91.2c0-.57.04-1.15,0-1.52,0-1.34-.02-2.68.16-4-.89.44-1.84.75-2.83.89-.48,1.07-1.23,2.35-2.32,2.93.5.2,1,.39,1.49.59,1.14.43,2.27,1,3.48,1.12ZM91.63,69.14c-.88-.27-1.71-.66-2.57-1-.59-.3-1.12-.71-1.7-1.05h0c-.29.14-.54-.08-.83-.11-.25-.06-.43-.27-.62-.43-.34-.19-.73-.3-1.11-.39-1.64-.57-2.14-.02-3.09,1.26-1.05,1.27-1.62,2.84-2.47,4.24-.14.25-.27.5-.39.76-.13.44-.27.88-.42,1.32-.11.35-.48,1.29-.85,1.57-.19.41-.4.82-.64,1.21-1.78,2.43-3.74,4.83-6.15,6.66-.78.48-1.54,1.18-2.47,1.32.02.04.02.07.03.11.15.6-.16,1.2-.4,1.73-.47.8-1.12,1.5-1.9,2-.87.72-2,1.14-3.15,1.33.18.34.38.68.71.9.56.48,1.36.62,2.02.32,0-.07.02-.14.04-.2.18-.52.58-.97,1.02-1.29.38-.18.76-.32,1.13-.52.09-.03.17-.06.25-.09-.02-.32.32-.71.54-.92.33-.33.65-.72,1.01-1.06.44-1.03,2.34-2.46,2.85-2.76,1.65-1.12,3.31-2.24,4.87-3.49,4.83-3.72,9.44-7.71,14.27-11.43ZM90.23,91.01c.12-.02.25-.04.38-.06-.46-.7-.73-1.54-.66-2.38.04-.26.1-.32-.2-.38-.75-.33-1.5-.76-2.1-1.33.16.99.2,2.08.26,2.7,0,.36.05,1.04,0,1.69.77-.03,1.54-.12,2.31-.25ZM102.19,66.25c-.06-.07-.12-.13-.18-.19-.56-.61-1.07-1.26-1.45-1.98-.04.09-.1.17-.16.23-1.41,1.14-2.92,2.17-4.36,3.28-5.93,4.11-11.27,8.98-16.86,13.53-1.91,1.6-3.87,3.12-5.84,4.64-.59.42-1.14,1-1.77,1.43.67-.04,1.38.05,1.86.08.83.1,1.64.26,2.45.47,0-.01.01-.02.02-.04.2-1.12,2.2-2.57,3.64-3.55,1.17-.98,2.37-1.93,3.59-2.84,1.69-1.3,3.32-2.69,4.96-4.05,1.5-1.37,2.97-2.78,4.52-4.1,2.86-2.16,5.74-4.31,8.75-6.28.28-.21.56-.42.84-.64ZM103.14,56.39s-.08.04-.12.05c-.66.3-1.31.62-1.99.88.82.01,1.45-.54,2.11-.93ZM104.37,55.75s-.11.05-.14.07c-.26.13-.52.28-.77.42.31-.14.61-.32.91-.48ZM106.04,64.75c.05-.04.11-.07.17-.11-.32-.44-.54-1-.84-1.43-.44-.83-1.13-1.5-1.62-2.3-.1-.15-.19-.33-.25-.52-.29.24-.58.47-.88.7-.25.2-.48.41-.71.63-.07.35-.25.71-.17,1.05.56.86,1.2,1.68,1.82,2.51.21.46.69.31,1.06.15.51-.17.97-.41,1.41-.69ZM107.66,63.54c.22-.18.44-.35.66-.54-.32-.45-.64-.88-.91-1.36-.53-.83-1.15-1.59-1.66-2.43-.09-.12-.16-.31-.19-.49-.39.31-.77.62-1.15.94.85.5,1.78,2.13,2.24,2.63.3.42.8.78,1.02,1.25ZM110.11,61.48s-.02-.04-.04-.05c-.38-.54-.68-1.13-1.07-1.67-.5-.84-1.15-1.62-1.41-2.57,0,0,0-.01,0-.02-.44.31-.88.64-1.31.98.11.06.21.14.3.21.71.66,1.34,1.39,1.85,2.21.23.3.41.63.61.95.12.18.3.33.43.51.21-.19.43-.38.64-.56ZM111.32,60.39c.27-.24.55-.48.82-.73-.44-.53-.79-1.14-1.15-1.71-.46-.68-1.04-1.35-1.29-2.14-.38.21-.75.44-1.11.67.73.48,1.09,1.36,1.55,2.08.32.66.88,1.17,1.19,1.82ZM113.04,58.89c.22-.19.44-.38.66-.56-.82-.92-1.52-1.93-1.87-3.13-.07-.2-.1-.37-.09-.52-.42.24-.84.48-1.25.71.6.25.93,1,1.31,1.49.4.68.71,1.42,1.24,2.02ZM117.26,55.51c.12-.09.23-.17.36-.25-.29-.55-.66-1.07-.99-1.6-.31-.43-.61-.86-.99-1.24-.12.15-.29.26-.47.36-.79.46-1.61.88-2.41,1.32-.05.03-.1.05-.14.08.12.07.24.19.36.35.7.89,1.02,2.02,1.82,2.82.02.01.04.02.05.04.68-.54,1.34-1.09,2.04-1.61.06-.05.12-.1.18-.15.07-.06.13-.1.2-.13ZM118.59,53.13c.05-.25-.07-.46-.23-.63-.13-.2-.32-.38-.56-.43-.13-.03-.34-.02-.58.02.3.4.54.87.84,1.26.07.13.15.26.24.39.09-.22.21-.43.29-.6ZM118.75,51c.83.92,1.34,2.42.54,3.52-.05.08-.12.17-.2.25,1.07,1.45-2.23,3.24-3.11,4.09-1.72,1.3-3.49,2.53-5.14,3.93-1.2.92-6.27,5.84-7.69,4.5-.48.88-1.45,1.41-2.18,2.07-1.74,1.62-3.64,3.04-5.54,4.46-2.36,1.9-4.77,3.75-7.12,5.68.07,0,.15.01.23.04,1.05.48,2.08,1.04,3.23,1.25.23.2.13.59,0,.82-.07.11-.16.2-.29.22-.5.06-1.02.07-1.52.02-.45-.09-.92-.07-1.37-.19-.71-.2-1.16-1.01-.85-1.68-.15.12-.3.25-.46.38-1.28.99-7.07,6.55-9.91,7.84.75.24,1.49.52,2.23.8.04-.2.13-.41.29-.59.65-.91,1.69-1.48,2.2-2.48.35-1.65,1.3-1.33,2.61-1.74,1.12-.32,2.07-1.04,3.15-1.45,1.07-.15.26,1.54.55,2.1.19.45.5.88.88,1.19.52.46,1.14.87,1.54,1.45.17.45.22.95.47,1.38.29.58.88,1.15.96,1.79.13-.04.27-.09.39-.14,1.7-.63,3.07-1.81,4.46-2.93.82-.53,1.42-1.34,2.2-1.93.32-.1.68.14.88.39.38.52-.8,1.62-1.06,2.11-1.28,2.7-4.02,4.34-6.86,4.99-1.1.32-2.21.55-3.36.61-.8.12-1.61.2-2.4.02-3.78-.95-7.09-3.1-10.66-4.56-1.29-.49-2.69-.7-4.06-.6-.27.02-.53.12-.79.17,1.11.28,2.16.85,3.05,1.54.26.21.6.4.73.73-.14,1.17-.37,2.37-.55,3.55-.39,1.85-2.11,1.86-3.65,1.53-.54-.14-1.11-.32-1.65-.55.09.1.18.19.28.28.77.7,1.64,1.32,2.59,1.76,1.61.67,3.35,1.01,5.07,1.24,1.43.12,2.8.54,4.1,1.15,2.45,1.15,4.57,2.93,6.24,5.06.06.07.12.15.19.23,1.41,1.29,2.75,2.68,4.28,3.85,1.45,1.18,2.88,2.44,4.55,3.3,1.21.6,2.43,1.19,3.55,1.95.79.54,1.52,1.17,2.37,1.61.64.38,1.21,1.13,1.1,1.91-.05.22-.23.42-.47.4-.29-.04-.57-.09-.84-.18-.07.02-.15.03-.25.03-2.03-.67-3.83-1.88-5.62-3.04.35,2.46.1,4.98.16,7.46.05,4.44.02,8.88.18,13.32.01,4.46.04,8.92-.18,13.37-.07,1.75-.11,3.5-.17,5.24v.1c.1.31.19.62.25.93.14.1.27.23.34.38.18.44-.14.81-.32,1.19,0,0,0,.01,0,.02-.02.06-.03.12-.05.18.34.62-.58.8-1.04.77-2.3-.16-4.64.06-6.95-.17-4.41.11-8.85-.08-13.26-.04-7.25.07-14.5-.11-21.75-.29-7.05-.03-14.1.12-21.15,0-4.97-.02-9.95-.06-14.92-.03-5.11-.02-10.2-.39-15.3-.62-1.01-.04-2.23-.93-1.38-1.83-.17-.86.05-1.88.08-2.7.16-1.18.23-2.38.31-3.57,0-.94,0-1.88,0-2.81.23-29.84-2.02-59.7-.16-89.5,0-.03,0-.05,0-.07-.01-1.11,0-2.22-.02-3.32-.16-4.29.18-8.57.05-12.85-.11-7.92-.27-15.84-.12-23.77-.02-.96.08-1.91.23-2.86-.34-.43-.2-1.05.25-1.37.71-.58,1.64-.57,2.52-.57,5.25-.13,10.49.21,15.73.06,4.84-.35,9.68-.08,14.52.02,2.29.1,4.61.02,6.87.38.05.01.1.02.14.03-.02-1.67.09-3.51.62-4.13.83-2.02,4.02-4.55,5.2-5.02.11-.05.21-.09.32-.13.25-.57.73-.93,1.56-.73,1.7.49,3.2,1.57,4.4,2.84,1.21,1.02,1.94,2.5,2.16,4.05.03.04.05.08.08.12.36.79.53,1.62.59,2.47.12-.03.23-.04.32-.03,2.34.07,4.69.23,7.04.32.54,0,1.09,0,1.63,0,9.48-.31,18.98-.41,28.46-.14,2.4-.14,3.48,1.2,2.6,2.05.01.09.02.18.03.28.29,2.5.17,5.02.18,7.54-.1,4.62.28,9.23.31,13.84.21,7.37-.13,14.73-.39,22.09-.08,2-.17,4.01-.19,6.02-.04.76.04,1.57-.05,2.35.57-.45,1.13-.9,1.67-1.39.78-.66,1.67-1.43,2.53-1.95-.08-.32-.07-.6.23-.53h0c.62-1.89,5.05-4.99,8.78-7.35-.08-.18-.14-.38-.18-.58-.69.55-1.4,1.09-2.14,1.57-1.9,1.18-3.92,3.36-6.36,2.44-.22-.11-.28-.37-.21-.59.04-.05.04-.09-.01-.1-.23-.12-.12-.45.02-.6,1.81-1.31,3.97-2.06,5.9-3.17,1.08-.58,2.16-1.15,3.16-1.88,1.18-.79,2.28-1.75,3.59-2.31.31-.14.75-.09.82.3.12,1.03-1.17,1.58-1.91,2.04-.54.26-1,.65-1.45,1.06.25.18.46.41.58.69,1.58-.96,2.84-1.7,3.32-1.99.41-.2.79-.54,1.24-.6.2,0,.33.11.41.25.06-.01.12-.02.18-.02.16-.12.31-.24.48-.34.72-.49,1.71-.74,2.31.07Z"/>
      <path class="cls-2" d="M43.88,65.29c.29.61.22,1.5-.32,1.96-.91.55-1.52-1.44-1.96-1.97-.04-.16-.26.12-.34.17-.03.03-.08.07-.1.11.2.85.09,1.95-.69,2.5-1.04.51-2.67.64-3.49-.31-.02-.04-.06-.04-.1,0-.27.18-.55.36-.84.51-.8.37-1.72-.16-2.17-.83-.15-.22-.32-.65-.64-.38-.52.33-1,.7-1.39,1.17-.22.23-.49.66-.85.6-.35-.16-.39-.64-.37-.97.14-1.41,1.15-2.64,2.31-3.38.88-.56,1.92-.12,2.54.61.16.11.31.41.54.31.4-.17.71-.62,1.19-.53.47.05.73.47,1.09.71.38.19.83.39,1.25.33-.21-1.25.7-2.6,1.9-2.94.88-.07,1.48.85,1.89,1.51.17.28.38.54.54.83Z"/>
      <path class="cls-2" d="M60.47,63.89c1.34.61,1.17,3.25,0,3.95-.77.36-1.39-.39-2.11-.51-.57-.04-1.12.11-1.69.11-.43.02-.87,0-1.29-.12-.08-.03-.1-.01-.16.05-1.04,1.11-3.07,1.2-3.98-.11-.03-.04-.09-.15-.13-.17-.94.99-2.27.97-2.9-.36-.57.71-1.13,1.82-2.15,1.88-.26-.05-.38-.27-.38-.53-.01-.44.39-.73.64-1.05.48-.66.96-1.36,1.33-2.09.14-.34.25-.79.61-.96.31-.15.58.08.79.29.23.23.43.5.77.56.32.03.7-.05.95-.25.3-.43.67-.48,1.03-.07.88.74,2.5.78,3.16-.25.19-.15.39-.16.62-.13,1.16.05,2.31-.22,3.45-.41.48-.05.99,0,1.45.18Z"/>
      <path class="cls-2" d="M69.88,64.82c.74.32.62,1.69.13,2.2-.31.26-.75.23-1.13.27-1.32.06-2.64-.03-3.96,0-.53-.03-1.07.04-1.6-.02-.3-.11-.45-.4-.54-.69-.32-1.4.21-2.91,1.91-2.51,1.01.25,2.02.48,3.07.56.7.09,1.43.02,2.11.2Z"/>
      <path class="cls-2" d="M47.51,80.57c.95.36,1.14,1.46.9,2.34-.16.75-.72,1.43-1.4.67-.3-.18-.66-.28-.96-.49-.43-.3-.71-.76-1.05-1.16-.55-.82-1.52-.16-2.24,0-.46,2.96-2.54,2.41-4.59,1.31-.09-.05-.12-.05-.22-.03-.57.23-1.24.43-1.83.16-.19-.07-.48-.32-.61-.43-.07.03-.14.16-.19.21-.7.86-1.88,1.7-2.93.89-1.41-1.15-1.75-3.67-.77-5.18.51-.63,1.18-.3,1.1.48,0,.11,0,.21-.08.29-.05.05-.1.05-.11.14.07.32.36.68.73.66.48-.07.77-.54,1.13-.82.38-.34.73-.92,1.31-.85.71.12.82,1.08,1.57,1.11.26.07.53.07.79.05.29,0,.52.1.78.22.68.33,1.41.55,2.14.77-.05-1.18.53-2.24,1.72-2.54,1-.45,2.31-.86,3.16.08.66.61,1.01,1.47,1.64,2.1Z"/>
      <path class="cls-2" d="M61.33,79.12c.94.77.78,2.48.15,3.41-.7.8-1.88.13-2.56-.38-.09-.04-.16-.2-.21-.09-.68,1.13-2.05,1.79-3.34,1.42-.61-.15-1.24-.36-1.87-.25-1.17.84-1.4-.72-1.72-1.52-.03-.07-.02-.17-.1-.1-.07.02-.11-.01-.17-.02-.57.2-.84-.09-1.02-.62-.45-1.5.87-3.63,2.26-1.86.29.31.52.66.69,1.04.05.05.17,0,.22,0,.64-.09,1.29-.16,1.94-.18.66,0,1.38.14,1.99-.19.03-.54.29-1.61,1.02-1.35.1.06.2.11.31.11.82.07,1.7.11,2.4.59Z"/>
      <path class="cls-2" d="M51.2,97.39c1.61.23,1.47,2.61.87,3.7-.48.91-1.55.73-2.4.62-.86-.01-1.8-.05-2.46-.7-.07-.07-.1-.18-.2-.1-.04.03-.07.07-.11.1-1.18.95-3,1.5-3.83-.16-.09-.18-.05-.15-.2-.12-.84.12-1.7.21-2.55.22-.14,0-.16-.04-.23.1-.39.95-1.3,1.67-2.36,1.56-1.52-.08-2.04-1.64-2.47-2.85-.14-.31-.54.1-.72.2-.88.63-1.79,1.25-2.82,1.56-.36.14-.63-.07-.69-.43-.26-1.32,1.68-2.67,2.49-3.57.64-.59,1.44-1.46,2.39-1.15.74.27,1.07,1.09,1.38,1.75.08.29.3.52.6.57.01-.77.21-2.02,1.14-2.12.38.11.76.24,1.17.2.89-.04,1.77-.15,2.66-.25.99-.22,1.49-.05,1.81.97.16.11.43.07.61.04.61-.09,1.17-.32,1.73-.56.8-.16,1.46.5,2.24.57.66.18,1.31-.14,1.97-.14Z"/>
      <path class="cls-2" d="M55.06,97.86c1.23.32.96,3.61-.4,3.58-1.82-.37-1.27-3.46.4-3.58Z"/>
      <path class="cls-2" d="M58.67,115.69c1.32-.05,2.38-.32,2.16,1.47-.27,1.4-.77.88-1.78.73-.76.02-1.51.27-2.28.18-.51-.04-1.02-.09-1.53-.11-.99-.09-1.94.19-2.92.24-.49,0-.98-.11-1.47-.11-.79.03-1.77.03-2.35-.58-.09-.11-.16-.25-.2-.41.04,1.02-.32,2.15-1.02,2.39-.35.09-.71-.1-1.07,0-1.05.25-2.17.6-3.25.32-.64-.13-1.05-.79-1.71-.83-1.01.05-2.2.57-3.1-.12-.08-.07-.07-.04-.15.03-.65.52-1.45.88-2.28.98-2.39.36-4.12-2.04-3.71-4.27.11-1.27,1.33-2.21,1.63-.45,0,.1,0,.15.07.23.56.57,1.48.52,2.2.35.51-.12,1.05-.3,1.49-.57.26-.16.47-.44.77-.52.41-.12.7.22.93.5.76.48,1.91.13,2.76.23.54.07.98.39,1.48.54.48.11.97.07,1.45.07.45-.02.93-.02,1.31-.27.44-.19.96-.39,1.44-.26.38.19.61.66.7,1.22.02-.24.13-.46.34-.56.16-.04.23.13.35.19.53.15,1.11-.03,1.64-.11.48-.14.97-.13,1.46-.14.71-.03,1.39-.24,2.09-.31,1.51-.12,3.03,0,4.54-.03Z"/>
      <path class="cls-2" d="M68.02,116.52c.04.45-.05,1.19-.59,1.27-.97.04-1.95.03-2.91,0-.47-.05-.97-.04-1.42-.19-.43-.27-.29-.98.06-1.26.63-.43,1.45-.5,2.19-.58.66-.02,1.31-.02,1.96.02.46-.03.68.32.71.75Z"/>
      <path class="cls-2" d="M45.7,129.66c1.12.02,1.46.99,1.37,1.96-.05.62-.24,1.46-.9,1.69-.27.05-.55-.05-.81-.12-.35-.1-.68.12-1.02.18-.64.18-1.34.15-1.96-.12-.07-.04-.12,0-.2.04-.85.44-1.79.85-2.76.92-.71.05-1.36-.32-1.97-.62-.12-.03-.22.1-.32.16-.57.34-1.22.71-1.9.71-1.05-.18-1.41-1.32-2.09-1.99-.78-.77-1.51.45-1.69,1.14-.1.21,0,.5-.2.66-.23.18-.31-.23-.31-.38.06-1.06.39-2.2,1.09-3.02.78-.92,2.07-.36,2.78.35.27.27.6.54,1,.36,1.29-.39,1.43-1.28,2.96-.57,1.14.34,2.5,0,3.39-.75.57-.33,1.28-.1,1.9-.25.58,0,1.07-.33,1.64-.35Z"/>
      <path class="cls-2" d="M51.93,132.14c.13,1.7-.73,3.03-2.29,1.49-.72-.53-.78-1.81-.04-2.34,1.08-.62,2.24-.68,2.32.85Z"/>
      <path class="cls-2" d="M119.41,96.35c.18.77,1.27,5.72.08,5.5-.48-.19-.86-.64-1.15-1.22-.48-.68-.62-1.67-.89-2.43-.48-1.48-.86-2.98-1.19-4.5,0,0,0,0,0-.02-.73-2.64-1.39-5.3-2.04-7.96-.76-2.59-1.43-5.22-2.3-7.78-.38-.91-.66-1.89-1.32-2.64-.64-.68-1.41-1.22-2.16-1.76-1.44-.93-2.72-2.18-4.48-2.46-.58-.16-1.17-.43-1.48-.96-.11-.07-.2-.15-.28-.26-.13-.18-.28-.57.04-.66.05-.01.1-.02.15-.02.16-.14.45-.16.87-.07.25.04.49.07.74.11,5.88.38,8.86,4.15,10.77,9.69.71,1.9,1.42,3.82,1.85,5.81.18.86.31,1.72.43,2.59.43,1.27.83,2.54,1.15,3.84.47,1.72.77,3.49,1.23,5.21Z"/>
      <path class="cls-2" d="M140.52,123.54c.72.6,2.02,1.47,1.72,2.16-.07.12-.2.16-.33.17,0,0-.02.02-.02.02-.43.06-.89.1-1.3-.09-1.52-.68-2.79-1.79-4.08-2.82-1.65-1.39-3.42-2.63-5.08-4-3.01-2.33-5.69-5.06-7.61-8.36-1.31-2.2-2.75-4.46-3.19-7.03-.02-.2-.1-.71.21-.72h.02c.11-.18.31-.25.59-.08.36.2.51.59.68.94,1.25,2.05,2.37,4.18,3.67,6.19.99,1.29,2.08,2.5,3.3,3.58,2.82,2.41,5.64,4.81,8.36,7.33.98.92,2.09,1.73,3.04,2.69,0,0,.01.01.02.02Z"/>
      <path class="cls-2" d="M126.94,136.89c.41.45,1.02,1.45-.09,1.37-.89-.14-1.46-.84-2.05-1.45-.96-1-1.77-2.12-2.7-3.15-1.52-1.75-3.18-3.38-4.81-5.02-1.55-1.59-3.03-3.27-4.77-4.66-1.33-1.1-2.84-1.88-4.39-2.55-.02,0-.03-.02-.05-.02-.61-.23-1.23-.47-1.82-.75-.52-.22-1.2-.39-1.58-.82,0,0,0,0-.01-.01-.21-.19-.35-.4-.25-.57-.02-.32.21-.54.51-.61,1.13-.14,2.26.24,3.36.48,1.44.4,2.91.76,4.15,1.62,2.71,1.65,4.97,3.91,7.11,6.23.97,1.04,1.97,2.07,2.8,3.23.88,1.09,1.64,2.27,2.48,3.38.52.74,1.35,1.46,1.46,2.38.23.3.45.61.66.92Z"/>
      <path class="cls-1" d="M48.77,64.15c.05,0,.05.09.05.12,0,.04-.02.11-.07.12-.05-.01-.05-.08-.05-.12,0-.03.02-.11.07-.11Z"/>
      <path class="cls-3" d="M55.94,16.34c.02-.62.09-1.26.04-1.77-.02-1.96-.3-3.92-.09-5.88-.35-.51-.59-1.14-.89-1.63-.59-1.12-1.79-1.62-2.82-2.27-.38-.21-.73-.51-1.16-.61-.26-.04-.53-.04-.79-.08-.13-.04-.24-.11-.34-.18-.27.09-.52.21-.75.38-.99.66-1.9,1.46-2.74,2.31-.36.32-.67.82-1.06,1.15.14.88.16,1.8.22,2.25.09,1.55-.27,3.07-.38,4.6-.08.39-.05,1.08-.11,1.73.28-.01.56-.02.84-.02,3.35-.12,6.69-.09,10.04.03ZM65.92,94.62s0-.01.02-.02c-.16-.18-.31-.35-.48-.51-.02-.02-.03-.04-.05-.05-.09.11-.2.21-.31.29-.93.84-2.06,1.62-2.47,2.86t0,0c.2-.03.4-.05.6-.03.02,0,.04,0,.05-.02.07-.03.14-.07.2-.11.68-.88,2.12-1.95,2.44-2.43ZM68.88,92.15c-.05-.2-.06-.41-.06-.62-.2-.34-.35-.73-.41-1.17-.04-.16-.11-.32-.16-.48-.04.02-.07.05-.11.07-.69.7-1.41,1.39-2.15,2.05-.13.1-.26.21-.4.31.46.57.84,1.21,1.28,1.79.23-.3.54-.57.75-.82.42-.37.82-.78,1.27-1.13ZM69.56,82.22s-.07.05-.1.07c-.97.89-2.15,1.54-3.03,2.55-.27.27-.54.54-.78.83-.04.04-.04.04.01.03,1.96-.22,3.55-1.48,3.89-3.48ZM69.61,97.34c.24-1.39.2-1.67-1.31-1.78-.01.03-.02.05-.02.08-.16,1.4-.35,2.8-.62,4.18,1.73.01,1.72-1.11,1.95-2.48ZM71.79,99.53c.5-.98.89-2.01,1.34-3.01-.85-.53-1.65-1.13-2.4-1.82-.23-.15-.73-.69-1.08-1.23-.2.19-.49.5-.81.82.36.07.72.24.99.39.89.45.81,1.52.79,2.37-.03,1.1-.32,2.82-1.16,3.77.09.01.17.02.25.01.87.02,1.73-.49,2.09-1.3ZM75.44,25.85s-.02-.02-.03-.04c-.91-.95-1.73-1.98-2.57-2.99-1.11-1.46-2.52-2.78-3.21-4.5-.08.01-.16.02-.24.03-3.95.16-7.9.24-11.85.28-.15.09-.33.14-.55.14-.09-.04-.17-.08-.24-.13-1.29.01-2.58.02-3.88.03-6.86.01-13.71.47-20.57.32-.17,0-.35-.02-.53-.03-.1.2-.21.39-.32.57-1.32,1.98-3.29,3.42-5,5.04-.1.09-.19.18-.28.27,5.72.02,11.42.43,17.13.67,7.24.47,14.49-.11,21.73.19,3.19.11,6.38.14,9.56.12.28.01.56.01.84.01ZM76.22,88.92c.01-.08,0-.12-.07-.16-.38-.27-.83-.44-1.27-.61-.8-.38-1.7-.57-2.59-.44-1.23.19-2.27.55-2.88,1.73-.08.14-.21.21-.32.32.07.58.39,1.13.59,1.68.78,1.47,3.18,1.02,4.61,1.3.08,0,.16.04.2-.06.02-.05.03-.1.04-.15.14-.68.73-1.14,1.14-1.65.4-.56.47-1.27.53-1.94ZM76.34,106.44c.2-.6.1-1.29,0-1.91-.14-.63-.16-1.31-.49-1.89-.12-.18-.13-.47-.32-.59-.24.01-.48-.05-.71-.02-.55.11-.64.36-.5.88.2,1.54.84,2.99,1.44,4.4.27-.23.42-.57.59-.88ZM77.95,105.25c.62-1.18.43-2.61.17-3.86-.24-.91-.82-1.9-.64-2.85-1.06-.36-2.09-.79-3.08-1.29-.06.91-.49,1.77-.79,2.61-.11.32-.28.66-.48.98.09.19.18.41.27.66.2-.25.52-.39.84-.34.65-.34,1.42-.09,1.95.38.35.24.62.57.91.88.46.74.62,1.65.61,2.52.02.18.05.36.07.54.04-.07.09-.14.14-.21ZM79.9,105.21c.21.05.49.09.71.04-.07-.36-.22-.71-.39-1.04-.05-.11-.12-.23-.2-.38-.1-.07-.2-.15-.25-.27,0,.57-.09,1.15-.26,1.71.04,0,.07.02.1.04,0,0,.02.02.03.03.06-.08.15-.13.26-.13ZM81.34,66.39c-.27-.03-.54-.06-.82-.05-.6.11-1.2.07-1.79.26-.45.11-.94.02-1.35.23-.82.44-1.31,1.32-1.7,2.14-.56,1.06-.98,2.19-1.56,3.24-.71,1.28-1.32,2.61-2.05,3.87-.72,1.19-1.52,2.34-2.02,3.64-.21.36-.42,1.11-.72,1.7.3-.11.53-.12.59.06,0,0,0,.01,0,.02,0-.02,0-.05.01-.07.1-.38.43-.61.73-.84.22-.21.46-.41.72-.58,1.21-.8,2.32-1.74,3.38-2.74.25-.27.5-.54.75-.81,1.62-2.09,3.06-4.32,4.39-6.61.42-1.18.99-2.32,1.45-3.47ZM81.32,103.35c.01-.09.01-.18,0-.27.01-.92-.3-1.81-.69-2.64-.18-.44-.27-.8-.28-1.07-.47-.12-.95-.24-1.41-.38.28.55.36,1.21.47,1.83h0c.33-.1.51.4.66.61.16.21.37.61.57,1.09.21.14.4.32.49.47.07.08.13.2.18.34ZM88.15,89.07c0-.57.04-1.15,0-1.53,0-1.34-.02-2.68.16-3.99-.89.43-1.84.75-2.83.88-.48,1.08-1.23,2.36-2.32,2.93.5.2,1,.39,1.5.59,1.14.43,2.27.99,3.48,1.12ZM88.48,62.56c.12,0,.24,0,.36-.01-.42-1.75-.3-4.42-.51-5.5-.43-5.7-.18-11.41-.39-17.12-.05-5.58-.98-11.25.06-16.78-.94.18-1.99.09-2.89.14-2.95.01-5.91-.03-8.82-.54.66.62,1.32,1.24,1.95,1.89.37.43,1.04.82.93,1.47-.01.05-.03.1-.05.14.61.25,1,.89.29,1.37-.54.39-1.21.57-1.86.67-2.07.3-4.17.29-6.26.31-4.54-.02-9.07-.37-13.61-.3-7.07.25-14.14,0-21.18-.59-2.29-.2-4.57-.41-6.87-.43-2.07-.05-4.16.08-6.23-.1-1.6-.32-1.85-1.06-1.36-1.62,0-.25.17-.54.54-.86.47-.62.91-1.27,1.35-1.91-1.13.06-2.29-.04-3.39-.03-2.55.04-5.09-.13-7.61-.45-.24-.03-.48-.06-.72-.11,0,.26,0,.51,0,.73-.04.91-.04,1.82-.1,2.73,0,.02,0,.04,0,.06.01,4.85.19,9.69.37,14.53.12,2.25.21,4.51.23,6.77,0,1.36-.02,2.73-.05,4.09h0c-.02,6.16-.12,12.32-.12,18.47.06,2.38.09,4.75.03,7.12.05,6.45.25,12.9.19,19.35-.15,7.19-.08,14.38-.44,21.56-.2,4.63-.32,9.27-.19,13.9.07,2.71.17,5.42.11,8.13-.05.61,0,1.62-.1,2.51.1.39.17.8.2,1.19,1.38-.15,2.8.07,4.18-.07,7-.38,14.03-.3,21.03.14,7.57.43,15.15.14,22.73.44,5.03.13,10.07.38,15.1.25,2.46-.06,4.91-.23,7.37-.23,1.19,0,2.38,0,3.57.04.02,0,.03,0,.04,0h.02c.15,0,.31,0,.46,0,.39.02.79-.01,1.18-.04-.18-2.1.19-4.85.1-6.03-.21-2.44-.46-4.88-.26-7.33,0-.05,0-.14.01-.28h0c-.34-2.07-.1-5.14-.22-6.28-.05-2.25-.07-4.5-.11-6.75-.03-3.34-.16-6.67-.18-10-.02-.42.04-2.47.37-3.62-1.6-1.61-3.34-3.28-5.62-3.81-.14-.03-.28-.06-.42-.09.05.08.09.17.14.26.23.3.46,1.25.56,2.24.33,1.41.29,2.84-.79,3.23-.02.14-.07.27-.14.41-.23.53-.68,1.07-1.32.88-.17-.04-.31-.14-.41-.26-.06-.03-.13-.07-.2-.14-.12-.09-.21-.25-.25-.42-.17.39-.39.75-.67,1.06-.26.25-.88.72-1.16.32-.36.45-.87.8-1.45.86-.26-.02-.45-.05-.64-.26-.8-.74-1.37-1.69-1.69-2.73-.2-.54-.41-1.14-.51-1.73-.08-.07-.12-.19-.16-.28-.16-.5-.34-1-.45-1.52-.52.55-1.16.97-1.87,1.06h-.01c-.57.18-1.21.17-1.91-.1-.38-.16-.93-.33-.93-.82,0-.08,0-.16.03-.24-.34-.02-.71-.05-.97-.27-.53-.77-.11-1.92-.04-2.79.09-.64.16-1.29.24-1.94.04-.36.05-.77.18-1.12-.03,0-.05,0-.08.01-.06.07-.15.12-.27.14-.12-.07-.23-.16-.34-.25-.18,1.36-2.41,3.41-3.62,2.91-.08-.01-.15-.04-.21-.08-.12-.02-.24-.04-.34-.06-.05,0-.09-.02-.14-.02-.03,0-.05,0-.08,0-.25.26-.55.46-.81.71-.12,0-.24.01-.36.03-.02,0-.05,0-.07,0-.14.02-.27.04-.4.06-.07.02-.13.03-.19.04-.07.01-.13.03-.19.05-.03,0-.05.01-.08.02-.03,0-.06.02-.09.02.38-.56.97-.95,1.42-1.45-.14-.35-.09-.82-.03-1.16.06-.29.16-1.07.51-1.17,0,0,0,0,0,0,.5-.64,1.55-1.28,1.88-1.62.25-.23.54-.42.83-.61-.08-.19-.13-.39-.13-.61,0-.48.24-.82.52-.73.28-.42.83-.84,1.09-1.04.06-.05.12-.09.18-.14-.38-.02-.74-.12-1.08-.31-.84-.32-1.14-1.25-1.03-2.08,0-.11.03-.27.08-.43-.87-.07-.79-1.26-.32-1.8,1.19-1.16,2.39-2.34,3.7-3.36-.58-.7.06-2.53.2-3.29.56-1.76,1.3-3.48,2.36-5,.22-.3.43-.6.63-.91,0,0,0,0,0-.01.54-.95,1.07-1.81,1.54-2.5t0,0c.11-.18.21-.37.32-.55,1.32-2.08,2.57-5.12,4.92-6.14.06-.02.12-.03.18-.04,1.09-.46,2.36-.54,3.53-.44.41.05.82,0,1.22.12.02,0,.04.02.05.02.51-.83,1.15-1.55,1.98-1.91.32-.08.68-.11.99-.04.01.01.03.02.04.03.46.04.91.17,1.36.32.52.11,1.03.27,1.52.44ZM93.93,67.01c-.88-.27-1.71-.66-2.57-1-.59-.3-1.13-.71-1.7-1.05-.29.14-.54-.08-.82-.11-.25-.06-.43-.27-.62-.43-.34-.2-.73-.3-1.11-.39-1.64-.57-2.14-.02-3.09,1.26-1.05,1.27-1.62,2.84-2.47,4.24-.14.25-.27.5-.39.76-.13.45-.27.89-.42,1.32-.11.36-.48,1.3-.85,1.57-.19.41-.4.81-.64,1.2-1.78,2.43-3.74,4.83-6.15,6.66-.78.49-1.54,1.18-2.47,1.32.02.04.02.07.03.11.15.6-.16,1.2-.4,1.73-.47.81-1.13,1.51-1.92,2.02-.87.72-1.99,1.13-3.14,1.32.19.34.38.68.71.9.56.48,1.36.62,2.02.32,0-.07.02-.14.04-.21.18-.52.58-.97,1.02-1.29.38-.18.76-.32,1.13-.52.08-.03.16-.06.25-.09-.02-.32.32-.7.54-.92.33-.33.65-.72,1.01-1.05.43-1.03,2.34-2.46,2.85-2.76,1.65-1.13,3.31-2.24,4.87-3.49,4.83-3.72,9.44-7.71,14.27-11.43ZM92.54,88.88c.13-.02.26-.04.39-.06-.46-.7-.74-1.54-.66-2.38.04-.27.1-.32-.2-.38-.75-.33-1.5-.77-2.1-1.34.17,1,.2,2.09.26,2.71,0,.36.05,1.04,0,1.69.77-.03,1.55-.12,2.31-.25ZM95.64,65.73c-.01-.1-.02-.19-.03-.27-.21-1.44-.32-2.89-.47-4.34-.53-5.6-.18-11.21.25-16.81.29-6,0-11.99-.24-17.98-.04-2.31,0-4.62.09-6.93.14-1.89-.29-3.84-.07-5.72-.17,0-.33,0-.5,0-1.28,0-2.56.08-3.84-.09-.92-.11-1.82-.36-2.7-.66-3.23.09-6.48.02-9.68,0-1.6-.05-3.2-.06-4.8-.07-3.29.18-6.59.25-9.89.41-1.85-.02-3.71-.05-5.54-.27-.03,0-.06,0-.1,0-.02.63-.02,1.25.04,1.87,0,.38.05.97.05,1.58,3.89.18,7.77.44,11.64.69.49.05,2.16.11,1.8.72.98.61,1.79,1.85,2.5,2.68.08-.02.17-.03.27-.04.67-.03,1.34-.05,2.01-.08.26-.01.51-.02.77-.04,2.98-.13,5.96-.25,8.93-.2.61.04,1.23.07,1.84.14.35-.04.76.02,1.09.17h0s.07.02.1.03c.45-.34.82.89.9,1.22.58,2.94.53,5.96.57,8.95.2,5.95-.18,11.9.39,17.82.2,2.52.38,5.04.49,7.56,0,.79.29,2.81-.05,4.08,0,.61,0,1.22-.02,1.83v.02c.04.38.08.76.04,1.14.05.07.09.15.1.22.02.04.04.1.06.16.65.22,1.28.51,1.84.9.58.36,1.07.84,1.62,1.21.15.02.27.1.35.22.05-.04.09-.08.14-.11ZM95.63,111.17s0,0,0-.01c-.51-.37-1.02-.75-1.52-1.14-.26-.19-.51-.39-.76-.6-.62-.5-1.23-1.02-1.82-1.55-.72-.68-1.39-1.41-2.03-2.15.33,2.37.36,4.78.47,7.17.36,6.01.68,12.02.77,18.03.03,2.89-.02,5.78-.08,8.67-.07.5-.02,1.82-.12,3.01.2.55-.04,1.29-.13,1.87.04.05.07.12.09.2,0,.38-.17.62-.43.79.26.44.14.94-.59,1.25-3.85,1.09-7.95.96-11.92.96-4.3-.14-8.61.26-12.9.02-2.89-.16-5.8-.08-8.69-.29-3.49-.24-6.99-.14-10.48-.3-4.8-.42-9.62-.61-14.45-.51-3.12,0-6.23-.22-9.36-.23-2.77-.03-5.57.07-8.32-.37-.6-.09-1.2-.19-1.76-.44h0c-.13,0-.26,0-.39-.02-.75.02-1.09-.52-1.13-1.2-.09-.6-.18-1.24-.18-1.87-.09-.55-.07-1.15-.05-1.66.05-1.28.06-2.57.05-3.85-.08-4.36-.25-8.73-.14-13.09.2-7.07.58-14.14.53-21.23.1-4.8.11-9.6.07-14.4-.21-.35-.14-.93-.11-1.29.02-.91.04-1.81.07-2.71h0c-.05-5.8-.13-11.59-.15-17.39h0c-.11-2.07-.19-4.15-.16-6.22.03-4.56.45-9.12.23-13.68-.11-6.43-.8-12.86-.4-19.29.11-1.37.21-2.74.39-4.1.03-.5.09-1.01.12-1.51.02-.19.02-.45.05-.7-.12-.22-.04-.44.12-.62.1-.28.27-.49.56-.52.15-.21.49-.29.89-.29.71-.23,1.47-.34,2.2-.37,1.79-.09,3.57.14,5.36.16,1.71.02,3.42-.03,5.12.08.46.08,1.07.06,1.62.14,1.03-.91,2.23-1.67,3.52-2.1.05-.26.29-.48.54-.61,1.23-.58,2.69-.27,4.01-.38,2.97-.17,5.94-.32,8.91-.43,0-.25,0-.49.02-.7.03-.89.07-1.79.02-2.68,0-.03,0-.07,0-.11-.54.12-1.09.18-1.51.22-6.2.78-12.48.91-18.73.72-5.11-.01-10.22-.21-15.32-.5.18,1.91.04,3.84.07,5.76.06,2.48-.2,4.93-.49,7.39-.02.17-.04.34-.05.5.07,2.2.09,4.39.1,6.59.12,12.77-1.21,25.48-1.48,38.24-.23,18.62.68,37.25.8,55.88.07,6.98.15,13.95.09,20.93-.09.99.09,2.47-.15,3.62.24.02.48.03.72.03,11.75.79,23.54.4,35.3.59,4.68.02,9.36-.12,14.04-.05,6.19.16,12.38.31,18.57.28,3.76-.03,7.52.05,11.29.05,2.25,0,4.5.04,6.75.07.65.04,1.31,0,1.97,0,0-.5.02-.98-.01-1.29-.03-1.94,0-3.88-.09-5.82-.32-5.78-.25-11.58,0-17.36.1-3.26.22-6.52.28-9.79,0-2.01-.1-4.02,0-6.02.02-.59.02-1.2.17-1.77ZM104.5,64.12c-.06-.07-.12-.13-.19-.19-.56-.6-1.07-1.26-1.45-1.98-.04.09-.1.17-.16.23-1.41,1.15-2.92,2.17-4.36,3.28-5.93,4.11-11.27,8.98-16.86,13.53-1.91,1.59-3.87,3.12-5.84,4.64-.59.42-1.14,1-1.77,1.43.67-.03,1.38.06,1.86.09.83.1,1.64.26,2.45.47,0-.02.01-.03.02-.05.21-1.12,2.23-2.59,3.67-3.56,1.16-.98,2.35-1.92,3.57-2.82,1.7-1.31,3.33-2.7,4.98-4.07,1.49-1.37,2.96-2.77,4.5-4.08,2.86-2.17,5.75-4.32,8.75-6.28.29-.21.57-.42.85-.64ZM105.44,54.26s-.08.04-.12.06c-.66.3-1.31.62-1.99.87.82.02,1.45-.54,2.11-.93ZM106.67,53.62s-.11.05-.14.07c-.25.13-.5.26-.75.4.3-.14.59-.3.88-.47ZM108.34,62.62c.05-.03.11-.07.17-.11-.32-.44-.54-1-.84-1.43-.45-.83-1.13-1.49-1.62-2.29-.1-.15-.19-.33-.24-.52-.29.23-.58.47-.88.7-.25.2-.48.41-.71.63-.07.35-.25.71-.16,1.05.56.86,1.2,1.68,1.82,2.51.21.46.69.3,1.06.14.5-.17.97-.41,1.41-.69ZM109.96,61.42c.22-.18.44-.35.66-.54-.32-.45-.64-.88-.91-1.37-.53-.82-1.15-1.59-1.66-2.43-.09-.13-.16-.31-.19-.49-.39.31-.77.62-1.15.94.85.5,1.77,2.13,2.23,2.63.3.42.81.78,1.02,1.25ZM112.41,59.35s-.02-.04-.04-.05c-.38-.54-.68-1.13-1.07-1.67-.5-.84-1.15-1.61-1.41-2.57,0,0,0-.01,0-.02-.45.32-.88.64-1.31.98.11.05.21.14.3.21.71.65,1.34,1.39,1.85,2.21.23.3.41.63.61.95.12.18.3.33.43.51.21-.18.43-.38.64-.56ZM113.63,58.26c.27-.24.55-.48.82-.73-.44-.53-.79-1.14-1.15-1.71-.46-.68-1.04-1.35-1.29-2.14-.38.21-.75.44-1.11.67.73.48,1.09,1.36,1.55,2.08.32.66.88,1.17,1.19,1.82ZM115.34,56.76c.22-.19.44-.38.66-.56-.82-.92-1.51-1.94-1.87-3.13-.07-.19-.1-.37-.09-.52-.42.24-.84.48-1.25.71.59.25.93,1,1.31,1.49.4.68.71,1.43,1.24,2.02ZM119.56,53.38c.12-.09.23-.17.36-.25-.3-.55-.66-1.06-1-1.59-.31-.43-.61-.87-.98-1.24-.12.14-.29.26-.47.36-.79.46-1.61.88-2.41,1.32-.05.03-.1.05-.14.08.12.07.24.19.36.35.7.89,1.02,2.03,1.82,2.82.02.01.03.02.05.04.67-.54,1.34-1.08,2.03-1.6.06-.05.13-.11.19-.16.07-.06.13-.1.2-.12ZM120.9,51c.05-.25-.07-.45-.23-.63-.13-.2-.32-.38-.56-.43-.13-.03-.34-.02-.59.01.31.4.55.86.84,1.26.07.13.15.26.24.39.09-.22.21-.43.29-.6ZM121.05,48.88c.83.92,1.34,2.42.54,3.52-.05.08-.12.17-.2.25,1.07,1.45-2.23,3.24-3.11,4.09-1.72,1.3-3.49,2.53-5.14,3.93-1.2.92-6.27,5.84-7.69,4.49-.48.88-1.45,1.42-2.18,2.08-1.74,1.61-3.64,3.04-5.54,4.46-2.36,1.91-4.77,3.75-7.12,5.68.07,0,.15.01.23.04,1.05.48,2.08,1.04,3.23,1.25.23.2.13.59,0,.82-.07.11-.16.2-.29.22-.5.06-1.02.07-1.52.01-.45-.08-.92-.07-1.37-.19-.71-.2-1.16-1.01-.85-1.68-.15.12-.3.25-.46.38-1.28.99-7.07,6.55-9.91,7.84.75.25,1.49.52,2.23.8.03-.2.13-.41.29-.59.64-.91,1.68-1.48,2.2-2.48.35-1.65,1.3-1.33,2.61-1.74,1.12-.32,2.07-1.04,3.15-1.45,1.07-.15.26,1.54.55,2.1.19.46.5.88.88,1.19.52.46,1.14.87,1.54,1.45.17.46.22.95.47,1.38.29.58.88,1.15.96,1.8.13-.04.27-.09.39-.15,1.7-.63,3.07-1.81,4.46-2.93.82-.53,1.42-1.33,2.2-1.92.32-.1.68.14.88.38.38.52-.8,1.63-1.06,2.12-1.28,2.7-4.02,4.34-6.86,4.98-1.1.33-2.21.55-3.37.61-.79.11-1.6.19-2.39.02-3.78-.95-7.09-3.1-10.66-4.57-1.29-.49-2.69-.7-4.06-.6-.27.01-.53.11-.79.16,1.11.28,2.16.86,3.05,1.54.27.21.61.4.73.73-.14,1.17-.37,2.36-.55,3.54-.39,1.85-2.11,1.87-3.65,1.53-.54-.14-1.11-.32-1.65-.55.09.1.18.19.28.27.77.7,1.63,1.33,2.59,1.76,1.62.67,3.35,1.01,5.08,1.24,1.43.11,2.8.54,4.1,1.14,2.45,1.15,4.57,2.94,6.23,5.06.05.07.11.13.16.2,0,0,0,0,.01.01,1.42,1.3,2.76,2.7,4.3,3.87,1.45,1.19,2.88,2.44,4.55,3.3,1.21.6,2.43,1.19,3.55,1.95.79.54,1.52,1.17,2.38,1.61.64.39,1.21,1.13,1.09,1.91-.05.22-.23.42-.47.4-.29-.04-.57-.09-.84-.18-.07.02-.15.03-.25.03-2.03-.67-3.83-1.88-5.62-3.03.35,2.46.1,4.98.16,7.46.05,4.44.01,8.88.18,13.32.01,4.46.04,8.92-.18,13.38-.07,1.75-.11,3.49-.17,5.24v.1c.09.31.19.62.25.93.15.1.27.23.34.38.18.45-.15.82-.32,1.21-.01.06-.03.12-.05.18.34.62-.58.79-1.04.76-2.3-.16-4.64.07-6.95-.17-4.41.11-8.84-.08-13.26-.03-7.25.06-14.5-.12-21.75-.29-7.05-.03-14.1.12-21.15,0-4.97-.02-9.95-.06-14.92-.03-5.11-.02-10.2-.39-15.3-.63-1.01-.04-2.23-.93-1.38-1.83-.17-.86.05-1.88.08-2.69.16-1.17.23-2.35.3-3.53,0-.95,0-1.9,0-2.85.23-29.84-2.02-59.7-.16-89.5,0-.03,0-.05,0-.07-.01-1.11,0-2.22-.02-3.33-.16-4.29.18-8.57.05-12.85-.11-7.92-.27-15.84-.12-23.77-.02-.96.08-1.91.23-2.85h0c-.34-.44-.2-1.06.25-1.38.71-.58,1.64-.57,2.52-.57,5.25-.13,10.49.21,15.73.06,4.84-.35,9.68-.08,14.52.02,2.29.1,4.61.02,6.87.38.05.01.1.02.14.03-.02-1.68.09-3.52.62-4.14.83-2.02,4.02-4.55,5.2-5.02.11-.05.21-.09.32-.13.25-.57.73-.93,1.57-.73,1.7.49,3.2,1.57,4.4,2.84,1.21,1.02,1.93,2.5,2.16,4.05.02.04.05.08.08.12.36.79.53,1.62.59,2.47.12-.02.23-.03.32-.02,2.3.07,4.62.23,6.93.32.67,0,1.34,0,2.01,0,9.39-.31,18.79-.41,28.19-.13,2.41-.13,3.48,1.2,2.59,2.05.02.09.03.18.04.28.29,2.5.17,5.02.18,7.53-.1,4.62.28,9.23.31,13.84.2,7.37-.13,14.73-.39,22.09-.08,2.01-.17,4.01-.19,6.02-.04.76.04,1.58-.05,2.35.57-.45,1.13-.9,1.67-1.39.78-.66,1.67-1.43,2.53-1.95-.08-.32-.07-.6.23-.52h0c.61-1.89,5.05-4.99,8.78-7.35-.08-.18-.14-.38-.18-.58-.69.55-1.4,1.09-2.14,1.57-1.91,1.18-3.92,3.36-6.36,2.44-.22-.11-.28-.38-.21-.59.04-.05.04-.09-.01-.09-.23-.13-.12-.45.02-.6,1.81-1.31,3.97-2.06,5.9-3.17,1.08-.58,2.16-1.15,3.16-1.88,1.18-.79,2.28-1.75,3.59-2.31.31-.14.75-.09.82.3.12,1.03-1.17,1.58-1.91,2.03-.54.26-1,.65-1.45,1.06.25.18.46.42.58.69,1.58-.96,2.84-1.7,3.32-1.99.41-.21.79-.54,1.24-.61.2,0,.34.11.42.25.06-.01.12-.02.18-.02.16-.12.31-.25.48-.34.72-.49,1.71-.74,2.31.07Z"/>
      <path class="cls-3" d="M27.81,67.32c.1,0,.19-.01.29-.02-.13-.98-.16-2.02-.23-2.54-.07-1.61-.27-3.22-.19-4.84.02-.26.04-.52.07-.79-2.14.11-4.27-.11-6.4.12-.37.03-.74.03-1.11.04-.05,0-.1-.02-.11.05,0,.05,0,.16,0,.21.12.8.27,5.09-.04,7.68,1.09-.27,2.55-.19,3.27-.27.73-.03,1.45.17,2.16.3.76.02,1.52,0,2.28.04ZM29.78,63.25c.01.82.39,3.4.11,4.99h0c-.02.16-.04.32-.09.45.09.1.09.22-.02.38-.07.04-.14.07-.21.09h0c-.03.06-.07.11-.12.15-.01.04-.03.07-.05.1-.4.5-1.13.13-1.68.24-1.8-.04-3.61-.12-5.41.07-.97.1-2.05.4-2.96-.12-.04-.02-.07-.05-.11-.08-.02,0-.04,0-.06,0-.13.11-.29.17-.47.17-.88-.42-.75-2.41-.79-3.28-.03-2.63.12-5.26.01-7.88-.06-.53.16-1.48.84-1.3.06-.04.12-.08.2-.11,1.03-.16,2.09-.01,3.14-.14,1.63-.03,3.28-.02,4.89-.27.42-.12.86-.11,1.28-.02.33.02.67.12.88.39.11.13.2.29.27.46.2.08.35.21.42.39-.02.14-.08.26-.18.34.08.17.12.39.09.64.02.5,0,1-.04,1.5.05.94.07,1.89.09,2.83Z"/>
      <path class="cls-3" d="M28.14,76.29c-.43,0-.86.01-1.29.02-1.62,0-3.2.47-4.82.47-.41-.02-1.19-.02-1.92-.14,0,.54-.05,1.09-.03,1.62-.03,1.4.16,2.79.11,4.2,0,.27-.02.54-.06.8,1.48-.19,3.01-.14,4.48-.07,1.09.05,2.18.11,3.27.15-.02-.2-.04-.39-.05-.59-.19-1.68-.34-3.39-.04-5.07.08-.47.2-.93.34-1.39ZM29.76,74.82c.41.97.26,3.29.28,3.91-.05.59-.1,1.18-.12,1.76,0,.41,0,.82,0,1.22.01.24.03.49.06.73.03.81.3,1.73-.24,2.43-.3.41-.78.75-1.29.69-.09-.02-.16-.06-.21-.11-.5-.03-1-.09-1.5-.07-1.77-.01-3.54.32-5.31.1-.52-.01-2.02-.22-2.78-.68-.06.05-.12.07-.19.05-.94-.93-.33-4.2-.43-5.56.04-1.05.05-2.11.05-3.16.04-.48-.14-2.17.54-2.19,0,0,0,0,0,0,.66-.29,1.45-.18,2.15-.27,2.17-.11,4.35-.11,6.52,0,.32.06.97.04,1.54.11.12-.18.3-.28.55-.16.13.09.21.23.26.39.11.07.2.16.23.28-.02.06-.07.12-.14.17,0,.04,0,.07,0,.11,0,.08,0,.17.01.25t0,0s0,0,0,0h0Z"/>
      <path class="cls-3" d="M27.83,93.36c-.06,0-.12,0-.18,0-.75.05-1.49.05-2.24.05-1.65-.07-3.31.12-4.96-.02-.32-.04-.65-.06-.98-.13.02.45.02.89.06,1.33,0,1.38,0,2.76.09,4.14,0,.49.2,1.55.08,2.31.87-.44,2.07-.23,3-.21,1.67.03,3.34.08,5,.2.02-.29.04-.57.02-.82.04-.85.04-1.69.02-2.54-.04-1.44-.03-2.88.09-4.31ZM29.98,92.39c.14,2.32-.09,4.65-.15,6.97-.04.37-.02,1.49-.15,2.37.61.5-.27,1.28-1.17,1.32-.25.16-.52.25-.79.23-2.38-.14-4.77-.16-7.13-.54-.65-.04-1.3-.11-1.93-.27-.08.12-.17.2-.27.2-.94-.92-.46-6.32-.47-7.82.03-.9.04-1.8.12-2.69.05-.41.11-.91.46-1.16.1-.05.2-.04.27.01.29-.14.7-.24.85-.28,1.83-.24,3.68-.05,5.52-.07,1.41.11,2.85-.06,4.25.07.39.11.54.41.39.67.02.04.04.08.06.13.1.27.12.58.14.87Z"/>
      <path class="cls-3" d="M28.69,110.94c-.07,0-.14.01-.21,0-2.16.2-4.33.18-6.5.18-.44,0-.88.04-1.32.04.07.21.11.44.14.65.09.75.1,1.5.12,2.26.11,1.46.08,2.93.07,4.39.06,0,.12,0,.17,0,.18,0,.37,0,.55,0,.65-.03,1.3-.04,1.85-.05.02,0,.04,0,.06,0,1.51-.06,3.02-.18,4.52-.35-.04-1.17-.05-2.33.07-3.49.07-.73.24-1.44.41-2.15,0-.21,0-.41,0-.62.02-.33.04-.62.06-.88ZM30.32,115.46c.04,1.13.41,2.35.1,3.45-.28.61-.89,1.19-1.58,1.18-.34.14-.74.2-1.12.21-1.5.15-3.02.03-4.52.04-.95.01-1.89.03-2.84-.07-.26.2-.58.3-.94.25-.26-.07-.37-.27-.42-.5-.14-.06-.27-.14-.37-.27-.02-.07-.04-.13-.05-.19-.34-.27-.44-.76-.42-1.18.03-.64,0-1.27-.05-1.9-.14-1.95-.32-3.93,0-5.88.04-.2.08-.37.13-.51h0c.02-.23.14-.46.39-.7.84-.71,2.01-.48,3.04-.46h.02c.91-.03,1.77,0,2.2,0,1.11.03,2.2,0,3.31-.03.51-.02,1.06-.05,1.56.06.53-.04,1.09-.06,1.23.48.02.16,0,.32-.04.47.48,1.82.27,3.7.39,5.55Z"/>
      <path class="cls-3" d="M28.42,134.69c0-.63-.02-1.25-.11-1.88-.3-1.43-.14-2.88-.19-4.32,0-.51-.05-1.05-.02-1.57-.3.02-.6,0-.89.02-.95.04-1.91.03-2.86,0-1.4-.07-2.84.15-4.23-.01.25,1.53-.19,3.08-.12,4.62-.02,1.02.09,2.04.1,3.07.26-.05.53-.07.79-.08,1.48-.02,2.96,0,4.45.02,1.02.05,2.05.1,3.07.12ZM30.4,125.94c.38,1.47-.12,2.97-.09,4.46-.15,1.29.34,5.53-1.2,6.11-.94.64-2.33.32-3.42.35-1.73-.13-3.46.18-5.19.06-.51-.05-1.04-.03-1.54-.2-.06,0-.12,0-.19,0-.38-.1-.36-.51-.31-.82-.66-.44-.37-2.07-.48-2.8-.04-2.02-.16-4.05.05-6.06.02-.32.11-1.12.34-1.52,0,0,0-.01,0-.02.04-.07.08-.12.12-.15.01-.02.03-.02.04-.02.1-.07.21-.11.32-.14.15-.14.32-.24.5-.31,2.93-1.05,6.14-.27,9.17-.17.42-.04.72.04.91.2.43-.05.81.28.94,1.03Z"/>
      <path class="cls-3" d="M60.97,113.56c1.32-.05,2.38-.32,2.16,1.47-.27,1.41-.77.88-1.78.73-.76.02-1.51.27-2.28.18-.51-.04-1.02-.09-1.53-.11-.99-.09-1.94.2-2.92.24-.49,0-.98-.11-1.47-.11-.79.03-1.77.03-2.36-.59-.09-.11-.16-.25-.2-.41.04,1.02-.32,2.15-1.02,2.39-.35.09-.71-.1-1.07,0-1.05.25-2.17.6-3.25.32-.64-.13-1.05-.79-1.71-.83-1.01.05-2.2.58-3.1-.12-.08-.07-.07-.04-.15.03-.65.52-1.45.89-2.28.98-2.39.36-4.12-2.04-3.71-4.27.12-1.28,1.34-2.22,1.63-.45,0,.1,0,.15.07.23.56.58,1.48.52,2.2.35.51-.12,1.05-.3,1.49-.57.26-.16.46-.43.77-.52.41-.12.7.22.93.49.76.48,1.91.13,2.76.23.54.08.98.39,1.48.54.48.11.97.07,1.45.07.45-.02.93-.02,1.31-.27.44-.19.96-.39,1.44-.26.38.19.61.66.7,1.23.02-.24.13-.46.34-.57.16-.03.23.13.35.19.53.15,1.11-.03,1.64-.11.48-.13.97-.13,1.46-.14.71-.03,1.39-.24,2.09-.31,1.51-.12,3.03,0,4.54-.03Z"/>
      <path class="cls-3" d="M48,127.54c1.12.02,1.46.99,1.37,1.96-.05.62-.24,1.46-.9,1.69-.27.05-.55-.05-.81-.12-.35-.1-.68.12-1.02.18-.64.18-1.34.15-1.96-.12-.07-.04-.12,0-.2.04-.85.44-1.79.85-2.76.91-.71.05-1.36-.32-1.97-.61-.12-.03-.22.1-.32.16-.57.34-1.22.71-1.9.71-1.05-.18-1.41-1.32-2.09-2-.78-.77-1.51.45-1.69,1.14-.1.21,0,.5-.2.66-.23.18-.31-.23-.31-.38.06-1.06.39-2.2,1.09-3.02.78-.92,2.07-.36,2.78.36.27.26.6.54,1,.36,1.29-.39,1.43-1.28,2.96-.57,1.14.34,2.5,0,3.39-.75.57-.33,1.28-.1,1.9-.25.58,0,1.07-.34,1.64-.35Z"/>
      <path class="cls-3" d="M54.23,130.01c.12,1.7-.73,3.03-2.29,1.49-.72-.53-.78-1.81-.04-2.34,1.08-.62,2.24-.68,2.32.85Z"/>
      <path class="cls-3" d="M70.33,114.39c.04.45-.05,1.2-.59,1.27-.97.04-1.95.03-2.91,0-.47-.05-.97-.04-1.42-.2-.43-.26-.29-.98.06-1.26.63-.43,1.45-.5,2.19-.58.65-.02,1.31-.02,1.96.02.46-.03.68.32.71.75Z"/>
      <path class="cls-3" d="M53.51,95.26c1.61.22,1.47,2.61.87,3.7-.48.91-1.55.73-2.4.62-.86-.01-1.8-.05-2.46-.7-.07-.07-.1-.18-.2-.1-.04.03-.07.06-.11.09-1.18.95-3,1.5-3.83-.16-.09-.18-.05-.15-.2-.12-.84.12-1.7.21-2.55.23-.14,0-.16-.04-.23.1-.39.95-1.3,1.66-2.36,1.55-1.52-.07-2.04-1.63-2.47-2.85-.14-.31-.54.1-.72.2-.88.63-1.79,1.25-2.83,1.56-.35.14-.63-.07-.69-.43-.26-1.32,1.68-2.67,2.5-3.58.64-.59,1.44-1.46,2.39-1.14.74.27,1.07,1.09,1.38,1.75.08.29.3.51.6.56.01-.76.2-2.02,1.14-2.12.38.12.76.24,1.17.2.89-.03,1.77-.15,2.66-.25.99-.22,1.49-.05,1.81.96.16.11.43.07.61.04.61-.09,1.17-.32,1.73-.55.8-.17,1.46.5,2.24.57.66.18,1.31-.14,1.97-.13Z"/>
      <path class="cls-3" d="M57.36,95.74c1.23.32.96,3.61-.4,3.58-1.82-.37-1.27-3.46.4-3.58Z"/>
      <path class="cls-3" d="M49.81,78.44c.95.35,1.14,1.46.9,2.34-.16.75-.72,1.43-1.4.68-.3-.18-.66-.29-.96-.49-.43-.3-.71-.77-1.05-1.16-.55-.81-1.52-.16-2.24,0-.46,2.96-2.54,2.4-4.59,1.31-.09-.05-.12-.05-.22-.03-.57.23-1.24.43-1.83.16-.19-.07-.48-.32-.61-.44-.07.03-.14.16-.19.22-.7.86-1.88,1.7-2.93.89-1.41-1.14-1.75-3.67-.77-5.18.51-.63,1.18-.3,1.1.48,0,.11,0,.22-.08.3-.05.05-.1.05-.11.14.07.32.36.68.73.66.48-.07.77-.55,1.13-.82.38-.34.73-.92,1.31-.85.71.11.82,1.08,1.57,1.11.26.07.52.07.79.05.29,0,.52.1.78.22.68.33,1.41.56,2.14.77-.05-1.17.53-2.24,1.72-2.54,1-.46,2.31-.86,3.16.08.66.61,1.01,1.47,1.64,2.1Z"/>
      <path class="cls-3" d="M63.63,76.99c.94.77.77,2.48.14,3.41-.7.8-1.88.12-2.55-.38-.09-.04-.16-.2-.21-.09-.67,1.13-2.04,1.79-3.34,1.43-.61-.15-1.24-.36-1.87-.25-1.17.84-1.4-.72-1.72-1.53-.03-.06-.02-.17-.1-.1-.07.02-.11-.01-.17-.02-.57.2-.84-.09-1.02-.62-.45-1.5.87-3.63,2.26-1.86.29.31.52.66.69,1.04.05.05.17,0,.22,0,.64-.08,1.29-.16,1.94-.18.66,0,1.38.14,1.99-.19.03-.54.29-1.61,1.02-1.35.1.06.2.11.31.11.82.07,1.7.1,2.4.59Z"/>
      <path class="cls-3" d="M46.19,63.16c.29.61.22,1.5-.32,1.96-.91.55-1.52-1.44-1.96-1.96-.04-.16-.26.12-.34.17-.03.03-.09.07-.1.11.2.86.09,1.95-.69,2.51-1.04.51-2.67.63-3.49-.31-.02-.05-.06-.05-.1,0-.27.18-.55.36-.84.51-.8.37-1.72-.16-2.17-.83-.16-.22-.32-.65-.64-.38-.52.33-1,.7-1.39,1.17-.22.23-.49.66-.85.59-.35-.16-.39-.64-.38-.97.14-1.41,1.16-2.64,2.31-3.38.88-.56,1.92-.12,2.54.61.16.11.31.41.54.31.4-.17.7-.62,1.19-.54.47.05.73.47,1.09.72.38.19.83.39,1.25.32-.21-1.25.7-2.6,1.9-2.93.88-.07,1.48.85,1.89,1.51.17.28.38.54.54.83Z"/>
      <path class="cls-3" d="M62.77,61.76c1.34.61,1.17,3.25,0,3.95-.77.36-1.39-.39-2.11-.51-.57-.04-1.12.11-1.69.12-.43.02-.87,0-1.29-.13-.08-.03-.1-.01-.16.05-1.04,1.11-3.07,1.2-3.98-.12-.03-.04-.09-.15-.13-.17-.94.99-2.27.97-2.9-.35-.57.71-1.13,1.82-2.15,1.88-.26-.05-.37-.27-.38-.52-.01-.44.39-.74.64-1.05.48-.66.96-1.36,1.33-2.09.14-.33.25-.79.61-.96.31-.15.58.08.79.29.23.23.43.5.77.56.32.02.7-.05.95-.25.3-.43.67-.48,1.03-.07.88.75,2.5.78,3.16-.25.19-.15.39-.16.62-.13,1.16.06,2.31-.22,3.45-.41.48-.05.99.01,1.45.19Z"/>
      <path class="cls-3" d="M72.18,62.69c.74.32.62,1.69.13,2.2-.31.26-.75.23-1.13.27-1.32.06-2.64-.04-3.96,0-.53-.03-1.07.04-1.59-.02-.3-.11-.45-.4-.54-.69-.32-1.4.21-2.91,1.91-2.51,1.01.25,2.02.48,3.07.56.7.09,1.43.02,2.11.2Z"/>
      <path class="cls-3" d="M78.94,70.09c.12.5-.02,1.53-.71,1.43-.1-.07-.2-.14-.3-.21-.09.11-.2.18-.34.16-.5-.34-.81-.91-1.2-1.37-.39-.4-.83-1.32-.18-1.66.09-.02.18,0,.26.06.07-.18.19-.33.36-.43.6-.23.73.65,1.18.86.36.35.82.66.93,1.17Z"/>
      <path class="cls-3" d="M87.38,68.44c.38.81.72,3.41-.55,3.53-.87-.52-.89-1.83-1.09-2.73-.17-1.03-.47-2.12-.11-3.14.11-.27.37-.37.59-.15.32.26.45.68.58,1.05.13.5.39.96.58,1.45Z"/>
      <path class="cls-3" d="M98.09,79.51c.5.02.41.66.19.95-.53.45-1.36.26-2,.2-.26-.04-.57-.07-.79-.25-.31-.21-.38-.71-.05-.95.09-.05.22-.05.33-.05.77.07,1.55-.04,2.32.09Z"/>
      <path class="cls-3" d="M129.24,134.76c.41.45,1.02,1.45-.09,1.38-.89-.15-1.46-.85-2.05-1.45-.96-1-1.77-2.12-2.7-3.15-1.52-1.75-3.18-3.38-4.81-5.02-1.55-1.59-3.03-3.27-4.77-4.66-1.33-1.1-2.84-1.88-4.39-2.55-.02,0-.03-.02-.05-.02-.61-.23-1.23-.47-1.82-.75-.5-.21-1.16-.38-1.54-.77,0,0-.01-.01-.02-.01-.24-.2-.4-.43-.29-.61-.02-.32.21-.54.51-.61,1.13-.14,2.26.24,3.36.48,1.44.4,2.91.75,4.15,1.62,2.71,1.65,4.97,3.91,7.11,6.23.97,1.04,1.97,2.07,2.8,3.23.88,1.09,1.64,2.26,2.48,3.38.52.74,1.35,1.45,1.46,2.38.23.3.45.61.66.92Z"/>
      <path class="cls-3" d="M142.83,121.42c.72.59,2.02,1.46,1.72,2.16-.07.12-.2.16-.34.17,0,.01-.02.02-.02.02-.43.06-.88.1-1.3-.09-1.52-.68-2.79-1.79-4.08-2.81-1.65-1.39-3.42-2.63-5.08-4-3.01-2.33-5.69-5.07-7.61-8.36-1.31-2.2-2.75-4.46-3.19-7.03-.02-.2-.1-.7.21-.72h.03c.11-.18.31-.25.59-.07.36.19.51.59.68.94,1.25,2.04,2.37,4.18,3.67,6.19.99,1.29,2.08,2.5,3.3,3.59,2.82,2.41,5.64,4.81,8.36,7.33.98.92,2.09,1.73,3.04,2.69,0,0,.01.01.02.02Z"/>
      <path class="cls-3" d="M121.71,94.22c.18.77,1.27,5.73.08,5.5-.49-.19-.86-.65-1.16-1.23-.48-.68-.62-1.66-.88-2.42-.49-1.48-.86-2.99-1.19-4.51,0,0,0,0,0,0-.73-2.64-1.4-5.3-2.04-7.96-.75-2.59-1.43-5.22-2.3-7.77-.38-.91-.66-1.89-1.32-2.64-.64-.68-1.41-1.22-2.17-1.76-1.44-.93-2.72-2.19-4.47-2.46-.58-.16-1.16-.43-1.48-.96-.11-.07-.2-.15-.28-.25-.13-.18-.28-.58.04-.66.05-.01.1-.02.16-.02.16-.14.45-.16.87-.07.25.04.49.07.74.11,5.88.37,8.87,4.15,10.77,9.69.71,1.9,1.42,3.82,1.85,5.81.18.86.31,1.73.43,2.61.43,1.26.82,2.53,1.14,3.82.47,1.73.77,3.49,1.23,5.21Z"/>
    </g>
  </g>
</svg>