<?xml version="1.0" encoding="UTF-8"?>
<svg id="Calque_2" data-name="Calque 2" xmlns="http://www.w3.org/2000/svg" viewBox="0 0 139.43 184.25">
  <defs>
    <style>
      .cls-1 {
        fill: #dafff5;
      }

      .cls-2 {
        fill: #bff7e9;
      }

      .cls-3 {
        fill: #27ccbc;
      }

      .cls-4 {
        fill: #99ecd8;
      }
    </style>
  </defs>
  <g id="Calque_vectoriel" data-name="Calque vectoriel">
    <g>
      <path class="cls-3" d="M87.2,56.8c.02.19.06.38.06.57-.01,1.06-.27,2.09-.77,3.02-.2.38-.41.75-.68,1.09-.23.29-.46.57-.7.85-.66.76-1.45,1.42-2.32,1.92-.75.43-1.57.78-2.41,1.01-.77.21-1.54.3-2.33.32-.83,0-1.66-.09-2.46-.32-.78-.23-1.53-.55-2.22-.95-.73-.43-1.4-.98-1.98-1.6-.55-.61-1.07-1.26-1.46-1.98-.84-1.56-1.2-3.51-.65-5.23,0,0,0,0,0-.01.58.11,1.37.12,1.82-.3,1.28.41,2.67.23,3.99.27,3.92.21,7.84-.45,11.75-.08.11.28.2.57.27.87.04.18.07.37.09.56Z"/>
      <path class="cls-3" d="M121.48,66.65c-.24.06-.48.14-.71.25-1.27.59-2.47,1.3-3.67,2.03-2.13,1.29-4.48,2.17-6.82,2.99-2.01.68-3.99,1.43-6.01,2.07-.32.09-.63.18-.95.26.69-.91,1.36-1.84,1.94-2.83,2.22-3.57,4.1-7.33,6.21-10.96.44.26,1.03.41,1.39.6.48.27.95.55,1.46.75.01,0,.02.02.04.02,2.02,1.16,3.94,2.49,5.8,3.89.46.25.88.62,1.32.93Z"/>
      <path class="cls-3" d="M38.7,71.38c.05.33.15.62.29.88-2.38-.61-4.71-1.37-6.89-2.52-1.55-.79-3.09-1.61-4.53-2.59-.41-.27-.77-.61-1.17-.88.08-.05.17-.11.25-.16,1.02-.63,2.05-1.24,3.08-1.87,1.07-.55,2.16-1.08,3.26-1.57.54-.29,1.25-.38,1.64-.88.19.35.42.68.68.98.24.26.5.5.78.73-.2.84-.08,1.77.07,2.59.36,1.78,1.27,3.47,2.59,4.73-.09.17-.11.36-.04.57Z"/>
      <path class="cls-3" d="M70.08,77.6c-1.31-.07-2.62-.16-3.93-.26.35-.32.67-.67.95-1.06.02-.03.04-.05.06-.09.89.62,1.88,1.09,2.91,1.41Z"/>
      <path class="cls-3" d="M88.28,76.05c-.12.38-.21.75-.23,1.09-.76.09-1.52.17-2.28.24.88-.35,1.77-.75,2.51-1.33Z"/>
      <path class="cls-3" d="M102.89,63.74c-.2.34-.4.68-.61,1.01-1.32,2.1-2.54,4.27-3.69,6.47-.77-.59-1.48-1.27-2.36-1.68-.09-.03-.18-.07-.28-.11.68-1.87,1.27-3.77,1.86-5.68.41.06.87.02,1.22.02.96-.03,1.92,0,2.88.02.31-.02.64-.03.98-.05Z"/>
      <path class="cls-2" d="M102.78,38.71c.71.11,1.42.26,2.13.39-.97,1.34-1.18,3.1-1.82,4.61-.56,1.53-1.09,3.07-1.62,4.62-.95,2.09-1.86,4.21-2.77,6.32-.75,1.91-1.32,3.88-1.87,5.86-.55,1.61-1.01,3.26-1.47,4.9-.26.75-.54,1.5-.84,2.24-.82,1.94-1.47,3.94-2.05,5.96-.39,1-.78,2.01-.99,3.07-.14.02-.28.04-.41.07-.19.03-.38.06-.57.08.98-1.79,1.91-5.37,2.65-8.47.98-1.52,1.36-4.78,1.86-6,.72-2.26,1.48-4.5,2.24-6.74,1.13-3.07,2.21-6.17,3.13-9.32.14-.34.28-.68.43-1.02.4-1.06.68-2.15.96-3.25.25-.95.61-1.86.83-2.81.04-.17.08-.34.11-.51.03,0,.06,0,.09-.01Z"/>
      <path class="cls-2" d="M108.61,32.94c-.09.26-.17.53-.26.79-.52-.36-1.18-.66-1.53-.86-.78-.36-1.61-.75-2.46-.92.11-.23.21-.47.31-.7,0,0,0,0,0,0,.88.52,1.81.93,2.76,1.31.25.07.75.3,1.18.38Z"/>
      <path class="cls-2" d="M110.6,27.35c-.03.09-.06.18-.09.27-.55-.11-1.1-.24-1.63-.42-.76-.13-1.46-.56-2.22-.7.08-.19.15-.38.23-.57.32.2.74.3,1.08.3.68.1,1.32.37,1.95.62.26.13.46.34.69.52Z"/>
      <path class="cls-3" d="M55.95,60.92c.08.24.11.2.06.37-.28.9-.95,1.64-1.58,2.32-2.99,2.93-7.15,4.85-11.39,4.53-1.58-.04-3.27-.57-4.06-2.04-.22-.38-.35-.79-.46-1.2,1.37.54,2.86.82,4.29.95,1.43-.09,2.84-.45,4.23-.82,1.24-.39,2.39-1.03,3.59-1.52,1.38-.71,2.88-1.27,4.14-2.2.39-.27.73-.62,1.02-1.03,0,.04.01.07.02.1.04.18.08.36.14.54Z"/>
      <path class="cls-3" d="M56.44,68.03c.27,1.2.12,2.49-.52,3.54-.77,1.18-1.81,2.29-3.17,2.75-.63.24-1.3.41-1.95.61-.43-.05-.87-.12-1.29-.21-.45-.1-.91-.18-1.38-.25-1.8-.46-3.6-.92-5.41-1.33-.11-.05-.22-.11-.33-.17-.21-.13-.41-.3-.58-.49.91.21,1.87.27,2.79.29,3.64.01,7.15-1.46,10-3.65.61-.45,1.2-.96,1.73-1.52.04.14.08.29.11.43Z"/>
      <path class="cls-3" d="M54.63,53.41c.02.72.03,1.44-.23,2.12-1.24,2.8-7.42,5.18-10.29,5.99-.8.22-1.63.25-2.46.25-1.67,0-3.53,0-4.83-1.22-.23-.23-.54-.44-.74-.7,0-.25-.06-.47-.23-.6,0-.02,0-.05-.02-.07,1.61.43,3.25.66,4.92.66h.17c.69,0,1.38-.05,2.05-.14.78-.1,1.55-.25,2.31-.44,1.44-.37,2.84-.93,4.14-1.63,1.99-1.07,3.75-2.51,5.21-4.21Z"/>
      <path class="cls-3" d="M57.04,75.24c.02.23,0,.46-.06.69-.04.14-.05.29-.04.42-.21-.03-.42-.05-.63-.08-.29-.04-.57-.09-.86-.14.55-.25,1.08-.55,1.58-.89Z"/>
      <path class="cls-1" d="M22.69,55.44c1.36-.41.2,1.07-.14,1.49-1.36,1.82-11.21,10.4-13.09,10.05-.82-.11-.68-.83-.12-1.21,1.42-1.24,2.86-2.45,4.35-3.61,1.85-1.59,3.62-3.3,5.67-4.63,1.12-.67,2.18-1.46,3.33-2.09Z"/>
      <path class="cls-1" d="M19.74,48.46c.88-.05.75.49.08.79-2.53,1.29-5.32,2.01-8.07,2.64-1.69.31-3.38.83-5.09.96-.6-.1-.54-.66-.12-.97,1.66-.94,3.54-1.43,5.34-2.02,2.55-.78,5.2-1.32,7.86-1.4Z"/>
      <path class="cls-1" d="M18.95,36.03c.59.88-3.48,1.7-4.09,1.84-2.59.5-5.21.91-7.85.98-2.19.05-4.38.23-6.56.41-.64-.08-.54-.66-.09-.96.9-.57,2.2-.44,3.22-.84,2.9-.8,5.94-.76,8.91-1.06,1.66-.16,3.32-.41,4.99-.49.48,0,1.02-.06,1.46.12Z"/>
      <path class="cls-1" d="M17.95,23c.82.42,5.03,2.94,2.27,3.24-.96-.03-1.84-.5-2.68-.91-1.65-.71-3.31-1.42-4.86-2.34-1.65-.84-3.23-1.77-4.69-2.91-.36-.2-.68-.48-.8-.89-.04-.14-.09-.36.02-.49.15-.17.38,0,.52.08.19.11.38.21.57.3,3.29,1.09,6.54,2.36,9.64,3.91Z"/>
      <path class="cls-1" d="M31.13,15.56c.1.48,1.29,2.52.55,2.63-.32-.05-.57-.35-.74-.6-.45-.64-.79-1.35-1.18-2.03-1.09-2-2.15-4.04-2.91-6.18-.86-1.2-1.3-2.77-1.65-4.15-.07-.31-.26-.7-.08-1,.48-.28.92.52,1.23,1.16h0s.1.03.17.06c.3.15.93,1.26,1.42,2.4.05.07.11.14.16.21.55.77.82,1.7,1.17,2.57.65,1.62,1.23,3.28,1.86,4.92Z"/>
      <path class="cls-1" d="M44.42,2.57c.23.47-.07.95-.11,1.43-.27,3.16-1.21,6.21-1.88,9.3-.17.56-.39,2.34-1.09,2.33-1.96-.61-.55-4.8-.25-6.26.33-1.23.58-2.48.92-3.7.37-1.31.86-2.59,1.36-3.83.41-.32.91.39,1.05.73Z"/>
      <path class="cls-1" d="M63.35,10.29c.68-.37.96.29.72.86-.65,1.39-2.14,2.23-3.17,3.33-.9.85-1.8,1.7-2.71,2.54-1.09,1.01-2.21,2-3.41,2.88-.43.27-.84.68-1.35.74-.87-.29,1.38-2.26,1.65-2.66,2.19-2.33,4.52-4.53,6.93-6.63.44-.36.86-.77,1.34-1.07Z"/>
      <path class="cls-1" d="M78.36,25.87c.14.64-.46,1.29-1.07,1.4-3.2,1.25-6.49,2.21-9.78,3.19-1.7.44-3.42.86-5.16,1.18-.22,0-.65.18-.7-.14.41-2.05,11.03-4.33,13.27-4.96.9-.24,1.82-.41,2.71-.68.23-.04.58-.28.73.02Z"/>
      <path class="cls-1" d="M38.99,72.26c-.14-.26-.24-.55-.29-.88-.07-.21-.04-.4.04-.57-1.31-1.26-2.22-2.95-2.59-4.73-.15-.82-.27-1.75-.07-2.59-.28-.22-.54-.46-.78-.73-.26-.3-.49-.62-.68-.98-.39.5-1.09.59-1.64.88-1.1.48-2.18,1.02-3.26,1.57-1.03.62-2.06,1.23-3.08,1.87-.08.05-.17.11-.25.16.4.27.77.61,1.17.88,1.44.97,2.98,1.79,4.53,2.59,2.18,1.16,4.51,1.91,6.89,2.52ZM40.67,40.67c.14-.4.22-.82.04-1.22-.53-1.29-1.72-2.56-3.18-2.63.02,1.24.28,2.58.8,3.72.45,1,1.95,1.39,2.34.13ZM46.18,37.35c.34-1.84.66-4.05-.55-5.64-2.14-2.02-5.78-.59-7.27,1.59-.06.05-.05.07.03.07.93.19,1.8.59,2.46,1.29,1.65,1.64,2.24,4.14,2.01,6.41-.15,2.19-1.86,4.59-4.17,3.05-1.92-1.42-2.25-4.09-2.6-6.29-.03-.26-.05-.53-.07-.79,0-.1-.05-.07-.12-.06-1.21.32-2.91.98-3.08,2.39-.09,2.46,1.15,4.71,2.86,6.41,1.08,1.18,2.5,1.98,3.64,3.1,1.45,1.55,1.75,3.75,1.61,5.79-.02.18-.03.37-.06.55,1.33-.06,2.66-.31,3.93-.68.38-.11.76-.23,1.13-.37-.82-.93-1.31-2.09-1.53-3.31-.37-2.29-.38-4.69.15-6.96.64-2.16,1.16-4.35,1.62-6.56ZM54.4,55.54c.26-.68.25-1.41.23-2.12-1.46,1.7-3.22,3.14-5.21,4.21-1.3.7-2.7,1.26-4.14,1.63-.76.2-1.53.34-2.31.44-.68.09-1.37.14-2.05.14h-.17c-1.67,0-3.31-.23-4.92-.66,0,.02.01.05.02.07.17.13.24.36.23.6.2.26.51.47.74.7,1.3,1.21,3.16,1.21,4.83,1.22.83,0,1.66-.03,2.46-.25,2.88-.81,9.05-3.18,10.29-5.99ZM56.01,61.28c.05-.17.02-.13-.06-.37-.06-.18-.11-.36-.14-.54,0-.03-.02-.06-.02-.1-.29.41-.63.75-1.02,1.03-1.26.93-2.76,1.48-4.14,2.2-1.21.48-2.35,1.12-3.59,1.52-1.38.36-2.8.73-4.23.82-1.42-.13-2.91-.41-4.29-.95.11.42.24.83.46,1.2.8,1.47,2.48,2.01,4.06,2.04,4.23.32,8.39-1.61,11.39-4.53.64-.67,1.3-1.42,1.58-2.32ZM56.12,43.71c1.06-3.25,1.01-6.85-.4-9.99-1.41-3.15-3.93-5.76-6.97-7.39-3.05-1.63-6.55-2.3-9.99-1.92-1.8.2-3.55.7-5.2,1.44-.43.19-.85.41-1.26.64-.08.05-.18.09-.25.15-.04.04-.07.08-.11.12-.09.1-.21.16-.34.19-.21.04-.41-.03-.58-.14-.15-.1-.31-.28-.42-.41-.06-.08-.08-.11-.09-.11-.02,0-.03.03-.07.08-.07.09-.15.18-.22.27-.6.72-1.2,1.45-1.8,2.16-.61.71-1.23,1.42-1.78,2.19-.52.73-.96,1.5-1.36,2.3-.79,1.57-1.29,3.26-1.45,5.02-.07.83-.09,1.66-.02,2.48.07.8.2,1.59.38,2.37.33,1.46.9,2.89,1.67,4.18,1.03,1.71,2.36,3.21,3.94,4.44,1.36,1.05,2.89,1.88,4.5,2.48,1.79.67,3.7.99,5.61,1.01-.1-.88-.05-2.02-.38-2.53-.62-1.21-1.79-1.92-2.86-2.68-2.02-1.51-3.7-3.54-4.7-5.86-.73-1.85-1.02-3.91-.88-5.89.06-1.91,1.33-3.58,3.09-4.29.66-.3,1.37-.49,2.08-.61.03-.02.04-.13.04-.16.72-3.67,4.42-7.01,8.29-5.84,3.83,1.39,4.13,6.43,3.96,9.91-.23,2.55-.76,5.08-1.36,7.57-.48,1.48-.79,3.02-.6,4.59-.02.42.17.8.45,1.11.35.43.62.95,1.03,1.34.32.23.6.54.8.88.2-.11.39-.23.57-.36,3.12-2.05,5.54-5.15,6.7-8.71ZM55.92,71.58c.64-1.05.79-2.35.52-3.54-.03-.14-.07-.29-.11-.43-.53.56-1.12,1.07-1.73,1.52-2.86,2.2-6.37,3.66-10,3.65-.92-.02-1.88-.08-2.79-.29.18.19.38.36.58.49.11.06.22.12.33.17,1.81.41,3.61.87,5.41,1.33.46.07.93.16,1.38.25.42.09.86.16,1.29.21.65-.2,1.32-.38,1.95-.61,1.36-.47,2.4-1.57,3.17-2.75ZM56.98,75.92c.07-.23.08-.46.06-.69-.5.34-1.03.64-1.58.89.29.05.57.1.86.14.21.03.42.05.63.08-.02-.14,0-.28.04-.42ZM59.3,49.53c.22-.29.43-.59.64-.89-.6-.6-1.1-1.29-1.54-2.01-.27.87-.6,1.71-.99,2.53-.4.84-.87,1.66-1.39,2.43.56.09,1.1.3,1.57.62.48-.95,1.09-1.82,1.71-2.68ZM66.16,77.33c1.31.11,2.62.19,3.93.26-1.04-.32-2.02-.79-2.91-1.41-.02.03-.04.06-.06.09-.28.39-.6.73-.95,1.06ZM85.03,52.76c-.31-.31-.64-.6-.97-.89-.36-.31-.75-.56-1.15-.8-.37-.21-.73-.45-1.1-.65-.42-.23-.88-.41-1.34-.54-.99-.3-2.02-.43-3.04-.45-.47-.01-.93,0-1.4.05-.43.04-.84.13-1.27.21-.1.02-.2.04-.3.07-.04,0-.07.02-.11.03-.16.05-.08.04-.22.2-.17.2-.41.24-.63.12-.01,0-.02-.01-.04-.02-.08-.05-.14-.11-.2-.18-.04,0-.13.12-.16.14-.33.3-.7.56-1.02.88-.35.34-.64.72-.92,1.12-.16.22-.32.45-.48.68.1-.04.21-.05.3-.04.07-.05.13-.09.21-.13.43-.25.95-.36,1.45-.42,4.12-.22,8.37-.39,12.39.61ZM87.26,57.38c0-.19-.04-.38-.06-.57s-.05-.38-.09-.56c-.07-.3-.16-.59-.27-.87-3.91-.37-7.83.29-11.75.08-1.32-.04-2.71.13-3.99-.27-.45.42-1.23.41-1.82.3,0,0,0,0,0,.01-.55,1.72-.19,3.67.65,5.23.39.73.9,1.38,1.46,1.98.57.62,1.25,1.17,1.98,1.6.7.41,1.45.73,2.22.95.8.24,1.63.32,2.46.32.79-.02,1.57-.11,2.33-.32.84-.23,1.65-.58,2.41-1.01.87-.5,1.66-1.16,2.32-1.92.24-.28.46-.57.7-.85.27-.34.48-.71.68-1.09.51-.93.76-1.96.77-3.02ZM88.05,77.15c.02-.34.11-.72.23-1.09-.74.58-1.63.98-2.51,1.33.76-.07,1.52-.15,2.28-.24ZM98.12,46.74c.24-.75.38-1.53.58-2.3-.55.57-1.2,1.11-1.52,1.44-.62.53-1.23,1.07-1.84,1.61.21.21.38.43.49.55.54.59.88,1.31,1.2,2.03.36-1.11.72-2.22,1.1-3.32ZM102.28,64.75c.21-.34.41-.67.61-1.01-.34.03-.67.04-.98.05-.96-.03-1.92-.05-2.88-.02-.35,0-.81.04-1.22-.02-.58,1.9-1.18,3.8-1.86,5.68.1.04.2.08.28.11.88.42,1.59,1.1,2.36,1.68,1.15-2.2,2.37-4.37,3.69-6.47ZM104.91,39.1c-.71-.13-1.42-.29-2.13-.39-.03,0-.06.01-.09.01-.02.17-.07.34-.11.51-.22.95-.59,1.86-.83,2.81-.28,1.1-.56,2.19-.96,3.25-.15.34-.3.68-.43,1.02-.92,3.14-2,6.24-3.13,9.32-.76,2.25-1.52,4.48-2.24,6.74-.5,1.21-.88,4.48-1.86,6-.74,3.1-1.66,6.68-2.65,8.47.19-.02.38-.05.57-.08.14-.02.28-.05.41-.07.21-1.06.59-2.07.99-3.07.59-2.02,1.23-4.02,2.05-5.96.31-.74.59-1.48.84-2.24.46-1.64.92-3.29,1.47-4.9.55-1.98,1.12-3.95,1.87-5.86.91-2.12,1.82-4.23,2.77-6.32.53-1.54,1.06-3.09,1.62-4.62.65-1.51.86-3.27,1.82-4.61ZM108.35,33.73c.09-.26.17-.53.26-.79-.43-.08-.92-.3-1.18-.38-.95-.38-1.88-.79-2.76-1.31,0,0,0,0,0,0-.11.23-.21.47-.31.7.86.16,1.69.55,2.46.92.35.2,1.01.5,1.53.86ZM110.51,27.61c.03-.09.06-.18.09-.27-.22-.18-.43-.38-.69-.52-.63-.25-1.27-.52-1.95-.62-.34,0-.76-.11-1.08-.3-.07.19-.15.38-.23.57.76.14,1.46.57,2.22.7.54.18,1.08.31,1.63.42ZM120.78,66.89c.23-.1.47-.18.71-.25-.44-.31-.86-.67-1.32-.93-1.86-1.4-3.78-2.73-5.8-3.89-.01,0-.02-.02-.04-.02-.52-.2-.99-.48-1.46-.75-.36-.18-.95-.34-1.39-.6-2.11,3.63-3.98,7.39-6.21,10.96-.58.99-1.25,1.91-1.94,2.83.32-.08.63-.17.95-.26,2.02-.64,4-1.39,6.01-2.07,2.34-.82,4.69-1.7,6.82-2.99,1.2-.73,2.4-1.44,3.67-2.03ZM138.03,13.58c-.02.5-.18.95-.43,1.38h0c-.09.55-.34,1.23-.39,1.48-.66,1.52.05,3.04.31,4.55.2,1.18.15,2.35-.07,3.52-.57,2.85-2.75,5.4-5.59,6.16-.6.16-1.21.18-1.82.25-.04,0-.08,0-.12.02-.05.34-.2.7-.41,1-.54,2.15-3.07,5.79-4.76,6.67-.26.58-.57,1.15-.98,1.64-.14.17-.28.36-.43.54-1.54,3.02-3.51,5.8-5.23,8.72-1.73,3.09-3.65,6.08-5.51,9.1.24.03.47.1.68.21.08.05.16.1.24.16,1.65.29,2.96,1.45,4.42,2.21.43.3.95.54,1.31.93,1.59.97,3.17,1.98,4.52,3.26.2.2.3.41.32.61.38.47.48,1.13.66,1.7.36,1.54.68,3.08,1.06,4.61.95,3.77,1.49,7.66,1.12,11.54-.03,2.31-.88,4.46-2.12,6.38-.77,1.32-1.59,2.64-2.16,4.07-.13.32-.32.68-.28,1.03.11.78.42,1.51.6,2.28.2,1.51.67,2.96,1.37,4.31,1.93,4.01,4.02,7.95,6.53,11.62.98,1.52,2.04,2.97,3.09,4.44,1.08,1.47,2.4,2.71,1.79,4.7-.11.72-.83,2-1.57,1.68-.19.29-.42.56-.68.79-.66.53-1.5.72-2.25,1.09-.69.36-1.45.43-2.18.64-1.13.3-2.32.54-3.5.61-.03.52-.17,1.05-.35,1.45-.45.58-.25,1.32-.21,2,.01.9.32,1.71.84,2.44,1.02,2.3-.11,5.44-2.3,6.64-.41.18-.82.35-1.25.52.26,2.09-.63,4.62-2.01,5.96-1.11,1.05-2.66,1.39-3.96,2.14-.07.04-.1.03-.1.12,0,.15,0,.3-.01.45-.04.39-.11.89-.27,1.35.56,4.85,1.15,10.02-1.11,14.49-.8,1.77-2.48,2.88-4.35,3.27-6.93,1.74-14.06-.17-21.07-.09-2.88-.04-5.77,1.38-7.2,3.94-.98,1.29-.7,2.78,0,4.13.55,1.12,1.61,1.88,2.71,2.41.34.11.61.32.79.6,1.95.03,2.81,1.88.14,2.71-.24.75-.69,1.39-1.43,1.41-.64-.2-1.23-.48-1.75-.84-5.1.89-10.24,1.64-15.41,1.69-3.59.14-7.02-.95-10.52-1.55-3.44-.53-6.8-1.39-10.12-2.4-4.41-1.1-8.66-2.64-12.89-4.3-1.9-.79-6.7-3-8.87-5.21-1.55-.64-2.57-2.96-1.18-4.21,4.84-5.51,7.15-9.82,7.89-17.21.77-5.97-.02-11.98-1.53-17.77-1.09-4.84-2.29-9.66-3.66-14.44-1.31-4.48-2.01-9.08-2.68-13.68-.36-2.16-.78-4.31-1.07-6.48-.45-3.37-.52-6.77-.76-10.15-.3-3.14-.36-6.28-.16-9.42.08-1.34.16-6.76.93-9.82-.18-.16-.32-.34-.38-.56-.07-.66.46-1.04,1.11-1.21.15-.19.32-.3.5-.34,2.17-2.39,6.71-4.78,10.07-5.97-.02-.32-.02-.64.02-.96-1.09-.43-2.15-.98-3.14-1.59-3.49-2.17-6.16-5.49-7.76-9.25-1.43-3.38-1.89-7.11-1.39-10.75.23-1.7.71-3.39,1.34-4.98.67-1.7,1.58-3.28,2.7-4.72.31-.41.65-.8,1.02-1.16.37-.36.76-.66,1.18-.96.41-.29.84-.53,1.3-.72.14-.06.3-.12.45-.18.04-.01.1-.03.13-.05h.04c.04-.15.04-.29.02-.43.03-.52.15-1.11.62-1.4,1.57-.98,3.36-1.7,5.15-2.13,3.34-.81,6.86-.67,10.12.4,3.72,1.21,7.04,3.64,9.36,6.79,1.1,1.49,1.99,3.11,2.68,4.82.66,1.63,1.09,3.34,1.34,5.08.71-.69,1.63-1.38,1.83-1.58.36-.36,1.51-1.08,1.82-.87.09-.03.18-.04.27-.04.5.02.59.56.87.86.31.24.69.43.84.82h0c.15.13.3.26.45.38.64.53,1.34,1.02,1.81,1.71.16.17.28.29.32.34.35.36.78.62,1.1,1.02.05-.02.11-.05.16-.07.92-.43,1.87-.79,2.85-1.05-.57-1.63-.06-4.34.13-5.56.05-.65.06-1.31.19-1.95h0s0-.07.02-.1c0-.05.02-.1.03-.15.15-.17.36-.23.59-.22,1.14-.39,2.35-.29,3.55-.28h.05c.17,0,.34,0,.51,0,.1,0,.2,0,.3-.01.25,0,.5,0,.75.02.55,0,.99.02,1.21.02.89.02,1.78.12,2.67.22.27-.19.58-.16.84.1.42.05.88.1,1.13.46.16.29-.04.59-.25.78-.1.09-.21.16-.32.23.23,1.86.2,3.78-.14,5.64.93.14,1.81.61,2.6,1.09.65.32,1.29.66,1.81,1.19.09.09.19.19.27.3.04-.04.08-.09.12-.13.97-1.59,2.41-2.94,3.7-4.25.51-.53,1.8-1.93,2.45-.97.13.03.23.08.3.15.5.2.88.59,1.23,1,.52.41.98.9,1.44,1.34.39.33,2.29,2.3,2.86,3.58.01,0,.03,0,.04.01.1.09.19.2.27.31.21-.48.42-.96.59-1.46.26-.65.42-1.46.85-2.03-.14-.18-.22-.39-.21-.64.02-.16.07-.31.14-.45-.05-1.16.7-2.86,1.27-4.07.59-2.37,1.41-4.68,2.43-6.9-.14-.06-.28-.16-.39-.29-.18.57-.34,1.15-.47,1.73-.49,1.5-1.13,2.96-1.82,4.37-.57,1.09-.92,3.68-2.38,3.82-.67-.14-.89-.9-.91-1.5-.04-1.42.83-2.61,1.41-3.84.53-1.15.93-2.36,1.47-3.51.89-1.88,1.94-3.67,2.88-5.52.23-.36.44-.74.66-1.11.13-.2.29-.53.58-.5.46.09.59.69.51,1.1-.16.52-.37,1.01-.59,1.5.22.09.41.25.57.46.13-.28.26-.55.39-.83.24-.45.39-.99.82-1.3.03-.02.06-.04.09-.05.25-.36.65-.62,1.07-.67.19,0,.38,0,.57.03.37-.83,1.16-1.53,2.07-1.53.73-.11,1.61.19,1.65,1.04.08.41-.02,1.04-.29,1.46.27.09.54.2.8.33.29.07.46.34.49.64.04.31-.04.73-.21,1.1,0,.1-.02.19-.05.29-.37,1.3-.88,2.56-1.26,3.86-.47,1.43-.95,2.86-1.56,4.25-.73,1.79-1.39,3.64-2.43,5.29-.1.27-.21.54-.33.8-.05.11-.1.24-.16.37h0c-.05.42-.27.85-.54,1.12-.36.39-.9.33-1.38.28.03.62-.09,1.24-.27,1.85.09.86-.68,2.42-.85,3.09-.15.45-.31.89-.48,1.34-.73,2.32-1.51,4.63-2.43,6.88.34-.09.7-.09,1.02.02.54.09,1.11.14,1.65.24.17.02.3.09.4.2.07,0,.14.02.21.05.19.25.29.57.31.93.18.44.15,1.28.05,2.14.26-.06.54-.06.75,0,.15.05.31.12.46.22.38-.65.77-1.3,1.19-1.93,2.39-3.62,5.26-6.9,7.61-10.56.7-1.02,1.36-2.07,2.02-3.11,0,0,0,0,0-.01.36-.82,1.04-1.77,1.2-2.11.46-.75.97-1.47,1.52-2.16-.06-.75.57-1.74.83-2.38.32-.48,2.06-3.64,3.26-4.73.12-.17.3-.33.52-.46-.02-.31.02-.66.01-.91.18-1.67.75-3.28,1.55-4.75,1.27-2.3,2.95-4.5,5.17-5.95.96-.61,1.95-1.18,2.81-1.94.78-.57,1.35-1.35,2.07-1.98.53-.5,1.32-.61,1.34.33Z"/>
      <path class="cls-4" d="M40.39,70.51c-.14-.25-.24-.55-.29-.88-.07-.21-.04-.4.04-.57-1.31-1.26-2.22-2.95-2.59-4.73-.14-.82-.27-1.75-.07-2.59-.28-.22-.54-.46-.78-.73-.26-.3-.49-.62-.68-.98-.39.5-1.09.59-1.64.88-1.1.48-2.18,1.02-3.26,1.57-1.03.62-2.06,1.23-3.08,1.87l-.25.16c.4.27.76.61,1.17.88,1.44.97,2.98,1.8,4.53,2.59,2.18,1.16,4.51,1.91,6.89,2.52ZM42.06,38.92c.14-.4.22-.82.04-1.22-.53-1.29-1.72-2.56-3.18-2.63.02,1.25.28,2.58.8,3.72.45,1,1.95,1.39,2.34.13ZM47.58,35.6c.34-1.84.66-4.05-.55-5.64-2.14-2.01-5.78-.59-7.27,1.59-.06.05-.05.07.03.07.93.19,1.8.59,2.46,1.29,1.65,1.64,2.23,4.14,2.01,6.41-.15,2.19-1.86,4.59-4.17,3.05-1.92-1.42-2.25-4.08-2.6-6.29-.03-.26-.05-.52-.07-.79,0-.1-.05-.07-.12-.06-1.21.32-2.91.98-3.08,2.39-.09,2.46,1.15,4.71,2.86,6.4,1.08,1.18,2.51,1.98,3.64,3.1,1.45,1.55,1.75,3.75,1.61,5.79-.02.18-.03.37-.06.55,1.33-.06,2.66-.31,3.93-.68.38-.11.76-.23,1.13-.37-.82-.93-1.32-2.09-1.54-3.31-.37-2.29-.38-4.69.16-6.96.64-2.16,1.16-4.35,1.62-6.56ZM55.8,53.78c.26-.69.25-1.41.23-2.13-1.46,1.7-3.22,3.14-5.21,4.22-1.3.7-2.7,1.26-4.14,1.63-.76.2-1.53.34-2.3.44-.68.09-1.37.14-2.05.14-.06,0-.12,0-.17,0-1.67,0-3.31-.22-4.92-.66,0,.02.01.05.02.08.17.13.24.35.23.6.21.26.51.47.74.7,1.3,1.21,3.16,1.21,4.83,1.22.83,0,1.66-.03,2.46-.25,2.88-.8,9.05-3.18,10.3-5.98ZM57.41,59.53c.05-.17.02-.13-.06-.37-.06-.18-.11-.36-.14-.54,0-.03-.02-.06-.02-.1-.29.41-.63.75-1.02,1.03-1.26.93-2.75,1.48-4.14,2.2-1.2.49-2.35,1.12-3.59,1.52-1.38.36-2.8.73-4.23.82-1.42-.13-2.91-.41-4.29-.95.11.42.24.83.46,1.2.8,1.47,2.48,2.01,4.06,2.04,4.23.32,8.39-1.61,11.39-4.53.64-.68,1.3-1.42,1.58-2.32ZM57.51,41.95c1.06-3.25,1.01-6.85-.4-9.99-1.41-3.15-3.93-5.76-6.97-7.39-3.05-1.63-6.55-2.3-9.99-1.92-1.8.2-3.55.7-5.2,1.44-.43.19-.85.41-1.26.64-.08.05-.18.09-.25.15-.04.04-.07.08-.11.12-.09.1-.21.16-.34.19-.21.04-.41-.03-.58-.14-.14-.1-.31-.28-.42-.41-.06-.08-.07-.11-.09-.11s-.03.03-.07.08c-.08.09-.15.18-.23.27-.6.72-1.2,1.45-1.8,2.16-.61.71-1.23,1.42-1.78,2.19-.52.73-.96,1.5-1.36,2.3-.79,1.58-1.29,3.26-1.44,5.02-.07.83-.09,1.66-.02,2.48.07.8.2,1.59.38,2.37.33,1.46.9,2.89,1.67,4.18,1.03,1.71,2.36,3.21,3.94,4.43,1.36,1.05,2.89,1.88,4.5,2.48,1.79.67,3.7.99,5.61,1.01-.1-.88-.05-2.02-.38-2.53-.62-1.21-1.79-1.92-2.86-2.68-2.02-1.51-3.7-3.54-4.7-5.86-.73-1.85-1.02-3.91-.88-5.89.06-1.91,1.34-3.58,3.09-4.29.66-.3,1.37-.49,2.08-.61.02-.02.03-.13.04-.16.72-3.67,4.42-7,8.29-5.84,3.83,1.39,4.13,6.43,3.96,9.91-.23,2.55-.76,5.08-1.37,7.57-.48,1.48-.79,3.02-.6,4.58-.02.42.18.8.45,1.11.35.43.62.95,1.03,1.34.32.23.6.54.8.88.2-.11.39-.23.57-.36,3.12-2.05,5.54-5.15,6.7-8.7ZM57.32,69.82c.64-1.05.79-2.35.52-3.54-.03-.14-.07-.29-.11-.43-.53.56-1.12,1.07-1.73,1.52-2.86,2.2-6.37,3.66-10,3.65-.92-.02-1.88-.08-2.79-.29.18.19.38.36.59.5.11.06.21.11.32.16,1.82.41,3.62.88,5.43,1.33.46.07.93.16,1.38.25.43.09.86.16,1.3.21.65-.2,1.31-.37,1.94-.61,1.36-.46,2.4-1.57,3.17-2.75ZM58.38,74.17c.07-.23.08-.46.06-.69-.5.34-1.03.64-1.58.89.29.05.57.1.86.14.21.03.42.05.63.08-.02-.14,0-.28.04-.42ZM60.7,47.77c.22-.28.43-.59.64-.89-.6-.6-1.1-1.29-1.54-2.01-.27.86-.61,1.71-1,2.53-.4.84-.87,1.66-1.39,2.43.56.09,1.1.3,1.57.62.48-.95,1.09-1.82,1.71-2.68ZM67.56,75.58c1.31.11,2.62.19,3.93.26-1.04-.32-2.02-.79-2.91-1.41-.02.03-.04.06-.06.09-.28.39-.6.73-.95,1.06ZM89.45,75.39c.02-.34.11-.72.23-1.09-.74.58-1.62.98-2.49,1.33.75-.07,1.51-.14,2.27-.23ZM99,71.39c.07-.14.14-.27.21-.41-.13-.07-.26-.16-.37-.26-.66-.36-1.51-.96-2.06-1.54-.07.2-.15.39-.23.58-.58,1.23-.93,2.52-1.3,3.82-.12.25-.23.61-.36,1,.95-.16,1.88-.33,2.82-.5.27-.96,1.09-2.2,1.28-2.69ZM99.14,40.46l.21-.16c-.78-.52-1.32-1.43-1.97-2.09-.72-.99-1.67-1.78-2.51-2.66-.59.82-1.29,1.55-2.03,2.24-.89.98-1.92,1.8-2.96,2.61-.3.23-.59.59-1,.6-.04,0-.07-.02-.09-.03h0c-.22.09-.56.07-.9-.14-.04-.03-.08-.06-.13-.09-1.05-.36-2.04-.98-3-1.54-.46-.25-.98-.45-1.46-.71-.05,0-.09.01-.15,0-.07-.06-.14-.14-.21-.23-.11-.07-.21-.15-.31-.24-.44-.25-.8-.57-.75-1.18.02-.92.11-1.84.2-2.76-.08-1.21-.07-2.38,0-3.1h-.02c-1.57-.11-3.13-.38-4.71-.34-.62,0-1.25-.04-1.88-.12.03.45-.07.93-.1,1.38-.21,1.05.45,5.77-.84,6.39-.06.41-.25.76-.57.86-1.04.38-2.2.34-3.22.8-.36.11-.76.37-1.15.46,0,0,0,0-.01,0-.32.14-.72.04-.98-.18-.73-.59-1.43-1.23-1.95-2.02-.18-.15-.35-.31-.51-.48-.8-.93-1.58-1.89-2.26-2.91-.63.86-1.52,1.53-2.34,2.21-.2.14-.5.43-.82.66.07,1.51-.02,3.03-.27,4.52,1.09.7,1.81,1.8,2.64,2.77.25.27.48.55.63.89.22.47.46,1.59-.12,1.84-.26.43-.56.84-.88,1.23-.01.02-.02.03-.03.04-.47.65-.98,1.27-1.49,1.89-.06.08-.12.16-.17.24-.33.33-1.23,2-1.73,1.57,0-.01-.01-.02-.01-.03-.28-.02-.57-.1-.8-.2.01.07-.01.14-.09.13h0c.21,1.26.12,2.67-.25,3.93.04,0,.07,0,.1.02,1.1.51,1.53,1.9,1.66,3.19.3.12.56.41.65.69.06.2.06.4.1.59.24.78.5,1.55.61,2.36.67.54,1.04,1.33,1.21,2.19.38.29.68.84.17.85-.02,0-.05-.01-.07-.02.01.22.01.44,0,.66-.12,1.83-.99,3.52-2.29,4.89.25.18.36.5.49.77.16.43.46.81.59,1.26.08.35.02.7-.13.99,1.29.16,2.57.29,3.86.41.52-.96,1.32-1.72,2.08-2.5.31-.45,1.38-1.21,1.68-.62,1.27-.1,2.15,1.05,3.15,1.73.3.12.6.24.89.34,1.15.37,2.18.99,3.18,1.65.02.01.04.02.06.03,2.09.04,4.18.02,6.26-.07.4-.28.91-.44,1.34-.67.36-.18.72-.35,1.09-.5.56-.34,1.27-.64,1.99-.88.31-.14.62-.3.94-.44.22-.19.46-.36.7-.5.39-.47.92-.83,1.5-.95.14-.02.25,0,.34.04.05-.03.11-.05.16-.08.45-1.32.94-2.64,1.46-3.94.39-1.45.81-2.89,1.36-4.29.12-.34.25-.69.36-1.03.01-.05.03-.1.04-.15.43-1.38.95-2.74,1.44-4.11.12-.35.25-.7.37-1.05.2-.57.39-1.15.57-1.73.58-1.72,1.12-3.45,1.66-5.18-.1-.04-.19-.08-.28-.13-.07,0-.18-.08-.35-.23,0,0-.02,0-.02-.02-.45-.34-.82-.8-1.13-1.31-.71-.83-1.39-1.7-1.71-2.74-.2-.35-.21-.65.24-.75.04,0,.07,0,.11.02.09-.14.21-.27.3-.39,1.25-1.64,2.58-3.24,4.26-4.46ZM99.51,44.99c.24-.75.38-1.53.58-2.3-.55.57-1.2,1.11-1.52,1.44-.62.53-1.23,1.07-1.84,1.61.21.21.39.43.49.55.54.59.87,1.31,1.19,2.03.36-1.11.72-2.22,1.1-3.32ZM103.69,62.99c.21-.34.41-.67.61-1.01-.34.03-.67.04-.98.05-.96-.03-1.92-.05-2.88-.02-.35,0-.81.05-1.22-.01-.58,1.91-1.18,3.8-1.86,5.67.1.04.2.08.28.11.88.42,1.59,1.1,2.36,1.68,1.15-2.2,2.37-4.37,3.7-6.47ZM106.31,37.34c-.71-.13-1.42-.28-2.13-.39-.03,0-.06.01-.09.01-.02.17-.07.34-.11.51-.22.95-.59,1.86-.83,2.81-.27,1.1-.56,2.19-.96,3.25-.15.33-.29.66-.42.99,0,0,0,.01,0,.02-.92,3.15-2,6.25-3.13,9.33-.76,2.24-1.52,4.48-2.24,6.74-.5,1.21-.88,4.5-1.86,6.01-.74,3.09-1.66,6.66-2.65,8.46.19-.02.38-.05.57-.08.14-.02.28-.04.41-.07.21-1.06.59-2.07.99-3.07.59-2.02,1.23-4.02,2.05-5.96.31-.74.59-1.48.84-2.24.46-1.64.92-3.29,1.48-4.91.55-1.97,1.12-3.94,1.87-5.85.91-2.11,1.81-4.21,2.76-6.29.53-1.55,1.07-3.11,1.63-4.64.65-1.51.86-3.27,1.82-4.61ZM104.89,59.98c0-.28.05-.57.03-.82-.02-1.02-.07-2.04-.09-3.05-.04-.14.09-1.39.29-2.42-.41,0-.83,0-1.25-.02-.46.1-.98.04-1.36-.28-.05-.05-.11-.09-.14-.15-.88,2.05-1.65,4.14-2.39,6.25l-.12.38c.45,0,.9.09,1.34.17.98-.06,1.98,0,2.95-.06.17,0,.45,0,.73.01ZM106.69,57.49c.06-.12.12-.23.18-.35-.05-.02-.11-.04-.15-.07-.02.14-.02.28-.03.42ZM108.63,34.18c.16-.35.34-.7.52-1.05-.75-.2-1.49-.51-2.21-.8-.59-.28-1.2-.54-1.74-.92-.1.21-.2.42-.29.63-.14.66-.33,1.63-.6,2.46.21.03.41.09.59.21.37.18.79.24,1.19.3.64.07,1.27.28,1.93.21.05,0,.12,0,.18,0,.18-.41.36-.79.42-1.04ZM109.75,31.97c.09-.26.17-.52.26-.79-.43-.08-.92-.3-1.18-.38-.95-.38-1.88-.79-2.76-1.31,0,0,0,0,0,0-.11.23-.21.47-.31.7.86.16,1.69.55,2.46.92.35.2,1.01.5,1.53.86ZM110.32,30.24c.1-.29.19-.58.29-.87-1.3-.43-2.67-.82-3.8-1.6-.09.23-.19.46-.29.69.27.08.52.18.66.23,1.06.48,2.2.86,3.15,1.55ZM110.97,28.37c.09-.23.18-.46.26-.7-.87-.37-1.69-.85-2.59-1.13-.41-.06-.79-.2-1.19-.31-.09.22-.18.44-.27.66,1.31.29,2.54.89,3.76,1.46.01,0,.02.01.04.02ZM111.9,25.85c.03-.09.06-.18.09-.27-.22-.18-.43-.38-.68-.52-.64-.25-1.28-.52-1.96-.62-.34,0-.76-.11-1.08-.3-.07.19-.15.38-.23.57.76.14,1.46.57,2.22.71.54.18,1.08.3,1.63.42ZM112.75,23.44c.23-.56.33-1.21.54-1.79-.82-.43-1.77-.55-2.71-.61-.33-.06-.72-.11-1.05-.23-.21.61-.43,1.22-.66,1.83.48.05.97.34,1.4.5.81.17,1.6.4,2.42.51.03-.07.05-.13.07-.2ZM122.17,65.14c.23-.1.47-.18.71-.25-.44-.31-.86-.67-1.32-.93-1.86-1.4-3.78-2.73-5.8-3.89,0,0-.01,0-.02,0-.53-.2-1-.49-1.49-.77-.36-.18-.95-.34-1.38-.6-2.11,3.63-3.99,7.39-6.21,10.96-.58.99-1.25,1.91-1.94,2.83.32-.09.64-.18.95-.27,2.02-.64,4-1.4,6-2.07,2.34-.82,4.69-1.7,6.82-2.99,1.2-.73,2.4-1.44,3.67-2.03ZM124.65,36.17c-.43-.17-.88-.29-1.32-.43-.22.37-.48.72-.71,1.07-.6.86-1.28,1.66-1.97,2.44-.04.04-.08.08-.12.12-1.29,2.24-2.78,4.36-4.18,6.54-3.56,5.18-7.15,10.36-10.25,15.83-1.8,3.54-3.75,6.98-5.61,10.49-.21.34-.49.91-.8,1.46.93-.19,1.86-.4,2.79-.62.34-.84,1.09-1.8,1.33-2.23.43-.7.84-1.41,1.29-2.09,2.46-3.66,4.34-7.66,6.64-11.4,2.21-3.64,4.18-7.43,6.52-11,1.65-2.45,3.32-4.9,5.06-7.29,0-.03,0-.05,0-.07.31-.98.71-1.96,1.33-2.81ZM127.97,31.71c.3-.35.52-.88.77-1.4-.48-.16-1.03-.16-1.52-.3-.45-.08-.82-.29-1.08-.57-.22.28-.45.55-.64.82-.64.88-1.31,1.77-1.81,2.73.62.52,1.29,1.05,2.04,1.38.76-.87,1.61-1.68,2.25-2.66ZM133.42,120.56c.11-.11.2-.23.28-.35-2.84-3.95-5.57-7.97-7.77-12.31-1.58-2.94-3.12-5.93-3.96-9.18-.74-2.19-1.33-4.55-.61-6.84.82-2.79,2.48-5.21,3.86-7.75.58-1.08.39-2.42.49-3.61.04-1.87-.2-3.72-.6-5.54-.37-1.77-.82-3.53-1.17-5.31-.1-.56-.21-1.13-.3-1.7-.98.61-1.97,1.2-2.98,1.77-4.34,2.18-9.02,3.6-13.63,5.08-11.66,3.1-23.79,4.3-35.83,3.57-4.62-.31-9.24-.69-13.83-1.32-4.81-.67-9.47-2.1-14.2-3.17-2.38-.58-4.79-1.07-7.12-1.82-2.5-.79-4.88-1.89-7.17-3.15-.55-.3-1.11-.6-1.65-.92-.2,1.17-.47,2.33-.57,3.52-.39,5.14-.73,10.32-.23,15.46.23,3.38.33,6.78.77,10.15.25,2.05.82,4.06,1.14,6.11.7,4.59,1.39,9.19,2.75,13.64,1.2,4.27,2.27,8.57,3.31,12.88.59,2.54,1.22,5.05,1.64,7.63.74,4.67.71,9.44.05,14.12-.59,5.29-2.67,10.38-6.12,14.45-.14.17-.27.34-.41.52.29.26.57.54.84.81.58.54,1.2,1.03,1.86,1.45,2.71,1.73,5.66,3.02,8.69,4.09,3.05,1.27,6.22,2.18,9.41,3.03,3.25.98,6.54,1.84,9.89,2.35,3.38.57,6.7,1.67,10.16,1.42,3.81-.16,7.6-.67,11.37-1.28-1.23-2.05-1.66-4.68-1.27-7.02.46-2.56,1.84-4.94,3.69-6.75,2.75-2.67,6.35-3,9.98-2.71,2.8.11,5.59.47,8.39.64,3.61.18,7.37.29,10.8-1,2.25-.9,2.04-3.88,2-5.9-.02-2.16-.43-4.38-.25-6.53-.14-.53-.12-1.16-.12-1.64-.04-1.6.22-3.41,1.56-4.46,1-.71,2.17-1.16,3.28-1.67.47-.22,1.16-.48,1.25-1.06-.05-.22-.09-.45-.1-.69-.31.05-.62.1-.93.12-.77.01-1.68-.05-2.16-.73-.58-.94-.41-2.27.22-3.15.66-.88,1.85-.56,2.79-.75,1.26-.11,2.48-.48,3.59-1.08-1-2.85-1.13-7.3.77-9.81.25-.26.61-.45.97-.28,0,0,.01,0,.02.01,1.05-.55,2.74-.7,3.54-1.03,1.39-.39,2.53-1.37,3.6-2.3ZM136.54,16.42c0-.09.02-.18.03-.27-.56.57-1.18,1.08-1.83,1.54-1.09.84-2.1,1.78-3.17,2.64-1.38.99-2.63,2.22-3.09,3.91-.19.52-.3,1.54-.58,2.34.69.04,1.34.43,1.96.87.05-.04.1-.07.15-.09,2.04-.98,4.49-1.48,6.05-3.21.93-1.12.51-2.66.4-3.97-.05-1.25,0-2.51.07-3.76ZM139.43,11.83c-.02.5-.18.95-.43,1.38h0c-.09.55-.34,1.23-.39,1.48-.66,1.52.06,3.04.32,4.55.19,1.18.15,2.35-.07,3.52-.57,2.85-2.75,5.4-5.59,6.16-.6.15-1.21.17-1.82.25-.04,0-.08.01-.12.02-.05.34-.2.7-.4,1-.54,2.16-3.08,5.8-4.77,6.68-.26.58-.56,1.15-.98,1.64-.14.17-.28.36-.43.54-1.54,3.02-3.51,5.8-5.22,8.72-1.73,3.1-3.65,6.08-5.51,9.1.24.03.47.1.68.22.08.05.16.1.24.16,1.65.29,2.96,1.45,4.43,2.21.43.3.96.54,1.31.93,1.59.97,3.16,1.97,4.51,3.25.2.2.3.41.32.61.37.47.48,1.12.65,1.69.36,1.54.68,3.08,1.06,4.61.95,3.77,1.49,7.66,1.12,11.54-.03,2.31-.88,4.45-2.12,6.38-.77,1.32-1.59,2.64-2.16,4.07-.13.32-.32.68-.28,1.03.11.78.42,1.51.6,2.27.2,1.51.67,2.96,1.38,4.31,1.93,4.01,4.02,7.95,6.52,11.62.98,1.52,2.04,2.97,3.09,4.44,1.08,1.47,2.4,2.71,1.79,4.7-.11.72-.83,2-1.57,1.68-.19.29-.42.56-.68.79-.66.53-1.5.72-2.25,1.09-.69.36-1.45.43-2.18.64-1.13.3-2.32.54-3.5.61-.03.52-.17,1.05-.35,1.45-.45.58-.25,1.33-.21,2,.01.9.32,1.71.84,2.44,1.02,2.3-.11,5.44-2.3,6.64-.41.18-.82.35-1.25.52.27,2.08-.63,4.62-2.01,5.96-1.11,1.05-2.66,1.39-3.97,2.14-.07.04-.1.03-.1.12,0,.15,0,.3-.01.45-.04.39-.11.9-.27,1.36.56,4.85,1.15,10.01-1.11,14.48-.81,1.77-2.49,2.88-4.36,3.27-6.93,1.74-14.06-.17-21.07-.09-2.88-.04-5.77,1.38-7.2,3.94-.98,1.29-.7,2.78,0,4.13.55,1.12,1.61,1.88,2.71,2.41.35.11.61.32.8.6,1.95.03,2.8,1.87.13,2.71-.24.75-.7,1.39-1.43,1.41-.64-.2-1.22-.48-1.75-.84-5.1.88-10.25,1.64-15.42,1.69-3.59.14-7.02-.95-10.52-1.55-3.43-.53-6.8-1.39-10.12-2.4-4.4-1.1-8.66-2.64-12.88-4.3-1.9-.79-6.7-3-8.87-5.21-1.55-.64-2.56-2.96-1.18-4.21,4.84-5.52,7.16-9.82,7.89-17.21.77-5.97-.02-11.98-1.52-17.77-1.1-4.84-2.3-9.66-3.66-14.44-1.31-4.48-2.01-9.08-2.68-13.68-.36-2.16-.78-4.31-1.07-6.48-.45-3.37-.52-6.77-.76-10.15-.3-3.14-.36-6.28-.16-9.42.08-1.34.16-6.76.93-9.82-.18-.16-.32-.34-.38-.56-.07-.66.45-1.03,1.11-1.21.15-.19.32-.3.5-.34,2.17-2.39,6.71-4.78,10.07-5.97-.02-.32-.02-.64.02-.96-1.09-.43-2.15-.97-3.14-1.59-3.49-2.17-6.16-5.5-7.76-9.26-1.43-3.38-1.89-7.11-1.39-10.75.23-1.7.71-3.39,1.34-4.98.67-1.7,1.58-3.28,2.7-4.72.32-.41.65-.8,1.02-1.16.37-.36.76-.66,1.18-.96.41-.29.84-.53,1.3-.72.14-.06.3-.12.45-.18.04-.01.1-.03.13-.05h.04c.04-.15.04-.29.02-.43.03-.52.15-1.11.62-1.4,1.57-.98,3.36-1.7,5.16-2.13,3.34-.81,6.86-.67,10.12.4,3.72,1.21,7.04,3.64,9.36,6.79,1.1,1.49,1.99,3.11,2.68,4.82.66,1.63,1.09,3.34,1.34,5.08.71-.69,1.63-1.38,1.83-1.58.36-.36,1.51-1.08,1.82-.87.09-.03.18-.04.27-.04.5.02.59.56.87.86.31.24.69.43.84.82h0c.15.13.3.26.45.38.64.53,1.34,1.02,1.81,1.71.16.17.28.29.32.34.35.36.78.63,1.09,1.02.05-.02.11-.05.16-.07.91-.43,1.87-.79,2.85-1.05-.57-1.63-.06-4.34.13-5.56.05-.65.06-1.31.19-1.95,0-.03,0-.06.02-.09,0-.05.02-.11.04-.16.15-.17.36-.23.59-.22,1.12-.38,2.3-.29,3.48-.28.25,0,.5,0,.75,0,.06,0,.12,0,.19,0,.24,0,.48,0,.71.02h.02c.56,0,1.01.02,1.23.02.89.02,1.79.12,2.67.22.27-.18.57-.15.83.1.42.05.89.1,1.14.46.16.29-.03.59-.25.78-.1.09-.21.17-.32.23.23,1.86.2,3.78-.14,5.63.93.14,1.8.61,2.6,1.09.65.32,1.3.66,1.81,1.19.09.09.19.19.27.3.04-.04.08-.09.12-.13.97-1.59,2.41-2.94,3.7-4.25.51-.53,1.8-1.93,2.45-.97.12.03.21.08.29.14.5.2.88.58,1.23,1,.52.41.99.9,1.45,1.35.39.33,2.29,2.3,2.86,3.58h.04c.1.1.19.21.27.32.21-.48.42-.96.59-1.46.26-.66.42-1.46.85-2.03-.14-.18-.22-.39-.21-.63.02-.16.07-.3.14-.44-.05-1.16.7-2.87,1.27-4.08.6-2.37,1.41-4.68,2.43-6.9-.14-.05-.28-.15-.39-.29-.18.57-.34,1.14-.47,1.73-.49,1.5-1.13,2.96-1.82,4.37-.56,1.09-.91,3.68-2.38,3.82-.67-.14-.89-.9-.91-1.5-.04-1.42.83-2.61,1.41-3.84.53-1.15.93-2.36,1.47-3.51.89-1.88,1.95-3.67,2.88-5.52.23-.37.44-.74.66-1.11.13-.2.29-.53.58-.5.46.09.59.7.51,1.1-.16.52-.36,1.01-.59,1.5.22.09.41.25.56.46.13-.28.26-.55.39-.82.24-.45.39-.99.82-1.3.03-.02.05-.04.08-.05.25-.36.65-.63,1.08-.68.19,0,.38,0,.57.03.37-.83,1.16-1.53,2.07-1.53.73-.11,1.61.19,1.65,1.04.08.41-.02,1.03-.29,1.46.27.09.54.2.8.33.29.07.46.34.49.64.04.31-.04.73-.21,1.1,0,.1-.02.19-.05.29-.37,1.3-.88,2.56-1.26,3.86-.47,1.43-.95,2.86-1.55,4.25-.74,1.79-1.39,3.64-2.43,5.29-.1.27-.21.54-.33.8-.05.12-.1.25-.16.38h0c-.05.42-.27.84-.54,1.11-.36.38-.9.33-1.38.28.03.62-.1,1.24-.27,1.85.09.86-.68,2.42-.85,3.1-.15.45-.31.89-.47,1.34h0c-.73,2.33-1.51,4.64-2.43,6.89.34-.09.7-.09,1.02.02.54.09,1.11.14,1.65.24.17.02.3.09.4.2.07,0,.14.02.21.05.2.25.29.58.31.95.17.44.14,1.27.05,2.12.26-.06.54-.06.75,0,.15.05.31.12.46.22.38-.65.77-1.3,1.19-1.93,2.39-3.62,5.26-6.9,7.61-10.56.7-1.02,1.36-2.07,2.02-3.11,0,0,0,0,0-.01.36-.82,1.04-1.77,1.2-2.11.46-.75.98-1.47,1.52-2.16-.07-.75.56-1.73.83-2.38.32-.48,2.06-3.65,3.26-4.73.12-.17.3-.33.52-.46-.02-.31.02-.66.01-.91.18-1.67.75-3.28,1.55-4.75,1.27-2.3,2.95-4.5,5.17-5.95.96-.61,1.95-1.18,2.8-1.94.78-.57,1.35-1.35,2.07-1.98.53-.5,1.32-.61,1.34.33Z"/>
      <path class="cls-4" d="M86.43,51c-.31-.31-.64-.6-.97-.89-.36-.31-.75-.56-1.15-.8-.37-.21-.73-.45-1.1-.65-.42-.23-.88-.41-1.34-.54-.99-.29-2.02-.42-3.04-.45-.47-.01-.93,0-1.4.05-.43.04-.84.13-1.27.21-.11.02-.2.05-.3.07-.04.01-.07.02-.11.03-.15.05-.08.04-.22.2-.17.2-.41.24-.63.12-.01,0-.02-.01-.04-.02-.08-.05-.14-.11-.2-.18-.04,0-.13.12-.16.14-.33.3-.7.56-1.02.88-.35.34-.64.73-.92,1.12-.16.23-.32.45-.48.68.1-.04.2-.05.3-.04.07-.05.13-.09.21-.13.43-.25.95-.36,1.45-.42,4.12-.22,8.37-.39,12.39.61ZM88.66,55.62c0-.2-.04-.39-.06-.58s-.05-.38-.09-.56c-.07-.3-.16-.58-.27-.87-3.91-.37-7.83.29-11.75.08-1.32-.04-2.71.13-3.99-.27-.45.42-1.24.41-1.82.3t0,0c-.55,1.72-.19,3.67.65,5.23.39.73.9,1.38,1.46,1.98.58.62,1.25,1.17,1.98,1.6.7.41,1.45.73,2.22.95.8.24,1.63.32,2.46.32.79-.02,1.57-.11,2.33-.32.84-.23,1.65-.58,2.41-1.01.88-.5,1.67-1.16,2.32-1.92.24-.28.46-.57.7-.85.27-.33.48-.71.69-1.09.5-.93.76-1.95.77-3.02ZM89.36,51.17c.82,2.12,1.1,4.44.88,6.7-.09.94-.29,1.87-.55,2.77-.16.57-.37,1.12-.62,1.66-.21.44-.43.89-.69,1.31-.53.83-1.19,1.6-1.94,2.24-.69.58-1.43,1.12-2.23,1.54-.77.4-1.61.68-2.45.86-.7.14-1.41.25-2.12.25-.05,0-.1,0-.15,0-2.02,0-4.05-.62-5.74-1.72-1.88-1.21-3.38-2.95-4.27-5-.45-1.04-.79-2.11-.98-3.23-.2-1.15-.2-2.32-.09-3.48.09-.98.32-1.95.63-2.89.31-.96.74-1.88,1.29-2.71.26-.38.54-.75.86-1.09.29-.3.61-.57.95-.81.45-.32.89-.64,1.38-.91.2-.11.41-.2.62-.28.03-.01.12-.03.14-.05,0-.02,0-.04.01-.05.03-.13.07-.26.12-.38.1-.23.29-.55.58-.56.04,0,.08,0,.12.02.05.02.1.04.16.01s.11-.05.16-.08c.09-.04.17-.09.25-.13.23-.11.45-.22.68-.31.42-.16.84-.29,1.28-.39.95-.22,1.88-.34,2.85-.25.95.09,1.89.27,2.8.59.41.14.82.27,1.21.48.41.22.78.49,1.15.77.43.32.84.64,1.21,1.04.34.36.66.73.95,1.14.31.43.57.9.81,1.38.26.53.51,1.06.72,1.61Z"/>
      <path class="cls-4" d="M64.75,8.53c.68-.37.96.29.72.86-.65,1.39-2.14,2.23-3.18,3.33-.9.85-1.8,1.7-2.71,2.54-1.09,1.01-2.21,2-3.41,2.88-.43.27-.84.68-1.35.74-.87-.29,1.38-2.26,1.65-2.66,2.19-2.33,4.52-4.53,6.93-6.63.44-.37.86-.77,1.35-1.07Z"/>
      <path class="cls-4" d="M79.76,24.11c.14.64-.46,1.29-1.07,1.4-3.2,1.25-6.49,2.21-9.78,3.19-1.7.44-3.42.86-5.15,1.17-.23,0-.66.18-.71-.14.41-2.05,11.03-4.33,13.27-4.96.9-.24,1.82-.41,2.71-.68.23-.04.57-.28.72.02Z"/>
      <path class="cls-4" d="M45.82.81c.23.47-.07.95-.11,1.43-.27,3.16-1.21,6.21-1.88,9.3-.17.56-.39,2.34-1.09,2.33-1.96-.61-.55-4.8-.25-6.26.33-1.23.58-2.48.92-3.7.37-1.3.86-2.59,1.36-3.83.41-.32.91.39,1.05.73Z"/>
      <path class="cls-4" d="M32.53,13.81c.1.48,1.29,2.52.55,2.63-.31-.05-.57-.35-.74-.59-.45-.64-.79-1.35-1.18-2.03-1.08-2-2.15-4.04-2.91-6.18-.86-1.2-1.3-2.77-1.65-4.15-.07-.31-.26-.7-.08-1,.48-.28.92.52,1.23,1.16h0s.11.03.17.06c.3.15.93,1.27,1.42,2.41.05.06.11.13.16.21.55.77.82,1.7,1.17,2.57.65,1.62,1.23,3.28,1.86,4.92Z"/>
      <path class="cls-4" d="M19.35,21.24c.82.42,5.03,2.94,2.27,3.25-.96-.04-1.84-.5-2.68-.91-1.65-.72-3.31-1.42-4.86-2.34-1.65-.84-3.23-1.77-4.69-2.91-.36-.2-.68-.48-.79-.89-.05-.14-.09-.36.02-.49.15-.17.38,0,.52.08.19.11.38.21.57.3,3.29,1.09,6.54,2.36,9.64,3.91Z"/>
      <path class="cls-4" d="M20.35,34.28c.59.88-3.48,1.71-4.09,1.84-2.59.5-5.21.91-7.85.98-2.19.05-4.38.23-6.55.41-.65-.08-.54-.66-.09-.96.9-.57,2.2-.44,3.22-.83,2.91-.8,5.94-.76,8.91-1.06,1.66-.16,3.32-.41,4.99-.49.48,0,1.02-.06,1.46.12Z"/>
      <path class="cls-4" d="M21.13,46.7c.88-.05.75.49.08.79-2.53,1.29-5.32,2.01-8.07,2.64-1.69.32-3.38.83-5.09.96-.6-.1-.54-.66-.12-.97,1.66-.94,3.54-1.43,5.34-2.02,2.54-.77,5.2-1.32,7.86-1.4Z"/>
      <path class="cls-4" d="M24.09,53.68c1.36-.41.2,1.07-.14,1.49-1.36,1.82-11.21,10.4-13.09,10.05-.82-.11-.68-.83-.12-1.21,1.42-1.24,2.86-2.45,4.35-3.61,1.85-1.59,3.62-3.3,5.68-4.63,1.12-.67,2.18-1.46,3.33-2.09Z"/>
    </g>
  </g>
</svg>