<?xml version="1.0" encoding="UTF-8"?>
<svg id="Calque_2" data-name="Calque 2" xmlns="http://www.w3.org/2000/svg" viewBox="0 0 166.86 184.98">
  <defs>
    <style>
      .cls-1 {
        fill: #dafff5;
      }

      .cls-2 {
        fill: #27ccbc;
      }

      .cls-3 {
        fill: #99ecd8;
      }

      .cls-4 {
        fill: #161a59;
      }
    </style>
  </defs>
  <g id="Calque_vectoriel" data-name="Calque vectoriel">
    <g>
      <path class="cls-4" d="M131.23,76.96c-.06-.04-.1-.09-.12-.16,0-.05,0-.19.08-.14.14.13.13.29.03.3Z"/>
      <path class="cls-4" d="M131.64,76.34c-.02-.07-.04-.29.06-.3.14.07.18.33,0,.37-.03-.02-.05-.04-.06-.07Z"/>
      <path class="cls-3" d="M137.37,138.48c.28-.48.55-.98.81-1.47-.32-.12-.66-.21-1-.29-.3.04-.61.05-.93.05-.16,0-.32-.01-.48-.02-1.2.16-2.36.59-3.46,1.12.84,1,1.61,2.21,1.97,2.76.22.34.44.77.64,1.1,1.02-.89,1.75-2.11,2.45-3.26ZM143.6,120.75c.11-.07.21-.1.3-.1-.51-.82-1.16-1.55-1.85-2.18-.26-.21-.58-.43-.94-.35-.25.06-.49.18-.75.17-.98-.13-1.04-1.38-1.38-2.09-1.38-1.52-3.48-2.38-5.49-2.66-2.3-.3-4.51.89-6.05,2.51,1.83.41,1.8,3.13.58,4.21-.7.67-1.54,1.19-2.15,1.94-.61.92-1.19,1.95-1.29,3.07-.09,1.09.81,1.86,1.8,2.08-.21-1.67-.12-3.38.52-4.94.25-.52.48-1.22,1.07-1.44.58-.14.75.72.75,1.12-.04.7-.25,1.38-.28,2.09-.11,1.93.37,4.12,1.84,5.48,1.48,1.37,3.38,2.34,5.39,2.46h.02c.43-.05.85-.06,1.28-.04h0c3.41-.39,5.23-3.57,5.56-6.79.39-1.45-.13-3.42,1.06-4.52ZM149.15,162.09c0-.2-.01-.39-.03-.57-.07-3.38-.47-6.74-1.05-10.07-.6-3.55-1.88-7.02-4.14-9.86-.89-1.18-1.95-2.3-3.16-3.2-.96,2.48-4.34,8.28-6.01,8.13-1.24-.18-1.5-1.76-2.19-2.62-.73-1.18-1.64-2.22-2.4-3.38-.24-.36-.45-.75-.61-1.16-2.57,1.52-4.66,3.76-6.35,6.21-3.29,4.74-4.26,10.56-5.63,16.05,0,.04-.01.07-.02.11,2.55,1.56,5.33,2.74,8.22,3.5-.05-1.8.17-3.93.15-4.77.16-3.05.28-6.11.6-9.15.14-.68.32-1.73,1.13-1.85,1.22.16,1.18,2.62,1.08,3.54-.21,2.71-.39,5.41-.54,8.12-.07.62-.11,2.8-.4,4.57.42.09.85.16,1.27.22,1.56.24,3.14.34,4.72.34,1.16-.02,2.32-.07,3.47-.21.81-.09,1.62-.22,2.43-.39-.37-3.52-.11-9.2-.26-10.8-.03-1.11-.05-2.23-.09-3.34-.05-.92-.12-1.9.31-2.75.8-1.45,1.85-.25,1.96.9.27,2.73.19,5.49.25,8.23-.05.86.1,4.49-.12,7.27,1.77-.47,3.48-1.11,5.13-1.89.77-.37,1.53-.77,2.27-1.2ZM162.69,145.54c1.12-3.43,1.62-7.06,1.37-10.66-.22-3.25-1.01-6.42-2.29-9.41-1.22-2.85-2.92-5.47-4.95-7.81-2.35-2.72-5.23-4.97-8.38-6.7-3.88-2.14-8.25-3.4-12.66-3.72-1.9-.14-3.83-.1-5.72.11-.75.09-1.49.2-2.23.34-.2.04-.41.08-.61.12-.15.03-.31.08-.46.08-.23,0-.44-.11-.61-.26-.13-.12-.24-.27-.33-.42-.06-.11-.11-.21-.15-.33h0s-.16.06-.18.07c-.07.03-.13.05-.2.07-.12.05-.25.1-.38.15-.23.1-.45.2-.68.29-1.57.62-3.14,1.23-4.64,2-1.43.73-2.83,1.58-4.11,2.55-1.32,1.01-2.58,2.09-3.71,3.32-.55.6-1.08,1.23-1.6,1.87-.48.6-.91,1.24-1.33,1.89-.55.86-1.11,1.72-1.62,2.61-.46.8-.86,1.64-1.24,2.49-.44.98-.85,1.96-1.18,2.98-.35,1.1-.64,2.21-.88,3.34-.5,2.34-.72,4.75-.64,7.14.07,1.98.36,3.95.82,5.88.9,3.69,2.58,7.2,4.81,10.26,1.93,2.65,4.29,4.97,6.96,6.86-.04-2.52.63-5,1.2-7.45,1.68-7.54,5.74-15.12,12.76-18.85-1.43-1.21-2.5-2.79-2.98-4.64-1.89.7-3.21-1.87-3.37-3.48-.35-2.39.57-4.8,1.95-6.73-.46-.2-.97-.29-1.41-.53-.99-.91-.89-2.7-.22-3.79.57-.79,1.42-1.34,2.13-2,.95-.84,1.93-1.66,3.01-2.33,3.9-2.74,9.8-.97,11.8,3.28,1.67-1.09,3.54,1.68,4.46,2.8,2.27,3.23,2.68,7.82.73,11.3-.3.53-.66,1.01-1.05,1.47-.2.21-.46.48-.78.44-.04,0-.07-.01-.11-.02-.5,1.48-1.25,2.91-2.26,4.06,1.96,1.47,3.5,3.47,4.84,5.52,2.86,4.5,3.77,9.87,4.38,15.08.25,1.95.4,3.91.46,5.87,2.07-1.45,3.95-3.16,5.59-5.08,2.5-2.95,4.48-6.34,5.68-10.02ZM166.58,132.9c.43,3.94.18,7.96-.71,11.82-.94,4.09-2.62,7.97-4.93,11.47-2.38,3.59-5.45,6.69-9,9.12-3.58,2.45-7.66,4.14-11.91,4.99-2,.4-4.07.62-6.12.62h-.16c-4.46,0-8.92-.89-13.02-2.66-3.73-1.61-7.14-3.89-10.05-6.73-2.88-2.81-5.25-6.14-6.98-9.77-1.81-3.82-2.91-7.98-3.25-12.2-.19-2.38-.13-4.78.15-7.15.3-2.49.88-4.97,1.77-7.32.42-1.11.86-2.2,1.38-3.27.42-.86.9-1.7,1.39-2.53.59-.98,1.21-1.93,1.93-2.82.44-.55.9-1.08,1.38-1.59,1.1-1.19,2.25-2.31,3.49-3.35,1.39-1.17,2.87-2.22,4.41-3.17,1.36-.84,2.8-1.57,4.27-2.19.79-.33,1.58-.63,2.39-.88.46-.14.92-.26,1.39-.34.24-.04.48-.08.73-.12.07-.01.14-.02.2-.04.22-.04.12.02.24-.33.18-.51.43-1.09,1.01-1.24.38-.1.78-.16,1.17-.23.44-.08.89-.14,1.33-.21.93-.13,1.87-.22,2.81-.27,2.17-.1,4.33,0,6.48.32,4.16.63,8.17,2.04,11.8,4.18,3.26,1.92,6.17,4.41,8.6,7.31,2.09,2.49,3.79,5.3,5.09,8.28,1.43,3.27,2.31,6.75,2.7,10.29Z"/>
      <path class="cls-3" d="M34.13,132.7c-1.05.17-2.16.28-3.17-.11-.25-.09-.49-.18-.72-.28-.57.05-1.13.14-1.69.26.26.18.49.38.66.54.71.63,1.27,1.39,1.86,2.13.39.47.79.93,1.11,1.44.46-1.4,1.21-2.72,1.96-3.98ZM38.25,118.4c-.02-.21-.03-.91.04-1.56-1.44,1.19-3.21,2.04-5.09,2.14-1.04-.07-2.06-.06-3.09,0-.86.05-1.68-.18-2.52-.29-.93-.28-1.68.2-2.21.9,0,0,.02.02.03.03.36.49.3,1.19.41,1.77.31,1.43.4,2.93,1.13,4.23,1.33,2.44,3.11,3.79,5.99,3.22.81-.19,1.7-.34,2.35-.88,1.46-1.46,2.05-3.51,2.58-5.46.38-1.33.36-2.73.38-4.1ZM39.13,112.91c.06-.25-.12-.52-.23-.73-.36-.44-.87-.75-1.38-1-.98-.18-1.89,1-2.89.52-.62-.35-.97-1.03-1.56-1.43-2.25-1.53-2.25,3.41-6.24,1.59-.21-.09-.44-.12-.56.12-.4.53-.48,1.25-1.02,1.67-.88.76-2.11.49-3.17.57-.12.06-.24.17-.31.29,1.08.98,1.01,2.63.56,3.91-.18.61-.66,2.34.11,2.62,1.01-.25,1.25-1.52,1.7-2.33.54-1.09,1.21-2.2,2.3-2.81,1.24-.78,2.71-.29,4.07-.44,1.09,0,2.13-.28,3.21-.37,1.6-.04,3.45.29,4.67-1,.31-.36.59-.75.77-1.2ZM46.25,166.27c.15-.07.3-.14.44-.22-.02-.49-.02-.97-.08-1.39-.36-4.84-.16-9.7-.17-14.55-.05-7.66-2.59-14.99-9.39-17.2-.82,2.62-2.15,5.09-4.04,7.09-.14.17-.29.33-.45.48-.11.09-.25.29-.41.27-.2.12-.44.18-.74.16-.59-.18-1-.7-1.42-1.13-.79-.93-1.47-1.95-2.24-2.9-.81-1-1.73-2.16-1.84-3.47-1.53.63-2.94,1.52-4.13,2.65-2.53,2.45-3.29,6.05-3.7,9.42-.5,4.71-1.22,9.4-1.29,14.14-.05.44.01,1.77-.03,2.98,1.27.77,2.57,1.49,3.91,2.1.97.44,1.95.84,2.95,1.2-.57-3.39-1.06-6.8-1.06-10.25.03-1.57.42-11.24,1.82-11.4.61-.15.89.6.96,1.05.38,2.06.2,4.15.18,6.23-.07,2.42-.18,4.84-.23,7.25-.05,2.53,0,5.07-.23,7.59.58.18,1.17.34,1.76.49,2.12.52,4.26.95,6.42,1.23,2.07.27,4.21.48,6.29.23.64-.08,1.29-.2,1.92-.35-.11-.38-.21-.75-.3-1.13-.6-2.49-1.08-5.01-1.45-7.55-.2-1.36-.28-2.72-.39-4.09-.23-2.59-.81-5.16-.66-7.77.02-.52.03-1.07.3-1.53.43-.71,1.08-.52,1.43.16,1.12,1.82,1.04,4.04,1.25,6.09.06,1.28.25,2.55.43,3.82.48,3.74.73,7.52.91,11.29,0,.07,0,.18,0,.3.02,0,.03-.01.05-.02,1.11-.34,2.2-.76,3.23-1.26ZM66.05,138.52c.04-1.28-.02-2.56-.14-3.84-.11-1.27-.29-2.53-.52-3.79-.2-1.12-.48-2.23-.87-3.3s-.95-2.04-1.55-3c-.6-.96-1.24-1.9-1.89-2.83-1.2-1.71-2.57-3.3-4.15-4.67-.91-.79-1.91-1.5-2.89-2.2-.92-.66-1.83-1.32-2.79-1.93-.98-.63-2-1.21-3.02-1.79-1.02-.58-2.06-1.14-3.15-1.59-2.16-.9-4.44-1.6-6.76-1.95-1.16-.17-2.34-.29-3.52-.37-.28-.02-.56-.04-.84-.05.42.3.78.7,1.06,1.13.23.42.59.41.97.21,1.45-.78,3.25-.25,4.1,1.15.86,1.76,1.13,4.65-.57,5.98-.11.12-.21.23-.32.35,1.88,3.8.9,10.76-1.57,14.25,1.43.29,2.84.73,4.16,1.36,6.41,3.83,7.33,12.91,7.24,19.7-.07,3.97-.16,7.94.07,11.91,0,.34.05.86.09,1.44.17-.1.34-.2.52-.3,1.06-.63,2.08-1.3,3.05-2.06,1.02-.78,1.99-1.63,2.92-2.52,1.04-.98,2.05-2,3.01-3.06.9-1,1.73-2.05,2.51-3.15.76-1.08,1.43-2.22,1.98-3.43.59-1.29,1.09-2.61,1.54-3.96.41-1.23.68-2.51.9-3.79.22-1.29.39-2.59.43-3.89ZM68.27,134.53c.1,1.36.17,2.73.11,4.09-.03.66-.05,1.32-.11,1.99-.07.72-.15,1.44-.26,2.16-.21,1.43-.5,2.85-.84,4.25-.35,1.41-.84,2.78-1.35,4.13-.53,1.39-1.15,2.77-1.88,4.07-.67,1.19-1.45,2.31-2.28,3.39-1.69,2.2-3.62,4.21-5.68,6.06-.99.89-2,1.75-3.07,2.54-.98.73-2.03,1.38-3.09,1.98-2.21,1.28-4.48,2.43-6.95,3.12-1.65.46-3.34.76-5.05.79-2.08,0-4.17-.24-6.23-.57-2.12-.34-4.24-.77-6.31-1.35-2.25-.62-4.43-1.54-6.51-2.58-1.09-.55-2.15-1.17-3.19-1.82-1.02-.63-2.03-1.29-3-2-1.89-1.37-3.55-2.99-5.05-4.77-.77-.92-1.46-1.89-2.09-2.92-.69-1.12-1.27-2.31-1.82-3.51-.49-1.08-.95-2.18-1.37-3.29-.49-1.28-.96-2.57-1.32-3.89-.39-1.45-.69-2.93-.83-4.42-.12-1.27-.14-2.57-.09-3.84.1-2.38.44-4.76.99-7.07.27-1.12.57-2.24.93-3.34.38-1.14.82-2.26,1.28-3.36.46-1.1.97-2.17,1.5-3.24.59-1.19,1.2-2.36,1.85-3.52.59-1.04,1.23-2.06,1.96-3.02.68-.91,1.43-1.75,2.23-2.55,1.68-1.71,3.52-3.28,5.54-4.57.47-.3.95-.58,1.44-.83.52-.25,1.05-.46,1.59-.66.51-.19,1.02-.36,1.54-.52.58-.18,1.16-.35,1.76-.48.58-.12,1.16-.2,1.75-.23.44-.02.89-.04,1.33,0,.42.03.86.07,1.25.24.31.14.5.43.54.77.04.41-.15.77-.49.99-.37.24-.8.39-1.21.55-.44.18-.88.33-1.32.5-1.09.43-2.2.83-3.25,1.34-1.01.49-1.97,1.04-2.89,1.68-.94.66-1.84,1.36-2.73,2.09-1.8,1.48-3.52,3.09-4.98,4.92-1.46,1.84-2.55,3.96-3.59,6.05-1,2.02-1.94,4.08-2.63,6.23-.69,2.14-1.16,4.37-1.41,6.6-.13,1.18-.16,2.36-.12,3.54.04,1.26.23,2.5.5,3.73.26,1.2.65,2.37,1.05,3.53.39,1.14.83,2.27,1.32,3.37.48,1.09,1.03,2.16,1.67,3.17.6.95,1.3,1.82,2.04,2.67.67.77,1.39,1.51,2.15,2.19.89.79,1.84,1.5,2.82,2.16.15.1.3.2.45.3-.24-1.66-.24-3.36-.27-5.02.13-3.75.78-7.47,1.14-11.21.45-3.58,1.08-7.36,3.25-10.35,2.11-2.69,5.11-4.02,8.34-4.6-1.99-2.16-3.05-5.23-3.07-8.18-1.13,1.89-3,2.25-3.58-.95-.23-1.29-.13-2.59.18-3.85.02-.07.05-.11-.03-.14-2.09-1.15-1.04-4.5.42-5.79.91-.86,2.17.09,3.17-.47.31-.44.46-1.01.85-1.42.35-.41.87-.77,1.44-.71.92.12,1.97.5,2.78-.16.44-.39.85-.91,1.32-1.32-.05,0-.11,0-.16,0-.08,0-.16.02-.24.02-.21,0-.39-.11-.54-.26-.19-.19-.32-.45-.41-.7-.16-.43-.22-.91-.22-1.38,0-.63.11-1.35.48-1.89.12-.18.29-.35.5-.42.12-.04.25-.04.37-.04.28-.02.55-.03.83-.04,1.14-.04,2.27.02,3.41.1,2.39.16,4.79.46,7.09,1.13,1.12.33,2.24.7,3.32,1.14,1.14.46,2.23,1.02,3.3,1.62,1.01.57,2.02,1.14,3.01,1.75.96.6,1.88,1.25,2.8,1.9,1.87,1.34,3.72,2.7,5.29,4.37.78.82,1.51,1.69,2.18,2.6.68.91,1.31,1.84,1.94,2.79.66,1,1.3,2.01,1.84,3.07.59,1.14,1.02,2.36,1.37,3.6.36,1.26.61,2.54.82,3.83.22,1.37.39,2.75.49,4.14Z"/>
      <path class="cls-3" d="M102.9,173.87c.07-.88-.09-1.78-.39-2.61-.16-.46-.35-.91-.59-1.35-.21-.39-.47-.76-.74-1.12-.31-.4-.63-.79-1-1.14-.27-.27-.57-.51-.88-.74-1.27-.96-2.73-1.65-4.31-1.93-.91-.16-1.84-.15-2.76-.05-.82.09-1.63.38-2.4.66-.09.04-.18.07-.27.11-.16.06-.3.14-.48.12-.12-.02-.27,0-.39.02-.04,0-.08.01-.12.02-.02,0-.04-.02-.07-.02s-.05,0-.07.02c-.07.04-.13.11-.19.16-.33.29-.62.61-.9.93-.54.63-1.07,1.28-1.48,2.01-.45.8-.83,1.66-1.02,2.57-.18.87-.14,1.79.04,2.66.39,1.82,1.43,3.48,2.74,4.77,1.28,1.25,2.95,2.14,4.73,2.36.51.06,1.03.1,1.55.1,1.78-.04,3.55-.57,5.04-1.56.62-.41,1.2-.87,1.72-1.41.54-.56,1-1.22,1.36-1.91.23-.45.45-.9.61-1.38.14-.42.22-.88.25-1.32ZM104.95,172.05c.12,2.2-.21,4.4-1.06,6.43-.74,1.75-1.99,3.27-3.5,4.42-.73.56-1.55.98-2.4,1.32-.81.32-1.66.5-2.52.62-.27.04-.53.07-.79.07-.95,0-1.88-.06-2.8-.27-.92-.22-1.82-.56-2.67-.98-1.8-.89-3.36-2.3-4.37-4.05-.27-.46-.48-.96-.69-1.46-.21-.5-.38-1.02-.49-1.55-.25-1.11-.37-2.25-.32-3.39.02-.52.07-1.03.15-1.54.07-.44.16-.88.27-1.31.22-.98.59-1.95,1.07-2.83.43-.78.97-1.48,1.61-2.11.34-.34.71-.62,1.12-.88.18-.11.36-.23.54-.33.05-.03.09-.04.12-.09.05-.08.1-.15.16-.22.12-.14.25-.27.35-.42.14-.2.34-.33.55-.46.18-.12.37-.23.57-.33.37-.19.76-.35,1.15-.48.79-.26,1.62-.46,2.45-.53,1.68-.14,3.39,0,4.96.64.81.33,1.59.74,2.27,1.29.39.3.78.62,1.13.98.39.39.75.82,1.06,1.27.61.87,1.12,1.84,1.45,2.84.19.58.35,1.15.46,1.75.1.53.15,1.06.18,1.6Z"/>
      <path class="cls-3" d="M74.42,177.71c.88-1.43,1.36-3.07,1.26-4.75-.05-.88-.27-1.73-.63-2.54-.15-.34-.32-.66-.52-.97-.27-.43-.6-.8-.95-1.15-.57-.59-1.15-1.15-1.83-1.6-.7-.46-1.47-.84-2.25-1.12-.22-.08-.45-.16-.67-.23-.23-.07-.45-.16-.67-.23-.12-.04-.24-.09-.36-.13-.08-.03-.17-.05-.25-.07-.39-.1-.72-.36-.89-.73-.02-.06-.05-.12-.07-.17,0-.05-.02-.06-.05-.04h-.01s-.09.02-.13.02c-.12.02-.23.04-.35.07-.2.04-.39.11-.58.15-.39.09-.77.16-1.16.25-.95.25-1.83.63-2.69,1.1-.18.1-.36.19-.54.3-.25.16-.48.34-.7.52-.34.27-.64.58-.93.9-1.13,1.24-1.84,2.79-2.11,4.45-.06.38-.09.75-.1,1.13-.02.4-.02.8.03,1.2.1.96.38,1.89.8,2.76.19.38.4.75.6,1.13.2.37.46.71.74,1.01.68.73,1.5,1.34,2.38,1.82.36.2.74.38,1.12.53s.78.27,1.18.38c.41.12.82.22,1.25.27.36.05.73.05,1.11.05.82,0,1.64-.1,2.43-.3.71-.19,1.39-.46,2.05-.8.77-.39,1.47-.92,2.09-1.52.54-.52,1-1.09,1.39-1.71ZM77.24,171c.18.93.29,1.89.25,2.84-.05,1.02-.17,2.02-.45,3.01-.47,1.71-1.34,3.29-2.51,4.62-1.11,1.25-2.52,2.23-4.08,2.82-1.13.43-2.36.69-3.57.69-.86,0-1.72-.12-2.56-.29-.73-.15-1.45-.41-2.13-.74-.96-.47-1.85-1.08-2.63-1.82-.68-.64-1.26-1.36-1.8-2.12-.26-.37-.5-.74-.71-1.14-.24-.45-.43-.92-.59-1.4-.34-1.02-.55-2.07-.62-3.14-.12-1.8.18-3.62.93-5.26,1.51-3.29,4.64-6,8.32-6.37.41-.04.81.02,1.22.07.05,0,.11.01.16.02.16.02.09.05.18-.14.13-.28.37-.52.66-.62.24-.08.49-.04.74-.07.2-.02.4,0,.6.01.27.02.53.07.79.12.46.11.92.25,1.36.44.79.33,1.51.78,2.2,1.27.72.52,1.41,1.16,1.92,1.89.54.78,1.04,1.61,1.43,2.48.41.9.7,1.85.89,2.82Z"/>
      <path class="cls-3" d="M72.08,174.09c-.05-.47-.1-.94-.28-1.38-.29-.59-.97-.79-1.55-.97-.46-.16-.92-.32-1.4-.39-2.98-.74-6.75-.27-7.49,3.2.17-.05.36-.07.54-.07.55.01,1.11.04,1.66.03.14,0,.1.02.1-.19-.02-.69-.07-1.47.42-2.02.21-.23.56-.25.84-.14,1.15.14,2.32-.14,3.49-.06,1.6-.04,1.97.49,2.07,2.03-.02.07,0,.1.07.08.52-.05,1.03-.06,1.55-.12ZM71.61,169.37c1.38,1.02,2.22,2.77,2.2,4.48-.03.59-.03,1.53-.58,1.86-.09.3-.24.55-.47.63-.65,0-1.31-.01-1.96.04-.3-.05-.58.12-.87.13-.91-.26-.8-1.5-.86-2.25-.69-.13-1.42-.12-2.12-.11-.6,0-1.2.06-1.79.15-.06,0-.08-.01-.09.06-.12.64-.01,1.57-.67,1.93-.18.07-.32-.07-.5-.05-.57.05-1.15,0-1.72.05-.38.04-.8.22-1.16.02-.11-.07-.19-.17-.25-.29-.02,0-.04,0-.05,0-.68-.5-.08-2.13.08-2.83.64-2.94,3.1-3.73,5.79-3.92,1.01-.16,2.04-.23,3.06-.24.68-.03,1.38-.07,1.98.31Z"/>
      <path class="cls-3" d="M23.4,106.45c1.59-1.24,3.34-1.77,5.3-1.28-.67.6-1.66.94-2.54,1.17-.96.21-1.89-.09-2.82.2,0,0,0,0,0,0,0,0,0,0,0,0,0,0,0,0,0,0,0,0,0,0,0,0,.06,0,.05.04,0,.03-.1,0,0-.09.06-.12Z"/>
      <path class="cls-3" d="M24.09,105.96c2.28-1.4,5.46-2.43,8.07-1.5-.95.23-1.76,1.03-2.74,1.13-1.77.6-3.5.05-5.25.36h0s0,0,0,0c.15.02-.04.07-.08,0Z"/>
      <path class="cls-3" d="M21.62,105.63s0,0,0,.01c0,0,0,0,0,0h0s0,0,0,0c0,0,.02,0,.02-.02,1.23-1.01,2.92-1.36,4.37-2,2.81-.97,5.94-.53,8.7.12-2.23.57-4.5,1.25-6.73,1.64-2.08.39-4.34-.27-6.32.24,0,0,0,0,0,0h0s0,.01,0,.02c-.02.02-.03.03-.03.03,0,0,0-.01,0-.03h0Z"/>
      <path class="cls-3" d="M29.74,105.53c.7.07,1.42.01,2.11.13-.79.12-1.58.41-2.36.71-.28.11-.56.22-.84.33-.21.08-.42.16-.63.23-.03.01-.06.02-.09.03-.09.03-.18.06-.28.09-.37.12-.75.21-1.12.28-.05,0-.1.02-.15.02-.09.01-.18.02-.27.03-.23.02-.46.04-.69.06-.04,0-.07,0-.11,0-2.34.17-4.77.17-7.01.45,1.91-.77,3.88-1.34,5.81-1.95h0s0,0,0,0c0,0,0,0,0,0,.48-.15.96-.3,1.43-.46.04-.01.07-.02.11-.04.86-.34,1.77-.28,2.66-.14.07.01.13.02.19.03.33.05.66.11.97.16.09.02.18.03.27.04Z"/>
      <path class="cls-3" d="M18.25,106.86c1.37-1.16,2.99-2.21,4.71-2.8,2.29-.55,4.78-.71,7.05-.63-2.51.61-4.86,1.74-7.41,2.16-1.43.4-3.07.37-4.31,1.26.01,0,.01.02,0,.02h0s-.03.01-.04-.02Z"/>
      <path class="cls-2" d="M71.8,172.71c.18.44.23.91.28,1.38-.52.06-1.03.07-1.55.12-.07.02-.09,0-.07-.08-.1-1.54-.47-2.07-2.07-2.03-1.16-.08-2.34.2-3.49.06-.27-.11-.63-.09-.84.14-.49.55-.45,1.33-.42,2.02,0,.21.04.18-.1.19-.55.01-1.11-.02-1.66-.03-.18,0-.37.02-.54.07.74-3.46,4.51-3.93,7.49-3.2.48.07.94.23,1.4.39.58.18,1.26.38,1.55.97Z"/>
      <path class="cls-2" d="M89.95,171.51c.33.66.38,1.5.26,2.21-.29,2.28-2.55,2.91-3,.33-.17-.97.02-2.39,1.11-2.73.45-.82,1.29-.57,1.63.19Z"/>
      <path class="cls-2" d="M95.42,171.66c.48,1.29.19,3.76-1.49,3.93-1.38-.27-1.66-2.09-1.47-3.27.07-.76.8-1.97,1.66-1.31.54-.54,1.12.12,1.29.65Z"/>
      <path class="cls-2" d="M99.4,172c.71,1.02.38,3.89-1.11,4-1.92-.3-1.81-5.38.38-5.1.53.13.56.68.72,1.09Z"/>
      <path class="cls-1" d="M65.91,134.68c.12,1.28.18,2.56.14,3.84-.05,1.31-.21,2.61-.43,3.89-.22,1.28-.5,2.56-.9,3.79-.45,1.35-.95,2.67-1.54,3.96-.55,1.21-1.22,2.35-1.98,3.43-.77,1.1-1.61,2.16-2.51,3.15-.96,1.06-1.97,2.07-3.01,3.06-.93.88-1.9,1.73-2.92,2.52-.97.75-2,1.43-3.05,2.06-.17.1-.34.21-.52.3-.04-.58-.09-1.1-.09-1.44-.23-3.96-.13-7.94-.07-11.91.09-6.79-.83-15.88-7.24-19.7-1.32-.63-2.73-1.07-4.16-1.36,2.46-3.5,3.45-10.45,1.57-14.25.11-.11.22-.23.32-.35,1.71-1.33,1.44-4.21.57-5.98-.85-1.4-2.64-1.93-4.1-1.15-.39.2-.74.21-.97-.21-.29-.43-.64-.82-1.06-1.13.28.02.56.03.84.05,1.18.08,2.35.2,3.52.37,2.32.34,4.6,1.05,6.76,1.95,1.09.45,2.12,1.01,3.15,1.59,1.02.58,2.04,1.16,3.02,1.79.95.61,1.87,1.27,2.79,1.93.98.7,1.98,1.41,2.89,2.2,1.58,1.38,2.95,2.96,4.15,4.67.65.93,1.29,1.87,1.89,2.83.6.96,1.16,1.93,1.55,3s.67,2.18.87,3.3c.23,1.25.4,2.52.52,3.79Z"/>
      <path class="cls-1" d="M30.62,107.2c.05,0,.11,0,.16,0-.47.4-.88.93-1.32,1.32-.81.66-1.86.29-2.78.16-.57-.06-1.09.3-1.44.71-.39.41-.54.98-.85,1.42-1,.57-2.26-.38-3.17.47-1.46,1.28-2.5,4.64-.42,5.79.08.03.04.06.03.14-.32,1.26-.41,2.56-.18,3.85.59,3.2,2.45,2.85,3.58.95.02,2.95,1.08,6.02,3.07,8.18-3.22.58-6.22,1.91-8.34,4.6-2.16,2.99-2.79,6.77-3.25,10.35-.36,3.74-1.01,7.46-1.14,11.21.03,1.66.03,3.36.27,5.02-.15-.1-.3-.2-.45-.3-.98-.67-1.93-1.37-2.82-2.16-.76-.68-1.48-1.43-2.15-2.19-.74-.84-1.44-1.72-2.04-2.67-.64-1.01-1.19-2.08-1.67-3.17-.48-1.1-.93-2.23-1.32-3.37-.4-1.16-.79-2.33-1.05-3.53-.27-1.23-.46-2.47-.5-3.73-.04-1.18,0-2.37.12-3.54.25-2.23.72-4.46,1.41-6.6.69-2.15,1.62-4.21,2.63-6.23,1.04-2.1,2.13-4.21,3.59-6.05,1.45-1.83,3.18-3.44,4.98-4.92.89-.73,1.79-1.43,2.73-2.09.92-.64,1.88-1.2,2.89-1.68,1.06-.51,2.16-.92,3.25-1.34.27-.11.55-.21.83-.31.04,0,.07,0,.11,0,.23-.02.46-.04.69-.06.09,0,.18-.02.27-.03.05,0,.1-.02.15-.02.38-.06.75-.16,1.12-.28.09-.03.18-.06.28-.09.03,0,.06-.02.09-.03.21-.07.42-.15.63-.23.28-.11.56-.22.84-.33.09.21.2.42.36.58.14.15.32.26.54.26.08,0,.16-.01.24-.02Z"/>
      <path class="cls-1" d="M164.06,134.88c.25,3.6-.25,7.23-1.37,10.66-1.21,3.68-3.18,7.07-5.68,10.02-1.63,1.92-3.52,3.63-5.59,5.08-.06-1.96-.21-3.93-.46-5.87-.6-5.21-1.52-10.58-4.38-15.08-1.33-2.04-2.88-4.04-4.84-5.52,1.01-1.15,1.76-2.58,2.26-4.06.04.01.07.02.11.02.32.04.59-.23.78-.44.39-.46.75-.94,1.05-1.47,1.95-3.47,1.54-8.06-.73-11.3-.92-1.13-2.8-3.89-4.46-2.8-2-4.25-7.91-6.02-11.8-3.28-1.08.67-2.06,1.49-3.01,2.33-.71.66-1.56,1.21-2.13,2-.67,1.08-.77,2.88.22,3.79.44.25.95.33,1.41.53-1.38,1.93-2.3,4.34-1.95,6.73.16,1.61,1.48,4.18,3.37,3.48.48,1.86,1.55,3.43,2.98,4.64-7.02,3.73-11.07,11.32-12.76,18.85-.57,2.44-1.24,4.93-1.2,7.45-2.67-1.89-5.03-4.21-6.96-6.86-2.23-3.06-3.91-6.57-4.81-10.26-.47-1.93-.75-3.9-.82-5.88-.08-2.39.14-4.8.64-7.14.24-1.12.53-2.24.88-3.34.32-1.02.74-2,1.18-2.98.38-.85.78-1.68,1.24-2.49.52-.89,1.07-1.75,1.62-2.61.41-.65.85-1.29,1.33-1.89.52-.64,1.05-1.27,1.6-1.87,1.13-1.23,2.39-2.31,3.71-3.32,1.28-.98,2.68-1.82,4.11-2.55,1.51-.77,3.07-1.38,4.64-2,.23-.09.46-.19.68-.29.12-.05.25-.1.38-.15.07-.02.13-.05.2-.07.02,0,.14-.07.18-.07h0c.04.11.09.22.15.33.09.16.2.3.33.42.17.15.38.26.61.26.15,0,.31-.05.46-.08.2-.04.41-.09.61-.12.74-.14,1.48-.25,2.23-.34,1.89-.21,3.82-.25,5.72-.11,4.42.32,8.78,1.58,12.66,3.72,3.14,1.73,6.02,3.98,8.38,6.7,2.02,2.34,3.73,4.96,4.95,7.81,1.27,2.99,2.06,6.16,2.29,9.41Z"/>
      <path class="cls-1" d="M149.11,161.52c.02.18.03.38.03.57-.74.43-1.5.83-2.27,1.2-1.65.78-3.37,1.41-5.13,1.89.22-2.77.07-6.4.12-7.27-.07-2.74.01-5.5-.25-8.23-.11-1.16-1.16-2.36-1.96-.9-.43.85-.36,1.83-.31,2.75.04,1.12.07,2.23.09,3.34.15,1.6-.11,7.27.26,10.8-.8.16-1.61.29-2.43.39-1.16.14-2.31.19-3.47.21-1.58,0-3.16-.1-4.72-.34-.43-.07-.85-.14-1.27-.22.29-1.76.34-3.95.4-4.57.14-2.71.33-5.42.54-8.12.1-.92.14-3.39-1.08-3.54-.81.12-.99,1.18-1.13,1.85-.32,3.04-.44,6.1-.6,9.15.02.84-.2,2.96-.15,4.77-2.89-.76-5.67-1.93-8.22-3.5,0-.04.01-.07.02-.11,1.37-5.49,2.34-11.31,5.63-16.05,1.68-2.45,3.77-4.69,6.35-6.21.15.41.36.8.61,1.16.75,1.16,1.67,2.2,2.4,3.38.69.86.95,2.44,2.19,2.62,1.67.14,5.04-5.66,6.01-8.13,1.21.89,2.27,2.02,3.16,3.2,2.26,2.83,3.54,6.31,4.14,9.86.58,3.33.98,6.69,1.05,10.07Z"/>
      <path class="cls-1" d="M90.21,173.72c.12-.71.07-1.55-.26-2.21-.34-.76-1.19-1.02-1.63-.19-1.09.34-1.29,1.77-1.11,2.73.45,2.58,2.72,1.95,3-.33ZM93.93,175.59c1.68-.17,1.97-2.64,1.49-3.93-.17-.52-.75-1.19-1.29-.65-.86-.66-1.59.55-1.66,1.31-.19,1.18.09,3,1.47,3.27ZM98.29,176c1.49-.12,1.82-2.98,1.11-4-.16-.41-.2-.96-.72-1.09-2.2-.29-2.3,4.79-.38,5.1ZM102.51,171.27c.3.83.46,1.73.39,2.61-.04.44-.11.9-.25,1.32-.16.48-.38.93-.61,1.38-.36.69-.82,1.35-1.36,1.91-.52.54-1.09,1-1.72,1.41-1.48.98-3.26,1.52-5.04,1.56-.52,0-1.04-.04-1.55-.1-1.79-.22-3.46-1.11-4.73-2.36-1.32-1.3-2.35-2.96-2.74-4.77-.19-.86-.23-1.79-.04-2.66.19-.91.57-1.76,1.02-2.57.41-.73.93-1.38,1.48-2.01.29-.33.57-.65.9-.93.06-.05.12-.12.19-.16.02-.02.05-.02.07-.02s.05,0,.07.02c.04,0,.08-.01.12-.02.12-.02.26-.04.39-.02.18.02.32-.07.48-.12.09-.04.18-.07.27-.11.77-.28,1.59-.57,2.4-.66.92-.1,1.85-.11,2.76.05,1.57.28,3.04.97,4.31,1.93.31.23.61.47.88.74.36.35.69.74,1,1.14.27.36.53.73.74,1.12.23.43.42.88.59,1.35Z"/>
      <path class="cls-1" d="M73.81,173.85c.02-1.71-.82-3.46-2.2-4.48-.6-.38-1.3-.34-1.98-.31-1.03.01-2.05.08-3.06.24-2.69.18-5.15.98-5.79,3.92-.16.7-.76,2.32-.08,2.83.02,0,.04,0,.05,0,.06.12.14.22.25.29.36.2.79.02,1.16-.02.57-.06,1.15,0,1.72-.05.18-.02.32.12.5.05.66-.36.55-1.29.67-1.93.01-.07.03-.05.09-.06.59-.09,1.19-.16,1.79-.15.7-.02,1.43-.03,2.12.11.06.75-.05,2,.86,2.25.29,0,.57-.18.87-.13.66-.05,1.31-.04,1.96-.04.23-.08.39-.33.47-.63.55-.33.55-1.28.58-1.86ZM75.68,172.96c.1,1.68-.38,3.32-1.26,4.75-.39.63-.86,1.2-1.39,1.71-.62.6-1.32,1.13-2.09,1.52-.66.34-1.33.61-2.05.8-.8.21-1.61.3-2.43.3-.37,0-.74,0-1.11-.05-.43-.05-.84-.15-1.25-.27-.4-.11-.79-.23-1.18-.38s-.76-.34-1.12-.53c-.88-.48-1.7-1.08-2.38-1.82-.29-.3-.54-.64-.74-1.01-.2-.38-.41-.75-.6-1.13-.43-.87-.7-1.79-.8-2.76-.04-.4-.04-.8-.03-1.2.01-.38.04-.76.1-1.13.27-1.65.98-3.21,2.11-4.45.29-.32.59-.63.93-.9.23-.18.46-.36.7-.52.17-.11.36-.21.54-.3.86-.47,1.74-.85,2.69-1.1.38-.1.77-.17,1.16-.25.2-.04.39-.11.58-.15.11-.03.23-.05.35-.07.04,0,.09-.02.13-.02h.01s.05,0,.05.04c.02.05.04.11.07.17.17.37.5.63.89.73.09.02.17.04.25.07.12.04.23.09.36.13.22.07.45.16.67.23.22.07.45.14.67.23.78.29,1.55.66,2.25,1.12.68.45,1.26,1.01,1.83,1.6.35.36.68.73.95,1.15.19.31.36.63.52.97.36.8.58,1.66.63,2.54Z"/>
      <path class="cls-1" d="M97.15,34.48c.73.97-.26,2.7-1.31,3.02-4.19.87-8.52.56-12.78.73-3.08.16-6.16.23-9.25.09-7.51-.28-15.04-.05-22.53-.65-.92-.09-2.91-.35-2.21-1.68.11-.21.28-.39.5-.49,1.99-.54,4.08-.53,6.12-.68,3.63-.32,7.28-.18,10.92-.24,8.85.09,17.7-.07,26.54-.47,1.06,0,2.13-.01,3.19.12.28.05.59.04.81.24Z"/>
      <path class="cls-1" d="M121.14,47.69c.82.43-.04,1.86-.76,1.93-1.6.45-3.27.5-4.91.7-3.61.47-7.25.29-10.88.43-6.59.25-13.17.51-19.75.91-6.71.21-13.41.32-20.12.07-2.92-.04-5.84-.11-8.76-.32-2.61-.27-5.34-.16-7.83-1.09-.2-.08-.45-.21-.46-.47-.02-.61.66-.84,1.14-.92,3.96-.54,7.99-.03,11.98-.09,3.02.02,6.04-.09,9.06-.11,7.14-.04,14.28-.41,21.39-1.13,7.61-.61,15.26-1.32,22.89-.83,2.33.27,4.75.26,7,.91Z"/>
      <path class="cls-1" d="M90.12,59.68c2.04,0,.76,3.12-.48,3.52-8.32,1.15-16.8.79-25.18,1.03-5.69-.02-11.38.59-17.06.36-.27-.02-.54-.03-.81-.04-.2-.02-.53,0-.66-.19-.17-.26.06-.63.25-.8.72-.55,1.69-.6,2.55-.8,2.93-.57,5.91-.77,8.86-1.2,5.89-.8,11.86-.84,17.78-1.34,2.67-.22,5.34-.36,8.01-.57,2.25-.22,4.5-.23,6.75.04Z"/>
      <path class="cls-1" d="M130.68,36.24c.31-4.42.3-8.88-.06-13.3-.21-.19-.46-.34-.75-.47-2.31-1.23-5.01-1.35-7.57-1.57-4.51-.38-9.02-.66-13.55-.56-12.91.36-25.83.15-38.74-.06-6.77-.25-13.54-.62-20.32-.32-3.61.17-7.25.18-10.82.76-2.91.48-6.47,1.69-7.05,4.99-.57,2.14-.87,4.37-1.21,6.55.03.87.03,1.73.04,2.6-.04,2.67-.23,5.34-.28,8.01-.16,12.44.1,24.88.02,37.32,0,3.3-.03,6.61-.15,9.91-.05.55-.03,1.77-.15,2.91.75-1.17,1.83-2.16,2.77-3.13,3.43-3,7.15-5.67,10.83-8.35,4.59-3.25,4.54-5.18,10.8-5.12,6.84-.28,13.68-.02,20.52.08,9.26-.08,18.52-.32,27.77.13,7.05.36,14.12.54,21.18.32,1.23-.06,2.46-.2,3.66-.54.27-.07.54-.15.81-.22.03-.25.05-.49.05-.73.3-3.21.49-6.42.64-9.64.65-9.86.48-19.75,1.55-29.58ZM131.23,76.96c.09,0,.1-.18-.04-.3-.08-.05-.09.1-.08.14.01.07.06.12.12.16ZM131.7,76.41c.18-.04.14-.3,0-.37-.1,0-.08.23-.06.3.01.03.03.05.06.07ZM143.33,13.27c.49,7.84.23,15.71.08,23.56-.17,8.54-.6,17.07-.94,25.6-.42,7.63-.28,15.28-.51,22.92-.09,2.48-.24,4.95-.44,7.42-.09.68-.08,1.83-.25,2.79.04.32.02.66-.06,1.03-.09.58-.4,1.53-1.14,1.39-.86-.51-1.39-1.45-2.12-2.12-1.7-1.7-3.25-3.53-4.71-5.45-2.34-2.87-4.66-5.78-6.89-8.73-.05-.07-.1-.16-.14-.26-.79.12-1.59.18-2.39.22-5.8.17-11.61.04-17.41-.16-7.07-.42-14.16-.43-21.24-.59-4.6-.11-9.2-.06-13.79-.3-4.66-.29-9.34-.28-14-.04-2.67.25-6.52-.23-8.72,1.4-2.49,2.07-5.12,3.93-7.76,5.82-1.84,1.37-3.55,2.89-5.34,4.32-1.6,1.22-3.05,2.63-4.71,3.76-.3.2-.69.45-1.07.39-.36-.09-.49-.49-.52-.86-.15.11-.32.16-.53.14-1.45-.4-.91-6.45-1-7.9.05-4.25.04-8.51.02-12.76.01-7.79.31-15.57.56-23.36.34-6.55.77-13.1,1.15-19.65-.16-1.64.07-3.29.3-4.91.56-4.2,1.71-7.02,5.88-8.67,1.34-.56,2.77-.84,4.19-1.07-.02-.19-.03-.37-.04-.56-.19-1.77-.11-3.55.13-5.32.39-3.9,1.52-8.61,6.01-9.41,2.36-.45,4.77-.5,7.15-.54,3.61-.08,7.21-.29,10.82-.38,4.88-.16,9.77-.27,14.65-.43,6.69-.02,13.37.41,20.05.67,7.54.36,15.09.45,22.64.39,4.87.03,9.78-.3,14.63.13,1.47.25,3.11.44,4.28,1.46,2.57,2.62,2.87,6.57,3.2,10.05Z"/>
      <path class="cls-1" d="M38.9,112.19c.12.21.29.48.23.73-.18.45-.46.84-.77,1.2-1.22,1.29-3.07.96-4.67,1-1.07.09-2.12.36-3.21.37-1.36.15-2.83-.34-4.07.44-1.08.62-1.75,1.73-2.3,2.81-.45.81-.68,2.08-1.7,2.33-.77-.27-.29-2.01-.11-2.62.45-1.29.52-2.93-.56-3.91.07-.12.19-.23.31-.29,1.06-.08,2.29.18,3.17-.57.54-.43.62-1.14,1.02-1.67.12-.24.36-.21.56-.12,4,1.82,4-3.11,6.24-1.59.59.39.95,1.08,1.56,1.43,1,.48,1.91-.7,2.89-.52.51.24,1.02.56,1.38,1Z"/>
      <path class="cls-1" d="M143.91,120.64c-.1,0-.2.04-.3.1-1.19,1.1-.67,3.07-1.06,4.52-.32,3.22-2.15,6.39-5.56,6.79h0c-.43-.02-.85-.01-1.28.04h-.02c-2.02-.12-3.91-1.1-5.39-2.46-1.47-1.36-1.95-3.54-1.84-5.48.02-.71.23-1.39.28-2.09,0-.4-.16-1.26-.75-1.12-.59.21-.82.92-1.07,1.44-.64,1.56-.73,3.27-.52,4.94-.99-.22-1.89-.99-1.8-2.08.1-1.12.68-2.14,1.29-3.07.61-.75,1.45-1.27,2.15-1.94,1.22-1.07,1.25-3.8-.58-4.21,1.54-1.62,3.74-2.81,6.05-2.51,2.01.29,4.11,1.14,5.49,2.66.35.71.4,1.96,1.38,2.09.26,0,.5-.11.75-.17.36-.07.68.14.94.35.7.63,1.34,1.37,1.85,2.18Z"/>
      <path class="cls-1" d="M46.69,166.05c-.14.08-.29.15-.44.22-1.04.5-2.12.93-3.23,1.26-.02,0-.03,0-.05.02,0-.12,0-.23,0-.3-.17-3.77-.43-7.54-.91-11.29-.19-1.27-.37-2.54-.43-3.82-.21-2.05-.13-4.28-1.25-6.09-.34-.68-1-.86-1.43-.16-.27.46-.28,1.01-.3,1.53-.15,2.61.43,5.19.66,7.77.12,1.37.2,2.73.39,4.09.37,2.54.85,5.05,1.45,7.55.09.38.19.75.3,1.13-.64.15-1.28.27-1.92.35-2.09.26-4.22.04-6.29-.23-2.16-.28-4.3-.71-6.42-1.23-.59-.15-1.18-.31-1.76-.49.24-2.52.19-5.06.23-7.59.06-2.42.16-4.84.23-7.25.02-2.08.2-4.17-.18-6.23-.07-.46-.36-1.21-.96-1.05-1.39.16-1.79,9.83-1.82,11.4,0,3.44.48,6.86,1.06,10.25-1-.36-1.98-.76-2.95-1.2-1.35-.61-2.65-1.33-3.91-2.1.04-1.21-.02-2.54.03-2.98.07-4.74.79-9.43,1.29-14.14.41-3.37,1.17-6.97,3.7-9.42,1.19-1.14,2.6-2.02,4.13-2.65.11,1.31,1.03,2.47,1.84,3.47.77.95,1.45,1.97,2.24,2.9.41.43.83.95,1.42,1.13.3.02.54-.03.74-.16.16.02.31-.18.41-.27.16-.14.3-.31.45-.48,1.89-2,3.23-4.47,4.04-7.09,6.8,2.21,9.34,9.54,9.39,17.2,0,4.85-.19,9.71.17,14.55.06.42.06.91.08,1.39Z"/>
      <path class="cls-1" d="M138.18,137.01c-.27.49-.53.99-.81,1.47-.71,1.15-1.43,2.37-2.45,3.26-.2-.33-.42-.76-.64-1.1-.36-.55-1.13-1.77-1.97-2.76,1.11-.54,2.27-.97,3.46-1.12.16.01.32.02.48.02.32,0,.63-.01.93-.05.34.07.68.17,1,.29Z"/>
      <path class="cls-1" d="M38.3,116.84c-.07.64-.07,1.35-.04,1.56-.02,1.37,0,2.77-.38,4.1-.52,1.95-1.12,3.99-2.58,5.46-.66.54-1.54.69-2.35.88-2.88.56-4.66-.78-5.99-3.22-.73-1.3-.82-2.8-1.13-4.23-.11-.57-.05-1.27-.41-1.77,0,0-.02-.02-.03-.03.53-.7,1.28-1.18,2.21-.9.84.12,1.66.35,2.52.29,1.03-.06,2.05-.06,3.09,0,1.88-.11,3.65-.96,5.09-2.14Z"/>
      <path class="cls-1" d="M30.97,132.6c1,.38,2.12.28,3.17.11-.75,1.26-1.5,2.59-1.96,3.98-.32-.51-.72-.97-1.11-1.44-.59-.74-1.15-1.5-1.86-2.13-.17-.17-.4-.36-.66-.54.56-.12,1.12-.21,1.69-.26.23.1.48.2.72.28Z"/>
      <path class="cls-4" d="M131.31,76.4c-.06-.04-.1-.09-.12-.16,0-.05,0-.19.08-.14.14.13.13.29.03.3Z"/>
      <path class="cls-4" d="M131.72,75.78c-.02-.07-.04-.29.06-.3.14.07.18.33,0,.37-.03-.02-.05-.04-.06-.07Z"/>
      <path class="cls-3" d="M130.76,35.68c.31-4.42.3-8.88-.06-13.3-.21-.19-.46-.34-.75-.47-2.31-1.23-5.01-1.35-7.57-1.57-4.5-.38-9.02-.66-13.54-.56-12.91.36-25.83.15-38.74-.06-6.78-.25-13.55-.62-20.32-.32-3.61.17-7.24.18-10.82.76-2.92.48-6.47,1.69-7.05,4.99-.57,2.14-.88,4.37-1.22,6.55.03.87.03,1.73.04,2.6-.04,2.67-.23,5.34-.28,8.01-.16,12.44.1,24.88.02,37.32,0,3.3-.04,6.61-.15,9.91-.05.55-.03,1.77-.15,2.91.75-1.17,1.83-2.16,2.77-3.13,3.43-3,7.15-5.67,10.84-8.35,4.59-3.25,4.54-5.18,10.8-5.12,6.84-.28,13.68-.02,20.52.08,9.26-.08,18.52-.32,27.78.13,7.05.36,14.12.54,21.17.32,1.24-.06,2.47-.2,3.66-.54.27-.06.53-.15.8-.22h0c.03-.25.05-.49.05-.73.3-3.21.49-6.42.64-9.64.65-9.86.49-19.75,1.55-29.58ZM140.85,41.24c.16-7.82.42-15.66.23-23.48-.13-3.14-.04-6.4-1.05-9.41-.4-1.06-1.07-1.92-2.26-2.08-1.57-.45-3.2-.59-4.82-.58-3.7-.03-7.4,0-11.1.03-7.55.15-15.07-.36-22.59-.83-7.85-.43-15.68-1.38-23.55-1.15-4.89.11-9.77.36-14.64.65-2.4.14-4.81.25-7.21.36-2.36.07-4.73.22-7,.9-3.45.76-4.18,2.22-4.68,5.61-.21.79-.38,3.34-.78,5.15,3.37-.5,6.77-.8,10.17-1.05,5.44-.42,10.91-.3,16.36-.25,8.2.04,16.4.14,24.59.22,11.41-.02,22.89-.82,34.23.81,2.13.36,4.35,1.08,5.8,2.76,2.28,3.01,2.15,7.14,1.68,10.71-.18,1.39-.34,2.79-.44,4.19-.04.6-.12,1.68-.53,2.29-.17,2.39-.41,4.77-.59,7.16-.34,5.15-.34,10.31-.58,15.46-.3,4.75-.44,9.52-.81,14.26-.11.57-.13,1.93-.25,3.31.02,0,.04.02.04.04.01.02.02.05.02.08,0,.04,0,.11-.06.12,0,0-.02,0-.02-.01-.18,1.91-.59,3.78-1.72,3.53,0,0,0,0,0,0-.1.06-.21.11-.32.16.44.34.86.7,1.27,1.05,1.57,1.48,2.87,3.2,4.32,4.79,1.46,1.53,2.64,3.3,4.03,4.89.19.23.39.46.61.7.09-.88.19-1.67.18-2.19.18-2.53.3-5.05.34-7.59-.02-13.55.74-27.07,1.16-40.61ZM143.42,12.71c.49,7.84.23,15.71.08,23.56-.17,8.54-.6,17.07-.94,25.6-.42,7.63-.28,15.28-.51,22.92-.1,2.48-.24,4.95-.44,7.42-.09.68-.07,1.82-.25,2.78.04.32.03.67-.05,1.04-.1.58-.41,1.53-1.15,1.39-.86-.51-1.39-1.45-2.12-2.12-1.7-1.7-3.25-3.53-4.71-5.45-2.34-2.87-4.66-5.78-6.89-8.73-.05-.07-.1-.16-.14-.26-.79.12-1.59.18-2.39.22-5.8.17-11.61.04-17.41-.16-7.07-.42-14.16-.43-21.24-.59-4.59-.11-9.2-.06-13.79-.3-4.66-.29-9.34-.28-14-.04-2.67.25-6.52-.23-8.73,1.4-2.49,2.07-5.12,3.93-7.75,5.82-1.84,1.37-3.55,2.89-5.34,4.32-1.6,1.22-3.05,2.63-4.71,3.76-.31.2-.69.45-1.08.39-.36-.09-.49-.49-.52-.86-.15.11-.32.16-.53.14-1.44-.4-.91-6.45-1-7.9.05-4.25.04-8.51.02-12.76,0-7.79.31-15.57.55-23.36.34-6.55.77-13.1,1.15-19.65-.16-1.64.07-3.29.3-4.91.56-4.2,1.72-7.02,5.88-8.67,1.33-.56,2.76-.84,4.18-1.07-.01-.19-.03-.37-.04-.56-.19-1.77-.11-3.55.13-5.32.38-3.9,1.51-8.61,6.01-9.41,2.36-.45,4.76-.5,7.15-.54,3.61-.08,7.21-.29,10.82-.38,4.88-.16,9.77-.27,14.65-.43,6.69-.02,13.37.41,20.05.67,7.54.36,15.09.45,22.64.39,4.88.03,9.78-.3,14.64.13,1.47.26,3.11.44,4.28,1.46,2.57,2.62,2.87,6.57,3.19,10.05Z"/>
      <path class="cls-3" d="M97.24,33.92c.73.97-.26,2.7-1.3,3.02-4.19.87-8.53.56-12.78.73-3.08.16-6.16.23-9.25.09-7.5-.28-15.04-.05-22.53-.65-.92-.09-2.91-.35-2.21-1.68.11-.21.28-.39.5-.49,1.98-.54,4.07-.53,6.12-.68,3.63-.32,7.28-.17,10.92-.24,8.86.09,17.7-.07,26.55-.47,1.06,0,2.13-.01,3.18.12.28.05.59.04.81.24Z"/>
      <path class="cls-3" d="M121.23,47.13c.82.43-.04,1.86-.76,1.93-1.6.45-3.28.5-4.92.7-3.61.47-7.25.29-10.87.43-6.59.25-13.18.51-19.76.91-6.71.21-13.41.32-20.12.07-2.92-.04-5.84-.11-8.76-.32-2.61-.27-5.34-.16-7.83-1.09-.2-.08-.45-.21-.46-.47-.02-.61.66-.83,1.14-.92,3.96-.54,7.99-.03,11.98-.09,3.02.02,6.04-.09,9.06-.11,7.14-.04,14.28-.41,21.39-1.13,7.61-.61,15.26-1.32,22.89-.83,2.33.27,4.75.26,7.01.91Z"/>
      <path class="cls-3" d="M90.2,59.12c2.04,0,.76,3.12-.48,3.52-8.32,1.15-16.8.79-25.18,1.03-5.69-.02-11.38.59-17.06.36-.27-.02-.54-.03-.81-.04-.2-.02-.53,0-.65-.19-.17-.26.06-.63.25-.8.72-.55,1.69-.6,2.55-.8,2.93-.57,5.91-.77,8.86-1.2,5.9-.8,11.86-.84,17.78-1.34,2.67-.22,5.34-.36,8.01-.57,2.25-.22,4.5-.23,6.75.04Z"/>
      <path class="cls-3" d="M34.22,132.15c-1.05.17-2.16.28-3.17-.11-.25-.09-.49-.18-.72-.28-.57.05-1.13.14-1.69.26.26.18.49.38.66.54.71.63,1.27,1.39,1.86,2.13.39.47.79.93,1.12,1.45.45-1.4,1.21-2.73,1.96-3.99ZM38.34,117.84c-.02-.21-.03-.92.04-1.56-1.44,1.19-3.21,2.04-5.09,2.15-1.03-.07-2.05-.06-3.09,0-.86.05-1.68-.18-2.52-.29-.93-.28-1.68.2-2.21.9,0,0,.02.02.02.02.36.49.3,1.19.41,1.77.31,1.43.4,2.93,1.13,4.23,1.33,2.44,3.11,3.79,5.99,3.22.81-.18,1.7-.34,2.35-.88,1.46-1.46,2.05-3.51,2.58-5.46.37-1.33.36-2.73.38-4.1ZM39.22,112.36c.05-.25-.12-.52-.23-.73-.37-.44-.87-.75-1.38-1-.98-.18-1.89,1-2.89.52-.61-.35-.97-1.03-1.56-1.43-2.25-1.52-2.24,3.41-6.24,1.59-.21-.09-.45-.12-.57.12-.4.53-.48,1.25-1.02,1.67-.88.76-2.11.49-3.17.57-.12.06-.24.17-.31.29,1.08.98,1,2.63.56,3.91-.18.61-.66,2.34.11,2.62,1.01-.25,1.25-1.52,1.7-2.32.54-1.09,1.21-2.2,2.3-2.82,1.24-.78,2.71-.29,4.07-.44,1.09,0,2.13-.28,3.21-.37,1.59-.04,3.44.29,4.66-1,.31-.36.59-.75.77-1.2ZM46.34,165.72c.14-.07.29-.14.44-.22-.02-.49-.02-.97-.08-1.39-.36-4.84-.16-9.7-.17-14.55-.05-7.66-2.59-14.99-9.39-17.2-.82,2.62-2.15,5.09-4.04,7.09-.14.17-.29.33-.45.48-.1.09-.25.29-.41.27-.2.12-.44.18-.74.16-.59-.18-1-.7-1.42-1.13-.79-.93-1.47-1.95-2.24-2.9-.81-1-1.74-2.16-1.84-3.47-1.53.63-2.94,1.52-4.13,2.65-2.53,2.45-3.29,6.05-3.7,9.42-.5,4.71-1.22,9.4-1.29,14.14-.05.44.01,1.77-.03,2.98,1.27.77,2.57,1.49,3.92,2.1.97.44,1.95.84,2.95,1.2-.57-3.39-1.06-6.8-1.06-10.25.03-1.57.42-11.24,1.82-11.4.61-.15.89.6.96,1.06.38,2.05.2,4.15.18,6.23-.07,2.42-.17,4.84-.23,7.26-.05,2.53,0,5.06-.23,7.58.58.18,1.17.34,1.76.49,2.12.52,4.26.95,6.42,1.23,2.08.27,4.21.48,6.29.23.64-.08,1.29-.2,1.93-.35-.11-.38-.21-.75-.3-1.13-.6-2.49-1.09-5.01-1.45-7.55-.2-1.36-.28-2.72-.39-4.09-.23-2.59-.8-5.16-.66-7.78.02-.52.03-1.07.31-1.53.42-.71,1.08-.52,1.42.16,1.12,1.82,1.04,4.04,1.25,6.09.06,1.28.25,2.55.43,3.82.48,3.74.73,7.52.91,11.29,0,.07,0,.18,0,.3.02,0,.03-.01.05-.02,1.11-.34,2.2-.76,3.23-1.26ZM66.14,137.96c.04-1.28-.02-2.56-.14-3.84-.11-1.27-.29-2.53-.52-3.79-.21-1.12-.48-2.23-.88-3.3s-.95-2.04-1.55-3c-.6-.96-1.24-1.9-1.89-2.83-1.2-1.71-2.57-3.3-4.15-4.67-.91-.79-1.91-1.5-2.89-2.2-.92-.66-1.83-1.32-2.78-1.93-.99-.63-2.01-1.21-3.03-1.79-1.02-.58-2.06-1.14-3.15-1.59-2.16-.9-4.44-1.6-6.76-1.95-1.16-.17-2.34-.29-3.52-.37-.28-.02-.56-.04-.84-.05.42.3.78.7,1.06,1.13.23.42.59.41.97.21,1.45-.78,3.25-.25,4.1,1.15.86,1.76,1.13,4.65-.58,5.98-.11.12-.21.23-.32.34,1.88,3.8.9,10.76-1.57,14.26,1.43.29,2.84.73,4.16,1.36,6.41,3.83,7.33,12.91,7.24,19.7-.07,3.97-.16,7.94.07,11.91,0,.34.05.86.09,1.44l.52-.3c1.05-.63,2.08-1.3,3.05-2.06,1.02-.78,1.99-1.63,2.92-2.52,1.04-.98,2.05-2,3.01-3.06.9-1,1.73-2.05,2.51-3.15.77-1.08,1.44-2.22,1.98-3.43.59-1.29,1.09-2.61,1.54-3.96.41-1.23.68-2.51.9-3.79.23-1.29.39-2.59.43-3.89ZM68.35,133.97c.1,1.36.17,2.73.11,4.09-.03.66-.05,1.33-.11,1.99-.06.72-.15,1.44-.26,2.16-.21,1.43-.49,2.85-.84,4.25-.35,1.41-.84,2.78-1.35,4.13-.53,1.39-1.14,2.77-1.88,4.07-.67,1.19-1.45,2.31-2.28,3.39-1.69,2.2-3.61,4.21-5.68,6.06-.99.89-2,1.75-3.07,2.54-.98.73-2.03,1.38-3.09,1.98-2.21,1.28-4.48,2.43-6.95,3.12-1.65.46-3.34.76-5.05.79-2.08,0-4.17-.24-6.23-.57-2.12-.34-4.23-.77-6.31-1.35-2.25-.62-4.43-1.54-6.51-2.58-1.09-.55-2.15-1.17-3.19-1.82-1.02-.63-2.03-1.29-3-2-1.88-1.37-3.55-2.99-5.04-4.77-.78-.92-1.47-1.89-2.09-2.92-.68-1.12-1.27-2.31-1.82-3.51-.49-1.08-.95-2.18-1.38-3.29-.49-1.28-.96-2.57-1.32-3.89-.39-1.45-.69-2.93-.83-4.42-.11-1.27-.14-2.57-.09-3.84.09-2.38.44-4.76.99-7.07.27-1.12.57-2.24.93-3.34.37-1.14.81-2.26,1.28-3.36.46-1.1.97-2.17,1.5-3.24.59-1.19,1.2-2.36,1.85-3.52.59-1.04,1.23-2.06,1.96-3.02.68-.91,1.43-1.75,2.23-2.55,1.68-1.71,3.52-3.28,5.55-4.57.47-.3.94-.58,1.44-.82.51-.25,1.05-.46,1.59-.66.51-.19,1.02-.36,1.54-.52.58-.18,1.16-.35,1.76-.48.57-.12,1.16-.2,1.75-.23.44-.02.89-.04,1.33,0,.42.03.86.07,1.25.24.32.14.51.43.54.77.04.41-.15.77-.49.99-.37.24-.8.39-1.21.55-.44.18-.88.33-1.32.5-1.1.43-2.2.83-3.26,1.34-1.01.49-1.97,1.04-2.89,1.68-.94.66-1.84,1.36-2.73,2.09-1.8,1.48-3.52,3.09-4.98,4.92-1.46,1.84-2.55,3.96-3.59,6.05-1,2.02-1.94,4.08-2.63,6.23-.69,2.14-1.16,4.37-1.41,6.6-.13,1.18-.16,2.36-.12,3.54.05,1.26.23,2.5.51,3.73.26,1.2.65,2.37,1.04,3.53.39,1.14.83,2.27,1.32,3.37.48,1.09,1.03,2.16,1.67,3.17.6.95,1.3,1.82,2.04,2.67.67.77,1.39,1.51,2.15,2.19.89.79,1.84,1.5,2.82,2.16.15.1.3.2.45.3-.24-1.65-.24-3.35-.27-5.02.13-3.75.78-7.47,1.14-11.21.45-3.58,1.08-7.36,3.25-10.35,2.11-2.69,5.11-4.02,8.34-4.6-1.99-2.16-3.05-5.23-3.07-8.18-1.13,1.89-3,2.25-3.58-.95-.23-1.29-.13-2.59.18-3.85.02-.07.05-.11-.03-.14-2.09-1.15-1.04-4.5.42-5.79.91-.86,2.17.09,3.17-.47.31-.44.46-1.01.85-1.42.35-.41.87-.77,1.44-.71.92.12,1.97.5,2.78-.16.44-.39.85-.91,1.32-1.32-.05,0-.11,0-.16,0-.08,0-.16.02-.24.02-.21,0-.39-.11-.54-.26-.19-.19-.32-.45-.41-.7-.16-.43-.23-.91-.23-1.38,0-.63.11-1.35.48-1.89.12-.18.29-.35.5-.42.11-.04.25-.04.37-.04.28-.02.56-.03.84-.04,1.14-.04,2.27.02,3.41.1,2.39.16,4.79.46,7.09,1.13,1.12.33,2.24.7,3.32,1.14,1.14.46,2.23,1.02,3.3,1.62,1.01.57,2.02,1.14,3.01,1.75.96.6,1.89,1.25,2.8,1.9,1.87,1.34,3.72,2.7,5.3,4.37.77.82,1.5,1.69,2.18,2.6.68.91,1.31,1.84,1.93,2.79.66,1,1.3,2.01,1.84,3.07.59,1.14,1.03,2.36,1.38,3.6.36,1.26.61,2.54.82,3.83.22,1.37.39,2.75.49,4.14Z"/>
      <path class="cls-3" d="M137.45,137.93c.29-.48.55-.98.81-1.47-.32-.12-.66-.21-1-.29-.3.04-.61.05-.93.05-.16,0-.32-.01-.48-.02-1.2.16-2.36.59-3.46,1.12.84,1,1.61,2.22,1.97,2.77.22.34.44.77.64,1.1,1.02-.89,1.75-2.11,2.45-3.26ZM143.69,120.19c.11-.07.21-.1.31-.1-.51-.82-1.16-1.55-1.85-2.18-.27-.21-.59-.43-.94-.35-.25.06-.49.18-.75.17-.98-.13-1.03-1.38-1.38-2.09-1.38-1.52-3.48-2.38-5.49-2.66-2.3-.3-4.5.89-6.05,2.51,1.83.41,1.8,3.13.58,4.21-.7.67-1.54,1.19-2.15,1.94-.61.92-1.19,1.95-1.29,3.07-.09,1.09.81,1.86,1.8,2.08-.21-1.67-.12-3.38.52-4.94.25-.52.48-1.22,1.07-1.44.59-.14.75.72.75,1.12-.04.7-.26,1.38-.28,2.09-.11,1.93.37,4.12,1.85,5.48,1.48,1.37,3.38,2.34,5.39,2.46h.01c.43-.05.86-.06,1.28-.04h0c3.41-.39,5.23-3.57,5.56-6.79.39-1.45-.13-3.42,1.06-4.52ZM149.23,161.54c0-.2-.01-.39-.03-.57-.07-3.38-.47-6.74-1.05-10.07-.6-3.55-1.88-7.02-4.14-9.86-.89-1.18-1.95-2.3-3.16-3.2-.96,2.47-4.34,8.28-6.01,8.13-1.24-.18-1.5-1.76-2.19-2.62-.73-1.18-1.64-2.22-2.4-3.38-.24-.36-.45-.75-.61-1.16-2.57,1.52-4.66,3.76-6.35,6.21-3.29,4.74-4.26,10.56-5.62,16.05,0,.04-.01.07-.02.11,2.55,1.56,5.33,2.74,8.22,3.5-.05-1.8.17-3.93.15-4.77.17-3.05.28-6.11.6-9.15.14-.68.32-1.73,1.13-1.85,1.22.16,1.18,2.62,1.08,3.54-.21,2.71-.39,5.41-.53,8.12-.07.62-.12,2.8-.4,4.57.42.09.84.16,1.27.22,1.56.24,3.14.34,4.72.34,1.16-.02,2.32-.07,3.47-.21.82-.09,1.62-.22,2.43-.39-.37-3.53-.11-9.2-.26-10.8-.03-1.11-.05-2.23-.09-3.34-.05-.92-.12-1.9.31-2.75.8-1.45,1.85-.25,1.96.9.26,2.73.18,5.49.25,8.23-.05.86.1,4.49-.12,7.27,1.76-.48,3.48-1.11,5.13-1.89.77-.37,1.53-.77,2.27-1.2ZM162.78,144.98c1.12-3.43,1.62-7.06,1.37-10.66-.22-3.25-1.01-6.42-2.29-9.41-1.22-2.85-2.92-5.47-4.95-7.81-2.35-2.72-5.23-4.97-8.38-6.7-3.88-2.14-8.24-3.4-12.66-3.72-1.91-.14-3.83-.1-5.73.11-.75.09-1.49.2-2.23.34-.21.04-.41.08-.62.12-.14.03-.3.08-.46.08-.23,0-.44-.11-.61-.26-.13-.12-.24-.27-.33-.42-.06-.11-.11-.21-.15-.33h0s-.16.06-.18.07c-.06.03-.13.05-.2.07-.12.05-.25.1-.38.15-.23.1-.45.2-.68.29-1.57.62-3.14,1.23-4.64,2-1.43.73-2.83,1.58-4.11,2.55-1.32,1.01-2.58,2.09-3.71,3.32-.55.6-1.09,1.23-1.6,1.87-.48.6-.91,1.24-1.33,1.89-.55.86-1.11,1.72-1.62,2.61-.46.8-.86,1.64-1.24,2.49-.44.98-.86,1.96-1.18,2.98-.35,1.1-.64,2.21-.88,3.34-.5,2.34-.72,4.75-.64,7.14.07,1.98.36,3.95.83,5.88.89,3.69,2.57,7.2,4.81,10.26,1.93,2.65,4.29,4.97,6.96,6.86-.04-2.52.63-5,1.2-7.44,1.68-7.54,5.73-15.12,12.75-18.85-1.43-1.21-2.5-2.79-2.98-4.64-1.89.7-3.21-1.87-3.37-3.48-.35-2.39.57-4.8,1.95-6.73-.46-.2-.98-.29-1.41-.53-.99-.91-.89-2.7-.23-3.78.57-.79,1.42-1.35,2.13-2.01.95-.84,1.93-1.66,3.02-2.33,3.89-2.74,9.8-.97,11.8,3.28,1.67-1.09,3.55,1.68,4.47,2.8,2.26,3.23,2.68,7.82.73,11.3-.3.53-.66,1.01-1.05,1.47-.2.21-.46.48-.79.44-.04,0-.07-.01-.1-.02-.5,1.48-1.25,2.91-2.26,4.07,1.95,1.47,3.5,3.47,4.83,5.51,2.86,4.5,3.77,9.87,4.38,15.08.25,1.95.39,3.91.46,5.87,2.06-1.45,3.95-3.16,5.58-5.08,2.5-2.95,4.48-6.34,5.68-10.02ZM166.66,132.34c.43,3.94.18,7.96-.71,11.82-.94,4.09-2.62,7.97-4.93,11.47-2.38,3.59-5.45,6.69-9,9.12-3.57,2.45-7.66,4.14-11.91,4.99-2,.4-4.07.62-6.12.62h-.16c-4.46,0-8.92-.89-13.02-2.66-3.73-1.61-7.14-3.89-10.05-6.73-2.88-2.81-5.25-6.14-6.98-9.77-1.81-3.82-2.91-7.98-3.25-12.2-.19-2.38-.13-4.78.16-7.15.3-2.49.88-4.97,1.77-7.32.42-1.11.86-2.2,1.38-3.27.42-.86.9-1.7,1.4-2.53.58-.98,1.21-1.93,1.92-2.82.44-.55.9-1.08,1.38-1.59,1.1-1.19,2.25-2.31,3.49-3.35,1.39-1.17,2.87-2.22,4.41-3.17,1.36-.84,2.8-1.57,4.28-2.19.79-.33,1.58-.63,2.39-.88.46-.14.93-.26,1.39-.34.24-.04.48-.08.73-.12.07-.01.14-.02.2-.04.22-.04.12.02.24-.33.18-.51.44-1.09,1.01-1.24.38-.1.79-.16,1.17-.23.45-.08.89-.14,1.33-.21.93-.13,1.87-.22,2.81-.27,2.16-.1,4.33,0,6.47.32,4.16.63,8.17,2.04,11.8,4.18,3.27,1.92,6.17,4.41,8.6,7.31,2.09,2.49,3.79,5.3,5.09,8.28,1.42,3.27,2.31,6.75,2.7,10.29Z"/>
      <path class="cls-3" d="M102.98,173.32c.07-.88-.09-1.78-.39-2.61-.16-.46-.35-.91-.59-1.35-.21-.39-.47-.76-.74-1.12-.31-.4-.63-.79-1-1.14-.27-.27-.57-.51-.88-.74-1.27-.96-2.73-1.65-4.31-1.93-.91-.16-1.84-.15-2.75-.05-.82.09-1.63.38-2.41.66l-.27.11c-.16.06-.31.14-.48.12-.12-.02-.26,0-.39.02-.04,0-.08.01-.12.02-.02,0-.05-.02-.07-.02-.03,0-.05,0-.08.02-.07.04-.13.11-.19.16-.33.29-.62.61-.9.93-.54.63-1.07,1.28-1.48,2.01-.45.8-.83,1.66-1.02,2.57-.18.87-.14,1.79.04,2.66.39,1.82,1.43,3.48,2.74,4.77,1.28,1.25,2.95,2.14,4.73,2.36.52.06,1.04.1,1.55.1,1.78-.04,3.56-.57,5.04-1.56.62-.41,1.2-.87,1.71-1.41.55-.56,1-1.22,1.36-1.91.23-.45.45-.9.61-1.38.14-.42.22-.88.25-1.32ZM105.04,171.49c.12,2.2-.2,4.4-1.06,6.43-.74,1.75-1.99,3.27-3.49,4.42-.73.56-1.55.98-2.4,1.32-.81.32-1.66.5-2.52.62-.26.04-.53.07-.79.07-.95,0-1.87-.06-2.8-.27-.92-.22-1.82-.56-2.67-.98-1.8-.89-3.36-2.3-4.37-4.05-.27-.46-.48-.96-.69-1.46-.21-.5-.38-1.02-.5-1.55-.25-1.11-.37-2.25-.32-3.39.02-.52.07-1.03.14-1.54.07-.44.17-.88.27-1.31.22-.98.59-1.95,1.08-2.83.43-.78.97-1.48,1.6-2.11.34-.34.71-.62,1.12-.88.18-.11.36-.23.54-.33.05-.03.09-.04.12-.09.05-.08.1-.15.16-.22.12-.14.25-.27.35-.42.14-.2.34-.33.55-.46.19-.12.38-.23.57-.33.37-.19.76-.35,1.15-.48.79-.26,1.62-.46,2.45-.53,1.68-.14,3.39,0,4.96.64.81.33,1.59.74,2.27,1.29.39.3.78.62,1.13.98.39.39.75.82,1.06,1.27.6.87,1.12,1.84,1.45,2.84.19.58.35,1.15.46,1.75.1.53.15,1.06.18,1.6Z"/>
      <path class="cls-3" d="M74.5,177.15c.88-1.43,1.36-3.07,1.26-4.75-.05-.88-.27-1.73-.63-2.54-.15-.34-.32-.66-.52-.97-.27-.43-.6-.8-.95-1.15-.57-.59-1.15-1.15-1.83-1.6-.7-.46-1.47-.84-2.25-1.12-.22-.08-.45-.16-.67-.23-.23-.07-.45-.16-.67-.23-.12-.04-.24-.09-.36-.13-.08-.03-.17-.05-.25-.07-.39-.1-.72-.36-.89-.73-.02-.06-.04-.11-.07-.17,0-.05-.01-.06-.05-.04h0s-.1.02-.13.02c-.12.02-.23.04-.35.07-.2.04-.39.11-.58.15-.39.09-.78.16-1.16.25-.95.25-1.83.63-2.68,1.1-.18.1-.37.19-.54.3-.24.16-.48.34-.7.52-.34.27-.64.58-.93.9-1.13,1.24-1.84,2.79-2.11,4.45-.06.38-.09.75-.1,1.13-.01.4-.02.8.03,1.2.1.96.38,1.89.8,2.76.19.38.4.75.6,1.13.2.37.46.71.74,1.01.68.73,1.5,1.34,2.38,1.82.36.2.74.38,1.12.53s.78.27,1.18.38c.41.12.82.22,1.25.27.37.05.73.05,1.11.05.82,0,1.64-.1,2.43-.3.72-.19,1.39-.46,2.05-.8.77-.39,1.47-.92,2.1-1.52.53-.52,1-1.09,1.39-1.71ZM77.32,170.44c.18.93.29,1.89.25,2.84-.05,1.02-.17,2.02-.44,3.01-.47,1.71-1.34,3.29-2.52,4.62-1.11,1.25-2.52,2.23-4.08,2.82-1.13.43-2.36.69-3.57.69-.86,0-1.72-.12-2.56-.29-.73-.15-1.45-.41-2.13-.74-.96-.47-1.85-1.08-2.62-1.82-.68-.64-1.26-1.36-1.8-2.12-.26-.37-.5-.74-.71-1.14-.23-.45-.43-.92-.59-1.4-.34-1.02-.55-2.07-.62-3.14-.11-1.8.18-3.62.94-5.26,1.51-3.29,4.63-6,8.32-6.37.41-.04.81.02,1.22.07.05,0,.11.01.16.02.16.02.1.05.18-.14.13-.28.37-.52.67-.62.24-.08.49-.04.74-.07.19-.02.4,0,.59.01.27.02.53.07.79.12.46.11.91.25,1.36.44.79.33,1.51.78,2.2,1.27.72.52,1.41,1.16,1.92,1.89.54.78,1.04,1.61,1.43,2.48.41.9.7,1.85.89,2.82Z"/>
      <path class="cls-3" d="M72.17,173.54c-.05-.47-.1-.94-.28-1.38-.29-.59-.97-.79-1.55-.97-.46-.16-.92-.32-1.4-.39-2.98-.74-6.75-.27-7.49,3.2.17-.05.36-.07.54-.07.55.01,1.11.04,1.66.03.13,0,.1.02.09-.19-.02-.69-.07-1.47.42-2.02.21-.23.56-.25.84-.14,1.16.14,2.33-.14,3.49-.06,1.59-.04,1.97.49,2.07,2.03-.02.07,0,.1.07.08.52-.05,1.04-.06,1.55-.12ZM71.69,168.81c1.38,1.02,2.21,2.77,2.2,4.48-.03.59-.03,1.53-.58,1.86-.09.3-.25.55-.48.63-.65,0-1.31-.01-1.96.04-.3-.05-.58.12-.87.13-.91-.26-.8-1.5-.86-2.25-.69-.13-1.42-.12-2.12-.11-.6,0-1.2.06-1.79.15-.06,0-.08-.01-.09.06-.11.64-.01,1.57-.67,1.93-.18.07-.32-.07-.5-.05-.57.05-1.15,0-1.72.05-.38.04-.8.22-1.16.02-.11-.07-.19-.17-.24-.29-.02,0-.04,0-.06,0-.68-.5-.08-2.13.09-2.83.64-2.94,3.1-3.73,5.79-3.92,1.01-.16,2.04-.23,3.06-.24.68-.03,1.38-.07,1.98.31Z"/>
      <path class="cls-3" d="M95.51,171.1c.48,1.29.19,3.76-1.49,3.93-1.38-.27-1.66-2.09-1.47-3.27.07-.76.8-1.97,1.66-1.31.54-.54,1.12.12,1.29.65Z"/>
      <path class="cls-3" d="M99.49,171.44c.71,1.02.38,3.89-1.11,4-1.92-.3-1.81-5.38.38-5.1.53.13.56.68.73,1.09Z"/>
      <path class="cls-3" d="M90.04,170.95c.33.66.38,1.5.26,2.21-.29,2.28-2.55,2.91-3.01.33-.17-.97.02-2.39,1.11-2.73.45-.82,1.3-.57,1.63.19Z"/>
    </g>
  </g>
</svg>