<?xml version="1.0" encoding="UTF-8"?>
<svg id="Calque_1" xmlns="http://www.w3.org/2000/svg" version="1.1" xmlns:xlink="http://www.w3.org/1999/xlink" viewBox="0 0 139.7 176.3">
  <!-- Generator: Adobe Illustrator 29.3.1, SVG Export Plug-In . SVG Version: 2.1.0 Build 151)  -->
  <defs>
    <style>
      .st0 {
        fill-opacity: .9;
      }

      .st0, .st1 {
        fill: #0f0e54;
      }

      .st2, .st3, .st1 {
        fill-opacity: .2;
      }

      .st2, .st4 {
        fill: #27ccbc;
      }

      .st5, .st6 {
        fill: none;
      }

      .st3 {
        fill: #4bbab3;
      }

      .st4 {
        fill-opacity: .3;
      }

      .st7 {
        fill: url(#Dégradé_sans_nom);
      }

      .st6 {
        stroke: #27ccbc;
        stroke-opacity: .1;
        stroke-width: .6px;
      }
    </style>
    <clipPath id="clippath">
      <path class="st5" d="M19.7,16C31.1,6.1,44,6.2,56.2,5.4c5.6-.4,10.8-2.2,16.3-3.6,3.1-.7,6.2,1.3,8.9,2.6,8.8,4.6,17.3,12,24.8,19.8,8.1,8.5,16.6,20,18.3,35.8,1.9,17.3-9.6,33-16.7,45.6-4.2,7.4-8.3,14.2-13.8,19.1-4.7,4.2-10.1,7-15.2,9.2-11.1,4.7-23.5,6.4-34.2,2.6-5.7-2-9.6-7.5-13.1-14.1-3.4-6.3-6.8-12.8-10.1-19.1-3.7-7-7.3-13.9-11-20.9-3.1-5.8-6.6-11.6-8-19.1,0-.3,0-.4,0-.7-.2-.7-.3-1.5-.4-2.3C.1,42.2,9.1,25.2,19.6,16h0Z"/>
    </clipPath>
    <clipPath id="clippath-3">
      <path class="st5" d="M19.7,16C31.1,6.1,44,6.2,56.2,5.4c5.6-.4,10.8-2.2,16.3-3.6,3.1-.7,6.2,1.3,8.9,2.6,8.8,4.6,17.3,12,24.8,19.8,8.1,8.5,16.6,20,18.3,35.8,1.9,17.3-9.6,33-16.7,45.6-4.2,7.4-8.3,14.2-13.8,19.1-4.7,4.2-10.1,7-15.2,9.2-11.1,4.7-23.5,6.4-34.2,2.6-5.7-2-9.6-7.5-13.1-14.1-3.4-6.3-6.8-12.8-10.1-19.1-3.7-7-7.3-13.9-11-20.9-3.1-5.8-6.6-11.6-8-19.1,0-.3,0-.4,0-.7-.2-.7-.3-1.5-.4-2.3C.1,42.2,9.1,25.2,19.6,16h0Z"/>
    </clipPath>
    <linearGradient id="Dégradé_sans_nom" data-name="Dégradé sans nom" x1="31.8" y1="265.3" x2="97.9" y2="150" gradientTransform="translate(0 271.7) scale(1 -1)" gradientUnits="userSpaceOnUse">
      <stop offset="0" stop-color="#4bbab3"/>
      <stop offset=".1" stop-color="#44bdb5" stop-opacity=".6"/>
      <stop offset=".3" stop-color="#3bc2b7" stop-opacity=".4"/>
      <stop offset="1" stop-color="#27ccbc" stop-opacity="0"/>
    </linearGradient>
    <clipPath id="clippath-6">
      <polygon class="st5" points="38.8 111.7 8.9 126.1 27.2 135.5 26.3 148.3 73.8 173 117.7 148.3 117.7 135.5 135.7 126.1 131.1 123.3 112.2 115.1 83.3 103.2 81.7 105.6 78.1 118.7 71.7 130.9 67.1 120.6 61.3 103.2 38.8 111.7"/>
    </clipPath>
    <clipPath id="clippath-9">
      <polygon class="st5" points="61.6 92.5 66.8 84.3 72.6 82.8 77.5 84.3 82.3 91.6 82.3 105.3 78.4 118.7 72.6 129.7 65.3 117.5 61.6 105.3 61.6 92.5"/>
    </clipPath>
    <clipPath id="clippath-12">
      <polygon class="st5" points="64.7 26.4 72 19.1 75.3 20.9 86.3 37.4 89 50.5 91.5 51.4 100.3 57.2 105.2 68.8 104.3 82.8 98.5 94.7 96.1 77.6 92.4 72.1 89.7 70.9 89 75.8 81.1 72.1 74.7 70.9 68.3 70.9 60.7 73 57.4 75.8 54.9 75.8 54 70.9 52.2 72.1 50.3 75.8 47.3 82.8 47.3 89.2 45.5 95.3 43.6 92.8 40.6 85.2 38.8 77.6 38.8 70.9 40.6 66 42.4 60.8 45.5 56 49.1 53.2 54.9 51.4 55.8 48.6 57.4 41 60.7 33.4 64.7 26.4"/>
    </clipPath>
  </defs>
  <g>
    <path class="st3" d="M19.7,16C31.1,6.1,44,6.2,56.2,5.4c5.6-.4,10.8-2.2,16.3-3.6,3.1-.7,6.2,1.3,8.9,2.6,8.8,4.6,17.3,12,24.8,19.8,8.1,8.5,16.6,20,18.3,35.8,1.9,17.3-9.6,33-16.7,45.6-4.2,7.4-8.3,14.2-13.8,19.1-4.7,4.2-10.1,7-15.2,9.2-11.1,4.7-23.5,6.4-34.2,2.6-5.7-2-9.6-7.5-13.1-14.1-3.4-6.3-6.8-12.8-10.1-19.1-3.7-7-7.3-13.9-11-20.9-3.1-5.8-6.6-11.6-8-19.1,0-.3,0-.4,0-.7-.2-.7-.3-1.5-.4-2.3C.1,42.2,9.1,25.2,19.6,16h0Z"/>
    <path class="st6" d="M2.5,62.8h0c-.2-.7-.3-1.5-.4-2.3h0s0-.9,0-.9C.7,41.8,9.5,25.3,19.7,16.4h.2C31.2,6.5,44,6.5,56.2,5.7h0c5.6-.4,10.9-2.2,16.4-3.6h0c1.5-.4,2.9,0,4.4.5,1.5.6,2.9,1.4,4.3,2.1h0c8.8,4.6,17.2,11.9,24.7,19.7h0c7.9,8.3,16.3,19.5,18.1,34.9v.7c1,8.6-1.4,16.8-4.9,24.4-3.5,7.6-8.1,14.7-11.7,21h0c-4.1,7.1-8,13.7-13.3,18.6l-.5.5c-4.4,3.9-9.3,6.6-14.1,8.7l-1,.4c-11,4.7-23.4,6.4-34,2.6-5.6-2-9.4-7.4-13-13.9h0c-3.4-6.3-6.7-12.8-10.1-19.1-3.7-7-7.3-13.9-11-20.9-3.1-5.8-6.6-11.5-8-18.9,0-.2,0-.3,0-.4,0-.1,0-.2,0-.3h0Z"/>
  </g>
  <g>
    <path class="st7" d="M19.7,16C31.1,6.1,44,6.2,56.2,5.4c5.6-.4,10.8-2.2,16.3-3.6,3.1-.7,6.2,1.3,8.9,2.6,8.8,4.6,17.3,12,24.8,19.8,8.1,8.5,16.6,20,18.3,35.8,1.9,17.3-9.6,33-16.7,45.6-4.2,7.4-8.3,14.2-13.8,19.1-4.7,4.2-10.1,7-15.2,9.2-11.1,4.7-23.5,6.4-34.2,2.6-5.7-2-9.6-7.5-13.1-14.1-3.4-6.3-6.8-12.8-10.1-19.1-3.7-7-7.3-13.9-11-20.9-3.1-5.8-6.6-11.6-8-19.1,0-.3,0-.4,0-.7-.2-.7-.3-1.5-.4-2.3C.1,42.2,9.1,25.2,19.6,16h0Z"/>
    <path class="st6" d="M2.5,62.8h0c-.2-.7-.3-1.5-.4-2.3h0s0-.9,0-.9C.7,41.8,9.5,25.3,19.7,16.4h.2C31.2,6.5,44,6.5,56.2,5.7h0c5.6-.4,10.9-2.2,16.4-3.6h0c1.5-.4,2.9,0,4.4.5,1.5.6,2.9,1.4,4.3,2.1h0c8.8,4.6,17.2,11.9,24.7,19.7h0c7.9,8.3,16.3,19.5,18.1,34.9v.7c1,8.6-1.4,16.8-4.9,24.4-3.5,7.6-8.1,14.7-11.7,21h0c-4.1,7.1-8,13.7-13.3,18.6l-.5.5c-4.4,3.9-9.3,6.6-14.1,8.7l-1,.4c-11,4.7-23.4,6.4-34,2.6-5.6-2-9.4-7.4-13-13.9h0c-3.4-6.3-6.7-12.8-10.1-19.1-3.7-7-7.3-13.9-11-20.9-3.1-5.8-6.6-11.5-8-18.9,0-.2,0-.3,0-.4,0-.1,0-.2,0-.3h0Z"/>
  </g>
  <path class="st2" d="M38.8,111.7l-29.9,14.3,18.3,9.4-.9,12.8,47.5,24.7,43.9-24.7v-12.8l18-9.4-4.6-2.7-18.9-8.2-29-11.9-1.5,2.4-3.7,13.1-6.4,12.2-4.6-10.4-5.8-17.4-22.6,8.5Z"/>
  <path class="st4" d="M61.6,92.5l5.2-8.2,5.8-1.5,4.9,1.5,4.9,7.3v13.7l-4,13.4-5.8,11-7.3-12.2-3.7-12.2v-12.8Z"/>
  <path class="st1" d="M64.7,26.4l7.3-7.3,3.4,1.8,11,16.5,2.7,13.1,2.4.9,8.8,5.8,4.9,11.6-.9,14-5.8,11.9-2.4-17.1-3.7-5.5-2.7-1.2-.6,4.9-7.9-3.7-6.4-1.2h-6.4l-7.6,2.1-3.4,2.7h-2.4l-.9-4.9-1.8,1.2-1.8,3.7-3,7v6.4l-1.8,6.1-1.8-2.4-3-7.6-1.8-7.6v-6.7l1.8-4.9,1.8-5.2,3-4.9,3.7-2.7,5.8-1.8.9-2.7,1.5-7.6,3.4-7.6,4-7Z"/>
  <path class="st0" d="M137.7,125.7s-.3-.2-2.6-1.5c-.6-.3-1-.6-1.2-.7-3-1.9-6.5-3.4-9.9-4.9-2.3-1-4.4-2-6.5-3l-1.7-.9c-3.2-1.7-6.5-3.4-10.1-4.9-5.8-2.5-11.9-4.6-17.8-6.6l-3.5-1.2-.2-.4c.9-6,.6-10.9-3.4-15.6-4.5-5.2-9.7-6-14.6-2.4-6.2,4.5-6.6,10.8-6.3,16.8,0,.3,0,.6.1.9,0,.4.2.7,0,.8-8.5,2.7-18.5,6.1-28,10.6-2,1-4.1,2.1-6,3.1-1.5.8-3,1.7-4.6,2.5-1.4.7-2.8,1.3-4.1,1.8-1.8.8-3.7,1.6-5.4,2.6l-.8.4c-2.3,1.2-4,2.2-4,3.5,0,1.1,1.1,2.1,3.8,3.5l14.5,6.6c-.3,2.7-.3,5.6-.3,8.4v1.3c0,.4.1.7.2.9,0,.1.1.4.1.4,0,0-.1.2-.2.2-.1.2-.4.5-.3.9.1,1.1,2,2.1,4.5,3.3.6.3,1.1.5,1.4.7,5.5,3.2,11,6.1,16.7,9.1l3.4,1.8c1.9,1,4,2.2,6.2,3.5,4.4,2.5,8.8,5.1,12.6,6.6,1,.4,1.8.5,2.5.5,1.5,0,2.7-.6,4.1-1.3.4-.2.8-.4,1.2-.6,11.4-5.4,24.2-12.2,36.1-19.5.3-.2,1-.5,1.8-.8,2.2-1,3.9-1.7,4.2-2.6v-.2c.4-3.8.3-8-.2-12.5,1-.6,5.7-2.7,8.5-3.9,1.9-.8,3.4-1.5,4-1.8,0,0,5.4-2.9,5.8-3.6.3-.6.3-1.2,0-1.7ZM64.9,90.8c.7-1.3,3.8-5.4,4.7-5.9.6-.3,1.5-.4,2.5-.4s1.9.1,2.5.4c2.4,1.1,5.7,7.2,6.2,10,1,5.3-1.3,13.5-3.6,20.7-1,3-2.4,6-3.7,8.8-.4.9-.9,1.7-1.2,2.6l-4.8-10.6c-.4-2-1-4-1.7-6-2-6.6-4.1-13.5-.8-19.7ZM11.7,127h0c.5-.4.9-.7,1.2-1.1.3-.3.6-.5.9-.7.6-.4,1.6-.8,2.5-1.3.4-.2.8-.4,1.1-.5,2.5-1.2,5.1-2.2,7.6-3.3,1-.4,2.1-.9,3.2-1.3,14.7,7.5,28,13.4,40.6,18.2l-12.7,10.1c-1.9-.9-3.9-1.8-5.7-2.6-1.4-.6-2.9-1.1-4.2-1.8-.6-.3-1.2-.6-1.8-.9-.6-.4-1.2-.7-1.8-1-2.3-1-4.5-2.1-6.8-3.1-7.8-3.7-15.9-7.4-24.1-10.7ZM28.5,147.4c.7-2.9.5-5.9.2-8.9l27.1,12.5h.3c1.1,0,3.1-1.4,5.2-3,.3-.3.6-.4.8-.6,2.2-1.6,5.5-4,8.1-6.3,0,0,0,0,0,0l.3,1.1c-.2,5.2,0,10.5.1,15.6,0,1.6,0,3.2.1,4.8,0,.9,0,1.9,0,2.8,0,1.7,0,3.4,0,5.1l-42.4-23ZM72.1,134.9c-.2,0-.4-.2-.7-.3-.4-.2-.9-.4-1.3-.6-1.8-.8-3.7-1.5-5.5-2.2-1.6-.6-3.3-1.2-4.9-1.9-5.8-2.5-11.7-5.3-17.4-7.9-2.3-1.1-4.7-2.2-7-3.3-.6-.3-1.2-.5-1.8-.7-.9-.3-1.7-.6-2.4-1,2.3-.8,4.5-1.9,6.7-2.9,1.9-.9,3.8-1.8,5.7-2.6,4.2-1.7,8.7-3.1,13-4.5,1.5-.5,3-1,4.5-1.5,1.8,7.9,4,16.2,8.3,23.8l.2.4c.5.9,1,1.8,1.7,2.5.2.3.5.5.8.7l.4.3.4-.3c.3-.3.7-.6.9-.9.9-.9,1.4-2,1.9-3.1l.4-.8c4-7.5,6.2-15.3,7.9-22.7,2.2.8,4.5,1.5,6.7,2.2,3.3,1.1,6.7,2.2,9.9,3.4,6,2.4,10.3,4.2,13.3,5.7-1,.3-2.1.7-3,1.1-3.9,1.7-7.8,3.5-11.6,5.3-4.5,2.1-9.1,4.3-13.7,6.2-1.8.8-3.6,1.4-5.4,2.1-1.9.7-3.8,1.4-5.7,2.2-.3,0-.7.3-1,.4-.4.2-.8.4-1.1.6ZM74.3,150.9c0-3.3,0-6.6,0-9.9l12.9,9.9h.2c1.7.4,3.8-.7,5.7-1.7.7-.4,1.2-.7,1.8-.9,8.1-3.6,14.7-6.7,20.7-9.8v2.6c0,2,0,4,0,6.1v.3c0,0,.2,0,.2,0l-41.8,22.7c.5-6.3.4-12.9.4-19.2ZM132.8,127c-1.9,1-4.4,1.9-6.8,2.8-1.8.7-3.7,1.4-5.4,2.1-4.1,1.8-8.2,3.9-12.2,5.9-4,2-8.1,4-12.3,5.9-1.3.6-2.6,1.1-3.9,1.6-1.2.5-2.6,1-3.8,1.5l-13.3-9.7c1.7-.9,4-1.7,6.3-2.5,1.6-.5,3.2-1.1,4.6-1.7,2.2-1,4.5-2,6.6-3,1.6-.8,3.2-1.5,4.8-2.3,1.7-.7,3.4-1.5,5-2.2,4.6-2,9.3-4,13.7-6.4,1.5.2,10.5,4.2,12.4,5.2,1.4.7,2.2,1.3,3.2,2.1.3.2.6.4,1,.7,0,0,0,0,0,0Z"/>
  <path class="st0" d="M89.7,49.4c-.2-3.1-.8-6.3-1.6-9.3-2-7.5-7.5-14.6-12.6-20.6-.1-.1-.3-.4-.4-.7-.2-.4-.5-.9-.8-1.1-.6-.6-1.4-.7-2.2-.7s-1.9.5-2.5,1.2c-3.4,3.7-7.7,9.9-10.1,14-2.9,5-3.9,10.1-4.8,15.4l-.3,1.8c-12.1,2.3-17.8,14.9-17.2,26.2.4,6.2,3.3,16.5,7.2,21.8.6.7,1.2,1.2,1.9,1.2.4,0,1.1,0,1.7-.7h.1v-.4c0-1.2,0-2.5.1-3.8.2-7.1.4-14.5,4.9-19.9v.4c0,1.2.2,3.2,1.9,3.2.5,0,1.6-.5,4.6-2,1-.5,2-1,2.4-1.1,6.7-2.6,12.6-2.7,19.2-.3,1.4.5,2.7,1.1,3.9,1.7,1.1.6,2.3,1.1,3.5,1.6h.4c1.7-.4,1.8-1.8,1.8-2.9,0-.3,0-.5,0-.7,2.5,2.5,3.4,6,3.9,8.8.4,2.3.8,5.4,1,8.1,0,.4,0,1.2,0,2,0,2.7-.1,4.5.4,5.2.4.5.9.8,1.5.8s1.4-.4,1.9-1c3.4-4.3,6.8-15.8,7.2-20.7.9-11.7-4.1-25.2-17.3-27.6ZM52.7,69.5c-6.4,4-7.5,12-7.7,20l-.2,1.1c-3.9-9.3-6.7-21.8.8-31.9,1.6-2.1,5-5.5,8.5-5.5h0c-.8,4.8-1.2,10-1.4,16.3ZM68.3,24.6s.3-.5.6-.7c.9-1.2,2-2.8,3.2-2.9,0,0,.1,0,.2,0,.3,0,.7.1,1,.4.7.6,2.7,3.2,3.6,4.4l.4.6c3.9,5.1,7.9,11.1,8.6,17.9l-5.8.2c-.8-1.9-2.4-4.9-5.7-6.3-.7-.3-1.5-.4-2.2-.4s-1.6.1-2.4.5c-2.7,1.1-4.8,3.9-5.8,6.1h-5.8c.8-7.4,5.5-14.1,10-19.7ZM77.6,46.7c0,1-.5,1.7-1.3,2.2-1.4,1-6.5.9-8,.1-1.8-1-1.7-2.9-1.5-3.6.4-2,2-3.8,3.7-4,1.6-.2,4.2-.1,5,.6,1.1,1,2.2,2.9,2.1,4.7ZM57.4,49.5c0-.6.2-1.1.3-1.7,0-.4.1-.7.2-1.1l5.7.7c.1,1.6.8,2.9,1.9,3.8,2.2,1.8,5.9,2,8.7,1.8,3.4-.3,5.9-2.3,6.5-5.4l5.7-.6,1.9,16c.1,3.2-.1,6.5-.4,9.6,0,.5,0,1.1-.1,1.5-4.6-3.2-10.1-4.8-15.6-4.8s-11,1.6-15.7,4.8c-.1-2.7-.2-5.3-.2-7.9,0-4.8.4-10.5,1.2-16.7ZM99.5,90.6c-.3-7.4-.9-16.4-7.9-21.4l-1.2-16.1h.2c1.2,0,2.1.4,3.2,1,4.6,2.5,8.1,8.9,9.2,13.7,1.4,6.5.2,13.9-3.5,22.8Z"/>
</svg>