<?xml version="1.0" encoding="UTF-8"?>
<svg id="Calque_1" xmlns="http://www.w3.org/2000/svg" version="1.1" xmlns:xlink="http://www.w3.org/1999/xlink" viewBox="0 0 153.1 204.1">
  <!-- Generator: Adobe Illustrator 29.3.1, SVG Export Plug-In . SVG Version: 2.1.0 Build 151)  -->
  <defs>
    <style>
      .st0 {
        fill: #27ccbc;
      }

      .st0, .st1, .st2 {
        fill-opacity: .2;
      }

      .st3 {
        stroke: #27ccbc;
        stroke-opacity: .2;
        stroke-width: .8px;
      }

      .st3, .st4 {
        fill: none;
      }

      .st1 {
        fill: #4bbab3;
      }

      .st5 {
        fill: #161a59;
        fill-opacity: .8;
      }

      .st6 {
        fill-opacity: .9;
      }

      .st6, .st7, .st8, .st9, .st2 {
        fill: #0f0e54;
      }

      .st10 {
        fill: url(#Dégradé_sans_nom);
      }

      .st7 {
        stroke: #0f0e54;
        stroke-miterlimit: 10;
        stroke-width: 1.9px;
      }

      .st9 {
        fill-opacity: .9;
      }
    </style>
    <clipPath id="clippath">
      <path class="st4" d="M26.3,30.5c12.1-9.7,26-9.6,39-10.2,5.9-.3,11.5-2.1,17.5-3.4,3.3-.7,6.6,1.3,9.6,2.7,9.5,4.6,18.6,11.9,26.8,19.7,8.7,8.4,18,19.9,19.9,35.5,2.1,17.1-10,32.5-17.6,44.9-4.4,7.2-8.8,13.9-14.7,18.8-5,4.2-10.8,6.8-16.2,8.9-11.8,4.6-25.2,6.2-36.7,2.4-6.2-2-10.3-7.5-14.2-14-3.7-6.3-7.3-12.6-11-19-4-6.9-8-13.8-12-20.7-3.4-5.8-7.2-11.5-8.7-18.9,0-.2,0-.4,0-.7-.2-.7-.3-1.4-.4-2.2-1.9-18.1,7.6-34.8,18.7-43.8h0Z"/>
    </clipPath>
    <clipPath id="clippath-3">
      <path class="st4" d="M26.3,30.5c12.1-9.7,26-9.6,39-10.2,5.9-.3,11.5-2.1,17.5-3.4,3.3-.7,6.6,1.3,9.6,2.7,9.5,4.6,18.6,11.9,26.8,19.7,8.7,8.4,18,19.9,19.9,35.5,2.1,17.1-10,32.5-17.6,44.9-4.4,7.2-8.8,13.9-14.7,18.8-5,4.2-10.8,6.8-16.2,8.9-11.8,4.6-25.2,6.2-36.7,2.4-6.2-2-10.3-7.5-14.2-14-3.7-6.3-7.3-12.6-11-19-4-6.9-8-13.8-12-20.7-3.4-5.8-7.2-11.5-8.7-18.9,0-.2,0-.4,0-.7-.2-.7-.3-1.4-.4-2.2-1.9-18.1,7.6-34.8,18.7-43.8h0Z"/>
    </clipPath>
    <linearGradient id="Dégradé_sans_nom" data-name="Dégradé sans nom" x1="23.2" y1="228.2" x2="116.7" y2="135.9" gradientTransform="translate(0 261.4) scale(1 -1)" gradientUnits="userSpaceOnUse">
      <stop offset="0" stop-color="#4bbab3" stop-opacity=".6"/>
      <stop offset=".3" stop-color="#35837e" stop-opacity=".4"/>
      <stop offset="1" stop-color="#225451" stop-opacity="0"/>
    </linearGradient>
    <clipPath id="clippath-6">
      <polygon class="st4" points="45.9 108.4 46.7 100.3 51.4 102.3 60.5 106.1 73 108.4 87.9 109.9 104.9 108.4 121.8 105.2 131.2 100.3 132.3 100.8 134.1 114.6 130.6 121.9 132.9 130 139.6 140 141.1 144.1 137.9 145.8 134.1 146.7 132.9 148.2 132.9 152.2 132.9 154.6 130 156 129.7 159.3 127.7 161.9 125.3 163.6 125.3 168 125.6 170.9 124.7 174.2 122.4 176.2 114.5 177.1 102.2 177.1 98.4 177.1 96.4 178.8 96.1 182.3 97.6 186.7 98.4 189.3 92.6 191.1 83 190.2 73 189 61.9 186.1 52 182.3 48.8 180.3 48.2 179.1 50.8 174.7 53.2 169.2 54.9 163.1 54.9 155.8 52 145.8 48.2 133.3 45.9 121.3 45.9 108.4"/>
    </clipPath>
    <clipPath id="clippath-9">
      <polygon class="st4" points="120.6 62.6 118.9 64 115.7 69.6 113.6 76.9 118.9 77.8 120.6 72.5 123.3 66.1 122.4 63.5 120.6 62.6"/>
    </clipPath>
    <clipPath id="clippath-12">
      <polygon class="st4" points="54.6 95 47.6 98.8 48.2 100.3 52.9 102.9 59 105.5 66 107.6 74.5 108.7 86.8 109.3 101.4 108.7 116.3 106.4 126.5 102.9 131.7 99.4 130.6 97.6 125 95 118.6 92.4 106.3 91.5 98.2 89.4 90.6 89.4 73.6 89.4 54.6 95"/>
    </clipPath>
    <clipPath id="clippath-15">
      <path class="st4" d="M95.5,72.2l.9,3.8,1.2,2.3,4.4.9,3.8-3.2,2.6,1.5,2.9,2.6-4.1,4.4,2,3.8,5.8.9,1.2,1.8v4.7l-1.8,1.2-5-.3-1.8,2.9v2.3l2.9,2.3v2.9l-7-.9h-2.6l-3.5,1.5v1.8h-7.9l-2-2.3-3.5-1.2-2,1.8-1.8.9-2.3-.9-.6-2.9,1.5-4.1-2.3-4.1-2-3.5,2-3.8,2.9-4.7-2.9-2v-3.2l1.5-2.6,2.3-.6h.9l2.6,2.6,3.8-.3,1.2-3.2.9-2.9h5.8ZM89.4,85.9l-3.8,3.2-1.2,3.8,2,4.7,3.8,2.6h6.1l4.4-2.6.9-4.7-1.5-3.2-2.6-3.8-5-1.2-3.2,1.2Z"/>
    </clipPath>
    <clipPath id="clippath-18">
      <polygon class="st4" points="75.7 76.9 73.9 71.3 70.1 67.8 64 65.5 55.8 66.1 50.5 69.6 45.6 76 47.9 85.9 55.8 91.5 63.4 91.5 71.6 87.4 74.8 83.3 75.7 76.9"/>
    </clipPath>
    <clipPath id="clippath-21">
      <polygon class="st4" points="132.3 72.5 119.8 91.2 123 93.5 132.3 78.6 135.8 74.3 137.9 71 140.8 69.9 142.8 64.9 142.8 59.7 139 61.7 134.4 64.9 134.4 69.9 132.3 72.5"/>
    </clipPath>
    <clipPath id="clippath-24">
      <polygon class="st4" points="60.8 91.8 57 91.8 57 93.8 57.6 97.6 59.3 101.4 61.4 104.6 66 107.6 69.8 107.6 76 105.8 77.4 102.6 77.4 99.4 76 95.3 74.2 91.2 73 88.9 71.3 88.9 67.8 90.3 65.2 91.2 60.8 91.8"/>
    </clipPath>
  </defs>
  <g>
    <path class="st1" d="M26.3,30.5c12.1-9.7,26-9.6,39-10.2,5.9-.3,11.5-2.1,17.5-3.4,3.3-.7,6.6,1.3,9.6,2.7,9.5,4.6,18.6,11.9,26.8,19.7,8.7,8.4,18,19.9,19.9,35.5,2.1,17.1-10,32.5-17.6,44.9-4.4,7.2-8.8,13.9-14.7,18.8-5,4.2-10.8,6.8-16.2,8.9-11.8,4.6-25.2,6.2-36.7,2.4-6.2-2-10.3-7.5-14.2-14-3.7-6.3-7.3-12.6-11-19-4-6.9-8-13.8-12-20.7-3.4-5.8-7.2-11.5-8.7-18.9,0-.2,0-.4,0-.7-.2-.7-.3-1.4-.4-2.2-1.9-18.1,7.6-34.8,18.7-43.8h0Z"/>
    <path class="st3" d="M8.4,76.5h0c-.2-.6-.3-1.3-.4-1.9v-.3c-1.9-17.9,7.5-34.5,18.6-43.5l.3-.3h0c12-9.3,25.5-9.2,38.5-9.9h0c6-.3,11.6-2.1,17.5-3.4,1.5-.3,3.1,0,4.7.5,1.6.6,3.1,1.4,4.6,2.1h0c9.5,4.5,18.5,11.9,26.7,19.6h0c8.6,8.2,17.6,19.4,19.7,34.5v.7c1.2,8.4-1.3,16.5-5,24-3.7,7.5-8.6,14.4-12.4,20.7h0c-4.4,7.2-8.8,13.9-14.6,18.7-5,4.1-10.7,6.7-16.1,8.9-11.7,4.5-25,6.1-36.4,2.4-5.6-1.9-9.6-6.7-13.2-12.6l-.7-1.2c-3.7-6.3-7.3-12.6-11-19-4-6.9-8-13.8-12-20.7h0s-1.3-2.2-1.3-2.2c-3-5-6-10.2-7.4-16.6,0-.1,0-.3,0-.4,0-.1,0-.2,0-.3h0Z"/>
  </g>
  <g>
    <path class="st10" d="M26.3,30.5c12.1-9.7,26-9.6,39-10.2,5.9-.3,11.5-2.1,17.5-3.4,3.3-.7,6.6,1.3,9.6,2.7,9.5,4.6,18.6,11.9,26.8,19.7,8.7,8.4,18,19.9,19.9,35.5,2.1,17.1-10,32.5-17.6,44.9-4.4,7.2-8.8,13.9-14.7,18.8-5,4.2-10.8,6.8-16.2,8.9-11.8,4.6-25.2,6.2-36.7,2.4-6.2-2-10.3-7.5-14.2-14-3.7-6.3-7.3-12.6-11-19-4-6.9-8-13.8-12-20.7-3.4-5.8-7.2-11.5-8.7-18.9,0-.2,0-.4,0-.7-.2-.7-.3-1.4-.4-2.2-1.9-18.1,7.6-34.8,18.7-43.8h0Z"/>
    <path class="st3" d="M8.4,76.5h0c-.2-.6-.3-1.3-.4-1.9v-.3c-1.9-17.9,7.5-34.5,18.6-43.5l.3-.3h0c12-9.3,25.5-9.2,38.5-9.9h0c6-.3,11.6-2.1,17.5-3.4,1.5-.3,3.1,0,4.7.5,1.6.6,3.1,1.4,4.6,2.1h0c9.5,4.5,18.5,11.9,26.7,19.6h0c8.6,8.2,17.6,19.4,19.7,34.5v.7c1.2,8.4-1.3,16.5-5,24-3.7,7.5-8.6,14.4-12.4,20.7h0c-4.4,7.2-8.8,13.9-14.6,18.7-5,4.1-10.7,6.7-16.1,8.9-11.7,4.5-25,6.1-36.4,2.4-5.6-1.9-9.6-6.7-13.2-12.6l-.7-1.2c-3.7-6.3-7.3-12.6-11-19-4-6.9-8-13.8-12-20.7h0s-1.3-2.2-1.3-2.2c-3-5-6-10.2-7.4-16.6,0-.1,0-.3,0-.4,0-.1,0-.2,0-.3h0Z"/>
  </g>
  <path class="st5" d="M45.9,108.4l.9-8.2,4.7,2,9.1,3.8,12.6,2.3,14.9,1.5,16.9-1.5,16.9-3.2,9.3-5,1.2.6,1.8,13.7-3.5,7.3,2.3,8.2,6.7,9.9,1.5,4.1-3.2,1.8-3.8.9-1.2,1.5v6.4l-2.9,1.5-.3,3.2-2,2.6-2.3,1.8v4.4l.3,2.9-.9,3.2-2.3,2-7.9.9h-16.1l-2,1.8-.3,3.5,1.5,4.4.9,2.6-5.8,1.8-9.6-.9-9.9-1.2-11.1-2.9-9.9-3.8-3.2-2-.6-1.2,2.6-4.4,2.3-5.5,1.8-6.1v-7.3l-2.9-9.9-3.8-12.6-2.3-12v-12.9Z"/>
  <path class="st0" d="M120.6,62.6l-1.8,1.5-3.2,5.5-2,7.3,5.3.9,1.8-5.3,2.6-6.4-.9-2.6-1.8-.9Z"/>
  <path class="st2" d="M54.6,95l-7,3.8.6,1.5,4.7,2.6,6.1,2.6,7,2,8.5,1.2,12.3.6,14.6-.6,14.9-2.3,10.2-3.5,5.3-3.5-1.2-1.8-5.5-2.6-6.4-2.6-12.3-.9-8.2-2h-24.5l-19,5.5Z"/>
  <path class="st0" d="M95.5,72.2l.9,3.8,1.2,2.3,4.4.9,3.8-3.2,2.6,1.5,2.9,2.6-4.1,4.4,2,3.8,5.8.9,1.2,1.8v4.7l-1.8,1.2-5-.3-1.8,2.9v2.3l2.9,2.3v2.9l-7-.9h-2.6l-3.5,1.5v1.8h-7.9l-2-2.3-3.5-1.2-2,1.8-1.8.9-2.3-.9-.6-2.9,1.5-4.1-2.3-4.1-2-3.5,2-3.8,2.9-4.7-2.9-2v-3.2l1.5-2.6,2.3-.6h.9l2.6,2.6,3.8-.3,1.2-3.2.9-2.9h5.8ZM89.4,85.9l-3.8,3.2-1.2,3.8,2,4.7,3.8,2.6h6.1l4.4-2.6.9-4.7-1.5-3.2-2.6-3.8-5-1.2-3.2,1.2Z"/>
  <path class="st0" d="M75.7,76.9l-1.8-5.5-3.8-3.5-6.1-2.3-8.2.6-5.3,3.5-5,6.4,2.3,9.9,7.9,5.5h7.6l8.2-4.1,3.2-4.1.9-6.4Z"/>
  <path class="st0" d="M132.3,72.5l-12.6,18.7,3.2,2.3,9.3-14.9,3.5-4.4,2-3.2,2.9-1.2,2-5v-5.3l-3.8,2-4.7,3.2v5l-2,2.6Z"/>
  <path class="st0" d="M60.8,91.8h-3.8v2l.6,3.8,1.8,3.8,2,3.2,4.7,2.9h3.8l6.1-1.8,1.5-3.2v-3.2l-1.5-4.1-1.8-4.1-1.2-2.3h-1.8l-3.5,1.5-2.6.9-4.4.6Z"/>
  <path class="st9" d="M97.6,77.6l3.8,1.2,4.6-4.4,6.1,4.6c-.1-.9.9-1.4,1-2.2.2-.7,0-1.5.2-2.3.5-2.2,2.2-4.4,2.8-6.7-1.6,1.2-2.4,5.6-3.6,6.7-.5.4-1.5.4-1.4-.3,1.7-3.7,3.5-7.6,6.2-10.7l.8.4c0-1,1.2-.8,2-1.1.8-.3,1.6-1.2,2.5-.4,0,0,.9,2.2.9,2.4.3,1.5-2.3,6.4-3,8.1-.4,1-1.1,4.2-1.9,4.7-.3.2-1.2.3-1.3.4-.1.2,0,.9,0,1.3-.2.7-.4,1.4-.7,2.1-.7,1.8-2.3,4.9-2.5,6.6,0,.6,0,.3.4.4.4,0,2.1.2,2.3.3l.3,2.7,1.1.2c3-4.4,5.9-8.7,9-13,1.8-2.6,3.8-5.6,5.8-8,.2-.2.6-.3.7-.4,0-.1-.1-2,0-2.8.8-4.6,4.3-5.7,7.8-8,.6-.4,1.3-1.4,1.9-1.2.8.2.1,2.2.1,2.8,0,1.5.4,3,.3,4.5-.3,3-2.7,6.1-6.2,6.1-.4,2.2-2.1,4-3.8,5.6l-10.3,16.3c2.3,1.2,6.7,2.7,8.5,4.3.9.8.4,1.1.6,1.9,1.5,4.4,3.7,11.3,2.1,15.8-.7,1.9-3.2,5.9-3,7.6.2,1.4,3,7.3,3.8,8.8,1.4,2.6,5.9,8,6.2,10.6.3,2.2-2.7,3.8-4.7,4.3-1,.2-2.1.1-2.9.3-1,.2-1.1,2.7-1,3.6,0,1.2,1,2.2.7,3.3-.4,1.9-2.8,2.4-2.9,2.6-.3.8.3,1.9.3,2.7,0,2.3-4.8,3.8-5.3,5.8-.2.9.5,2.8.4,3.8,0,.6-.4,1.1-.4,1.6,0,2.1.6,2.9-1.1,4.7-3.5,3.8-13.3,3.1-18.4,3-3.5,0-9.1-2-9.8,2.6-.3,2.4.7,4.5,2.2,6.4l2.7,2.6c-3.5.4-6.9,1.6-10.4,2-6.7.7-13.5-.7-19.9-2.3-8.7-2.1-17.6-5.2-25.2-9.6,1-2.2,2.8-3.8,4.1-5.9,8.9-15.1-1.3-31-4.1-46-1.5-7.8-1.7-17.7-.6-25.6.4-3,.5-3.5,3.1-5.3,1.3-.8,6.4-2.9,6.9-3.4.4-.4.2-1.1.5-1.6-10.8-2.8-14.5-15.9-6.9-23.5,1.6-1.6,5.6-4.1,8-4.6,9.5-2,18.7,3.3,20,12.2.1.1,2.1-1.9,3.3-1.7,1,.2,3.4,2.8,4.2,3.7l3-.8c.2-1.2-.4-5.5.7-6.2,1.3-.8,7.8-.7,9.3.2v6h0ZM134.9,69.9c1.4.2,1.6.9,3.1.5,2.3-.6,4-2.9,4.2-5.1,0-.6-.2-4-.7-4.1-3.6,1.6-6,5.1-6.6,8.6h0ZM121.6,67.5l.7-2.5-3.4-.7-.6,2.2,3.2,1ZM60.6,90.5c-.6-3.9-5-4.4-7-7.5-1.8-2.8-2.2-7,1.5-8.8.6-.3,1.9-.5,2.2-.7.3-.3.3-1.2.6-1.6,2.6-4.4,8.6-3.2,10.4,1.2.6,1.5.7,3.6.5,5.2-.3,3.4-3.5,7.4-1,10.5,12.4-6.8,5.9-23.6-8.4-22.5-7.9.6-13.2,7.3-11.6,14.4,1.2,5.6,6.7,9.6,12.8,9.9h0ZM120,71.2c-1.2,0-2.4-.5-3.4-1l-.4.6,3.4,1.1.4-.7ZM65.4,89.7c-3.4-4.9,2.1-10.2.3-15.5-1-3.2-4.7-3.8-6.3-.7,3,.9,5.3,5.2,3.1,7.5-3,3.2-6.2-2.7-5.8-5.2-3,.4-3,2.8-2.1,5,1.7,4.1,7.6,4.6,6.9,9.6l3.8-.8h0ZM136,71.7c-2.3-1-3.1,1.6-4.3,2.8.4.4,1.4,1,1.9.8.5-.2,2.8-3.1,2.4-3.6ZM95.4,72.9l-5.7-.2-.4,5.7c-.2.4-4.9,2.5-5.7,1.8l-3.8-4c-.4.7-2,1.4-2.3,1.8-.6.8-.4,2.9-.7,3.9,1,1.2,2.5,1.8,3.1,3.2-1.4,2.9-4.4,4.6-4.9,7.9,2.1,1.2,1.6,4.2,2.8,6.1.3.5,1.7,1.1,1.3,2.2l-1,.3c.5,1.2-1,2.6-1,3.3,0,.5.8,1.7.5,2.5.9.2,2.4.5,3.3.2.7-.2,1.3-2.5,2.7-2.4.3,0,4.2,1.7,4.8,2,.3.2.5.8,1.2.9,1.1.2,5.6.1,6.6-.2.4-.1.3-.6.7-.7.3,0,.8,0,1.1-.1,1.5-.6,2.8-1.7,4.5-1.6l5.9-16.7-2.6-3.9c.1-1.4,4.4-4,4.2-4.7l-3.5-3.6-.6.2c-1.3,1.3-3.5,4.4-5.6,3.9-.3,0-4.2-1.6-4.3-1.8-.3-.2-.8-1.2-.8-1.5v-4.6h0ZM118.1,76.3l.4-1.7-3.4-1-.8,2.5,3.8.2h0ZM60,79.6c2.2-.2-.4-4.1-1.1-3.4l1.1,3.4ZM111.1,106.5c.9.1,1.5,0,2-.8l19.2-28.7c.2-.5-1.1-.8-1.5-.7l-19.8,30.2ZM116,77.6l-1.1-.2-11,29.4c-.3.8.8,1.1,1.2.3l10.9-29.5ZM109.5,86.5l1.1-3.7-2.4,1.9c0,.2.8,2.3,1.3,1.8h0ZM75.5,88.5l2.4-3.6-1.4-1.1-2.3,3.4c0,.4,1.2,1.4,1.3,1.3h0ZM57.3,92.5c-.8,3.3,2.8,4.2,5.8,3.9,3.2-.3,10.9-2.6,10.2-6.5-.3-1.7-3.9,1.2-4.9,1.6-3.3,1.4-7.4,1.8-11,1h0ZM115.1,90.7l-1.7-.2-2.1,5.2,3.9-.2-.2-4.7ZM74.1,94.7l-4.7,2.5c-2,.8-4.9,1.4-7.1,1.4s-2.2-.5-3.4-.4c1.3,3.7,4.4,4,8.1,3.2,3.4-.7,7.9-3,7-6.8h0ZM131.4,99.1l-8.7-3.9-7.5,10.4c.5.4,7.2-2,8.3-2.4.6-.2,8.2-3.7,7.9-4ZM59.5,104.3c.8-2-1.6-2.4-2.2-4.3-.4-1.3.2-2.1,0-2.7,0-.1-1.2-1.5-1.3-1.6l-7.6,3.5c-.1.5.2.3.5.5,3.4,1.7,6.9,3.4,10.5,4.6h0ZM114.6,97.6h-4.3c-.6,2.6-2.9,4.2,1,5.7l3.4-5.7ZM61.1,103.6c0,.4,0,.8.3,1.1.3.5,5.8,1.8,6.6,1.9,1.3,0,6-1.4,6.9-2.2,1.3-1.2,1.6-3.6.6-4.9-3.3,3.6-9.5,5.7-14.5,4.2ZM131.4,101.1c-7.5,4.6-16.3,7.2-25.3,8.2-16.3,1.7-34,1.4-49.5-3.9l-9.3-4.5c-.5,7.2-.9,14.2,0,21.4,2.1,16.3,11.9,29.7,7.6,46.8-.9,3.7-2.6,7.6-5.5,10.3,0,1,8.5,4,9.9,4.5,6.5,2.2,14.2,4.4,21.1,5.4,5.8.8,10.8.6,16.5-.7-2.1-2.5-4.1-7.7-1.7-10.4,2.1-2.4,4.2-2.3,7.3-2.2,4.5.1,14.7,1.1,18.6-.6,1.4-.6,3.3-2.6,3.5-4,.2-1.6-.7-4.2-.8-6,0-.7-.1-2.1,0-2.7.4-1.2,2.9-1.3,3.9-2.2.5-.5,2-3.2.8-3.3-.3,0-2.5,1-2.3-.6.3-1.7,4.4-1.4,4.9-2.1.6-.8-.6-3-.4-4.4.1-1.3.7-2.7,1.3-3.8,2.9-.6,6-.4,8-2.9-2.5-4.9-6.2-9.3-8.6-14.3-.9-1.9-2.8-5.9-2.3-7.8.6-1.9,4-5.8,4.2-7.8l-1.9-12.5h0ZM109.7,106.7l.6-2-2.1-1.6-1.9,4.2,3.5-.6ZM75.7,106.3l-2.4,1,2.7.2-.3-1.2ZM86.2,108.3c-.8-.8-2.2-1.5-3-.4l3,.4Z"/>
  <path class="st6" d="M80.6,55.3c.4.4-2.8,3.6-3.2,4.1-1.5,1.5-3.3,3.1-5.4,3.8-.1-1,.4-1.6,1.1-2.4.7-.8,6.9-6.2,7.6-5.6Z"/>
  <path class="st6" d="M38.1,97.1c-.2-.2.7-1.3,1-1.5.8-1,5.2-4.9,6.3-5.2,3.6-.7-.9,2.8-1.7,3.4-.7.5-5,3.7-5.6,3.2h0Z"/>
  <path class="st6" d="M90.3,68c.1.6-.7.8-1.2,1-2.9,1.6-6.7,3.2-10.2,2.9-.6-.5,2.4-1.6,2.6-1.7,2.6-1,5.9-2,8.7-2.3h0Z"/>
  <path class="st6" d="M42.5,75.4c0,.5-.3.6-.7.8-.8.3-2.8.6-3.8.7-3,.4-6,.6-9,.5-.2-.7,1-.6,1.4-.8,3.8-.9,8.1-1.3,12.1-1.2Z"/>
  <path class="st6" d="M63.8,49.4c.3,1.2-1.3,9.6-2.3,9.6-.9-1.3-.3-3.3,0-4.7.2-1,.9-3.3,1.4-4.2.2-.4.3-.8,1-.7h0Z"/>
  <path class="st6" d="M53.6,61.3c-.5,0-.6,0-.9-.2-.8-.6-3.5-6.6-3.5-7.6,0-.2,0-.8.3-.8.8,0,4.7,7.3,4.2,8.6h0Z"/>
  <path class="st6" d="M44.4,67.5c-.6.5-6.9-2.3-7.8-2.8-.9-.4-2.9-1.2-2.7-2.1.3-.4,8.6,3.2,9.4,3.7.5.3,1.2.7,1.2,1.3Z"/>
  <path class="st6" d="M32.5,88.7c0-.6.4-.7.8-.9,1.6-.8,7.1-2.7,8.9-2.8.3,0,1.1-.1,1.1.3,0,.8-9.4,3.2-10.8,3.3Z"/>
  <path class="st7" d="M119.2,73.4c-.9-.5-2-.5-3-.9-.4-.2-.7,0-.5-.6.4,0,4.2.9,3.5,1.5Z"/>
  <path class="st8" d="M92.7,84.1c3.7-.2,7.5,2.6,8.9,5.6,4.9,10.6-12.3,16-16.9,6.6-2.8-5.6,1.3-11.8,8-12.1h0ZM99.2,88.7c-2.3-2.6-5.1-3.6-8.7-2.4-1.2.4-1.9,1.1-3,1.6,0,.4,1.4.5,1.7.5,1.1,0,2.1-.3,3-.3,2.2,0,4.6.6,6.9.5h0ZM100.6,91c-2.3,0-4.7-.6-6.9-.8-1.6,0-5.6-.2-6.9,0-2.2.4-1.1,4.5-.3,5.8,3.5,5.9,14.1,3.2,14.3-3.1,0-.6-.3-1.4-.2-2h0Z"/>
</svg>