<?xml version="1.0" encoding="UTF-8"?>
<svg id="Calque_1" xmlns="http://www.w3.org/2000/svg" version="1.1" xmlns:xlink="http://www.w3.org/1999/xlink" viewBox="0 0 182.1 182.1">
  <!-- Generator: Adobe Illustrator 29.3.1, SVG Export Plug-In . SVG Version: 2.1.0 Build 151)  -->
  <defs>
    <style>
      .st0, .st1, .st2, .st3, .st4, .st5 {
        fill: #0f0e54;
      }

      .st0, .st1, .st6 {
        stroke: #0f0e54;
        stroke-miterlimit: 10;
        stroke-width: .3px;
      }

      .st1, .st2 {
        fill-opacity: .8;
      }

      .st7 {
        fill: #43745c;
      }

      .st8, .st9, .st6 {
        fill: none;
      }

      .st3 {
        fill-opacity: .7;
      }

      .st10 {
        fill: url(#Dégradé_sans_nom_2);
      }

      .st11 {
        fill: #27ccbc;
      }

      .st11, .st4, .st12 {
        fill-opacity: .3;
      }

      .st9 {
        stroke: #27ccbc;
        stroke-opacity: .2;
        stroke-width: 1.1px;
      }

      .st13 {
        fill: url(#Dégradé_sans_nom);
      }

      .st12 {
        fill: #4bbab3;
      }
    </style>
    <clipPath id="clippath">
      <path class="st8" d="M79.6,6.7c18.5,2.9,30.3,14.8,42,25.3,5.4,4.8,11.7,8.2,17.8,12.2,3.4,2.3,4.6,6.6,6,10.2,4.4,11.6,6.1,25,6.7,37.9.6,13.9-1,30.5-12.2,44.2-12.3,14.9-35.5,16.5-52.3,19.6-9.8,1.8-19.1,3.2-28.2,1.9-7.8-1.1-14.9-3.9-21.3-6.9-14-6.5-26.8-16.7-33.5-29.4-3.6-6.8-2.7-14.5-.6-22.8,2-7.9,4.2-15.9,6.2-23.9,2.3-8.7,4.5-17.4,6.9-26.1,1.9-7.3,3.4-14.9,8.2-21.9.2-.2.3-.4.5-.6.4-.7.9-1.4,1.5-2.1C40.6,8.8,62.6,4.1,79.7,6.7h0Z"/>
    </clipPath>
    <clipPath id="clippath-3">
      <path class="st8" d="M79.6,6.7c18.5,2.9,30.3,14.8,42,25.3,5.4,4.8,11.7,8.2,17.8,12.2,3.4,2.3,4.6,6.6,6,10.2,4.4,11.6,6.1,25,6.7,37.9.6,13.9-1,30.5-12.2,44.2-12.3,14.9-35.5,16.5-52.3,19.6-9.8,1.8-19.1,3.2-28.2,1.9-7.8-1.1-14.9-3.9-21.3-6.9-14-6.5-26.8-16.7-33.5-29.4-3.6-6.8-2.7-14.5-.6-22.8,2-7.9,4.2-15.9,6.2-23.9,2.3-8.7,4.5-17.4,6.9-26.1,1.9-7.3,3.4-14.9,8.2-21.9.2-.2.3-.4.5-.6.4-.7.9-1.4,1.5-2.1C40.6,8.8,62.6,4.1,79.7,6.7h0Z"/>
    </clipPath>
    <linearGradient id="Dégradé_sans_nom" data-name="Dégradé sans nom" x1="32" y1="166.4" x2="114.7" y2="36.5" gradientTransform="translate(0 186) scale(1 -1)" gradientUnits="userSpaceOnUse">
      <stop offset="0" stop-color="#4bbab3" stop-opacity=".6"/>
      <stop offset=".9" stop-color="#225451" stop-opacity="0"/>
    </linearGradient>
    <clipPath id="clippath-6">
      <rect class="st8" x="33.1" y="45.4" width="93.6" height="133"/>
    </clipPath>
    <linearGradient id="Dégradé_sans_nom_2" data-name="Dégradé sans nom 2" x1="33.1" y1="140.2" x2="126.2" y2="8.8" gradientTransform="translate(0 186) scale(1 -1)" gradientUnits="userSpaceOnUse">
      <stop offset="0" stop-color="#0f0e54" stop-opacity=".5"/>
      <stop offset=".3" stop-color="#181787" stop-opacity=".2"/>
      <stop offset="1" stop-color="#211fba" stop-opacity="0"/>
    </linearGradient>
    <clipPath id="clippath-9">
      <path class="st8" d="M124.2,96.1l8.4-.3,2.6,1.6c3.6,0,7.1,2.2,8.4,3.2.8,1.4,2.6,6.3,4.2,14.5,1.5,8.3,4.1,12.1,5.2,12.9,1.8,6.5,14.5,16.7,20.7,21-.5,7.8-9.3,11.2-13.6,11.9l-1-1.6-2.6-2.3-2.3-2.3-2.9-3.2-4.5-3.6-3.2-2.6-2.9-1.6-3.6-1-2.9-1-2.3-1-4.8-2.6-4.5-3.2-4.5-3.9-1.6-1.9-5.8-3.6-.3.6.6,1.9.6,2.3-.6,1-1.3.3-1,.6-1,1-1.6.6h-1l-.6-.3-1.3-1.9-.6-1.9-1-1.6h-.6l-2.3,1-1.6-.6-1-1.6.3-1.3.3-3.2-1.3-5.2-1-.3-.3-1.6-.6-.6,2.6-2.6,1.6-1.3v-1.9l.6-2.3,1.3-2.3,1.6-3.2,3.6-5.2,1.3-1.3,2.3-.6h1.9l1,.3.6-.6,2.6-1.9,9.7,4.2ZM116.7,111l-1.6.6-1,.6-1.3,1.6-1.9,1.6,1.6,1.3,1.9.6,2.3.3,2.9.6h3.9l.3-1-1.3-1.3-.6-1.3-1-1-1.3-.6-1.3-1-.3-1.6-1.3.3Z"/>
    </clipPath>
    <clipPath id="clippath-12">
      <polygon class="st8" points="149.7 83.2 149.4 81.2 148.1 80.6 146.1 80.3 146.1 81.2 144.2 82.2 142.2 83.5 138.4 85.8 133.5 88.7 132.2 90 131.6 91.6 130.3 92.2 125.5 95.4 117.7 100.9 102.9 112.6 103.2 113.5 106.7 114.5 109 113.2 111.2 111.6 134.2 94.5 135.5 94.5 149 85.4 149.7 83.2"/>
    </clipPath>
    <clipPath id="clippath-15">
      <polygon class="st8" points="99 119.3 98.3 117.1 97.4 117.4 95.7 118.4 94.5 119.7 94.1 121 92.8 121.6 91.5 123.2 90.9 124.5 91.9 125.2 93.8 124.5 95.4 122.6 96.4 122.3 99 120.6 99 119.3"/>
    </clipPath>
    <clipPath id="clippath-18">
      <rect class="st8" x="47.6" y="133.2" width="11.3" height="10.3"/>
    </clipPath>
    <clipPath id="clippath-21">
      <rect class="st8" x="47.3" y="117.7" width="11.3" height="10.3"/>
    </clipPath>
    <clipPath id="clippath-24">
      <rect class="st8" x="48" y="101.6" width="11.3" height="10.3"/>
    </clipPath>
    <clipPath id="clippath-27">
      <rect class="st8" x="48" y="86.1" width="11.3" height="10.3"/>
    </clipPath>
    <clipPath id="clippath-30">
      <path class="st8" d="M72.7,43.7v-3.8c.3-.8,1.6-.5,2.3-.5v-2l1-.2v-1.8c2.6-.6,4.9,0,7.4,0-.5,1,.6,1.3.7,1.5.2.6-.2,2.4,0,2.6h1.7v1.5l1,.2v2.6h41.3v32.6c-1.1,2.7-.6,5.6-.7,8.5l.7-.3v8.3l3-1.7c.4-1.8,1.9-2.6,3.4-3.7,1-.7,6.2-3.4,6.3-3.7.1-.3.2-.9-.5-.8-2,.6-5.9,4.8-8.2,3.9-.4-.1-.9-.7-.5-1.1l12.8-7,1,.6-4,2,.3,1.5c.4.2,4.3-3,4.9-3.1.4,0,.7.4,1,.5.5,0,1.1-.8,2.2-.4.5.2,1.7,2.1,1.6,2.7,0,.1-.8,1.8-.9,1.9-.8,1.2-12.7,9.4-14.4,10.2-1.3.6-.7,0-2.1,1.1-4.7,3.5-9.6,7-14.5,10.2.6,1.1,1.8,1.4,2.8,1.8l-.4.6c-1.4,0-2.4-.7-3-1.8-3.7,2.3-6.9,5.6-10.9,7.4.4.6,2,1,2.7.8,1.8-.5,2.4-3.2,3.4-3.7.5-.3,1.4-.3,2.1-.6.6-.2,3.1-1.6,3.4-1.5,1.3.2,0,1.8-.8,2,.3,1.5,2.9,2.3,3.5,3,.7.9.3,2.2,2.2,2.9,1.5.5,3.1-2.6,4.3-3.1.5-.2,1.3,0,1.3.3,0,.7-4.5,4.4-5.3,4.7-2.1.7-7.1-.1-9.3-.6-4.3-.9-8.2-3.3-12.7-3.9.7,1,3.2,1.3,4,2,1,.9-.9,4.3-1.7,5.3h-4c2.7,2.7,7.1,2.6,10.7,3.7,4.9,1.5,8.2,7,12.2,10,1.6,1.3,10.2,5.8,10.5,6.3.3.6-.4.5-.8.4-1.9-.5-3.7-1.8-5.6-2.4-.5.5.3,10.7,0,12.5-.1.8.1-.9,0,0-.1,1,0,2.1-.2,3.2v1.9c.1,0,.1,21.6.1,21.6H31.8V45s.6,0,.8-.3c.3-.3.1-.9.2-.9h39.9ZM74.4,41.2v9.3h10.7v-7.7h-1v-1.5c-.1,0-1.7-.4-1.7-.4v-1.2h-1.4c.4-1.3-.5-1.5-.9-2.5h-2.5l-.4,3.7-2.9.3h0ZM72.7,48h-37.4v127.5c.9-.3.9.6,1.5.7,2.7.3,13.1.3,15.7,0,.8,0,1.6,0,2.3,0,.6,0,0,0,.7,0,1.8.2,7.6.2,9.4,0,.6,0,2.1.4,4.4.3,3.2-.2,7.1.1,10.6-.3.7,0,.9.3,1.5.2,2-.2,4.8-1.2,6.3-.2h37v-38.5l-5.7-4.8v32c0,2.3.3,4.1,0,5.7H44.4l-2.6.3-1.6-.4-.4-2.9v-71.3c0-.6.2-15.2.2-15.8.2-4.3.2-8.3-.1-11.9,0-.6-.1-2.3,0-2.9.5-3.5-.2-8.9.2-12.6.7,0,0,0,.4,0,1.6-.2,7,0,8.5.2.6,0,5.8-.2,6.1-.2.5,0-1,.7-.5.6.3,0,.2-.6.5-.6.6-.1,1.8.1,2.1,0,0,0,0-.5.2-.8,0,0,.4-.1.5-.4.1-.2-.1-.8.1-.9.1,0,.6,0,.8-.1.2,0,.1-.5.1-.5h13.7v-2.5h.2ZM124.7,48h-37v2.5h13.4s-.2.8,1,.7v1.2h1.7l.3.8c1.3-.1,2.1.4,3.4.3.7,0,.9-.1,1.6-.2,1.8-.2,7.3-.2,9,0,.5,0,.8.6,1.1.8v39.1l5.7,2.4v-47.5h0ZM98.7,52.3h-36.2l-.2.8c-1.6-.3-1.8,1.8-3.4,1.5l-1,.2c-2,2.1-.8,1-3,2.9h48.7l-.4-2.4c-1.1,0-2.3-.6-2.5-1.6h-1.8l-.4-1.5h0ZM68.4,125.5c.4,0,1.1,0,1.3,0,.1,0,0-.5.2-.8.3-.4.9-.5.6-1.7h2.5l.4.9.2-.9h1c-.5,1.4.7,1.4.7,2.5h1v-.9c1.1.3,1.4-.6,1.5-.7,1.2-.3,2.7.5,2.9,1.6h2.8v-1.6c1.4-.5,1.6.5,1.9.6.4.2.9.2,1.2.3.3,0,.7,1.2,1.3.4l.2-.7h1.8l.2.9c.9-.8.7-1.8,1.4-2.8.6-.8,2-1.4,2.3-1.9.5-.8.6-2,1.8-2.6-1.8-.8-1.2-1.4-1.7-2.4-.1-.3-.6-.2-.7-.4-.4-1.6,4-4,4-4.3.1-1.6-1.4-1-1.5-2.3l-5.5-.3v-2.2h1.2l.3.9h.9v1.3c1.1.2.7-.6.7-1.2h1.7v-.9h2l.3,2.1,1.9-4.8,6-9.1h-17.4v1.2c-1-.2-2,.3-2.8.3s-1.8-.3-2.6-.3-2.3.8-3.5,0l-.2-1.2h-1.2v1.2l-4.3.3-.4-3.1h-1.2l-.2.8-1,.2v1.6c-1.1.6-2.1,0-3.3,0v-2.8h-1.7v1.6h-1.7l.4-2.7c1.5-.3,2.8-.5,4.3,0l.2,2.1h1.2v-2.1l3.3-.4v2.5c1.4-.3,1.4,1,3,.6v-1.6h1.3v-1.2h2v2c.8,0,1,.8,1.2.8,1,.3.2-2.5.5-2.8h2.3v1.8l.7-.3v1.2c1.6.3,1.9-1,3.7-.7l.2-.9h2.1v-1.2h3v1.2h3.5l.2-1.2h3.7v1.2h4.8l.4.9c1.8.3,4.2-1.2,5.6.3,1.8-3.7,3.3-3,6.7-1.7v-37.8h-11.6v1.8h1.3c-.3,1.3,1.1,1.3.7,2.8l1,.2v1.1h-56.1c.5-1-.6-1.2-.7-1.7,0-.5,0-1.7,0-2.1,0,0,1.3-.8.7-2.1h-12v113h76.1v-36.6c-1.9-1.6-3.7-3.9-6.3-4.5.1,1.6,1.6,3,.8,4.6,0,0-1.4,1.6-1.5,1.7-.5.2-1-.1-1.3,0-.4.1-.6.8-1,.9-.7.3-2.5.5-3.5.8-.9-.3-2.5-4.8-2.9-5.8-.4-.4-2.1,1.8-4.3.5-.1,0-1.4-1.4-1.4-1.5-.6-1.4.7-3.7.8-5.2-.3-.3-2.8,2.3-3.2,2.4-.8.4-1.5.2-2.1.5-.5.2-.7,1-1.5,1.1-.6,0-1.3-.3-2-.3h-8.3l-.4-1h-1.8l-.2,1h-4.2l-.3-1.9c.4,1.6-1.3.8-2.3.9.5,1.5-1,1.5-.7,2.8h-1.3v-2.8h-1.3v-1.6h-1.7v1.6h-1.3l-.2.9h-1.5v-1.9h1.3l.4-1.5c1.8.2,2.3-1.1,4.3-.7v3.1h.2ZM146.1,86.3c3.5-1.5,3.8-2.8.8-5.2l-3.1,1.8,2.3,3.4ZM145.1,87.5c.6-.7-2.2-2.7-2.3-3.6-2.2-.5.6,3.2,1.2,3.6.3.2,1.1,0,1.2,0h0ZM141.1,85.1l-1.3.5c.8.6,1,1.6,1.5,2.3.3.3.9,1.4,1.3,1.3.9-.2.2-.7,0-.9-.5-1-1.3-1.9-1.5-3.1h0ZM140.4,90.3l.6-.7c-1-.6-1.5-3.6-2.8-3.3-.8.1-.3.7-.1,1,.6,1.2,1.8,1.8,2.3,3ZM137.1,87.2l-1.3.8,3.1,3.5c1.2-.8-.4-1.4-.8-2.1-.4-.7-.9-1.5-1.1-2.3h0ZM135,88.4l-2.5,2c1.7,1.6,2.7,5.1,5,1.9l-2.5-3.9h0ZM103.1,113.1c1.2-.1,3,.8,4.1.6,1.4-.3,6-4.5,7.4-5.5,6.4-4.7,12.8-9.3,19.1-14.1l-1.6-2.2c-.3-.2-.7.2-1,.3-4.1,2.4-9.5,6.4-13.4,9.3-5,3.7-9.7,7.9-14.7,11.6h.1ZM123.4,96.5c.3-.4-8-3.4-8.7-3.9h-.7c-.8.3-2.5,3.5-2.9,4.4-.8,1.6-1.2,4.2-1.9,5.4-2.1,3.3-6.9,6-9.4,8.5-.7.6-.9,2.4-1.8,3.2-.9.8-3.6,1.2-3.2,2.3.2.3,1.9.5,2.1.4.4,0,.7-.9,1.2-1.3,1.7-1.2,3.4-1.6,4.7-3.7l12.4-9.5c.8-.9-.5-4.7-.4-6.1,1.2-1.1,2.4,3.8,1.7,4.6l7-4.3h0ZM111.1,94.6c-1.6,0-4.2,0-5.3,1.1-2.6,4.6-6.7,8.7-7.3,14.1,1,.1,1.6-.3,2.3-.8,1.8-1.4,5.6-4.9,6.9-6.6,1.4-2,1.8-5.6,3.5-7.7ZM94.4,114.7c2.2,0,3-1.5,3.7-3.1-1.2,1-2.7,1.8-3.7,3.1ZM117.4,111.9c-3-.4-3,2.6-5.3,3.6-.1.7.2.4.5.5,1.4.6,3.4.9,4.9,1.2v-5.3ZM121.3,114.8c-.5-.5-1.8-.7-2.2-1.3v4l4.3.3c-1-.6-1.6-2.5-2.1-3ZM104.4,120.5c0-1.3,1.7-2.5.6-3.7-1.4-1.5-4.4-1.6-6.1-.6-.2,2.6,2.9,4.7,5.6,4.2ZM94.4,120.2c1.3,2.5,2.5,1.6,4-.2l-.6-2.3-3.4,2.5ZM102.8,123.9c-.7,0-1.4-.4-2-.8-.5-.3-2.1-2.5-2.7-1.2-.1.2,1,.3,1.3.5.8.8.6,3.6.3,4.6-.3,1-1.1.9-1.5,1.5,3.5.3,3.2-2.7,4.7-4.6h0ZM94.4,121.8c-.4-.3-3.1,2-2.6,2.8.5.4,2.7-1.3,2.9-1.7l-.3-1h0ZM98.3,127c.1-1.4,1.3-3.7-1-3.9l-.7,4.3,1.6-.4ZM107.1,133.2c2.4-.6.6-7-.4-7.6l-3.7-1.4-.7,4.3c3.7-1.7,5,1.8,4.7,4.7ZM109.1,126.1h-.7c0,.1.7,3.5.7,3.5l2,1.4c.1-1.9-1.3-3.3-2-4.9h0ZM103.4,128.9c-.3,1.8.7,3.5,1.8,4.9,1.6,0,.4-5.5-1.8-4.9Z"/>
    </clipPath>
  </defs>
  <g>
    <path class="st12" d="M79.6,6.7c18.5,2.9,30.3,14.8,42,25.3,5.4,4.8,11.7,8.2,17.8,12.2,3.4,2.3,4.6,6.6,6,10.2,4.4,11.6,6.1,25,6.7,37.9.6,13.9-1,30.5-12.2,44.2-12.3,14.9-35.5,16.5-52.3,19.6-9.8,1.8-19.1,3.2-28.2,1.9-7.8-1.1-14.9-3.9-21.3-6.9-14-6.5-26.8-16.7-33.5-29.4-3.6-6.8-2.7-14.5-.6-22.8,2-7.9,4.2-15.9,6.2-23.9,2.3-8.7,4.5-17.4,6.9-26.1,1.9-7.3,3.4-14.9,8.2-21.9.2-.2.3-.4.5-.6.4-.7.9-1.4,1.5-2.1C40.6,8.8,62.6,4.1,79.7,6.7h0Z"/>
    <path class="st9" d="M27.7,24.7C40.6,9.7,61.7,4.8,78.5,7.1h0s1.1.2,1.1.2c18.3,2.9,30,14.6,41.7,25.2,5.4,4.9,11.8,8.3,17.9,12.3,1.6,1.1,2.7,2.6,3.6,4.4.9,1.8,1.5,3.7,2.2,5.5,4.4,11.5,6.1,24.9,6.7,37.8.6,13.8-1,30.3-12.1,43.8-6,7.3-14.8,11.4-24.2,14-9.4,2.6-19.3,3.8-27.8,5.3h0c-9.5,1.8-18.4,3.1-27.2,2h-.8c-7.7-1.2-14.7-4-21.2-7h0c-13.9-6.5-26.6-16.6-33.3-29.1-3.5-6.6-2.6-14.2-.5-22.4h0c2-7.9,4.2-15.9,6.2-23.9h0c2.3-8.7,4.5-17.3,6.9-26.1h0c1.9-7.3,3.3-14.8,8.1-21.7h0s0,0,0,0c.1-.2.3-.4.4-.5h0c0,0,0-.1,0-.1.4-.7.8-1.4,1.4-2h0s0,0,0,0Z"/>
  </g>
  <g>
    <path class="st13" d="M79.6,6.7c18.5,2.9,30.3,14.8,42,25.3,5.4,4.8,11.7,8.2,17.8,12.2,3.4,2.3,4.6,6.6,6,10.2,4.4,11.6,6.1,25,6.7,37.9.6,13.9-1,30.5-12.2,44.2-12.3,14.9-35.5,16.5-52.3,19.6-9.8,1.8-19.1,3.2-28.2,1.9-7.8-1.1-14.9-3.9-21.3-6.9-14-6.5-26.8-16.7-33.5-29.4-3.6-6.8-2.7-14.5-.6-22.8,2-7.9,4.2-15.9,6.2-23.9,2.3-8.7,4.5-17.4,6.9-26.1,1.9-7.3,3.4-14.9,8.2-21.9.2-.2.3-.4.5-.6.4-.7.9-1.4,1.5-2.1C40.6,8.8,62.6,4.1,79.7,6.7h0Z" shape-rendering="crispEdges"/>
    <path class="st9" d="M27.7,24.7C40.6,9.7,61.7,4.8,78.5,7.1h0s1.1.2,1.1.2c18.3,2.9,30,14.6,41.7,25.2,5.4,4.9,11.8,8.3,17.9,12.3,1.6,1.1,2.7,2.6,3.6,4.4.9,1.8,1.5,3.7,2.2,5.5,4.4,11.5,6.1,24.9,6.7,37.8.6,13.8-1,30.3-12.1,43.8-6,7.3-14.8,11.4-24.2,14-9.4,2.6-19.3,3.8-27.8,5.3h0c-9.5,1.8-18.4,3.1-27.2,2h-.8c-7.7-1.2-14.7-4-21.2-7h0c-13.9-6.5-26.6-16.6-33.3-29.1-3.5-6.6-2.6-14.2-.5-22.4h0c2-7.9,4.2-15.9,6.2-23.9h0c2.3-8.7,4.5-17.3,6.9-26.1h0c1.9-7.3,3.3-14.8,8.1-21.7h0s0,0,0,0c.1-.2.3-.4.4-.5h0c0,0,0-.1,0-.1.4-.7.8-1.4,1.4-2h0s0,0,0,0Z" shape-rendering="crispEdges"/>
  </g>
  <rect class="st10" x="33.1" y="45.4" width="93.6" height="133" shape-rendering="crispEdges"/>
  <path class="st7" d="M85.7,42.5l.6,9h-12.6l-.3-8.7.3-.3v-1.6l.6-.6,1.3-1,.6-1,1.3-2.3h3.2l1.3,1,.6,1.9,1.6,1.9,1.3,1.6Z"/>
  <path class="st3" d="M124.2,96.1l8.4-.3,2.6,1.6c3.6,0,7.1,2.2,8.4,3.2.8,1.4,2.6,6.3,4.2,14.5,1.5,8.3,4.1,12.1,5.2,12.9,1.8,6.5,14.5,16.7,20.7,21-.5,7.8-9.3,11.2-13.6,11.9l-1-1.6-2.6-2.3-2.3-2.3-2.9-3.2-4.5-3.6-3.2-2.6-2.9-1.6-3.6-1-2.9-1-2.3-1-4.8-2.6-4.5-3.2-4.5-3.9-1.6-1.9-5.8-3.6-.3.6.6,1.9.6,2.3-.6,1-1.3.3-1,.6-1,1-1.6.6h-1l-.6-.3-1.3-1.9-.6-1.9-1-1.6h-.6l-2.3,1-1.6-.6-1-1.6.3-1.3.3-3.2-1.3-5.2-1-.3-.3-1.6-.6-.6,2.6-2.6,1.6-1.3v-1.9l.6-2.3,1.3-2.3,1.6-3.2,3.6-5.2,1.3-1.3,2.3-.6h1.9l1,.3.6-.6,2.6-1.9,9.7,4.2ZM116.7,111l-1.6.6-1,.6-1.3,1.6-1.9,1.6,1.6,1.3,1.9.6,2.3.3,2.9.6h3.9l.3-1-1.3-1.3-.6-1.3-1-1-1.3-.6-1.3-1-.3-1.6-1.3.3Z" shape-rendering="crispEdges"/>
  <path class="st11" d="M149.7,83.2l-.3-1.9-1.3-.6-1.9-.3v1l-1.9,1-1.9,1.3-3.9,2.3-4.8,2.9-1.3,1.3-.6,1.6-1.3.6-4.8,3.2-7.8,5.5-14.9,11.6.3,1,3.6,1,2.3-1.3,2.3-1.6,22.9-17.1h1.3l13.6-9,.6-2.3Z"/>
  <path class="st11" d="M99,119.3l-.6-2.3-1,.3-1.6,1-1.3,1.3-.3,1.3-1.3.6-1.3,1.6-.6,1.3,1,.6,1.9-.6,1.6-1.9,1-.3,2.6-1.6v-1.3Z"/>
  <path class="st4" d="M58.9,133.2h-11.3v10.3h11.3v-10.3Z"/>
  <path class="st4" d="M58.6,117.7h-11.3v10.3h11.3v-10.3Z"/>
  <path class="st4" d="M59.3,101.6h-11.3v10.3h11.3v-10.3Z"/>
  <path class="st4" d="M59.3,86.1h-11.3v10.3h11.3v-10.3Z"/>
  <path class="st5" d="M127.1,108.8c1.1.8-2.6.8-3.5.2-.7-.4-.7-.5-.6-1.2l4,.9Z"/>
  <path class="st5" d="M63.7,105.7l.6,4h2.8v-2.5h1.3v1.2l4.3.3v-3.1c.9,0,2-.1,2.8,0,.5,0,.9,1.1,2.1.7v2.3l.9.2v.9c1.1.3.4-.7,1-.9.3-.2,1,0,1.4-.3v-2.1h2.4v2.2h2.5l.8.3-1,.2-.2.7h-2.1l-.2-1h-2.1c.4,1.3-.6,1.5-.7,2.4h-2.6l-.4-2.7h-1.3v-1.3h-1.7v1.6h-1.3l-.2.9c-1.2.1-3.1-.3-4.3,0-.2,0-.5,1-1.5.7l-.2.9h-3.1v-1.6h-1.3v-1.2l-1-.2c-.4-1.8.6-2.5,2.3-2.6h0Z"/>
  <path class="st0" d="M70.4,141.5s-.1-.5,0-.6c1.5.1,1.4-1.2,0-1v-1c1-.3,1.3-1.1,2.6-.8v3.4c1.1-.4,1.4.6,1.6.6.4,0,2.5,0,2.7,0,.2-.1.2-.9.5-1.1.5-.3,1.2.4.9-1.3h1.7v1.2h3v-1.2h1.5l.2,1.2h2.5l.2-1.2h3.7v1.2h7.4c.8,4.2-2.7.7-3.5.6-2.1-.3-2.1.7-3,.7s-.7-.6-1.3-.7c-2.1-.2-9-.2-11,0-.6,0-.9.8-1.3,1.1-.3.3-.9-.1-1.1,1.1h-2.9l-.2-.9c-1.4,0-1.4,0-1.7-1.2-.8,0-1.5,0-2.3,0,0,.4,0,.8,0,1.2h-6.1l-.6-1.8h-1.3v-1.3h1.3l.2-.9h2.1v.9h-2v1.2c1.1-.4,1.4.6,1.6.6.4,0,.8,0,1.2,0,.3,0,.1.6.7.7.4,0,1.3-.6,2.8-.7h0Z"/>
  <path class="st5" d="M105.6,98c.5,0,2.6,1.6,1.3,2.2-1-.2-2.6-1.2-1.3-2.2Z"/>
  <path class="st5" d="M59.5,97h-12.3v-11.4h12.3v11.4ZM48.5,95.9h9.8v-9h-9.8v9Z"/>
  <path class="st5" d="M59.5,112.7h-12.3v-11.4h12.3v11.4ZM48.5,111.5h9.8v-9h-9.8v9Z"/>
  <path class="st5" d="M59.5,128.3h-12.3v-11.4h12.3v11.4ZM48.5,127.1h9.8v-9h-9.8v9Z"/>
  <path class="st5" d="M59.5,143.9h-12.3v-11.4h12.3v11.4ZM48.5,142.7h9.8v-9h-9.8v9Z"/>
  <g>
    <path class="st2" d="M72.7,43.7v-3.8c.3-.8,1.6-.5,2.3-.5v-2l1-.2v-1.8c2.6-.6,4.9,0,7.4,0-.5,1,.6,1.3.7,1.5.2.6-.2,2.4,0,2.6h1.7v1.5l1,.2v2.6h41.3v32.6c-1.1,2.7-.6,5.6-.7,8.5l.7-.3v8.3l3-1.7c.4-1.8,1.9-2.6,3.4-3.7,1-.7,6.2-3.4,6.3-3.7.1-.3.2-.9-.5-.8-2,.6-5.9,4.8-8.2,3.9-.4-.1-.9-.7-.5-1.1l12.8-7,1,.6-4,2,.3,1.5c.4.2,4.3-3,4.9-3.1.4,0,.7.4,1,.5.5,0,1.1-.8,2.2-.4.5.2,1.7,2.1,1.6,2.7,0,.1-.8,1.8-.9,1.9-.8,1.2-12.7,9.4-14.4,10.2-1.3.6-.7,0-2.1,1.1-4.7,3.5-9.6,7-14.5,10.2.6,1.1,1.8,1.4,2.8,1.8l-.4.6c-1.4,0-2.4-.7-3-1.8-3.7,2.3-6.9,5.6-10.9,7.4.4.6,2,1,2.7.8,1.8-.5,2.4-3.2,3.4-3.7.5-.3,1.4-.3,2.1-.6.6-.2,3.1-1.6,3.4-1.5,1.3.2,0,1.8-.8,2,.3,1.5,2.9,2.3,3.5,3,.7.9.3,2.2,2.2,2.9,1.5.5,3.1-2.6,4.3-3.1.5-.2,1.3,0,1.3.3,0,.7-4.5,4.4-5.3,4.7-2.1.7-7.1-.1-9.3-.6-4.3-.9-8.2-3.3-12.7-3.9.7,1,3.2,1.3,4,2,1,.9-.9,4.3-1.7,5.3h-4c2.7,2.7,7.1,2.6,10.7,3.7,4.9,1.5,8.2,7,12.2,10,1.6,1.3,10.2,5.8,10.5,6.3.3.6-.4.5-.8.4-1.9-.5-3.7-1.8-5.6-2.4-.5.5.3,10.7,0,12.5-.1.8.1-.9,0,0-.1,1,0,2.1-.2,3.2v1.9c.1,0,.1,21.6.1,21.6H31.8V45s.6,0,.8-.3c.3-.3.1-.9.2-.9h39.9ZM74.4,41.2v9.3h10.7v-7.7h-1v-1.5c-.1,0-1.7-.4-1.7-.4v-1.2h-1.4c.4-1.3-.5-1.5-.9-2.5h-2.5l-.4,3.7-2.9.3h0ZM72.7,48h-37.4v127.5c.9-.3.9.6,1.5.7,2.7.3,13.1.3,15.7,0,.8,0,1.6,0,2.3,0,.6,0,0,0,.7,0,1.8.2,7.6.2,9.4,0,.6,0,2.1.4,4.4.3,3.2-.2,7.1.1,10.6-.3.7,0,.9.3,1.5.2,2-.2,4.8-1.2,6.3-.2h37v-38.5l-5.7-4.8v32c0,2.3.3,4.1,0,5.7H44.4l-2.6.3-1.6-.4-.4-2.9v-71.3c0-.6.2-15.2.2-15.8.2-4.3.2-8.3-.1-11.9,0-.6-.1-2.3,0-2.9.5-3.5-.2-8.9.2-12.6.7,0,0,0,.4,0,1.6-.2,7,0,8.5.2.6,0,5.8-.2,6.1-.2.5,0-1,.7-.5.6.3,0,.2-.6.5-.6.6-.1,1.8.1,2.1,0,0,0,0-.5.2-.8,0,0,.4-.1.5-.4.1-.2-.1-.8.1-.9.1,0,.6,0,.8-.1.2,0,.1-.5.1-.5h13.7v-2.5h.2ZM124.7,48h-37v2.5h13.4s-.2.8,1,.7v1.2h1.7l.3.8c1.3-.1,2.1.4,3.4.3.7,0,.9-.1,1.6-.2,1.8-.2,7.3-.2,9,0,.5,0,.8.6,1.1.8v39.1l5.7,2.4v-47.5h0ZM98.7,52.3h-36.2l-.2.8c-1.6-.3-1.8,1.8-3.4,1.5l-1,.2c-2,2.1-.8,1-3,2.9h48.7l-.4-2.4c-1.1,0-2.3-.6-2.5-1.6h-1.8l-.4-1.5h0ZM68.4,125.5c.4,0,1.1,0,1.3,0,.1,0,0-.5.2-.8.3-.4.9-.5.6-1.7h2.5l.4.9.2-.9h1c-.5,1.4.7,1.4.7,2.5h1v-.9c1.1.3,1.4-.6,1.5-.7,1.2-.3,2.7.5,2.9,1.6h2.8v-1.6c1.4-.5,1.6.5,1.9.6.4.2.9.2,1.2.3.3,0,.7,1.2,1.3.4l.2-.7h1.8l.2.9c.9-.8.7-1.8,1.4-2.8.6-.8,2-1.4,2.3-1.9.5-.8.6-2,1.8-2.6-1.8-.8-1.2-1.4-1.7-2.4-.1-.3-.6-.2-.7-.4-.4-1.6,4-4,4-4.3.1-1.6-1.4-1-1.5-2.3l-5.5-.3v-2.2h1.2l.3.9h.9v1.3c1.1.2.7-.6.7-1.2h1.7v-.9h2l.3,2.1,1.9-4.8,6-9.1h-17.4v1.2c-1-.2-2,.3-2.8.3s-1.8-.3-2.6-.3-2.3.8-3.5,0l-.2-1.2h-1.2v1.2l-4.3.3-.4-3.1h-1.2l-.2.8-1,.2v1.6c-1.1.6-2.1,0-3.3,0v-2.8h-1.7v1.6h-1.7l.4-2.7c1.5-.3,2.8-.5,4.3,0l.2,2.1h1.2v-2.1l3.3-.4v2.5c1.4-.3,1.4,1,3,.6v-1.6h1.3v-1.2h2v2c.8,0,1,.8,1.2.8,1,.3.2-2.5.5-2.8h2.3v1.8l.7-.3v1.2c1.6.3,1.9-1,3.7-.7l.2-.9h2.1v-1.2h3v1.2h3.5l.2-1.2h3.7v1.2h4.8l.4.9c1.8.3,4.2-1.2,5.6.3,1.8-3.7,3.3-3,6.7-1.7v-37.8h-11.6v1.8h1.3c-.3,1.3,1.1,1.3.7,2.8l1,.2v1.1h-56.1c.5-1-.6-1.2-.7-1.7,0-.5,0-1.7,0-2.1,0,0,1.3-.8.7-2.1h-12v113h76.1v-36.6c-1.9-1.6-3.7-3.9-6.3-4.5.1,1.6,1.6,3,.8,4.6,0,0-1.4,1.6-1.5,1.7-.5.2-1-.1-1.3,0-.4.1-.6.8-1,.9-.7.3-2.5.5-3.5.8-.9-.3-2.5-4.8-2.9-5.8-.4-.4-2.1,1.8-4.3.5-.1,0-1.4-1.4-1.4-1.5-.6-1.4.7-3.7.8-5.2-.3-.3-2.8,2.3-3.2,2.4-.8.4-1.5.2-2.1.5-.5.2-.7,1-1.5,1.1-.6,0-1.3-.3-2-.3h-8.3l-.4-1h-1.8l-.2,1h-4.2l-.3-1.9c.4,1.6-1.3.8-2.3.9.5,1.5-1,1.5-.7,2.8h-1.3v-2.8h-1.3v-1.6h-1.7v1.6h-1.3l-.2.9h-1.5v-1.9h1.3l.4-1.5c1.8.2,2.3-1.1,4.3-.7v3.1h.2ZM146.1,86.3c3.5-1.5,3.8-2.8.8-5.2l-3.1,1.8,2.3,3.4ZM145.1,87.5c.6-.7-2.2-2.7-2.3-3.6-2.2-.5.6,3.2,1.2,3.6.3.2,1.1,0,1.2,0h0ZM141.1,85.1l-1.3.5c.8.6,1,1.6,1.5,2.3.3.3.9,1.4,1.3,1.3.9-.2.2-.7,0-.9-.5-1-1.3-1.9-1.5-3.1h0ZM140.4,90.3l.6-.7c-1-.6-1.5-3.6-2.8-3.3-.8.1-.3.7-.1,1,.6,1.2,1.8,1.8,2.3,3ZM137.1,87.2l-1.3.8,3.1,3.5c1.2-.8-.4-1.4-.8-2.1-.4-.7-.9-1.5-1.1-2.3h0ZM135,88.4l-2.5,2c1.7,1.6,2.7,5.1,5,1.9l-2.5-3.9h0ZM103.1,113.1c1.2-.1,3,.8,4.1.6,1.4-.3,6-4.5,7.4-5.5,6.4-4.7,12.8-9.3,19.1-14.1l-1.6-2.2c-.3-.2-.7.2-1,.3-4.1,2.4-9.5,6.4-13.4,9.3-5,3.7-9.7,7.9-14.7,11.6h.1ZM123.4,96.5c.3-.4-8-3.4-8.7-3.9h-.7c-.8.3-2.5,3.5-2.9,4.4-.8,1.6-1.2,4.2-1.9,5.4-2.1,3.3-6.9,6-9.4,8.5-.7.6-.9,2.4-1.8,3.2-.9.8-3.6,1.2-3.2,2.3.2.3,1.9.5,2.1.4.4,0,.7-.9,1.2-1.3,1.7-1.2,3.4-1.6,4.7-3.7l12.4-9.5c.8-.9-.5-4.7-.4-6.1,1.2-1.1,2.4,3.8,1.7,4.6l7-4.3h0ZM111.1,94.6c-1.6,0-4.2,0-5.3,1.1-2.6,4.6-6.7,8.7-7.3,14.1,1,.1,1.6-.3,2.3-.8,1.8-1.4,5.6-4.9,6.9-6.6,1.4-2,1.8-5.6,3.5-7.7ZM94.4,114.7c2.2,0,3-1.5,3.7-3.1-1.2,1-2.7,1.8-3.7,3.1ZM117.4,111.9c-3-.4-3,2.6-5.3,3.6-.1.7.2.4.5.5,1.4.6,3.4.9,4.9,1.2v-5.3ZM121.3,114.8c-.5-.5-1.8-.7-2.2-1.3v4l4.3.3c-1-.6-1.6-2.5-2.1-3ZM104.4,120.5c0-1.3,1.7-2.5.6-3.7-1.4-1.5-4.4-1.6-6.1-.6-.2,2.6,2.9,4.7,5.6,4.2ZM94.4,120.2c1.3,2.5,2.5,1.6,4-.2l-.6-2.3-3.4,2.5ZM102.8,123.9c-.7,0-1.4-.4-2-.8-.5-.3-2.1-2.5-2.7-1.2-.1.2,1,.3,1.3.5.8.8.6,3.6.3,4.6-.3,1-1.1.9-1.5,1.5,3.5.3,3.2-2.7,4.7-4.6h0ZM94.4,121.8c-.4-.3-3.1,2-2.6,2.8.5.4,2.7-1.3,2.9-1.7l-.3-1h0ZM98.3,127c.1-1.4,1.3-3.7-1-3.9l-.7,4.3,1.6-.4ZM107.1,133.2c2.4-.6.6-7-.4-7.6l-3.7-1.4-.7,4.3c3.7-1.7,5,1.8,4.7,4.7ZM109.1,126.1h-.7c0,.1.7,3.5.7,3.5l2,1.4c.1-1.9-1.3-3.3-2-4.9h0ZM103.4,128.9c-.3,1.8.7,3.5,1.8,4.9,1.6,0,.4-5.5-1.8-4.9Z"/>
    <path class="st6" d="M127.9,152.3c.3-1.8-.5-12,0-12.5,1.9.6,3.7,1.9,5.6,2.4.4,0,1.1.1.8-.4-.3-.5-8.9-5.1-10.5-6.3-4-3.1-7.3-8.5-12.2-10-3.6-1.1-8-1-10.7-3.9h4c.8-.8,2.6-4.2,1.7-5.1-.8-.8-3.3-1-4-2,4.5.5,8.4,2.9,12.7,3.9,2.3.5,7.2,1.3,9.3.6.9-.3,5.3-4,5.3-4.7s-.8-.6-1.3-.3c-1.2.5-2.8,3.6-4.3,3.1-1.9-.7-1.5-2-2.2-2.9-.6-.7-3.2-1.5-3.5-3,.8-.2,2.1-1.8.8-2-.3,0-2.8,1.2-3.4,1.5-.7.3-1.6.3-2.1.6-1,.6-1.5,3.2-3.4,3.7-.7.2-2.3-.2-2.7-.8,4-1.8,7.2-5.1,10.9-7.4.6,1.2,1.6,1.7,3,1.8l.4-.6c-1.1-.5-2.3-.7-2.8-1.8,4.9-3.2,9.9-6.7,14.5-10.2,1.4-1.1.8-.5,2.1-1.1,1.7-.8,13.6-9,14.4-10.2.1-.1.9-1.8.9-1.9.2-.6-1.1-2.4-1.6-2.7-1.1-.5-1.7.4-2.2.4-.3,0-.6-.5-1-.5-.6,0-4.5,3.3-4.9,3.1l-.3-1.5,4-2-1-.6-12.8,7c-.4.4.2.9.5,1.1,2.2,1,6.2-3.3,8.2-3.9.7-.2.6.4.5.8-.1.3-5.3,3.1-6.3,3.7-1.5,1-2.9,1.9-3.4,3.7l-3,1.7v-8.3l-.7.3c.1-2.8-.5-5.7.7-8.5v-32.6h-41.3v-2.6l-1-.2v-1.5h-1.7c-.2-.1.2-2,0-2.6,0-.1-1.1-.5-.7-1.5-2.5,0-4.8-.6-7.4,0v1.8l-1,.2v2c-.7,0-2-.2-2.3.5v3.8h-.2c0,0-39.7,0-39.7,0,0,0,.1.6-.2.9-.3.3-.8.3-.8.3v134h96.1v-23.6c0-1,0-2.1,0-3.2ZM127.9,152.3c-.1.8.1-.9,0,0ZM55.1,53.2c-.3,0-5.5.3-6.1.2-1.6-.2-7-.4-8.5-.2-.4,0,.3,0-.4,0-.4,3.7.3,9-.2,12.6-.1.6,0,2.3,0,2.9.3,3.6.3,7.6.1,11.9,0,.6-.2,15.2-.2,15.8v71.3l.4,2.9,1.6.4,2.6-.3h74.6c.3-1.6,0-3.4,0-5.7v-32l5.7,4.8v38.5h-37c-1.5-.9-4.3,0-6.3.2-.7,0-.9-.3-1.5-.2-3.6.4-7.4,0-10.6.3-2.3.1-3.9-.3-4.4-.3-1.8.2-7.6.2-9.4,0-.7,0,0,0-.7,0-.7,0-1.5,0-2.3,0-2.6.3-13,.3-15.7,0-.6,0-.6-.9-1.5-.7V48h37.4-.2s0,2.4,0,2.4h-13.7s.1.4-.1.5c-.3.1-.7,0-.8.1-.2.2,0,.8-.1.9-.2.2-.5.3-.5.4-.2.3-.1.7-.2.8-.3.2-1.5,0-2.1,0ZM55.1,53.2c.5,0-1,.7-.5.6.3,0,.2-.6.5-.6ZM68.2,125.5v2.8h1.3c-.3-1.3,1.1-1.3.7-2.8,1-.2,2.7.6,2.3-.9l.3,1.9h4.2l.2-1h1.8l.4,1h8.3c.7,0,1.4.3,2,.3.8,0,1-.8,1.5-1.1.6-.3,1.4-.1,2.1-.5.4-.2,2.9-2.8,3.2-2.4-.1,1.5-1.3,3.8-.8,5.2,0,0,1.3,1.4,1.4,1.5,2.2,1.4,3.9-.8,4.3-.5.4,1,2,5.5,2.9,5.8.9-.3,2.8-.5,3.5-.8.4-.1.6-.8,1-.9.4-.1.9.2,1.3,0,.1,0,1.5-1.6,1.5-1.7.8-1.6-.7-3.1-.8-4.6,2.6.6,4.5,2.8,6.3,4.5v36.6H41.1V54.7h12c.6,1.3-.7,2-.7,2.1,0,.4,0,1.6,0,2.1.1.5,1.2.7.7,1.7h56.1v-1.1l-1-.2c.4-1.5-1-1.5-.7-2.8h-1.3v-1.8h11.6v37.8c-3.4-1.2-4.9-1.9-6.7,1.7-1.5-1.5-3.8,0-5.6-.3l-.4-.9h-4.8v-1.2h-3.7l-.2,1.2h-3.5v-1.2h-3v1.2h-2.1l-.2.9c-1.8-.4-2,.9-3.7.7v-1.2l-.7.3v-1.8h-2.3c-.3.2.5,3.1-.5,2.8-.2,0-.4-.8-1.2-.8v-2h-2v1.2h-1.3v1.6c-1.6.4-1.6-.9-3-.6v-2.5l-3.3.4v2.1h-1.2l-.2-2.1c-1.5-.5-2.8-.3-4.3,0l-.4,2.7h1.7v-1.6h1.7v2.8c1.2,0,2.2.6,3.3,0v-1.6l1-.2.2-.8h1.2l.4,3.1,4.3-.3v-1.2h1.2l.2,1.2c1.2.8,2.3,0,3.5,0s1.7.3,2.6.3,1.9-.6,2.8-.3v-1.2h17.4l-6,9.1-1.9,4.8-.3-2.1h-2v.9h-1.7c0,.6.4,1.4-.7,1.2v-1.2h-.9c0,0-.3-1-.3-1h-1.2v2.2l5.5.3c.1,1.3,1.6.8,1.5,2.3,0,.3-4.4,2.7-4,4.3,0,.2.6.1.7.4.5,1-.2,1.6,1.7,2.4-1.3.6-1.3,1.8-1.8,2.6-.3.5-1.7,1-2.3,1.9-.7.9-.5,2-1.4,2.8l-.2-.9h-1.8l-.2.7c-.6.8-1-.3-1.3-.4-.3-.1-.8-.1-1.2-.3-.3-.1-.5-1.1-1.9-.6v1.6h-2.8c-.2-1-1.7-1.8-2.9-1.6-.2,0-.5,1-1.5.7v.9h-1c0-1.1-1.1-1.1-.7-2.5h-1l-.2.9-.4-.9h-2.5c.4,1.2-.3,1.3-.6,1.7-.2.3,0,.7-.2.8-.2.1-.9,0-1.3,0h-.2ZM68.2,125.5h-1.3v-1.6h-1.7v1.6h-1.3l-.2.9h-1.5v-1.9h1.3l.4-1.5c1.8.2,2.3-1.1,4.3-.7v3.1ZM74.4,41.2v9.3h10.7v-7.7h-1v-1.5c-.1,0-1.7-.4-1.7-.4v-1.2h-1.4c.4-1.3-.5-1.5-.9-2.5h-2.5l-.4,3.7-2.9.3h0ZM124.7,48h-37v2.5h13.4s-.2.8,1,.7v1.2h1.7l.3.8c1.3-.1,2.1.4,3.4.3.7,0,.9-.1,1.6-.2,1.8-.2,7.3-.2,9,0,.5,0,.8.6,1.1.8v39.1l5.7,2.4v-47.5h0ZM98.7,52.3h-36.2l-.2.8c-1.6-.3-1.8,1.8-3.4,1.5l-1,.2c-2,2.1-.8,1-3,2.9h48.7l-.4-2.4c-1.1,0-2.3-.6-2.5-1.6h-1.8l-.4-1.5h0ZM146.1,86.3c3.5-1.5,3.8-2.8.8-5.2l-3.1,1.8,2.3,3.4ZM145.1,87.5c.6-.7-2.2-2.7-2.3-3.6-2.2-.5.6,3.2,1.2,3.6.3.2,1.1,0,1.2,0h0ZM141.1,85.1l-1.3.5c.8.6,1,1.6,1.5,2.3.3.3.9,1.4,1.3,1.3.9-.2.2-.7,0-.9-.5-1-1.3-1.9-1.5-3.1h0ZM140.4,90.3l.6-.7c-1-.6-1.5-3.6-2.8-3.3-.8.1-.3.7-.1,1,.6,1.2,1.8,1.8,2.3,3ZM137.1,87.2l-1.3.8,3.1,3.5c1.2-.8-.4-1.4-.8-2.1-.4-.7-.9-1.5-1.1-2.3h0ZM135,88.4l-2.5,2c1.7,1.6,2.7,5.1,5,1.9l-2.5-3.9h0ZM103.1,113.1c1.2-.1,3,.8,4.1.6,1.4-.3,6-4.5,7.4-5.5,6.4-4.7,12.8-9.3,19.1-14.1l-1.6-2.2c-.3-.2-.7.2-1,.3-4.1,2.4-9.5,6.4-13.4,9.3-5,3.7-9.7,7.9-14.7,11.6h.1ZM123.4,96.5c.3-.4-8-3.4-8.7-3.9h-.7c-.8.3-2.5,3.5-2.9,4.4-.8,1.6-1.2,4.2-1.9,5.4-2.1,3.3-6.9,6-9.4,8.5-.7.6-.9,2.4-1.8,3.2-.9.8-3.6,1.2-3.2,2.3.2.3,1.9.5,2.1.4.4,0,.7-.9,1.2-1.3,1.7-1.2,3.4-1.6,4.7-3.7l12.4-9.5c.8-.9-.5-4.7-.4-6.1,1.2-1.1,2.4,3.8,1.7,4.6l7-4.3h0ZM111.1,94.6c-1.6,0-4.2,0-5.3,1.1-2.6,4.6-6.7,8.7-7.3,14.1,1,.1,1.6-.3,2.3-.8,1.8-1.4,5.6-4.9,6.9-6.6,1.4-2,1.8-5.6,3.5-7.7ZM94.4,114.7c2.2,0,3-1.5,3.7-3.1-1.2,1-2.7,1.8-3.7,3.1ZM117.4,111.9c-3-.4-3,2.6-5.3,3.6-.1.7.2.4.5.5,1.4.6,3.4.9,4.9,1.2v-5.3ZM121.3,114.8c-.5-.5-1.8-.7-2.2-1.3v4l4.3.3c-1-.6-1.6-2.5-2.1-3ZM104.4,120.5c0-1.3,1.7-2.5.6-3.7-1.4-1.5-4.4-1.6-6.1-.6-.2,2.6,2.9,4.7,5.6,4.2ZM94.4,120.2c1.3,2.5,2.5,1.6,4-.2l-.6-2.3-3.4,2.5ZM102.8,123.9c-.7,0-1.4-.4-2-.8-.5-.3-2.1-2.5-2.7-1.2-.1.2,1,.3,1.3.5.8.8.6,3.6.3,4.6-.3,1-1.1.9-1.5,1.5,3.5.3,3.2-2.7,4.7-4.6h0ZM94.4,121.8c-.4-.3-3.1,2-2.6,2.8.5.4,2.7-1.3,2.9-1.7l-.3-1h0ZM98.3,127c.1-1.4,1.3-3.7-1-3.9l-.7,4.3,1.6-.4ZM107.1,133.2c2.4-.6.6-7-.4-7.6l-3.7-1.4-.7,4.3c3.7-1.7,5,1.8,4.7,4.7ZM109.1,126.1h-.7c0,.1.7,3.5.7,3.5l2,1.4c.1-1.9-1.3-3.3-2-4.9h0ZM103.4,128.9c-.3,1.8.7,3.5,1.8,4.9,1.6,0,.4-5.5-1.8-4.9Z"/>
  </g>
  <path class="st1" d="M151.8,126.7c-1.1,1.1-2.7-4-2.9-4.6-1.9-5.7-2.9-15.1-5.7-20-2.2-3.9-5.5-2.8-8.8-4.5-.5-.2-1-.5-.9-1.2,2.7.8,7.6,1.2,9.5,3.1,3.6,3.4,5.4,15.2,6.9,20.2.3,1.1,2.5,6.4,2,7h0Z"/>
  <path class="st1" d="M173.4,149c-.5.5-2.7-1.2-3.1-1.6-4.7-3.2-13.2-10.3-15.9-14.9-.4-.7-2-3.7-2.1-4.2q-.2-.6.4-.9c1.7,1.4,2.4,3.6,3.6,5.4,4,5.9,11.4,9.8,16.5,14.7.4.4.9.9.8,1.6Z"/>
  <path class="st2" d="M160.1,160.9c-.7.7-3.5-3.2-4-3.6-.6-.5-1.3-.8-1.9-1.4-5.3-5-9.9-10.8-17.6-12.6l-.2-.9c.8-.8,7.4,2.4,8.4,3.2,2.6,1.6,13.8,11.7,14.9,14,.3.5.4.8.3,1.4Z"/>
</svg>